<svg version="1.1" width="302" height="148" viewBox="-1 -1 302 148" xmlns="http://www.w3.org/2000/svg" xmlns:xlink="http://www.w3.org/1999/xlink">
  <!-- Exported by Scratch - http://scratch.mit.edu/ -->
  <path id="ID0.07394998567178845" fill="none" stroke="#000000" stroke-width="3" stroke-linecap="round" d="M 214.500 84 C 216.839 80.171 225.123 81.192 228 84.500 C 232.104 89.237 229.101 97.212 231.500 103 C 232.290 104.878 235.952 106.703 236.500 105 C 238.488 98.732 233.021 90.229 237 85 C 239.912 81.241 249.872 80.107 251 84.500 C 255.478 100.662 254.880 118.685 250.500 134.500 C 249.192 139.217 240.218 141.670 236.500 139 C 232.518 136.122 237.985 127.604 235.500 122.500 C 234.620 120.697 230.940 122.643 230 125 C 228.363 129.202 231.790 135.407 228.500 138.500 C 225.423 141.365 217.963 141.068 215.500 137.500 C 210.739 130.579 210.335 121.061 210 112.500 C 209.997 102.951 209.467 92.230 214.500 84 Z " transform="matrix(1, 0, 0, 1, -176, -77)"/>
  <g id="ID0.9453791552223265" transform="matrix(1, 0, 0, 1, 0, 1)">
    <path id="ID0.02188736805692315" fill="none" stroke="#000000" stroke-width="3" stroke-linecap="round" d="M 144 17 C 148.163 14.542 153.172 11.896 158 12.500 C 163.124 13.467 169.461 16.265 171 21.250 C 175.672 36.387 176.226 52.735 175.250 68.500 C 175.006 72.442 171.011 72.350 168.500 72.500 C 165.987 72.634 163.488 70.906 162 69.250 C 160.226 67.246 161.017 63.269 158.500 62 C 156.111 60.768 152.425 61.362 150.500 63.250 C 148.157 65.534 150.924 71.369 148 72.750 C 143.776 74.496 136.425 74.199 134.500 70.250 C 130.726 62.460 133.094 52.892 133.750 44.250 C 134.146 37.790 135.409 31.191 137.638 25.206 C 138.885 21.832 141.024 18.757 144 17 Z " transform="matrix(1, 0, 0, 1, -51, -11.2)"/>
    <path id="ID0.7165342345833778" fill="none" stroke="#000000" stroke-width="3" stroke-linecap="round" d="M 154.750 27.850 C 155.240 27.963 155.552 30.279 155.774 31.674 C 156.081 33.654 156.212 35.971 156.250 38.125 C 156.301 40.986 156.511 43.987 156 46.850 C 155.872 47.563 155.193 48.134 154.600 48.100 C 153.824 48.024 153.010 47.325 152.900 46.600 C 152.479 43.811 152.908 40.958 153 38.125 C 153.070 35.971 153.134 33.648 153.476 31.674 C 153.722 30.265 154.244 27.963 154.750 27.850 Z " transform="matrix(1, 0, 0, 1, -51, -11.2)"/>
  </g>
  <g id="ID0.2900418536737561" transform="matrix(1, 0, 0, 1, 0, 1)">
    <path id="ID0.7727377023547888" fill="none" stroke="#000000" stroke-width="3" stroke-linecap="round" d="M 289.750 148.500 C 296.687 148.640 304.816 147.908 310.500 152 C 315.744 155.782 318.428 163.241 318.750 169.750 C 319.012 175.098 316.138 180.461 312.500 184 C 308.917 187.501 301.536 185.424 298.750 189.250 C 295.905 193.159 300.310 199.378 298 203.750 C 296.643 206.307 292.641 206.420 289.750 206.500 C 286.951 206.573 282.635 207.216 281.750 204.750 C 278.699 196.081 279.737 186.601 279.500 177.500 C 279.278 168.999 277.232 159.865 280 151.750 C 281.219 148.585 286.329 148.430 289.750 148.500 Z " transform="matrix(1, 0, 0, 1, -148.75, -145.35)"/>
    <path id="ID0.2972961845807731" fill="none" stroke="#000000" stroke-width="3" stroke-linecap="round" d="M 298.250 161 C 299.976 162.470 300.998 164.780 301.250 167 C 301.419 168.523 300.438 170.077 299.450 171.250 C 298.734 172.051 296.841 173.529 296.483 172.522 C 295.418 169.528 296.001 166.120 296.483 162.978 C 296.617 162.105 297.578 160.428 298.250 161 Z " transform="matrix(1, 0, 0, 1, -148.75, -145.35)"/>
  </g>
  <g id="ID0.2900418536737561" transform="matrix(1, 0, 0, 1, 0, 1)">
    <path id="ID0.7727377023547888" fill="none" stroke="#000000" stroke-width="3" stroke-linecap="round" d="M 289.750 148.500 C 296.687 148.640 304.816 147.908 310.500 152 C 315.744 155.782 318.428 163.241 318.750 169.750 C 319.012 175.098 316.138 180.461 312.500 184 C 308.917 187.501 301.536 185.424 298.750 189.250 C 295.905 193.159 300.310 199.378 298 203.750 C 296.643 206.307 292.641 206.420 289.750 206.500 C 286.951 206.573 282.635 207.216 281.750 204.750 C 278.699 196.081 279.737 186.601 279.500 177.500 C 279.278 168.999 277.232 159.865 280 151.750 C 281.219 148.585 286.329 148.430 289.750 148.500 Z " transform="matrix(1, 0, 0, 1, -103.9, -145.6)"/>
    <path id="ID0.2972961845807731" fill="none" stroke="#000000" stroke-width="3" stroke-linecap="round" d="M 298.250 161 C 299.976 162.470 300.998 164.780 301.250 167 C 301.419 168.523 300.438 170.077 299.450 171.250 C 298.734 172.051 296.841 173.529 296.483 172.522 C 295.418 169.528 296.001 166.120 296.483 162.978 C 296.617 162.105 297.578 160.428 298.250 161 Z " transform="matrix(1, 0, 0, 1, -103.9, -145.6)"/>
  </g>
  <path id="ID0.3474541986361146" fill="none" stroke="#000000" stroke-width="3" stroke-linecap="round" d="M 132.500 283 C 135.847 284.103 136.407 288.914 138.250 292 C 139.989 294.994 141.128 302.773 143.250 301.250 C 147.117 298.469 146.338 288.468 150.500 283.750 C 152.406 281.640 156.152 281.907 158.750 282.750 C 161.206 283.779 163.977 286.096 164 288.750 C 164.057 295.709 160.959 302.652 158.750 309.500 C 158.028 311.780 155.765 313.596 155.250 316 C 153.763 322.936 156.627 330.896 153 336.750 C 150.442 340.811 142.917 344.394 139.500 341.250 C 134.289 336.448 136.999 327.288 134.750 320.500 C 133.798 317.626 131.303 315.355 130 312.750 C 127.755 308.251 124.742 303.815 123.750 299 C 122.963 295.163 122.460 290.568 124.370 287.250 C 125.899 284.601 129.600 282.044 132.500 283 Z " transform="matrix(1, 0, 0, 1, 93.3, -278.5)"/>
  <path id="ID0.07394998567178845" fill="none" stroke="#000000" stroke-width="3" stroke-linecap="round" d="M 214.500 84 C 216.839 80.171 225.123 81.192 228 84.500 C 232.104 89.237 229.101 97.212 231.500 103 C 232.290 104.878 235.952 106.703 236.500 105 C 238.488 98.732 233.021 90.229 237 85 C 239.912 81.241 249.872 80.107 251 84.500 C 255.478 100.662 254.880 118.685 250.500 134.500 C 249.192 139.217 240.218 141.670 236.500 139 C 232.518 136.122 237.985 127.604 235.500 122.500 C 234.620 120.697 230.940 122.643 230 125 C 228.363 129.202 231.790 135.407 228.500 138.500 C 225.423 141.365 217.963 141.068 215.500 137.500 C 210.739 130.579 210.335 121.061 210 112.500 C 209.997 102.951 209.467 92.230 214.500 84 Z " transform="matrix(0.9161783456802368, 0, 0, 1, -190.55, 2)"/>
  <g id="ID0.25604496989399195" transform="matrix(1, 0, 0, 1, 0, 1)">
    <path id="ID0.5363888028077781" fill="none" stroke="#000000" stroke-width="3" d="M 253.750 149 C 259.751 149 265.188 152.306 269.125 157.646 C 273.063 162.986 275.500 170.361 275.500 178.500 C 275.500 186.639 273.063 194.014 269.125 199.354 C 265.188 204.694 259.751 208 253.750 208 C 247.749 208 242.312 204.694 238.375 199.354 C 234.437 194.014 232 186.639 232 178.500 C 232 170.361 234.437 162.986 238.375 157.646 C 242.312 152.306 247.749 149 253.750 149 Z " transform="matrix(0.9665178656578064, 0, 0, 1, -178.55, -66.5)"/>
    <path id="ID0.7047886177897453" fill="none" stroke="#000000" stroke-width="3" stroke-linecap="round" d="M 252.250 166.500 C 253.728 166.314 254.934 168.290 255.608 169.724 C 256.469 171.563 256.531 173.544 256.500 175.500 C 256.531 178.763 256.627 182.305 255.608 185.276 C 255.087 186.772 253.765 188.443 252.250 188.500 C 251.040 188.543 250.435 186.706 250 185.500 C 249.241 183.207 248.850 180.697 248.750 178.250 C 248.650 175.742 248.766 173.089 249.500 170.750 C 249.993 169.136 250.657 166.702 252.250 166.500 Z " transform="matrix(0.9161783456802368, 0, 0, 1, -164.65, -66.5)"/>
  </g>
  <path id="ID0.1656773085705936" fill="none" stroke="#000000" stroke-width="3" stroke-linecap="round" d="M 332 81 C 334.806 80.379 338.363 81.106 340 83.250 C 342.268 86.281 341.849 90.666 342 94.250 C 342.364 102.983 339.080 112.110 341.750 120.500 C 342.712 123.520 349.326 120.082 351 122.750 C 353.186 126.294 354.592 132.943 351.250 135.750 C 346.211 139.670 338.325 139.316 332 138 C 328.438 137.255 325.997 133.138 324.931 129.647 C 322.831 122.768 323.098 115.112 323 107.750 C 322.788 100.957 321.782 93.851 324 87.250 C 325.078 84.046 328.703 81.738 332 81 Z " transform="matrix(0.9161783456802368, 0, 0, 1, -203.95, 3.25)"/>
  <path id="ID0.1893697320483625" fill="none" stroke="#000000" stroke-width="3" stroke-linecap="round" d="M 271.250 82.500 C 273.707 81.705 278.128 81.527 279 84 C 282.114 92.828 281.523 102.635 281.500 112 C 281.482 119.546 281.566 127.664 279 135 C 277.971 137.729 274.507 139.393 271.500 140 C 268.920 140.517 264.863 139.962 264 137.500 C 261.107 129.446 261.463 120.408 261.500 112 C 261.532 104.450 261.860 96.660 264.250 89.500 C 265.266 86.456 268.187 83.764 271.250 82.500 Z " transform="matrix(0.9161783456802368, 0, 0, 1, -117.55, 1.75)"/>
  <g id="ID0.44482858944684267" transform="matrix(1, 0, 0, 1, 0, 1)">
    <path id="ID0.4583680583164096" fill="none" stroke="#000000" stroke-width="3" stroke-linecap="round" d="M 293.750 14 C 297.412 15.379 300.676 18.134 302.578 21.939 C 305.822 28.512 308 35.085 308 43.500 C 308 51.915 306.658 58.895 302.578 65.061 C 299.758 69.326 294.131 72.014 289 72.500 C 283.674 73.003 275.305 72.836 273.750 67.750 C 268.828 51.641 270.415 33.973 272.250 17.250 C 272.709 13.069 276.884 13.241 279.750 12.750 C 284.183 11.991 289.384 12.148 293.750 14 Z " transform="matrix(0.9161783456802368, 0, 0, 1, -101, 69.25)"/>
    <path id="ID0.3131060153245926" fill="none" stroke="#000000" stroke-width="3" stroke-linecap="round" d="M 290.125 31.750 C 291.230 32.158 291.900 32.758 292.511 34.388 C 293.122 36.017 293.500 38.267 293.500 40.750 C 293.500 43.233 293.386 45.263 292.511 47.112 C 291.808 48.611 289.755 50.825 288.500 50.250 C 287.080 49.517 287.338 46.289 287.250 44.250 C 287.086 40.341 287.078 36.439 288 32.750 C 288.161 31.734 289.337 31.462 290.125 31.750 Z " transform="matrix(0.9161783456802368, 0, 0, 1, -101, 69.25)"/>
  </g>
  <g id="ID0.9453791552223265" transform="matrix(1, 0, 0, 1, 0, 1)">
    <path id="ID0.02188736805692315" fill="none" stroke="#000000" stroke-width="3" stroke-linecap="round" d="M 144 17 C 148.163 14.542 153.172 11.896 158 12.500 C 163.124 13.467 169.461 16.265 171 21.250 C 175.672 36.387 176.226 52.735 175.250 68.500 C 175.006 72.442 171.011 72.350 168.500 72.500 C 165.987 72.634 163.488 70.906 162 69.250 C 160.226 67.246 161.017 63.269 158.500 62 C 156.111 60.768 152.425 61.362 150.500 63.250 C 148.157 65.534 150.924 71.369 148 72.750 C 143.776 74.496 136.425 74.199 134.500 70.250 C 130.726 62.460 133.094 52.892 133.750 44.250 C 134.146 37.790 135.409 31.191 137.638 25.206 C 138.885 21.832 141.024 18.757 144 17 Z " transform="matrix(0.9161783456802368, 0, 0, 1, 61.95, 68.1)"/>
    <path id="ID0.7165342345833778" fill="none" stroke="#000000" stroke-width="2" stroke-linecap="round" d="M 154.750 27.850 C 155.240 27.963 155.552 30.279 155.774 31.674 C 156.081 33.654 156.212 35.971 156.250 38.125 C 156.301 40.986 156.511 43.987 156 46.850 C 155.872 47.563 155.193 48.134 154.600 48.100 C 153.824 48.024 153.010 47.325 152.900 46.600 C 152.479 43.811 152.908 40.958 153 38.125 C 153.070 35.971 153.134 33.648 153.476 31.674 C 153.722 30.265 154.244 27.963 154.750 27.850 Z " transform="matrix(0.9161783456802368, 0, 0, 1, 61.95, 68.1)"/>
  </g>
  <path id="ID0.3474541986361146" fill="none" stroke="#000000" stroke-width="3" stroke-linecap="round" d="M 132.500 283 C 135.847 284.103 136.407 288.914 138.250 292 C 139.989 294.994 141.128 302.773 143.250 301.250 C 147.117 298.469 146.338 288.468 150.500 283.750 C 152.406 281.640 156.152 281.907 158.750 282.750 C 161.206 283.779 163.977 286.096 164 288.750 C 164.057 295.709 160.959 302.652 158.750 309.500 C 158.028 311.780 155.765 313.596 155.250 316 C 153.763 322.936 156.627 330.896 153 336.750 C 150.442 340.811 142.917 344.394 139.500 341.250 C 134.289 336.448 136.999 327.288 134.750 320.500 C 133.798 317.626 131.303 315.355 130 312.750 C 127.755 308.251 124.742 303.815 123.750 299 C 122.963 295.163 122.460 290.568 124.370 287.250 C 125.899 284.601 129.600 282.044 132.500 283 Z " transform="matrix(0.9161783456802368, 0, 0, 1, 111.35, -199.5)"/>
  <path id="ID0.4684908613562584" fill="none" stroke="#000000" stroke-width="3" stroke-linecap="round" d="M 237.200 227 C 235.756 228.151 235.923 231.286 237.200 233 C 241.600 238.835 250.329 241.303 253.700 247.500 C 256.404 252.482 257.706 259.339 254.700 264.500 C 251.170 270.052 243.983 273.183 237.500 274 C 231.397 274.756 224.091 273.334 219.700 269 C 216.829 266.408 217.619 260.206 220.200 257.500 C 222.357 255.312 226.262 259.565 229.700 259.500 C 231.188 259.473 234.028 259.466 233.700 257.500 C 233.471 255.444 231.441 254.368 229.700 252.500 C 226.765 249.586 221.838 248.726 219.750 245 C 217.522 241.038 216.460 235.860 217.700 231.500 C 219.329 225.853 222.894 219.475 228.200 216.500 C 233.116 213.738 240.028 212.680 245.200 215 C 249.528 216.954 252.751 222.580 253.200 227.500 C 253.441 230.264 249.793 232.462 247.200 232.500 C 244.810 232.558 244.583 228.918 242.700 228 C 241.072 226.987 238.755 225.927 237.200 227 Z " transform="matrix(0.9161783456802368, 0, 0, 1, 65.1, -129.85)"/>
</svg>