<svg version="1.1" width="81" height="101" viewBox="-1 -1 81 101" xmlns="http://www.w3.org/2000/svg" xmlns:xlink="http://www.w3.org/1999/xlink">
  <!-- Exported by Scratch - http://scratch.mit.edu/ -->
  <g id="ID0.6162028051912785" transform="matrix(1, 0, 0, 1, -188, -128)">
    <path id="ID0.6205820580944419" fill="#BABABA" stroke="none" d="M 310.750 142 L 311 142 L 311 142 L 310.750 142 L 310.750 142 Z " transform="matrix(0.8119480609893799, 0, 0, 1.0613988637924194, 35.3, -7.75)"/>
    <path id="ID0.7257801904343069" fill="#494949" stroke="none" stroke-linecap="round" d="M 236.500 204.250 L 249.500 200.250 L 247.500 218.500 L 232.250 221.500 L 236.500 204.250 Z " transform="matrix(0.8119480609893799, 0, 0, 1.0613988637924194, 35.3, -7.75)"/>
    <path id="ID0.28886317973956466" fill="#2B2B2B" stroke="none" stroke-linecap="round" d="M 221 198.750 L 238 199.800 L 232.400 222.150 L 212 216.750 L 221 198.750 Z " transform="matrix(0.8119480609893799, 0, 0, 1.0613988637924194, 35.3, -7.75)"/>
    <path id="ID0.058789818082004786" fill="#2B2B2B" stroke="none" d="M 188.750 185.500 L 205.750 185.500 L 201.750 214.250 L 189 206.500 L 188.750 185.500 Z " transform="matrix(0.8119480609893799, 0, 0, 1.0613988637924194, 35.3, -7.75)"/>
    <path id="ID0.3335802797228098" fill="#494949" stroke="none" stroke-linecap="round" d="M 203 200.500 L 221.750 196.500 L 219 218.750 L 201.750 214.500 L 203 200.500 Z " transform="matrix(0.8119480609893799, 0, 0, 1.0613988637924194, 35.3, -7.75)"/>
    <path id="ID0.768428263720125" fill="#2B2B2B" stroke="none" stroke-linecap="round" d="M 248.750 201.650 L 278 203.650 L 273.750 217 L 271.250 217.750 L 256.750 221.150 L 247.250 218.650 L 248.750 201.650 Z " transform="matrix(0.8119480609893799, 0, 0, 1.0613988637924194, 35.3, -7.75)"/>
    <path id="ID0.24051428912207484" fill="#494949" stroke="none" stroke-linecap="round" d="M 271.500 201.650 L 284.500 202 L 281.750 215.400 L 270.150 218.250 L 271.500 201.650 Z " transform="matrix(0.8119480609893799, 0, 0, 1.0613988637924194, 35.3, -7.75)"/>
    <path id="ID0.9462241735309362" fill="#676767" stroke="none" stroke-linecap="round" d="M 212.700 140.600 L 231.500 128.500 L 249.750 138.750 L 251.250 153 L 252.500 138.750 L 270 145.500 L 274.500 171.500 L 280.500 175.500 L 285 201.500 L 276.500 208 L 254.500 208 L 248.500 202 L 232.500 206 L 222 200 L 203.500 203 L 188.100 185.800 L 193 178.500 L 198.500 159.500 L 212.700 140.600 Z " transform="matrix(0.8119480609893799, 0, 0, 1.0613988637924194, 35.3, -7.75)"/>
    <path id="ID0.3539137076586485" fill="none" stroke="#2B2B2B" stroke-width="2" stroke-linecap="round" d="M 239.750 153.850 C 239.750 153.850 240.844 157.036 240.500 158.600 C 239.892 161.366 236.986 163.529 237 166.350 C 239.724 169.582 242.250 170.600 242.250 170.600 "/>
    <path id="ID0.8949643238447607" fill="none" stroke="#2B2B2B" stroke-width="2" stroke-linecap="round" d="M 238.250 167.850 L 235.750 171.600 "/>
  </g>
</svg>