<svg version="1.1" width="91" height="99" viewBox="5 -1 91 99" xmlns="http://www.w3.org/2000/svg" xmlns:xlink="http://www.w3.org/1999/xlink">
  <!-- Exported by Scratch - http://scratch.mit.edu/ -->
  <path id="ID0.6097300411202013" fill="#90D864" stroke="#90D864" stroke-width="3" stroke-linecap="round" d="M 228 170.500 L 249.750 171 C 251.290 171.250 254.950 176.450 255.850 180 C 256.600 182.800 253.100 185.800 253.500 188.800 C 254.050 192.250 257.800 194.800 258.500 198.300 C 259 200.400 256.550 202.150 256.500 204.300 C 256.500 206.700 258.650 208.750 258.500 211.050 C 258.300 213.300 255.400 214.350 255.500 217.050 L 255.750 226 L 221.500 226 L 221.500 216.050 C 221.500 216.050 218.700 212.300 218.500 210.050 C 218.350 207.750 220.500 205.700 220.500 203.300 C 220.450 201.150 218 199.400 218.500 197.300 C 219.200 193.800 222.950 191.250 223.500 187.800 C 223.900 184.800 220.413 181.838 221.150 179 C 222.034 175.454 225.902 170.739 227.650 170.250 Z " transform="matrix(1, 0, 0, 1, -187, -129)"/>
  <path id="ID0.6785910106264055" fill="#90D864" stroke="#90D864" stroke-width="3" stroke-linecap="round" d="M 237.250 132 C 242.768 132 247.744 134.296 251.388 137.862 C 255.098 141.491 257.635 146.990 258 152.250 C 258.372 157.610 257.619 164.195 253.750 168 C 249.611 171.817 242.836 171.953 237.250 172 C 231.759 172.047 225.312 171.649 221.250 168 C 217.333 164.241 215.960 157.840 216.250 152.500 C 216.541 147.123 219.311 141.498 223.112 137.862 C 226.795 134.339 231.732 132 237.250 132 Z " transform="matrix(1, 0, 0, 1, -186, -129.75)"/>
  <path id="ID0.6820384645834565" fill="#90D864" stroke="#90D864" stroke-width="3" stroke-linecap="round" d="M 275.850 168.700 C 275.957 167.540 280.583 172.147 281.600 176.750 C 282.714 181.794 277.268 186.315 276.650 191.450 C 276.183 194.558 278.597 197.462 278.450 200.700 C 278.339 203.134 276.317 204.550 275.750 207.500 C 275.365 209.372 277.112 211.949 275.750 213 C 272.806 215.246 268.331 217.086 265 215.850 C 262.485 214.909 263.277 210.772 262.150 208.300 C 260.788 205.283 258.219 202.606 257.900 199.300 C 257.500 195.157 259.802 191.327 260.250 187.350 C 260.637 183.089 258.378 178.371 260.396 174.657 C 262.503 170.779 266.875 166.643 271.267 167.077 Z " transform="matrix(0.7256200909614563, -0.5950896143913269, 0.5950896143913269, 0.7256200909614563, -233.05, 81.75)"/>
  <path id="ID0.5810869378037751" fill="#80C059" stroke="#80C059" stroke-width="3" stroke-linecap="round" d="M 242.375 142 C 246.755 142 250.724 143.779 253.597 146.653 C 256.471 149.526 258.250 153.495 258.250 157.875 C 258.250 162.255 256.471 166.224 253.597 169.097 C 250.724 171.971 246.755 173.750 242.375 173.750 C 237.995 173.750 234.026 171.971 231.153 169.097 C 228.279 166.224 226.500 162.255 226.500 157.875 C 226.500 153.495 228.279 149.526 231.153 146.653 C 234.026 143.779 237.995 142 242.375 142 Z " transform="matrix(1, 0, 0, 1, -191, -131.75)"/>
  <path id="ID0.8986574583686888" fill="none" stroke="#72AB4F" stroke-width="3" stroke-linecap="round" d="M 236.500 177.500 L 236.500 223.500 " transform="matrix(1, 0, 0, 1, -186, -128.75)"/>
  <path id="ID0.6820384645834565" fill="#90D864" stroke="#90D864" stroke-width="3" stroke-linecap="round" d="M 271 167 C 275.716 167.365 280.537 172.073 281.600 176.750 C 282.729 181.716 277.260 186.313 276.650 191.450 C 276.175 194.557 278.597 197.462 278.450 200.700 C 278.339 203.134 276.317 204.550 275.750 207.500 C 275.365 209.372 277.112 211.949 275.750 213 C 272.806 215.246 268.331 217.086 265 215.850 C 262.485 214.909 263.277 210.772 262.150 208.300 C 260.788 205.283 258.219 202.606 257.900 199.300 C 257.500 195.157 259.802 191.327 260.250 187.350 C 260.637 183.089 258.426 178.279 260.396 174.657 C 262.478 170.832 266.664 166.667 271 167 Z " transform="matrix(-0.7256200909614563, -0.5950896143913269, -0.5950896143913269, 0.7256200909614563, 335.25, 80.8)"/>
</svg>