<svg version="1.1" width="302" height="301" viewBox="-1 -1 302 301" xmlns="http://www.w3.org/2000/svg" xmlns:xlink="http://www.w3.org/1999/xlink">
  <!-- Exported by Scratch - http://scratch.mit.edu/ -->
  <path id="ID0.8209590357728302" fill="#FF5C51" stroke="#000000" stroke-width="3" stroke-linecap="round" d="M 288.650 45.650 C 294.659 49.979 276.745 60.534 279 68.500 C 281.780 78.126 294.716 80.929 300.650 88.650 C 305.927 95.523 308.945 103.830 312.150 111.650 C 313.640 115.295 315.017 119.171 315.150 123.150 C 314.868 127.119 317.028 133.064 311.650 134.650 C 290.650 140.976 268.497 143.757 246.200 143.600 C 226.039 143.465 186.500 133.500 186.500 133.500 C 186.500 133 191.461 112.296 196 102.500 C 200.969 91.771 207.408 81.882 215.150 73.150 C 224.467 62.642 234.001 50.602 247.150 45.650 C 260.157 40.740 278.734 38.554 288.650 45.650 Z " transform="matrix(1, 0, 0, 1, -100.15, -28.65)"/>
  <path id="ID0.676381363067776" fill="none" stroke="#000000" stroke-width="3" stroke-linecap="round" d="M 314.500 121 C 314.500 121 334.704 111.743 346 111 C 356.360 110.336 367.093 112.939 376.500 117.500 C 381.347 119.626 384.923 125.841 386.500 130 C 387.052 131.505 379.496 127.060 380 128.500 C 381.122 131.618 387.018 134.511 390 138 C 393.506 142.116 397.148 146.659 399 152 C 402.221 160.187 403.683 168.971 405 178 C 405.329 180.257 403.672 177.458 403.500 179.500 C 402.811 187.667 403.856 195.852 403.500 204 C 403.103 211.655 403.167 219.536 401 227 C 399.263 232.786 396.812 239.236 392 243 C 385.424 248.090 376.694 250.451 368.500 252.500 C 363.389 253.774 353 253.500 353 253.500 " transform="matrix(-1, 0, 0, 1, 407, -36)"/>
  <path id="ID0.3687141411937773" fill="#DDE8EA" stroke="#000000" stroke-width="3" stroke-linecap="round" d="M 198 168 C 240.934 162.189 285.436 159.359 328.500 166 C 339.761 167.852 346.252 181.754 351.500 192 C 358.517 205.699 364.955 221.176 364 236.500 C 362.209 265.034 363.725 299.652 344 320 C 324.241 339.135 290.284 337.263 263.500 337 C 234.985 336.721 200.345 337.907 180 318 C 160.655 298.217 163.489 264.217 163 236.500 C 162.699 219.135 169.132 202.215 177 187 C 181.360 178.575 187.292 169.457 198 168 Z " transform="matrix(1, 0, 0, 1, -110.5, -39)"/>
  <path id="ID0.676381363067776" fill="none" stroke="#000000" stroke-width="3" stroke-linecap="round" d="M 319 121 C 319 121 336.187 111.562 346 111 C 356.364 110.450 367.093 112.939 376.500 117.500 C 381.347 119.626 384.923 125.841 386.500 130 C 387.052 131.505 379.496 127.060 380 128.500 C 381.122 131.618 387.018 134.511 390 138 C 393.506 142.116 397.148 146.659 399 152 C 402.221 160.187 403.683 168.971 405 178 C 405.329 180.257 403.672 177.458 403.500 179.500 C 402.811 187.667 403.856 195.852 403.500 204 C 403.103 211.655 403.167 219.536 401 227 C 399.263 232.786 396.452 238.846 392 243 C 387.722 246.718 383.122 248.283 378 249.500 C 371.449 250.989 357.500 251 357.500 251 " transform="matrix(1, 0, 0, 1, -106, -33)"/>
  <path id="ID0.9442150755785406" fill="#000000" stroke="#000000" stroke-width="3" d="M 295.250 219 C 299.457 219 303.270 220.709 306.031 223.469 C 308.791 226.230 310.500 230.043 310.500 234.250 C 310.500 238.457 308.791 242.270 306.031 245.031 C 303.270 247.791 299.457 249.500 295.250 249.500 C 291.043 249.500 287.230 247.791 284.469 245.031 C 281.709 242.270 280 238.457 280 234.250 C 280 230.043 281.709 226.230 284.469 223.469 C 287.230 220.709 291.043 219 295.250 219 Z " transform="matrix(1, 0, 0, 1, -88.5, -11.5)"/>
  <path id="ID0.9442150755785406" fill="#000000" stroke="#000000" stroke-width="3" d="M 295.250 219 C 299.457 219 303.270 220.709 306.031 223.469 C 308.791 226.230 310.500 230.043 310.500 234.250 C 310.500 238.457 308.791 242.270 306.031 245.031 C 303.270 247.791 299.457 249.500 295.250 249.500 C 291.043 249.500 287.230 247.791 284.469 245.031 C 281.709 242.270 280 238.457 280 234.250 C 280 230.043 281.709 226.230 284.469 223.469 C 287.230 220.709 291.043 219 295.250 219 Z " transform="matrix(1, 0, 0, 1, -200.25, -12.75)"/>
  <path id="ID0.8277837270870805" fill="#FFA39D" stroke="#000000" stroke-width="3" d="M 316.750 248.500 C 319.578 248.500 322.140 248.976 323.996 249.746 C 325.851 250.515 327 251.577 327 252.750 C 327 253.923 325.851 254.985 323.996 255.754 C 322.140 256.524 319.578 257 316.750 257 C 313.922 257 311.360 256.524 309.504 255.754 C 307.649 254.985 306.500 253.923 306.500 252.750 C 306.500 251.577 307.649 250.515 309.504 249.746 C 311.360 248.976 313.922 248.500 316.750 248.500 Z " transform="matrix(1, 0, 0, 1, -86.5, -10)"/>
  <path id="ID0.8277837270870805" fill="#FFA39D" stroke="#000000" stroke-width="3" d="M 316.750 248.500 C 319.578 248.500 322.140 248.976 323.996 249.746 C 325.851 250.515 327 251.577 327 252.750 C 327 253.923 325.851 254.985 323.996 255.754 C 322.140 256.524 319.578 257 316.750 257 C 313.922 257 311.360 256.524 309.504 255.754 C 307.649 254.985 306.500 253.923 306.500 252.750 C 306.500 251.577 307.649 250.515 309.504 249.746 C 311.360 248.976 313.922 248.500 316.750 248.500 Z " transform="matrix(1, 0, 0, 1, -246.75, -10.75)"/>
  <path id="ID0.04174446780234575" fill="#000000" stroke="#000000" stroke-width="3" stroke-linecap="round" d="M 239.500 235.500 C 244.190 235.500 248.440 238.161 251.518 242.461 C 254.595 246.760 256.213 253.420 256.500 259.250 C 256.835 266.029 257.236 273.951 253.500 279.750 C 250.542 284.084 244.605 286.248 239.500 286.250 C 234.280 286.064 228.249 283.570 225.500 279.250 C 221.882 273.569 222.134 265.898 222.500 259.250 C 222.820 253.405 224.405 246.760 227.482 242.461 C 230.560 238.161 234.810 235.500 239.500 235.500 Z " transform="matrix(1, 0, 0, 1, -88, -34)"/>
  <path id="ID0.676381363067776" fill="none" stroke="#000000" stroke-width="3" stroke-linecap="round" d="M 332 141.100 C 332 141.100 340.047 137.379 345 137.600 C 353.808 138.247 364.131 138.955 370.500 145.100 C 378.835 153.147 383.507 164.807 385.500 176.100 C 388.106 190.863 390.669 207.689 384.500 221.600 C 380.080 230.948 357.500 237.600 357.500 237.600 " transform="matrix(1, 0, 0, 1, -104, -34.1)"/>
  <path id="ID0.676381363067776" fill="none" stroke="#000000" stroke-width="3" stroke-linecap="round" d="M 326.750 140.950 C 326.750 140.950 338.144 137.150 345 137.600 C 353.826 138.206 364.131 138.955 370.500 145.100 C 378.835 153.147 384.674 164.662 385.500 176.100 C 386.825 194.443 384.261 214.051 377 231.100 C 374.296 237.438 358.250 239.950 358.250 239.950 " transform="matrix(-1, 0, 0, 1, 410.25, -39.45)"/>
  <path id="ID0.5542280082590878" fill="#FFA39D" stroke="#000000" stroke-width="3" stroke-linecap="round" d="M 238.500 293.500 C 240.713 293.355 242.833 290.702 244.862 291.478 C 246.557 292.135 247.500 294.388 247.500 296.250 C 247.500 298.112 246.492 299.800 244.862 301.022 C 243.233 302.244 240.983 303 238.500 303 C 236.017 303 233.767 302.244 232.138 301.022 C 230.508 299.800 229.500 298.112 229.500 296.250 C 229.500 294.388 230.443 292.135 232.138 291.478 C 234.167 290.702 236.287 293.355 238.500 293.500 Z " transform="matrix(1, 0, 0, 1, -87, -34.5)"/>
  <path id="ID0.7758732046931982" fill="none" stroke="#000000" stroke-width="3" d="M 381.750 42 C 381.819 42 381.881 42 381.927 42 C 381.972 42 382 42 382 42 C 382 42 381.972 42 381.927 42 C 381.881 42 381.819 42 381.750 42 C 381.681 42 381.619 42 381.573 42 C 381.528 42 381.500 42 381.500 42 C 381.500 42 381.528 42 381.573 42 C 381.619 42 381.681 42 381.750 42 Z " transform="matrix(1, 0, 0, 1, -86, -29)"/>
  <path id="ID0.47772966837510467" fill="#FFEAE9" stroke="#000000" stroke-width="3" d="M 286.250 32 C 290.044 32 293.481 33.541 295.970 36.030 C 298.459 38.519 300 41.956 300 45.750 C 300 49.544 298.459 52.981 295.970 55.470 C 293.481 57.959 290.044 59.500 286.250 59.500 C 282.456 59.500 279.019 57.959 276.530 55.470 C 274.041 52.981 272.500 49.544 272.500 45.750 C 272.500 41.956 274.041 38.519 276.530 36.030 C 279.019 33.541 282.456 32 286.250 32 Z " transform="matrix(1, 0, 0, 1, -94, -30.5)"/>
  <path id="ID0.3531337617896497" fill="#FFEAE9" stroke="#000000" stroke-width="3" stroke-linecap="round" d="M 172.850 168.850 C 168.862 169 165.135 174.160 160.500 174 C 154.813 173.804 150.150 168.350 144.500 168 C 139.650 167.650 135.300 172.200 130.500 172 C 126 171.800 122.063 168.871 118.100 166.850 C 115.932 165.681 114.480 163.719 112.500 164 C 110.368 163.675 109.065 165.412 106.850 166.850 C 103.029 169.044 99.300 172 94.500 172 C 89.650 172 86.400 168.100 82.100 166.850 C 80.350 166.350 76 167 76 167 C 75.350 166.350 67.750 171.500 63 171.500 C 58.200 171.500 53.750 169.500 50.600 166.350 C 47.450 163.200 45.500 158.750 45.500 154 C 45.500 149.200 47.450 144.750 50.600 141.600 C 53.750 138.450 58.350 136.500 63 136.500 C 67.600 136.500 72.100 138.550 75.350 141.600 C 78.350 144.500 80.050 150.250 80.050 150.250 C 80 149 80.300 143.550 82.100 142.100 C 85.600 139.300 89.850 137 94.500 137 C 99.050 137 103.200 139.500 106.850 142.100 C 109.500 143.950 110.050 149.550 113 149.500 C 115.700 149.550 115.550 144 118.100 142.100 C 121.700 139.450 125.850 137 130.500 137 C 135.100 137 139.199 139.565 142.850 142.100 C 145.053 143.658 145.461 147.467 147 148 C 148.081 148.466 146.875 145.007 148.100 144.100 C 151.711 141.484 155.900 139 160.500 139 C 165.050 139 172.850 144.100 172.850 144.100 C 171.500 144 179.467 139.136 183.500 139 C 187.960 138.841 192.707 140.965 195.871 144.129 C 199.035 147.293 201 151.718 201 156.500 C 201 161.282 199.039 165.703 195.871 168.871 C 192.703 172.039 187.960 173.974 183.500 174 C 179.777 174.021 177.223 169 173.500 169 Z " transform="matrix(1, 0, 0, 1, 29.5, -37.5)"/>
</svg>