<svg version="1.1" width="302" height="301" viewBox="-1 -1 302 301" xmlns="http://www.w3.org/2000/svg" xmlns:xlink="http://www.w3.org/1999/xlink">
  <!-- Exported by Scratch - http://scratch.mit.edu/ -->
  <path id="ID0.41835641814395785" fill="#DDE8EA" stroke="#000000" stroke-width="3" stroke-linecap="round" d="M 178 114 L 147 222 C 136.176 258.296 134.431 242.756 124.500 245.500 C 116.368 247.713 107.600 241.050 101 236 C 96.200 232.200 93.750 225.750 92 220 C 89.850 212.500 89.900 204.650 89.500 197 C 89.150 188.850 90.200 180.650 89.500 172.500 C 89.350 170.450 87.700 173.250 88 171 C 89.350 161.950 90.800 153.150 94 145 C 95.900 139.650 99.500 135.100 103 131 C 106 127.500 111.900 124.600 113 121.500 C 113.550 120.050 105.950 124.500 106.500 123 C 108.100 118.800 111.700 112.600 116.500 110.500 C 125.950 105.900 136.645 103.329 147 104 C 158.222 104.680 178.559 103 178.500 114 Z " transform="matrix(1, 0, 0, 1, -86, -29)"/>
  <path id="ID0.9368265741504729" fill="#C3CDCF" stroke="none" stroke-linecap="round" d="M 136.050 234.200 C 136.999 234.035 138.395 232.881 138.900 233.700 C 140.029 235.400 139.744 237.722 139.650 239.750 C 139.606 240.697 139.075 241.583 138.500 242.300 C 137.796 243.236 136.917 244.076 135.900 244.600 C 135.261 244.929 134.138 245.405 133.750 244.800 C 132.837 243.370 132.996 241.469 132.750 239.800 C 132.509 238.135 131.057 236.311 131.800 234.850 C 132.617 233.671 134.795 234.419 136.050 234.200 Z " transform="matrix(1, 0, 0, 1, -86, -29)"/>
  <path id="ID0.8757130121812224" fill="#DDE8EA" stroke="#000000" stroke-width="3" stroke-linecap="round" d="M 299 117 L 326 224 C 334.991 259.631 329.670 242.404 337 245 C 348.343 248.493 361.668 244.329 372 239 C 377.428 236.198 379.250 228.750 381 223 C 383.150 215.500 383.100 207.650 383.500 200 C 383.850 191.850 382.800 183.650 383.500 175.500 C 383.650 173.450 385.300 176.250 385 174 C 383.650 164.950 382.200 156.150 379 148 C 377.100 142.650 373.500 138.100 370 134 C 367 130.500 361.100 127.600 360 124.500 C 359.450 123.050 367.050 127.500 366.500 126 C 364.900 121.800 361.300 115.600 356.500 113.500 C 347.050 108.900 336.354 106.430 326 107 C 316.220 107.558 298.856 107.409 299 117 Z " transform="matrix(1, 0, 0, 1, -86, -29)"/>
  <path id="ID0.4605441503226757" fill="#C3CDCF" stroke="none" stroke-linecap="round" d="M 309 112.750 C 309.971 112.501 310.400 113.059 310.450 114.150 C 311.238 118.500 309.238 123.398 311.250 127.350 C 313.149 131.071 319.663 131.922 321.500 134.600 C 322.203 135.627 318.336 134.281 316.750 134.500 C 313.741 134.903 310.842 135.848 307.750 136 C 306.006 136.085 303.783 136.140 302.651 134.763 C 300.633 132.306 300.254 128.841 299.500 125.750 C 298.821 122.962 296.806 119.549 298.500 117.250 C 300.790 114.111 305.315 113.692 309 112.750 Z " transform="matrix(0.9788565039634705, -0.20454826951026917, 0.20454826951026917, 0.9788565039634705, -109.7, 35.45)"/>
  <path id="ID0.4605441503226757" fill="#C3CDCF" stroke="none" stroke-linecap="round" d="M 309.300 115.150 C 310.207 115.026 309.805 114.653 309.950 115.650 C 310.580 119.502 309.214 124.014 311.250 127.350 C 313.428 130.918 319.663 131.922 321.500 134.600 C 322.203 135.627 318.336 134.281 316.750 134.500 C 313.741 134.903 310.842 135.848 307.750 136 C 306.006 136.085 303.783 136.140 302.651 134.763 C 300.633 132.306 300.254 128.841 299.500 125.750 C 298.821 122.962 296.578 119.353 298.500 117.250 C 300.942 114.578 305.671 115.645 309.300 115.150 Z " transform="matrix(-0.9788565635681152, -0.20454826951026917, -0.20454826951026917, 0.9788565635681152, 413.3, 29.95)"/>
  <path id="ID0.4487975803203881" fill="#F1FDFF" stroke="#000000" stroke-width="3" stroke-linecap="round" d="M 174 133 L 139 230 C 135.336 237.867 122 226.950 119.250 220.650 C 112 203.600 109.450 183.950 110.750 165.650 C 111.600 154.200 117.450 142.650 125.750 134.650 C 132.150 128.500 142.444 127.804 151.250 127.150 C 158.415 126.593 174.517 126.660 174 131 Z " transform="matrix(1, 0, 0, 1, -86, -29)"/>
  <path id="ID0.5860144612379372" fill="#F1FDFF" stroke="#000000" stroke-width="3" stroke-linecap="round" d="M 307 137 L 332 235 C 333.331 242.325 359.850 227.850 366.500 216.500 C 374.050 203.350 370.100 185.750 367.500 171 C 365.500 159.700 360.800 148 352.500 140 C 346.100 133.850 335.811 133.085 327 132.500 C 320.737 132.087 306.797 133.835 307 138 Z " transform="matrix(1, 0, 0, 1, -86, -29)"/>
  <path id="ID0.9987575551494956" fill="#DDE8EA" stroke="none" stroke-linecap="round" d="M 309.050 135.900 C 310.390 131.924 317.182 133.855 321.300 133.250 C 322.346 133.054 322.439 133.466 322.900 133.750 C 323.429 134.066 324.049 133.845 324.250 135 C 325.053 139.619 325.915 144.377 325.750 149 C 325.637 152.149 322.718 155.173 323.750 158.250 C 326.867 167.454 334.404 174.789 337.500 184 C 342.183 198.148 343.768 204.599 346 215.100 C 347.336 221.389 352.725 230.530 347.750 234.350 C 341.975 238.980 332.005 234.543 324.500 232 C 319.151 230.187 313.329 226.868 311.034 221.687 C 305.965 210.240 304.258 197.268 304 184.750 C 303.662 168.376 303.831 151.395 309.050 135.900 Z " transform="matrix(-1, 0, 0, 1, 392.3, -34)"/>
  <path id="ID0.8209590357728302" fill="#FF5C51" stroke="#000000" stroke-width="3" stroke-linecap="round" d="M 288.650 45.650 C 294.659 49.979 276.745 60.534 279 68.500 C 281.780 78.126 294.716 80.929 300.650 88.650 C 305.927 95.523 308.945 103.830 312.150 111.650 C 313.640 115.295 315.017 119.171 315.150 123.150 C 314.868 127.119 317.028 133.064 311.650 134.650 C 290.650 140.976 268.497 143.757 246.200 143.600 C 226.039 143.465 186.500 133.500 186.500 133.500 C 186.500 133 191.461 112.296 196 102.500 C 200.969 91.771 207.408 81.882 215.150 73.150 C 224.467 62.642 234.001 50.602 247.150 45.650 C 260.157 40.740 278.734 38.554 288.650 45.650 Z " transform="matrix(1, 0, 0, 1, -100.15, -28.65)"/>
  <path id="ID0.9987575551494956" fill="#DDE8EA" stroke="none" stroke-linecap="round" d="M 312.750 137.500 C 313.509 133.572 312.785 136.769 313 136.500 C 313.499 135.913 313.398 135.336 314.250 135.250 C 317.670 134.900 322.192 132.895 324.250 135.500 C 327.255 138.949 325.913 144.431 325.750 149 C 325.639 152.149 322.718 155.173 323.750 158.250 C 326.867 167.454 334.710 174.667 337.500 184 C 342 199.054 349.879 215.465 345.500 230.500 C 343.539 237.207 331.365 233.654 324.500 232 C 319.011 230.674 313.329 226.868 311.034 221.687 C 305.965 210.240 303.737 197.268 304 184.750 C 304.336 168.736 309.716 153.210 312.750 137.500 Z " transform="matrix(1, 0, 0, 1, -86, -29)"/>
  <path id="ID0.3687141411937773" fill="#DDE8EA" stroke="#000000" stroke-width="3" stroke-linecap="round" d="M 198 168 C 240.934 162.189 285.436 159.359 328.500 166 C 339.761 167.852 346.252 181.754 351.500 192 C 358.517 205.699 364.955 221.176 364 236.500 C 362.209 265.034 363.725 299.652 344 320 C 324.241 339.135 290.284 337.263 263.500 337 C 234.985 336.721 200.345 337.907 180 318 C 160.655 298.217 163.489 264.217 163 236.500 C 162.699 219.135 169.132 202.215 177 187 C 181.360 178.575 187.292 169.457 198 168 Z " transform="matrix(1, 0, 0, 1, -110.5, -39)"/>
  <path id="ID0.9442150755785406" fill="#000000" stroke="#000000" stroke-width="3" d="M 295.250 219 C 299.457 219 303.270 220.709 306.031 223.469 C 308.791 226.230 310.500 230.043 310.500 234.250 C 310.500 238.457 308.791 242.270 306.031 245.031 C 303.270 247.791 299.457 249.500 295.250 249.500 C 291.043 249.500 287.230 247.791 284.469 245.031 C 281.709 242.270 280 238.457 280 234.250 C 280 230.043 281.709 226.230 284.469 223.469 C 287.230 220.709 291.043 219 295.250 219 Z " transform="matrix(1, 0, 0, 1, -88.5, -11.5)"/>
  <path id="ID0.9442150755785406" fill="#000000" stroke="#000000" stroke-width="3" d="M 295.250 219 C 299.457 219 303.270 220.709 306.031 223.469 C 308.791 226.230 310.500 230.043 310.500 234.250 C 310.500 238.457 308.791 242.270 306.031 245.031 C 303.270 247.791 299.457 249.500 295.250 249.500 C 291.043 249.500 287.230 247.791 284.469 245.031 C 281.709 242.270 280 238.457 280 234.250 C 280 230.043 281.709 226.230 284.469 223.469 C 287.230 220.709 291.043 219 295.250 219 Z " transform="matrix(1, 0, 0, 1, -200.25, -12.75)"/>
  <path id="ID0.8277837270870805" fill="#FFA39D" stroke="#000000" stroke-width="3" d="M 316.750 248.500 C 319.578 248.500 322.140 248.976 323.996 249.746 C 325.851 250.515 327 251.577 327 252.750 C 327 253.923 325.851 254.985 323.996 255.754 C 322.140 256.524 319.578 257 316.750 257 C 313.922 257 311.360 256.524 309.504 255.754 C 307.649 254.985 306.500 253.923 306.500 252.750 C 306.500 251.577 307.649 250.515 309.504 249.746 C 311.360 248.976 313.922 248.500 316.750 248.500 Z " transform="matrix(1, 0, 0, 1, -86.5, -10)"/>
  <path id="ID0.8277837270870805" fill="#FFA39D" stroke="#000000" stroke-width="3" d="M 316.750 248.500 C 319.578 248.500 322.140 248.976 323.996 249.746 C 325.851 250.515 327 251.577 327 252.750 C 327 253.923 325.851 254.985 323.996 255.754 C 322.140 256.524 319.578 257 316.750 257 C 313.922 257 311.360 256.524 309.504 255.754 C 307.649 254.985 306.500 253.923 306.500 252.750 C 306.500 251.577 307.649 250.515 309.504 249.746 C 311.360 248.976 313.922 248.500 316.750 248.500 Z " transform="matrix(1, 0, 0, 1, -246.75, -10.75)"/>
  <path id="ID0.04174446780234575" fill="#000000" stroke="#000000" stroke-width="3" stroke-linecap="round" d="M 239.500 235.500 C 244.190 235.500 248.440 238.161 251.518 242.461 C 254.595 246.760 256.213 253.420 256.500 259.250 C 256.835 266.029 257.236 273.951 253.500 279.750 C 250.542 284.084 244.605 286.248 239.500 286.250 C 234.280 286.064 228.249 283.570 225.500 279.250 C 221.882 273.569 222.134 265.898 222.500 259.250 C 222.820 253.405 224.405 246.760 227.482 242.461 C 230.560 238.161 234.810 235.500 239.500 235.500 Z " transform="matrix(1, 0, 0, 1, -88, -34)"/>
  <path id="ID0.5542280082590878" fill="#FFA39D" stroke="#000000" stroke-width="3" stroke-linecap="round" d="M 238.500 293.500 C 240.713 293.355 242.833 290.702 244.862 291.478 C 246.557 292.135 247.500 294.388 247.500 296.250 C 247.500 298.112 246.492 299.800 244.862 301.022 C 243.233 302.244 240.983 303 238.500 303 C 236.017 303 233.767 302.244 232.138 301.022 C 230.508 299.800 229.500 298.112 229.500 296.250 C 229.500 294.388 230.443 292.135 232.138 291.478 C 234.167 290.702 236.287 293.355 238.500 293.500 Z " transform="matrix(1, 0, 0, 1, -87, -34.5)"/>
  <path id="ID0.7758732046931982" fill="none" stroke="#000000" stroke-width="3" d="M 381.750 42 C 381.819 42 381.881 42 381.927 42 C 381.972 42 382 42 382 42 C 382 42 381.972 42 381.927 42 C 381.881 42 381.819 42 381.750 42 C 381.681 42 381.619 42 381.573 42 C 381.528 42 381.500 42 381.500 42 C 381.500 42 381.528 42 381.573 42 C 381.619 42 381.681 42 381.750 42 Z " transform="matrix(1, 0, 0, 1, -86, -29)"/>
  <path id="ID0.47772966837510467" fill="#FFEAE9" stroke="#000000" stroke-width="3" d="M 286.250 32 C 290.044 32 293.481 33.541 295.970 36.030 C 298.459 38.519 300 41.956 300 45.750 C 300 49.544 298.459 52.981 295.970 55.470 C 293.481 57.959 290.044 59.500 286.250 59.500 C 282.456 59.500 279.019 57.959 276.530 55.470 C 274.041 52.981 272.500 49.544 272.500 45.750 C 272.500 41.956 274.041 38.519 276.530 36.030 C 279.019 33.541 282.456 32 286.250 32 Z " transform="matrix(1, 0, 0, 1, -94, -30.5)"/>
  <path id="ID0.9344653259031475" fill="#C3CDCF" stroke="none" stroke-linecap="round" d="M 236 147.500 C 258.624 148.538 280.738 152.074 302.250 157.750 C 308.187 159.213 316.533 164.204 316.750 168.500 C 316.921 171.956 308.014 173.074 303.250 173.250 C 298.589 173.423 294.338 169.267 289.750 169.500 C 285.656 169.708 282.580 174.718 278.500 174.500 C 272.264 174.166 267.195 168.164 261 167.750 C 254.896 167.342 249.517 172.724 243.250 172.500 C 237.826 172.307 233.290 166.810 228 166.750 C 222.076 166.683 219.059 171.954 211 172 C 206.099 172.080 202.241 167.804 197.500 167.750 C 191.685 167.684 186.335 172.205 180.500 171.750 C 174.767 171.304 163.165 169.007 164.500 165.250 C 166.555 159.508 178.875 154.363 187.500 152.250 C 203.167 148.332 219.789 146.756 236 147.500 Z " transform="matrix(1, 0, 0, 1, -86, -29)"/>
  <path id="ID0.3531337617896497" fill="#FFEAE9" stroke="#000000" stroke-width="3" stroke-linecap="round" d="M 172.850 168.850 C 168.862 169 165.135 174.160 160.500 174 C 154.813 173.804 150.150 168.350 144.500 168 C 139.650 167.650 135.300 172.200 130.500 172 C 126 171.800 122.063 168.871 118.100 166.850 C 115.932 165.681 114.480 163.719 112.500 164 C 110.368 163.675 109.065 165.412 106.850 166.850 C 103.029 169.044 99.300 172 94.500 172 C 89.650 172 86.400 168.100 82.100 166.850 C 80.350 166.350 76 167 76 167 C 75.350 166.350 67.750 171.500 63 171.500 C 58.200 171.500 53.750 169.500 50.600 166.350 C 47.450 163.200 45.500 158.750 45.500 154 C 45.500 149.200 47.450 144.750 50.600 141.600 C 53.750 138.450 58.350 136.500 63 136.500 C 67.600 136.500 72.100 138.550 75.350 141.600 C 78.350 144.500 80.050 150.250 80.050 150.250 C 80 149 80.300 143.550 82.100 142.100 C 85.600 139.300 89.850 137 94.500 137 C 99.050 137 103.200 139.500 106.850 142.100 C 109.500 143.950 110.050 149.550 113 149.500 C 115.700 149.550 115.550 144 118.100 142.100 C 121.700 139.450 125.850 137 130.500 137 C 135.100 137 139.199 139.565 142.850 142.100 C 145.053 143.658 145.461 147.467 147 148 C 148.081 148.466 146.875 145.007 148.100 144.100 C 151.711 141.484 155.900 139 160.500 139 C 165.050 139 172.850 144.100 172.850 144.100 C 171.500 144 179.467 139.136 183.500 139 C 187.960 138.841 192.707 140.965 195.871 144.129 C 199.035 147.293 201 151.718 201 156.500 C 201 161.282 199.039 165.703 195.871 168.871 C 192.703 172.039 187.960 173.974 183.500 174 C 179.777 174.021 177.223 169 173.500 169 Z " transform="matrix(1, 0, 0, 1, 29.5, -37.5)"/>
  <path id="ID0.8904063696973026" fill="#FFFFFF" stroke="none" d="M 239.750 236 C 241.336 236 242.774 236.644 243.815 237.685 C 244.856 238.726 245.500 240.164 245.500 241.750 C 245.500 243.336 244.856 244.774 243.815 245.815 C 242.774 246.856 241.336 247.500 239.750 247.500 C 238.164 247.500 236.726 246.856 235.685 245.815 C 234.644 244.774 234 243.336 234 241.750 C 234 240.164 234.644 238.726 235.685 237.685 C 236.726 236.644 238.164 236 239.750 236 Z " transform="matrix(0.9415863156318665, -0.33677175641059875, 0.40998297929763794, 1.146278977394104, -168.55, 14.65)"/>
</svg>