<svg version="1.1" width="344" height="291" viewBox="-1 -1 344 291" xmlns="http://www.w3.org/2000/svg" xmlns:xlink="http://www.w3.org/1999/xlink">
  <!-- Exported by Scratch - http://scratch.mit.edu/ -->
  <g id="ID0.035491549875587225" transform="matrix(1, 0, 0, 1, -184.9, -128.4)">
    <path id="ID0.6097300411202013" fill="#FF877F" stroke="#FF877F" stroke-width="3" stroke-linecap="round" d="M 228 170.500 L 249.750 171 C 251.290 171.250 254.950 176.450 255.850 180 C 256.600 182.800 253.100 185.800 253.500 188.800 C 254.050 192.250 257.800 194.800 258.500 198.300 C 259 200.400 256.550 202.150 256.500 204.300 C 256.500 206.700 258.650 208.750 258.500 211.050 C 258.300 213.300 255.400 214.350 255.500 217.050 L 255.750 226 L 221.500 226 L 221.500 216.050 C 221.500 216.050 218.700 212.300 218.500 210.050 C 218.350 207.750 220.500 205.700 220.500 203.300 C 220.450 201.150 218 199.400 218.500 197.300 C 219.200 193.800 222.950 191.250 223.500 187.800 C 223.900 184.800 220.413 181.838 221.150 179 C 222.034 175.454 225.902 170.739 227.650 170.250 Z "/>
    <path id="ID0.6785910106264055" fill="#FF877F" stroke="#FF877F" stroke-width="3" stroke-linecap="round" d="M 237.250 132 C 242.768 132 247.744 134.296 251.388 137.862 C 255.098 141.491 257.635 146.990 258 152.250 C 258.372 157.610 257.619 164.195 253.750 168 C 249.611 171.817 242.836 171.953 237.250 172 C 231.759 172.047 225.312 171.649 221.250 168 C 217.333 164.241 215.960 157.840 216.250 152.500 C 216.541 147.123 219.311 141.498 223.112 137.862 C 226.795 134.339 231.732 132 237.250 132 Z " transform="matrix(1, 0, 0, 1, 1, -0.75)"/>
    <path id="ID0.6820384645834565" fill="#FF877F" stroke="#FF877F" stroke-width="3" stroke-linecap="round" d="M 275.850 168.700 C 275.957 167.540 280.583 172.147 281.600 176.750 C 282.714 181.794 277.268 186.315 276.650 191.450 C 276.183 194.558 278.597 197.462 278.450 200.700 C 278.339 203.134 276.317 204.550 275.750 207.500 C 275.365 209.372 277.112 211.949 275.750 213 C 272.806 215.246 268.331 217.086 265 215.850 C 262.485 214.909 263.277 210.772 262.150 208.300 C 260.788 205.283 258.219 202.606 257.900 199.300 C 257.500 195.157 259.802 191.327 260.250 187.350 C 260.637 183.089 258.378 178.371 260.396 174.657 C 262.503 170.779 266.875 166.643 271.267 167.077 Z " transform="matrix(0.7256200909614563, -0.5950896143913269, 0.5950896143913269, 0.7256200909614563, -46.05, 210.75)"/>
    <path id="ID0.5810869378037751" fill="#D5706A" stroke="#D5706A" stroke-width="3" stroke-linecap="round" d="M 242.375 142 C 246.755 142 250.724 143.779 253.597 146.653 C 256.471 149.526 258.250 153.495 258.250 157.875 C 258.250 162.255 256.471 166.224 253.597 169.097 C 250.724 171.971 246.755 173.750 242.375 173.750 C 237.995 173.750 234.026 171.971 231.153 169.097 C 228.279 166.224 226.500 162.255 226.500 157.875 C 226.500 153.495 228.279 149.526 231.153 146.653 C 234.026 143.779 237.995 142 242.375 142 Z " transform="matrix(1, 0, 0, 1, -4, -2.75)"/>
    <path id="ID0.8986574583686888" fill="none" stroke="#A85953" stroke-width="3" stroke-linecap="round" d="M 236.500 177.500 L 236.500 223.500 " transform="matrix(1, 0, 0, 1, 1, 0.25)"/>
    <path id="ID0.6820384645834565" fill="#FF877F" stroke="#FF877F" stroke-width="3" stroke-linecap="round" d="M 271 167 C 275.716 167.365 280.537 172.073 281.600 176.750 C 282.729 181.716 277.260 186.313 276.650 191.450 C 276.175 194.557 278.597 197.462 278.450 200.700 C 278.339 203.134 276.317 204.550 275.750 207.500 C 275.365 209.372 277.112 211.949 275.750 213 C 272.806 215.246 268.331 217.086 265 215.850 C 262.485 214.909 263.277 210.772 262.150 208.300 C 260.788 205.283 258.219 202.606 257.900 199.300 C 257.500 195.157 259.802 191.327 260.250 187.350 C 260.637 183.089 258.426 178.279 260.396 174.657 C 262.478 170.832 266.664 166.667 271 167 Z " transform="matrix(-0.7256200909614563, -0.5950896143913269, -0.5950896143913269, 0.7256200909614563, 522.25, 209.8)"/>
  </g>
  <g id="ID0.6162028051912785" transform="matrix(1, 0, 0, 1, -7, -2)">
    <path id="ID0.6205820580944419" fill="#BABABA" stroke="none" d="M 310.750 142 L 311 142 L 311 142 L 310.750 142 L 310.750 142 Z " transform="matrix(0.8119480609893799, 0, 0, 1.0613988637924194, 40.15, -134.25)"/>
    <path id="ID0.7257801904343069" fill="#494949" stroke="none" stroke-linecap="round" d="M 236.500 204.250 L 249.500 200.250 L 247.500 218.500 L 232.250 221.500 L 236.500 204.250 Z " transform="matrix(0.8119480609893799, 0, 0, 1.0613988637924194, 40.15, -134.25)"/>
    <path id="ID0.28886317973956466" fill="#2B2B2B" stroke="none" stroke-linecap="round" d="M 221 198.750 L 238 199.800 L 232.400 222.150 L 212 216.750 L 221 198.750 Z " transform="matrix(0.8119480609893799, 0, 0, 1.0613988637924194, 40.15, -134.25)"/>
    <path id="ID0.058789818082004786" fill="#2B2B2B" stroke="none" d="M 188.750 185.500 L 205.750 185.500 L 201.750 214.250 L 189 206.500 L 188.750 185.500 Z " transform="matrix(0.8119480609893799, 0, 0, 1.0613988637924194, 40.15, -134.25)"/>
    <path id="ID0.3335802797228098" fill="#494949" stroke="none" stroke-linecap="round" d="M 203 200.500 L 221.750 196.500 L 219 218.750 L 201.750 214.500 L 203 200.500 Z " transform="matrix(0.8119480609893799, 0, 0, 1.0613988637924194, 40.15, -134.25)"/>
    <path id="ID0.768428263720125" fill="#2B2B2B" stroke="none" stroke-linecap="round" d="M 248.750 201.650 L 278 203.650 L 273.750 217 L 271.250 217.750 L 256.750 221.150 L 247.250 218.650 L 248.750 201.650 Z " transform="matrix(0.8119480609893799, 0, 0, 1.0613988637924194, 40.15, -134.25)"/>
    <path id="ID0.24051428912207484" fill="#494949" stroke="none" stroke-linecap="round" d="M 271.500 201.650 L 284.500 202 L 281.750 215.400 L 270.150 218.250 L 271.500 201.650 Z " transform="matrix(0.8119480609893799, 0, 0, 1.0613988637924194, 40.15, -134.25)"/>
    <path id="ID0.9462241735309362" fill="#676767" stroke="none" stroke-linecap="round" d="M 212.700 140.600 L 231.500 128.500 L 249.750 138.750 L 251.250 153 L 252.500 138.750 L 270 145.500 L 274.500 171.500 L 280.500 175.500 L 285 201.500 L 276.500 208 L 254.500 208 L 248.500 202 L 232.500 206 L 222 200 L 203.500 203 L 188.100 185.800 L 193 178.500 L 198.500 159.500 L 212.700 140.600 Z " transform="matrix(0.8119480609893799, 0, 0, 1.0613988637924194, 40.15, -134.25)"/>
    <path id="ID0.3539137076586485" fill="none" stroke="#2B2B2B" stroke-width="2" stroke-linecap="round" d="M 239.750 153.850 C 239.750 153.850 240.844 157.036 240.500 158.600 C 239.892 161.366 236.986 163.529 237 166.350 C 239.724 169.582 242.250 170.600 242.250 170.600 " transform="matrix(1, 0, 0, 1, 4.8, -126.5)"/>
    <path id="ID0.8949643238447607" fill="none" stroke="#2B2B2B" stroke-width="2" stroke-linecap="round" d="M 238.250 167.850 L 235.750 171.600 " transform="matrix(1, 0, 0, 1, 4.8, -126.5)"/>
  </g>
  <g id="ID0.2280276771634817" transform="matrix(1, 0, 0, 1, -7, -2)">
    <path id="ID0.41835641814395785" fill="#DDE8EA" stroke="#000000" stroke-width="3" stroke-linecap="round" d="M 178 114 L 147 222 C 136.176 258.296 134.431 242.756 124.500 245.500 C 116.368 247.713 107.600 241.050 101 236 C 96.200 232.200 93.750 225.750 92 220 C 89.850 212.500 89.900 204.650 89.500 197 C 89.150 188.850 90.200 180.650 89.500 172.500 C 89.350 170.450 87.700 173.250 88 171 C 89.350 161.950 90.800 153.150 94 145 C 95.900 139.650 99.500 135.100 103 131 C 106 127.500 111.900 124.600 113 121.500 C 113.550 120.050 105.950 124.500 106.500 123 C 108.100 118.800 111.700 112.600 116.500 110.500 C 125.950 105.900 136.645 103.329 147 104 C 158.222 104.680 178.559 103 178.500 114 Z " transform="matrix(0.33065009117126465, 0, 0, 0.33065009117126465, 169, 159)"/>
    <path id="ID0.9368265741504729" fill="#C3CDCF" stroke="none" stroke-linecap="round" d="M 136.050 234.200 C 136.999 234.035 138.395 232.881 138.900 233.700 C 140.029 235.400 139.744 237.722 139.650 239.750 C 139.606 240.697 139.075 241.583 138.500 242.300 C 137.796 243.236 136.917 244.076 135.900 244.600 C 135.261 244.929 134.138 245.405 133.750 244.800 C 132.837 243.370 132.996 241.469 132.750 239.800 C 132.509 238.135 131.057 236.311 131.800 234.850 C 132.617 233.671 134.795 234.419 136.050 234.200 Z " transform="matrix(0.33065009117126465, 0, 0, 0.33065009117126465, 169, 159)"/>
    <path id="ID0.8757130121812224" fill="#DDE8EA" stroke="#000000" stroke-width="3" stroke-linecap="round" d="M 299 117 L 326 224 C 334.991 259.631 329.670 242.404 337 245 C 348.343 248.493 361.668 244.329 372 239 C 377.428 236.198 379.250 228.750 381 223 C 383.150 215.500 383.100 207.650 383.500 200 C 383.850 191.850 382.800 183.650 383.500 175.500 C 383.650 173.450 385.300 176.250 385 174 C 383.650 164.950 382.200 156.150 379 148 C 377.100 142.650 373.500 138.100 370 134 C 367 130.500 361.100 127.600 360 124.500 C 359.450 123.050 367.050 127.500 366.500 126 C 364.900 121.800 361.300 115.600 356.500 113.500 C 347.050 108.900 336.354 106.430 326 107 C 316.220 107.558 298.856 107.409 299 117 Z " transform="matrix(0.33065009117126465, 0, 0, 0.33065009117126465, 169, 159)"/>
    <path id="ID0.4605441503226757" fill="#C3CDCF" stroke="none" stroke-linecap="round" d="M 309 112.750 C 309.971 112.501 310.400 113.059 310.450 114.150 C 311.238 118.500 309.238 123.398 311.250 127.350 C 313.149 131.071 319.663 131.922 321.500 134.600 C 322.203 135.627 318.336 134.281 316.750 134.500 C 313.741 134.903 310.842 135.848 307.750 136 C 306.006 136.085 303.783 136.140 302.651 134.763 C 300.633 132.306 300.254 128.841 299.500 125.750 C 298.821 122.962 296.806 119.549 298.500 117.250 C 300.790 114.111 305.315 113.692 309 112.750 Z " transform="matrix(0.3236590027809143, -0.06763390451669693, 0.06763390451669693, 0.3236590027809143, 161.15, 180.15)"/>
    <path id="ID0.4605441503226757" fill="#C3CDCF" stroke="none" stroke-linecap="round" d="M 309.300 115.150 C 310.207 115.026 309.805 114.653 309.950 115.650 C 310.580 119.502 309.214 124.014 311.250 127.350 C 313.428 130.918 319.663 131.922 321.500 134.600 C 322.203 135.627 318.336 134.281 316.750 134.500 C 313.741 134.903 310.842 135.848 307.750 136 C 306.006 136.085 303.783 136.140 302.651 134.763 C 300.633 132.306 300.254 128.841 299.500 125.750 C 298.821 122.962 296.578 119.353 298.500 117.250 C 300.942 114.578 305.671 115.645 309.300 115.150 Z " transform="matrix(-0.3236590027809143, -0.06763390451669693, -0.06763390451669693, 0.3236590027809143, 334.1, 178.4)"/>
    <path id="ID0.4487975803203881" fill="#F1FDFF" stroke="#000000" stroke-width="3" stroke-linecap="round" d="M 174 133 L 139 230 C 135.336 237.867 122 226.950 119.250 220.650 C 112 203.600 109.450 183.950 110.750 165.650 C 111.600 154.200 117.450 142.650 125.750 134.650 C 132.150 128.500 142.444 127.804 151.250 127.150 C 158.415 126.593 174.517 126.660 174 131 Z " transform="matrix(0.33065009117126465, 0, 0, 0.33065009117126465, 169, 159)"/>
    <path id="ID0.5860144612379372" fill="#F1FDFF" stroke="#000000" stroke-width="3" stroke-linecap="round" d="M 307 137 L 332 235 C 333.331 242.325 359.850 227.850 366.500 216.500 C 374.050 203.350 370.100 185.750 367.500 171 C 365.500 159.700 360.800 148 352.500 140 C 346.100 133.850 335.811 133.085 327 132.500 C 320.737 132.087 306.797 133.835 307 138 Z " transform="matrix(0.33065009117126465, 0, 0, 0.33065009117126465, 169, 159)"/>
    <path id="ID0.9987575551494956" fill="#DDE8EA" stroke="none" stroke-linecap="round" d="M 309.050 135.900 C 310.390 131.924 317.182 133.855 321.300 133.250 C 322.346 133.054 322.439 133.466 322.900 133.750 C 323.429 134.066 324.049 133.845 324.250 135 C 325.053 139.619 325.915 144.377 325.750 149 C 325.637 152.149 322.718 155.173 323.750 158.250 C 326.867 167.454 334.404 174.789 337.500 184 C 342.183 198.148 343.768 204.599 346 215.100 C 347.336 221.389 352.725 230.530 347.750 234.350 C 341.975 238.980 332.005 234.543 324.500 232 C 319.151 230.187 313.329 226.868 311.034 221.687 C 305.965 210.240 304.258 197.268 304 184.750 C 303.662 168.376 303.831 151.395 309.050 135.900 Z " transform="matrix(-0.33065009117126465, 0, 0, 0.33065009117126465, 327.15, 157.25)"/>
    <path id="ID0.8209590357728302" fill="#FF5C51" stroke="#000000" stroke-width="3" stroke-linecap="round" d="M 288.650 45.650 C 294.659 49.979 276.745 60.534 279 68.500 C 281.780 78.126 294.716 80.929 300.650 88.650 C 305.927 95.523 308.945 103.830 312.150 111.650 C 313.640 115.295 315.017 119.171 315.150 123.150 C 314.868 127.119 317.028 133.064 311.650 134.650 C 290.650 140.976 268.497 143.757 246.200 143.600 C 226.039 143.465 186.500 133.500 186.500 133.500 C 186.500 133 191.461 112.296 196 102.500 C 200.969 91.771 207.408 81.882 215.150 73.150 C 224.467 62.642 234.001 50.602 247.150 45.650 C 260.157 40.740 278.734 38.554 288.650 45.650 Z " transform="matrix(0.33065009117126465, 0, 0, 0.33065009117126465, 164.3, 159)"/>
    <path id="ID0.9987575551494956" fill="#DDE8EA" stroke="none" stroke-linecap="round" d="M 312.750 137.500 C 313.509 133.572 312.785 136.769 313 136.500 C 313.499 135.913 313.398 135.336 314.250 135.250 C 317.670 134.900 322.192 132.895 324.250 135.500 C 327.255 138.949 325.913 144.431 325.750 149 C 325.639 152.149 322.718 155.173 323.750 158.250 C 326.867 167.454 334.710 174.667 337.500 184 C 342 199.054 349.879 215.465 345.500 230.500 C 343.539 237.207 331.365 233.654 324.500 232 C 319.011 230.674 313.329 226.868 311.034 221.687 C 305.965 210.240 303.737 197.268 304 184.750 C 304.336 168.736 309.716 153.210 312.750 137.500 Z " transform="matrix(0.33065009117126465, 0, 0, 0.33065009117126465, 169, 159)"/>
    <path id="ID0.3687141411937773" fill="#DDE8EA" stroke="#000000" stroke-width="3" stroke-linecap="round" d="M 198 168 C 240.934 162.189 285.436 159.359 328.500 166 C 339.761 167.852 346.252 181.754 351.500 192 C 358.517 205.699 364.955 221.176 364 236.500 C 362.209 265.034 363.725 299.652 344 320 C 324.241 339.135 290.284 337.263 263.500 337 C 234.985 336.721 200.345 337.907 180 318 C 160.655 298.217 163.489 264.217 163 236.500 C 162.699 219.135 169.132 202.215 177 187 C 181.360 178.575 187.292 169.457 198 168 Z " transform="matrix(0.33065009117126465, 0, 0, 0.33065009117126465, 160.9, 155.6)"/>
    <path id="ID0.9442150755785406" fill="#000000" stroke="#000000" stroke-width="3" d="M 295.250 219 C 299.457 219 303.270 220.709 306.031 223.469 C 308.791 226.230 310.500 230.043 310.500 234.250 C 310.500 238.457 308.791 242.270 306.031 245.031 C 303.270 247.791 299.457 249.500 295.250 249.500 C 291.043 249.500 287.230 247.791 284.469 245.031 C 281.709 242.270 280 238.457 280 234.250 C 280 230.043 281.709 226.230 284.469 223.469 C 287.230 220.709 291.043 219 295.250 219 Z " transform="matrix(0.33065009117126465, 0, 0, 0.33065009117126465, 168.15, 164.75)"/>
    <path id="ID0.9442150755785406" fill="#000000" stroke="#000000" stroke-width="3" d="M 295.250 219 C 299.457 219 303.270 220.709 306.031 223.469 C 308.791 226.230 310.500 230.043 310.500 234.250 C 310.500 238.457 308.791 242.270 306.031 245.031 C 303.270 247.791 299.457 249.500 295.250 249.500 C 291.043 249.500 287.230 247.791 284.469 245.031 C 281.709 242.270 280 238.457 280 234.250 C 280 230.043 281.709 226.230 284.469 223.469 C 287.230 220.709 291.043 219 295.250 219 Z " transform="matrix(0.33065009117126465, 0, 0, 0.33065009117126465, 131.2, 164.25)"/>
    <path id="ID0.8277837270870805" fill="#FFA39D" stroke="#000000" stroke-width="3" d="M 316.750 248.500 C 319.578 248.500 322.140 248.976 323.996 249.746 C 325.851 250.515 327 251.577 327 252.750 C 327 253.923 325.851 254.985 323.996 255.754 C 322.140 256.524 319.578 257 316.750 257 C 313.922 257 311.360 256.524 309.504 255.754 C 307.649 254.985 306.500 253.923 306.500 252.750 C 306.500 251.577 307.649 250.515 309.504 249.746 C 311.360 248.976 313.922 248.500 316.750 248.500 Z " transform="matrix(0.33065009117126465, 0, 0, 0.33065009117126465, 168.8, 165.25)"/>
    <path id="ID0.8277837270870805" fill="#FFA39D" stroke="#000000" stroke-width="3" d="M 316.750 248.500 C 319.578 248.500 322.140 248.976 323.996 249.746 C 325.851 250.515 327 251.577 327 252.750 C 327 253.923 325.851 254.985 323.996 255.754 C 322.140 256.524 319.578 257 316.750 257 C 313.922 257 311.360 256.524 309.504 255.754 C 307.649 254.985 306.500 253.923 306.500 252.750 C 306.500 251.577 307.649 250.515 309.504 249.746 C 311.360 248.976 313.922 248.500 316.750 248.500 Z " transform="matrix(0.33065009117126465, 0, 0, 0.33065009117126465, 115.85, 165)"/>
    <path id="ID0.04174446780234575" fill="#000000" stroke="#000000" stroke-width="3" stroke-linecap="round" d="M 239.500 235.500 C 244.190 235.500 248.440 238.161 251.518 242.461 C 254.595 246.760 256.213 253.420 256.500 259.250 C 256.835 266.029 257.236 273.951 253.500 279.750 C 250.542 284.084 244.605 286.248 239.500 286.250 C 234.280 286.064 228.249 283.570 225.500 279.250 C 221.882 273.569 222.134 265.898 222.500 259.250 C 222.820 253.405 224.405 246.760 227.482 242.461 C 230.560 238.161 234.810 235.500 239.500 235.500 Z " transform="matrix(0.33065009117126465, 0, 0, 0.33065009117126465, 168.4, 157.25)"/>
    <path id="ID0.5542280082590878" fill="#FFA39D" stroke="#000000" stroke-width="3" stroke-linecap="round" d="M 238.500 293.500 C 240.713 293.355 242.833 290.702 244.862 291.478 C 246.557 292.135 247.500 294.388 247.500 296.250 C 247.500 298.112 246.492 299.800 244.862 301.022 C 243.233 302.244 240.983 303 238.500 303 C 236.017 303 233.767 302.244 232.138 301.022 C 230.508 299.800 229.500 298.112 229.500 296.250 C 229.500 294.388 230.443 292.135 232.138 291.478 C 234.167 290.702 236.287 293.355 238.500 293.500 Z " transform="matrix(0.33065009117126465, 0, 0, 0.33065009117126465, 168.65, 157.05)"/>
    <path id="ID0.7758732046931982" fill="none" stroke="#000000" stroke-width="3" d="M 381.750 42 C 381.819 42 381.881 42 381.927 42 C 381.972 42 382 42 382 42 C 382 42 381.972 42 381.927 42 C 381.881 42 381.819 42 381.750 42 C 381.681 42 381.619 42 381.573 42 C 381.528 42 381.500 42 381.500 42 C 381.500 42 381.528 42 381.573 42 C 381.619 42 381.681 42 381.750 42 Z " transform="matrix(0.33065009117126465, 0, 0, 0.33065009117126465, 169, 159)"/>
    <path id="ID0.47772966837510467" fill="#FFEAE9" stroke="#000000" stroke-width="3" d="M 286.250 32 C 290.044 32 293.481 33.541 295.970 36.030 C 298.459 38.519 300 41.956 300 45.750 C 300 49.544 298.459 52.981 295.970 55.470 C 293.481 57.959 290.044 59.500 286.250 59.500 C 282.456 59.500 279.019 57.959 276.530 55.470 C 274.041 52.981 272.500 49.544 272.500 45.750 C 272.500 41.956 274.041 38.519 276.530 36.030 C 279.019 33.541 282.456 32 286.250 32 Z " transform="matrix(0.33065009117126465, 0, 0, 0.33065009117126465, 166.4, 158.5)"/>
    <path id="ID0.9344653259031475" fill="#C3CDCF" stroke="none" stroke-linecap="round" d="M 236 147.500 C 258.624 148.538 280.738 152.074 302.250 157.750 C 308.187 159.213 316.533 164.204 316.750 168.500 C 316.921 171.956 308.014 173.074 303.250 173.250 C 298.589 173.423 294.338 169.267 289.750 169.500 C 285.656 169.708 282.580 174.718 278.500 174.500 C 272.264 174.166 267.195 168.164 261 167.750 C 254.896 167.342 249.517 172.724 243.250 172.500 C 237.826 172.307 233.290 166.810 228 166.750 C 222.076 166.683 219.059 171.954 211 172 C 206.099 172.080 202.241 167.804 197.500 167.750 C 191.685 167.684 186.335 172.205 180.500 171.750 C 174.767 171.304 163.165 169.007 164.500 165.250 C 166.555 159.508 178.875 154.363 187.500 152.250 C 203.167 148.332 219.789 146.756 236 147.500 Z " transform="matrix(0.33065009117126465, 0, 0, 0.33065009117126465, 169, 159)"/>
    <path id="ID0.3531337617896497" fill="#FFEAE9" stroke="#000000" stroke-width="3" stroke-linecap="round" d="M 172.850 168.850 C 168.862 169 165.135 174.160 160.500 174 C 154.813 173.804 150.150 168.350 144.500 168 C 139.650 167.650 135.300 172.200 130.500 172 C 126 171.800 122.063 168.871 118.100 166.850 C 115.932 165.681 114.480 163.719 112.500 164 C 110.368 163.675 109.065 165.412 106.850 166.850 C 103.029 169.044 99.300 172 94.500 172 C 89.650 172 86.400 168.100 82.100 166.850 C 80.350 166.350 76 167 76 167 C 75.350 166.350 67.750 171.500 63 171.500 C 58.200 171.500 53.750 169.500 50.600 166.350 C 47.450 163.200 45.500 158.750 45.500 154 C 45.500 149.200 47.450 144.750 50.600 141.600 C 53.750 138.450 58.350 136.500 63 136.500 C 67.600 136.500 72.100 138.550 75.350 141.600 C 78.350 144.500 80.050 150.250 80.050 150.250 C 80 149 80.300 143.550 82.100 142.100 C 85.600 139.300 89.850 137 94.500 137 C 99.050 137 103.200 139.500 106.850 142.100 C 109.500 143.950 110.050 149.550 113 149.500 C 115.700 149.550 115.550 144 118.100 142.100 C 121.700 139.450 125.850 137 130.500 137 C 135.100 137 139.199 139.565 142.850 142.100 C 145.053 143.658 145.461 147.467 147 148 C 148.081 148.466 146.875 145.007 148.100 144.100 C 151.711 141.484 155.900 139 160.500 139 C 165.050 139 172.850 144.100 172.850 144.100 C 171.500 144 179.467 139.136 183.500 139 C 187.960 138.841 192.707 140.965 195.871 144.129 C 199.035 147.293 201 151.718 201 156.500 C 201 161.282 199.039 165.703 195.871 168.871 C 192.703 172.039 187.960 173.974 183.500 174 C 179.777 174.021 177.223 169 173.500 169 Z " transform="matrix(0.33065009117126465, 0, 0, 0.33065009117126465, 207.2, 156.1)"/>
    <path id="ID0.8904063696973026" fill="#FFFFFF" stroke="none" d="M 239.750 236 C 241.336 236 242.774 236.644 243.815 237.685 C 244.856 238.726 245.500 240.164 245.500 241.750 C 245.500 243.336 244.856 244.774 243.815 245.815 C 242.774 246.856 241.336 247.500 239.750 247.500 C 238.164 247.500 236.726 246.856 235.685 245.815 C 234.644 244.774 234 243.336 234 241.750 C 234 240.164 234.644 238.726 235.685 237.685 C 236.726 236.644 238.164 236 239.750 236 Z " transform="matrix(0.31133559346199036, -0.11135361343622208, 0.13556091487407684, 0.3790172338485718, 141.7, 173.25)"/>
  </g>
  <g id="ID0.2280276771634817" transform="matrix(1, 0, 0, 1, -7, -2)">
    <path id="ID0.41835641814395785" fill="#DDE8EA" stroke="#000000" stroke-width="3" stroke-linecap="round" d="M 178 114 L 147 222 C 136.176 258.296 134.431 242.756 124.500 245.500 C 116.368 247.713 107.600 241.050 101 236 C 96.200 232.200 93.750 225.750 92 220 C 89.850 212.500 89.900 204.650 89.500 197 C 89.150 188.850 90.200 180.650 89.500 172.500 C 89.350 170.450 87.700 173.250 88 171 C 89.350 161.950 90.800 153.150 94 145 C 95.900 139.650 99.500 135.100 103 131 C 106 127.500 111.900 124.600 113 121.500 C 113.550 120.050 105.950 124.500 106.500 123 C 108.100 118.800 111.700 112.600 116.500 110.500 C 125.950 105.900 136.645 103.329 147 104 C 158.222 104.680 178.559 103 178.500 114 Z " transform="matrix(0.33065009117126465, 0, 0, 0.33065009117126465, -21.35, 155.9)"/>
    <path id="ID0.9368265741504729" fill="#C3CDCF" stroke="none" stroke-linecap="round" d="M 136.050 234.200 C 136.999 234.035 138.395 232.881 138.900 233.700 C 140.029 235.400 139.744 237.722 139.650 239.750 C 139.606 240.697 139.075 241.583 138.500 242.300 C 137.796 243.236 136.917 244.076 135.900 244.600 C 135.261 244.929 134.138 245.405 133.750 244.800 C 132.837 243.370 132.996 241.469 132.750 239.800 C 132.509 238.135 131.057 236.311 131.800 234.850 C 132.617 233.671 134.795 234.419 136.050 234.200 Z " transform="matrix(0.33065009117126465, 0, 0, 0.33065009117126465, -21.35, 155.9)"/>
    <path id="ID0.8757130121812224" fill="#DDE8EA" stroke="#000000" stroke-width="3" stroke-linecap="round" d="M 299 117 L 326 224 C 334.991 259.631 329.670 242.404 337 245 C 348.343 248.493 361.668 244.329 372 239 C 377.428 236.198 379.250 228.750 381 223 C 383.150 215.500 383.100 207.650 383.500 200 C 383.850 191.850 382.800 183.650 383.500 175.500 C 383.650 173.450 385.300 176.250 385 174 C 383.650 164.950 382.200 156.150 379 148 C 377.100 142.650 373.500 138.100 370 134 C 367 130.500 361.100 127.600 360 124.500 C 359.450 123.050 367.050 127.500 366.500 126 C 364.900 121.800 361.300 115.600 356.500 113.500 C 347.050 108.900 336.354 106.430 326 107 C 316.220 107.558 298.856 107.409 299 117 Z " transform="matrix(0.33065009117126465, 0, 0, 0.33065009117126465, -21.35, 155.9)"/>
    <path id="ID0.4605441503226757" fill="#C3CDCF" stroke="none" stroke-linecap="round" d="M 309 112.750 C 309.971 112.501 310.400 113.059 310.450 114.150 C 311.238 118.500 309.238 123.398 311.250 127.350 C 313.149 131.071 319.663 131.922 321.500 134.600 C 322.203 135.627 318.336 134.281 316.750 134.500 C 313.741 134.903 310.842 135.848 307.750 136 C 306.006 136.085 303.783 136.140 302.651 134.763 C 300.633 132.306 300.254 128.841 299.500 125.750 C 298.821 122.962 296.806 119.549 298.500 117.250 C 300.790 114.111 305.315 113.692 309 112.750 Z " transform="matrix(0.3236590027809143, -0.06763390451669693, 0.06763390451669693, 0.3236590027809143, -29.2, 177.05)"/>
    <path id="ID0.4605441503226757" fill="#C3CDCF" stroke="none" stroke-linecap="round" d="M 309.300 115.150 C 310.207 115.026 309.805 114.653 309.950 115.650 C 310.580 119.502 309.214 124.014 311.250 127.350 C 313.428 130.918 319.663 131.922 321.500 134.600 C 322.203 135.627 318.336 134.281 316.750 134.500 C 313.741 134.903 310.842 135.848 307.750 136 C 306.006 136.085 303.783 136.140 302.651 134.763 C 300.633 132.306 300.254 128.841 299.500 125.750 C 298.821 122.962 296.578 119.353 298.500 117.250 C 300.942 114.578 305.671 115.645 309.300 115.150 Z " transform="matrix(-0.3236590027809143, -0.06763390451669693, -0.06763390451669693, 0.3236590027809143, 143.75, 175.3)"/>
    <path id="ID0.4487975803203881" fill="#F1FDFF" stroke="#000000" stroke-width="3" stroke-linecap="round" d="M 174 133 L 139 230 C 135.336 237.867 122 226.950 119.250 220.650 C 112 203.600 109.450 183.950 110.750 165.650 C 111.600 154.200 117.450 142.650 125.750 134.650 C 132.150 128.500 142.444 127.804 151.250 127.150 C 158.415 126.593 174.517 126.660 174 131 Z " transform="matrix(0.33065009117126465, 0, 0, 0.33065009117126465, -21.35, 155.9)"/>
    <path id="ID0.5860144612379372" fill="#F1FDFF" stroke="#000000" stroke-width="3" stroke-linecap="round" d="M 307 137 L 332 235 C 333.331 242.325 359.850 227.850 366.500 216.500 C 374.050 203.350 370.100 185.750 367.500 171 C 365.500 159.700 360.800 148 352.500 140 C 346.100 133.850 335.811 133.085 327 132.500 C 320.737 132.087 306.797 133.835 307 138 Z " transform="matrix(0.33065009117126465, 0, 0, 0.33065009117126465, -21.35, 155.9)"/>
    <path id="ID0.9987575551494956" fill="#DDE8EA" stroke="none" stroke-linecap="round" d="M 309.050 135.900 C 310.390 131.924 317.182 133.855 321.300 133.250 C 322.346 133.054 322.439 133.466 322.900 133.750 C 323.429 134.066 324.049 133.845 324.250 135 C 325.053 139.619 325.915 144.377 325.750 149 C 325.637 152.149 322.718 155.173 323.750 158.250 C 326.867 167.454 334.404 174.789 337.500 184 C 342.183 198.148 343.768 204.599 346 215.100 C 347.336 221.389 352.725 230.530 347.750 234.350 C 341.975 238.980 332.005 234.543 324.500 232 C 319.151 230.187 313.329 226.868 311.034 221.687 C 305.965 210.240 304.258 197.268 304 184.750 C 303.662 168.376 303.831 151.395 309.050 135.900 Z " transform="matrix(-0.33065009117126465, 0, 0, 0.33065009117126465, 136.75, 154.15)"/>
    <path id="ID0.8209590357728302" fill="#FF5C51" stroke="#000000" stroke-width="3" stroke-linecap="round" d="M 288.650 45.650 C 294.659 49.979 276.745 60.534 279 68.500 C 281.780 78.126 294.716 80.929 300.650 88.650 C 305.927 95.523 308.945 103.830 312.150 111.650 C 313.640 115.295 315.017 119.171 315.150 123.150 C 314.868 127.119 317.028 133.064 311.650 134.650 C 290.650 140.976 268.497 143.757 246.200 143.600 C 226.039 143.465 186.500 133.500 186.500 133.500 C 186.500 133 191.461 112.296 196 102.500 C 200.969 91.771 207.408 81.882 215.150 73.150 C 224.467 62.642 234.001 50.602 247.150 45.650 C 260.157 40.740 278.734 38.554 288.650 45.650 Z " transform="matrix(0.33065009117126465, 0, 0, 0.33065009117126465, -26.05, 155.9)"/>
    <path id="ID0.9987575551494956" fill="#DDE8EA" stroke="none" stroke-linecap="round" d="M 312.750 137.500 C 313.509 133.572 312.785 136.769 313 136.500 C 313.499 135.913 313.398 135.336 314.250 135.250 C 317.670 134.900 322.192 132.895 324.250 135.500 C 327.255 138.949 325.913 144.431 325.750 149 C 325.639 152.149 322.718 155.173 323.750 158.250 C 326.867 167.454 334.710 174.667 337.500 184 C 342 199.054 349.879 215.465 345.500 230.500 C 343.539 237.207 331.365 233.654 324.500 232 C 319.011 230.674 313.329 226.868 311.034 221.687 C 305.965 210.240 303.737 197.268 304 184.750 C 304.336 168.736 309.716 153.210 312.750 137.500 Z " transform="matrix(0.33065009117126465, 0, 0, 0.33065009117126465, -21.35, 155.9)"/>
    <path id="ID0.3687141411937773" fill="#DDE8EA" stroke="#000000" stroke-width="3" stroke-linecap="round" d="M 198 168 C 240.934 162.189 285.436 159.359 328.500 166 C 339.761 167.852 346.252 181.754 351.500 192 C 358.517 205.699 364.955 221.176 364 236.500 C 362.209 265.034 363.725 299.652 344 320 C 324.241 339.135 290.284 337.263 263.500 337 C 234.985 336.721 200.345 337.907 180 318 C 160.655 298.217 163.489 264.217 163 236.500 C 162.699 219.135 169.132 202.215 177 187 C 181.360 178.575 187.292 169.457 198 168 Z " transform="matrix(0.33065009117126465, 0, 0, 0.33065009117126465, -29.45, 152.5)"/>
    <path id="ID0.9442150755785406" fill="#000000" stroke="#000000" stroke-width="3" d="M 295.250 219 C 299.457 219 303.270 220.709 306.031 223.469 C 308.791 226.230 310.500 230.043 310.500 234.250 C 310.500 238.457 308.791 242.270 306.031 245.031 C 303.270 247.791 299.457 249.500 295.250 249.500 C 291.043 249.500 287.230 247.791 284.469 245.031 C 281.709 242.270 280 238.457 280 234.250 C 280 230.043 281.709 226.230 284.469 223.469 C 287.230 220.709 291.043 219 295.250 219 Z " transform="matrix(0.33065009117126465, 0, 0, 0.33065009117126465, -22.2, 161.65)"/>
    <path id="ID0.9442150755785406" fill="#000000" stroke="#000000" stroke-width="3" d="M 295.250 219 C 299.457 219 303.270 220.709 306.031 223.469 C 308.791 226.230 310.500 230.043 310.500 234.250 C 310.500 238.457 308.791 242.270 306.031 245.031 C 303.270 247.791 299.457 249.500 295.250 249.500 C 291.043 249.500 287.230 247.791 284.469 245.031 C 281.709 242.270 280 238.457 280 234.250 C 280 230.043 281.709 226.230 284.469 223.469 C 287.230 220.709 291.043 219 295.250 219 Z " transform="matrix(0.33065009117126465, 0, 0, 0.33065009117126465, -59.1, 161.15)"/>
    <path id="ID0.8277837270870805" fill="#FFA39D" stroke="#000000" stroke-width="3" d="M 316.750 248.500 C 319.578 248.500 322.140 248.976 323.996 249.746 C 325.851 250.515 327 251.577 327 252.750 C 327 253.923 325.851 254.985 323.996 255.754 C 322.140 256.524 319.578 257 316.750 257 C 313.922 257 311.360 256.524 309.504 255.754 C 307.649 254.985 306.500 253.923 306.500 252.750 C 306.500 251.577 307.649 250.515 309.504 249.746 C 311.360 248.976 313.922 248.500 316.750 248.500 Z " transform="matrix(0.33065009117126465, 0, 0, 0.33065009117126465, -21.55, 162.15)"/>
    <path id="ID0.8277837270870805" fill="#FFA39D" stroke="#000000" stroke-width="3" d="M 316.750 248.500 C 319.578 248.500 322.140 248.976 323.996 249.746 C 325.851 250.515 327 251.577 327 252.750 C 327 253.923 325.851 254.985 323.996 255.754 C 322.140 256.524 319.578 257 316.750 257 C 313.922 257 311.360 256.524 309.504 255.754 C 307.649 254.985 306.500 253.923 306.500 252.750 C 306.500 251.577 307.649 250.515 309.504 249.746 C 311.360 248.976 313.922 248.500 316.750 248.500 Z " transform="matrix(0.33065009117126465, 0, 0, 0.33065009117126465, -74.5, 161.9)"/>
    <path id="ID0.04174446780234575" fill="#000000" stroke="#000000" stroke-width="3" stroke-linecap="round" d="M 239.500 235.500 C 244.190 235.500 248.440 238.161 251.518 242.461 C 254.595 246.760 256.213 253.420 256.500 259.250 C 256.835 266.029 257.236 273.951 253.500 279.750 C 250.542 284.084 244.605 286.248 239.500 286.250 C 234.280 286.064 228.249 283.570 225.500 279.250 C 221.882 273.569 222.134 265.898 222.500 259.250 C 222.820 253.405 224.405 246.760 227.482 242.461 C 230.560 238.161 234.810 235.500 239.500 235.500 Z " transform="matrix(0.33065009117126465, 0, 0, 0.33065009117126465, -21.95, 154.15)"/>
    <path id="ID0.5542280082590878" fill="#FFA39D" stroke="#000000" stroke-width="3" stroke-linecap="round" d="M 238.500 293.500 C 240.713 293.355 242.833 290.702 244.862 291.478 C 246.557 292.135 247.500 294.388 247.500 296.250 C 247.500 298.112 246.492 299.800 244.862 301.022 C 243.233 302.244 240.983 303 238.500 303 C 236.017 303 233.767 302.244 232.138 301.022 C 230.508 299.800 229.500 298.112 229.500 296.250 C 229.500 294.388 230.443 292.135 232.138 291.478 C 234.167 290.702 236.287 293.355 238.500 293.500 Z " transform="matrix(0.33065009117126465, 0, 0, 0.33065009117126465, -21.7, 153.95)"/>
    <path id="ID0.7758732046931982" fill="none" stroke="#000000" stroke-width="3" d="M 381.750 42 C 381.819 42 381.881 42 381.927 42 C 381.972 42 382 42 382 42 C 382 42 381.972 42 381.927 42 C 381.881 42 381.819 42 381.750 42 C 381.681 42 381.619 42 381.573 42 C 381.528 42 381.500 42 381.500 42 C 381.500 42 381.528 42 381.573 42 C 381.619 42 381.681 42 381.750 42 Z " transform="matrix(0.33065009117126465, 0, 0, 0.33065009117126465, -21.35, 155.9)"/>
    <path id="ID0.47772966837510467" fill="#FFEAE9" stroke="#000000" stroke-width="3" d="M 286.250 32 C 290.044 32 293.481 33.541 295.970 36.030 C 298.459 38.519 300 41.956 300 45.750 C 300 49.544 298.459 52.981 295.970 55.470 C 293.481 57.959 290.044 59.500 286.250 59.500 C 282.456 59.500 279.019 57.959 276.530 55.470 C 274.041 52.981 272.500 49.544 272.500 45.750 C 272.500 41.956 274.041 38.519 276.530 36.030 C 279.019 33.541 282.456 32 286.250 32 Z " transform="matrix(0.33065009117126465, 0, 0, 0.33065009117126465, -23.95, 155.4)"/>
    <path id="ID0.9344653259031475" fill="#C3CDCF" stroke="none" stroke-linecap="round" d="M 236 147.500 C 258.624 148.538 280.738 152.074 302.250 157.750 C 308.187 159.213 316.533 164.204 316.750 168.500 C 316.921 171.956 308.014 173.074 303.250 173.250 C 298.589 173.423 294.338 169.267 289.750 169.500 C 285.656 169.708 282.580 174.718 278.500 174.500 C 272.264 174.166 267.195 168.164 261 167.750 C 254.896 167.342 249.517 172.724 243.250 172.500 C 237.826 172.307 233.290 166.810 228 166.750 C 222.076 166.683 219.059 171.954 211 172 C 206.099 172.080 202.241 167.804 197.500 167.750 C 191.685 167.684 186.335 172.205 180.500 171.750 C 174.767 171.304 163.165 169.007 164.500 165.250 C 166.555 159.508 178.875 154.363 187.500 152.250 C 203.167 148.332 219.789 146.756 236 147.500 Z " transform="matrix(0.33065009117126465, 0, 0, 0.33065009117126465, -21.35, 155.9)"/>
    <path id="ID0.3531337617896497" fill="#FFEAE9" stroke="#000000" stroke-width="3" stroke-linecap="round" d="M 172.850 168.850 C 168.862 169 165.135 174.160 160.500 174 C 154.813 173.804 150.150 168.350 144.500 168 C 139.650 167.650 135.300 172.200 130.500 172 C 126 171.800 122.063 168.871 118.100 166.850 C 115.932 165.681 114.480 163.719 112.500 164 C 110.368 163.675 109.065 165.412 106.850 166.850 C 103.029 169.044 99.300 172 94.500 172 C 89.650 172 86.400 168.100 82.100 166.850 C 80.350 166.350 76 167 76 167 C 75.350 166.350 67.750 171.500 63 171.500 C 58.200 171.500 53.750 169.500 50.600 166.350 C 47.450 163.200 45.500 158.750 45.500 154 C 45.500 149.200 47.450 144.750 50.600 141.600 C 53.750 138.450 58.350 136.500 63 136.500 C 67.600 136.500 72.100 138.550 75.350 141.600 C 78.350 144.500 80.050 150.250 80.050 150.250 C 80 149 80.300 143.550 82.100 142.100 C 85.600 139.300 89.850 137 94.500 137 C 99.050 137 103.200 139.500 106.850 142.100 C 109.500 143.950 110.050 149.550 113 149.500 C 115.700 149.550 115.550 144 118.100 142.100 C 121.700 139.450 125.850 137 130.500 137 C 135.100 137 139.199 139.565 142.850 142.100 C 145.053 143.658 145.461 147.467 147 148 C 148.081 148.466 146.875 145.007 148.100 144.100 C 151.711 141.484 155.900 139 160.500 139 C 165.050 139 172.850 144.100 172.850 144.100 C 171.500 144 179.467 139.136 183.500 139 C 187.960 138.841 192.707 140.965 195.871 144.129 C 199.035 147.293 201 151.718 201 156.500 C 201 161.282 199.039 165.703 195.871 168.871 C 192.703 172.039 187.960 173.974 183.500 174 C 179.777 174.021 177.223 169 173.500 169 Z " transform="matrix(0.33065009117126465, 0, 0, 0.33065009117126465, 16.85, 153)"/>
    <path id="ID0.8904063696973026" fill="#FFFFFF" stroke="none" d="M 239.750 236 C 241.336 236 242.774 236.644 243.815 237.685 C 244.856 238.726 245.500 240.164 245.500 241.750 C 245.500 243.336 244.856 244.774 243.815 245.815 C 242.774 246.856 241.336 247.500 239.750 247.500 C 238.164 247.500 236.726 246.856 235.685 245.815 C 234.644 244.774 234 243.336 234 241.750 C 234 240.164 234.644 238.726 235.685 237.685 C 236.726 236.644 238.164 236 239.750 236 Z " transform="matrix(0.31133559346199036, -0.11135361343622208, 0.13556091487407684, 0.3790172338485718, -48.65, 170.15)"/>
  </g>
  <g id="ID0.617521099280566" transform="matrix(1, 0, 0, 1, -7, -2)">
    <path id="ID0.5711539704352617" fill="#FFFFFF" stroke="none" stroke-linecap="round" d="M 227 98 C 232.034 97.536 238.339 101.943 239.500 107 C 243.104 122.311 240.763 139.012 241 155 C 241.083 161.291 242.929 167.571 241.500 173.500 C 238.488 183.286 234.937 193.868 228 201 C 224.973 204.106 216.520 204.056 215 200 C 210.730 185.688 213.648 169.933 213.500 155 C 213.344 139.509 211.580 123.423 215 108.500 C 216.187 103.317 221.716 98.489 227 98 Z " transform="matrix(0.4771425724029541, -0.1267290711402893, 0.1267290711402893, 0.4771425724029541, -63.55, 30.3)"/>
    <path id="ID0.5711539704352617" fill="#FFFFFF" stroke="none" stroke-linecap="round" d="M 227 98 C 232.034 97.536 238.339 101.943 239.500 107 C 243.104 122.311 240.763 139.012 241 155 C 241.083 161.291 242.929 167.571 241.500 173.500 C 238.488 183.286 234.937 193.868 228 201 C 224.973 204.106 216.520 204.056 215 200 C 210.730 185.688 213.648 169.933 213.500 155 C 213.344 139.509 211.580 123.423 215 108.500 C 216.187 103.317 221.716 98.489 227 98 Z " transform="matrix(0.5233961343765259, -0.13901402056217194, 0.1267290711402893, 0.4771425724029541, -56.4, 52.65)"/>
    <path id="ID0.5711539704352617" fill="#FFFFFF" stroke="none" stroke-linecap="round" d="M 227 98 C 232.034 97.536 238.339 101.943 239.500 107 C 243.104 122.311 240.763 139.012 241 155 C 241.083 161.291 242.929 167.571 241.500 173.500 C 238.488 183.286 234.937 193.868 228 201 C 224.973 204.106 216.520 204.056 215 200 C 210.730 185.688 213.648 169.933 213.500 155 C 213.344 139.509 211.580 123.423 215 108.500 C 216.187 103.317 221.716 98.489 227 98 Z " transform="matrix(0.4771425724029541, -0.1267290711402893, 0.1267290711402893, 0.4771425724029541, -34.35, 49.3)"/>
    <path id="ID0.5711539704352617" fill="#FFFFFF" stroke="none" stroke-linecap="round" d="M 227 98 C 232.034 97.536 238.339 101.943 239.500 107 C 243.104 122.311 240.763 139.012 241 155 C 241.083 161.291 242.929 167.571 241.500 173.500 C 238.488 183.286 233.669 192.521 228 201 C 224.392 206.393 220.387 212.823 214.300 215.450 C 203.655 220.043 191.871 223.270 180.400 222.300 C 168.381 221.274 156.005 218.239 146.550 211.050 C 126.659 195.925 111.085 175.804 94.900 156.850 C 90.847 152.105 87.905 146.579 87.150 140.650 C 86.415 134.852 86.775 127.869 90.750 123.850 C 95.039 119.200 102.338 117.968 108.550 118.200 C 113.746 118.408 117.710 122.059 121.600 125.050 C 131.837 132.924 138.662 146.152 150.750 150 C 170.756 156.611 195.977 166.489 213.500 155 C 226.455 146.505 211.580 123.423 215 108.500 C 216.187 103.317 221.716 98.489 227 98 Z " transform="matrix(0.40167614817619324, -0.10668518394231796, 0.10168427228927612, 0.3828474283218384, -4.65, 58.5)"/>
    <path id="ID0.914057401008904" fill="#FFFFFF" stroke="none" d="M 233.500 181.500 C 237.638 181.500 241.388 183.405 244.104 186.482 C 246.819 189.560 248.500 193.810 248.500 198.500 C 248.500 203.190 246.819 207.440 244.104 210.518 C 241.388 213.595 237.638 215.500 233.500 215.500 C 229.362 215.500 225.612 213.595 222.896 210.518 C 220.181 207.440 218.500 203.190 218.500 198.500 C 218.500 193.810 220.181 189.560 222.896 186.482 C 225.612 183.405 229.362 181.500 233.500 181.500 Z " transform="matrix(0.4771425724029541, -0.1267290711402893, 0.1267290711402893, 0.4771425724029541, -63.55, 30.3)"/>
  </g>
  <g id="ID0.6895864545367658" transform="matrix(1, 0, 0, 1, -7, -2)">
    <path id="ID0.7811849061399698" fill="#88AE63" stroke="none" d="M 241 63 L 248.500 63 L 248.500 91.500 L 241 91.500 L 241 63 Z " transform="matrix(0.6453072428703308, -0.7639231085777283, 0.7639231085777283, 0.6453072428703308, -115.5, 185)"/>
    <path id="ID0.7811849061399698" fill="#88AE63" stroke="none" d="M 241 63 L 248.500 63 L 248.500 91.500 L 241 91.500 L 241 63 Z " transform="matrix(-0.780184268951416, -0.6255497932434082, -1.422002911567688, 1.773518681526184, 429.25, 49.75)"/>
  </g>
  <g id="ID0.617521099280566" transform="matrix(1, 0, 0, 1, -7, -2)">
    <path id="ID0.5711539704352617" fill="#FFFFFF" stroke="none" stroke-linecap="round" d="M 227 98 C 232.034 97.536 238.339 101.943 239.500 107 C 243.104 122.311 240.763 139.012 241 155 C 241.083 161.291 242.929 167.571 241.500 173.500 C 238.488 183.286 234.937 193.868 228 201 C 224.973 204.106 216.520 204.056 215 200 C 210.730 185.688 213.648 169.933 213.500 155 C 213.344 139.509 211.580 123.423 215 108.500 C 216.187 103.317 221.716 98.489 227 98 Z " transform="matrix(0.4771425724029541, -0.1267290711402893, 0.1267290711402893, 0.4771425724029541, 117.95, 24.1)"/>
    <path id="ID0.5711539704352617" fill="#FFFFFF" stroke="none" stroke-linecap="round" d="M 227 98 C 232.034 97.536 238.339 101.943 239.500 107 C 243.104 122.311 240.763 139.012 241 155 C 241.083 161.291 242.929 167.571 241.500 173.500 C 238.488 183.286 234.937 193.868 228 201 C 224.973 204.106 216.520 204.056 215 200 C 210.730 185.688 213.648 169.933 213.500 155 C 213.344 139.509 211.580 123.423 215 108.500 C 216.187 103.317 221.716 98.489 227 98 Z " transform="matrix(0.5233961343765259, -0.13901402056217194, 0.1267290711402893, 0.4771425724029541, 125.1, 46.45)"/>
    <path id="ID0.5711539704352617" fill="#FFFFFF" stroke="none" stroke-linecap="round" d="M 227 98 C 232.034 97.536 238.339 101.943 239.500 107 C 243.104 122.311 240.763 139.012 241 155 C 241.083 161.291 242.929 167.571 241.500 173.500 C 238.488 183.286 234.937 193.868 228 201 C 224.973 204.106 216.520 204.056 215 200 C 210.730 185.688 213.648 169.933 213.500 155 C 213.344 139.509 211.580 123.423 215 108.500 C 216.187 103.317 221.716 98.489 227 98 Z " transform="matrix(0.4771425724029541, -0.1267290711402893, 0.1267290711402893, 0.4771425724029541, 147.15, 43.1)"/>
    <path id="ID0.5711539704352617" fill="#FFFFFF" stroke="none" stroke-linecap="round" d="M 227 98 C 232.034 97.536 238.339 101.943 239.500 107 C 243.104 122.311 240.763 139.012 241 155 C 241.083 161.291 242.929 167.571 241.500 173.500 C 238.488 183.286 233.669 192.521 228 201 C 224.392 206.393 220.387 212.823 214.300 215.450 C 203.655 220.043 191.871 223.270 180.400 222.300 C 168.381 221.274 156.005 218.239 146.550 211.050 C 126.659 195.925 111.085 175.804 94.900 156.850 C 90.847 152.105 87.905 146.579 87.150 140.650 C 86.415 134.852 86.775 127.869 90.750 123.850 C 95.039 119.200 102.338 117.968 108.550 118.200 C 113.746 118.408 117.710 122.059 121.600 125.050 C 131.837 132.924 138.662 146.152 150.750 150 C 170.756 156.611 195.977 166.489 213.500 155 C 226.455 146.505 211.580 123.423 215 108.500 C 216.187 103.317 221.716 98.489 227 98 Z " transform="matrix(0.40167614817619324, -0.10668518394231796, 0.10168427228927612, 0.3828474283218384, 176.85, 52.3)"/>
    <path id="ID0.914057401008904" fill="#FFFFFF" stroke="none" d="M 233.500 181.500 C 237.638 181.500 241.388 183.405 244.104 186.482 C 246.819 189.560 248.500 193.810 248.500 198.500 C 248.500 203.190 246.819 207.440 244.104 210.518 C 241.388 213.595 237.638 215.500 233.500 215.500 C 229.362 215.500 225.612 213.595 222.896 210.518 C 220.181 207.440 218.500 203.190 218.500 198.500 C 218.500 193.810 220.181 189.560 222.896 186.482 C 225.612 183.405 229.362 181.500 233.500 181.500 Z " transform="matrix(0.4771425724029541, -0.1267290711402893, 0.1267290711402893, 0.4771425724029541, 117.95, 24.1)"/>
  </g>
  <path id="ID0.6457497105002403" fill="#000000" stroke="none" d="M 189 277 L 304 277 L 304 285 L 189 285 L 189 277 Z " transform="matrix(1, 0, 0, 1, -5, -18.9)"/>
  <g id="ID0.354785128030926" transform="matrix(1, 0, 0, 1, -7, -2)">
    <path id="ID0.7811849061399698" fill="#FF5B43" stroke="none" d="M 241 63 L 248.500 63 L 248.500 91.500 L 241 91.500 L 241 63 Z " transform="matrix(-0.780184268951416, -0.6255497932434082, -1.422002911567688, 1.773518681526184, 623.4, 57.85)"/>
    <path id="ID0.7811849061399698" fill="#FF5B43" stroke="none" d="M 241 63 L 248.500 63 L 248.500 91.500 L 241 91.500 L 241 63 Z " transform="matrix(0.780184268951416, -0.6255497932434082, 1.422002911567688, 1.7735188007354736, 23, 58.35)"/>
  </g>
  <g id="ID0.354785128030926" transform="matrix(1, 0, 0, 1, -7, -2)">
    <path id="ID0.7811849061399698" fill="#FF5B43" stroke="none" d="M 241 63 L 248.500 63 L 248.500 91.500 L 241 91.500 L 241 63 Z " transform="matrix(-0.780184268951416, -0.6255497932434082, -1.422002911567688, 1.773518681526184, 626.05, 240.95)"/>
    <path id="ID0.7811849061399698" fill="#FF5B43" stroke="none" d="M 241 63 L 248.500 63 L 248.500 91.500 L 241 91.500 L 241 63 Z " transform="matrix(0.780184268951416, -0.6255497932434082, 1.422002911567688, 1.7735188007354736, 25.7, 241.45)"/>
  </g>
  <g id="ID0.617521099280566" transform="matrix(1, 0, 0, 1, -7, -2)">
    <path id="ID0.5711539704352617" fill="#FFFFFF" stroke="none" stroke-linecap="round" d="M 227 98 C 232.034 97.536 238.339 101.943 239.500 107 C 243.104 122.311 240.763 139.012 241 155 C 241.083 161.291 242.929 167.571 241.500 173.500 C 238.488 183.286 234.937 193.868 228 201 C 224.973 204.106 216.520 204.056 215 200 C 210.730 185.688 213.648 169.933 213.500 155 C 213.344 139.509 211.580 123.423 215 108.500 C 216.187 103.317 221.716 98.489 227 98 Z " transform="matrix(0.4771425724029541, -0.1267290711402893, 0.1267290711402893, 0.4771425724029541, -38.55, 195.45)"/>
    <path id="ID0.5711539704352617" fill="#FFFFFF" stroke="none" stroke-linecap="round" d="M 227 98 C 232.034 97.536 238.339 101.943 239.500 107 C 243.104 122.311 240.763 139.012 241 155 C 241.083 161.291 242.929 167.571 241.500 173.500 C 238.488 183.286 234.937 193.868 228 201 C 224.973 204.106 216.520 204.056 215 200 C 210.730 185.688 213.648 169.933 213.500 155 C 213.344 139.509 211.580 123.423 215 108.500 C 216.187 103.317 221.716 98.489 227 98 Z " transform="matrix(0.5233961343765259, -0.13901402056217194, 0.1267290711402893, 0.4771425724029541, -31.4, 217.8)"/>
    <path id="ID0.5711539704352617" fill="#FFFFFF" stroke="none" stroke-linecap="round" d="M 227 98 C 232.034 97.536 238.339 101.943 239.500 107 C 243.104 122.311 240.763 139.012 241 155 C 241.083 161.291 242.929 167.571 241.500 173.500 C 238.488 183.286 234.937 193.868 228 201 C 224.973 204.106 216.520 204.056 215 200 C 210.730 185.688 213.648 169.933 213.500 155 C 213.344 139.509 211.580 123.423 215 108.500 C 216.187 103.317 221.716 98.489 227 98 Z " transform="matrix(0.4771425724029541, -0.1267290711402893, 0.1267290711402893, 0.4771425724029541, -9.35, 214.45)"/>
    <path id="ID0.5711539704352617" fill="#FFFFFF" stroke="none" stroke-linecap="round" d="M 227 98 C 232.034 97.536 238.339 101.943 239.500 107 C 243.104 122.311 240.763 139.012 241 155 C 241.083 161.291 242.929 167.571 241.500 173.500 C 238.488 183.286 233.669 192.521 228 201 C 224.392 206.393 220.387 212.823 214.300 215.450 C 203.655 220.043 191.871 223.270 180.400 222.300 C 168.381 221.274 156.005 218.239 146.550 211.050 C 126.659 195.925 111.085 175.804 94.900 156.850 C 90.847 152.105 87.905 146.579 87.150 140.650 C 86.415 134.852 86.775 127.869 90.750 123.850 C 95.039 119.200 102.338 117.968 108.550 118.200 C 113.746 118.408 117.710 122.059 121.600 125.050 C 131.837 132.924 138.662 146.152 150.750 150 C 170.756 156.611 195.977 166.489 213.500 155 C 226.455 146.505 211.580 123.423 215 108.500 C 216.187 103.317 221.716 98.489 227 98 Z " transform="matrix(0.40167614817619324, -0.10668518394231796, 0.10168427228927612, 0.3828474283218384, 20.35, 223.65)"/>
    <path id="ID0.914057401008904" fill="#FFFFFF" stroke="none" d="M 233.500 181.500 C 237.638 181.500 241.388 183.405 244.104 186.482 C 246.819 189.560 248.500 193.810 248.500 198.500 C 248.500 203.190 246.819 207.440 244.104 210.518 C 241.388 213.595 237.638 215.500 233.500 215.500 C 229.362 215.500 225.612 213.595 222.896 210.518 C 220.181 207.440 218.500 203.190 218.500 198.500 C 218.500 193.810 220.181 189.560 222.896 186.482 C 225.612 183.405 229.362 181.500 233.500 181.500 Z " transform="matrix(0.4771425724029541, -0.1267290711402893, 0.1267290711402893, 0.4771425724029541, -38.55, 195.45)"/>
  </g>
  <g id="ID0.6895864545367658" transform="matrix(1, 0, 0, 1, -7, -2)">
    <path id="ID0.7811849061399698" fill="#88AE63" stroke="none" d="M 241 63 L 248.500 63 L 248.500 91.500 L 241 91.500 L 241 63 Z " transform="matrix(0.6453072428703308, -0.7639231085777283, 0.7639231085777283, 0.6453072428703308, -91.5, 353.15)"/>
    <path id="ID0.7811849061399698" fill="#88AE63" stroke="none" d="M 241 63 L 248.500 63 L 248.500 91.500 L 241 91.500 L 241 63 Z " transform="matrix(-0.780184268951416, -0.6255497932434082, -1.422002911567688, 1.773518681526184, 453.25, 217.9)"/>
  </g>
</svg>