<svg version="1.1" width="103" height="103" viewBox="-1 -1 103 103" xmlns="http://www.w3.org/2000/svg" xmlns:xlink="http://www.w3.org/1999/xlink">
  <!-- Exported by Scratch - http://scratch.mit.edu/ -->
  <path id="ID0.9895848804153502" fill="none" stroke="#000000" stroke-width="2" d="M 248.850 141.650 L 279.500 141.500 L 279.500 159 L 181 159 L 181 141.500 L 212.900 141.450 " transform="matrix(1.0081218481063843, 0, 0, 1.2174811363220215, -180.65, -150.5)"/>
  <path id="ID0.5478785261511803" fill="none" stroke="#000000" stroke-width="2" d="M 268.400 159.950 L 268 205.500 L 193 205.500 L 192.900 159.550 " transform="matrix(1.1786667108535767, 0, 0, 1.2174811363220215, -220.8, -150.5)"/>
  <path id="ID0.6242861747741699" fill="none" stroke="#000000" stroke-width="2" d="M 240.500 158.750 L 241 205 L 219.250 205 L 219.750 157.950 " transform="matrix(1, 0, 0, 1.2271054983139038, -179.5, -151.3)"/>
  <path id="ID0.09181861579418182" fill="none" stroke="#000000" stroke-width="2" stroke-linecap="round" d="M 223.250 126.150 C 218.936 126.459 214.561 128.357 210.500 127.150 C 206.415 125.986 202.420 123.198 200.400 119.500 C 199.098 117.088 199.884 112.875 202 110.850 C 204.781 108.192 209.336 107.619 213.250 107.350 C 216.552 107.123 219.736 108.372 222.750 109.500 C 225.611 110.437 227.772 113.467 230.750 113.500 C 232.960 113.524 234.195 110.750 236.100 109.750 C 238.169 108.620 240.305 107.324 242.600 107.150 C 246.159 106.880 250.230 106.449 253.250 108.350 C 256.280 110.261 258.119 114.008 258.900 117.500 C 259.394 119.762 258.199 122.261 256.900 124.250 C 255.898 125.678 254.154 126.830 252.400 127.150 C 248.472 127.865 244.283 126.661 240.250 127.150 C 239.276 127.287 239.422 128.088 239.600 128.750 C 240.314 131.400 241.179 134.100 242.550 136.500 C 243.359 137.901 246.945 138.796 246.050 139.750 C 244.544 141.546 240.019 143.699 237.750 142 C 233.714 138.974 232.777 133.149 230.800 128.500 C 230.305 127.333 230.421 126.665 230.300 125.750 C 230.404 125.251 231.052 123.368 230.750 124.350 C 229.547 128.272 229.218 132.518 227.500 136.250 C 226.415 138.604 225.160 141.281 222.800 142 C 220.525 142.697 217.080 141.313 216.050 139.750 C 215.330 138.812 218.610 138.234 219.300 137 C 221.156 133.628 222.153 129.732 223.500 126.250 C 223.837 125.380 224.328 126.073 223.250 126.150 Z " transform="matrix(1, 0, 0, 1, -180.3, -105.5)"/>
  <path id="ID0.16274460824206471" fill="none" stroke="#000000" stroke-width="2" stroke-linecap="round" d="M 244.600 113.750 C 246.639 113.540 248.929 113.370 250.750 114.350 C 251.955 115.008 252.555 116.847 252.400 118.125 C 252.259 119.269 251.509 120.031 250.070 120.688 C 248.631 121.344 246.385 121.997 244.450 121.750 C 240.615 120.981 238.203 120.463 236.250 118.350 C 235.490 117.412 237.713 116.163 238.830 115.562 C 240.575 114.621 242.587 113.952 244.600 113.750 Z " transform="matrix(1, 0, 0, 1, -180, -106)"/>
  <path id="ID0.16274460824206471" fill="none" stroke="#000000" stroke-width="2" stroke-linecap="round" d="M 245.150 113.350 C 247.031 113.317 249.131 113.285 250.750 114.350 C 251.896 115.104 252.555 116.847 252.400 118.125 C 252.259 119.269 251.509 120.031 250.070 120.688 C 248.631 121.344 246.335 122.025 244.450 121.750 C 240.763 121.210 235.583 120.602 233.900 118.350 C 232.921 117.043 237.151 115.264 239.150 114.350 C 240.963 113.526 243.107 113.317 245.150 113.350 Z " transform="matrix(-1, 0, 0, 1, 279.9, -105.5)"/>
</svg>