<svg version="1.1" width="91" height="99" viewBox="5 -1 91 99" xmlns="http://www.w3.org/2000/svg" xmlns:xlink="http://www.w3.org/1999/xlink">
  <!-- Exported by Scratch - http://scratch.mit.edu/ -->
  <path id="ID0.6785910106264055" fill="none" stroke="#000000" stroke-width="3" stroke-linecap="round" d="M 237.250 132 C 242.768 132 247.744 134.296 251.388 137.862 C 255.098 141.491 257.635 146.990 258 152.250 C 258.372 157.610 257.619 164.195 253.750 168 C 249.611 171.817 242.836 171.953 237.250 172 C 231.759 172.047 225.312 171.649 221.250 168 C 217.333 164.241 215.960 157.840 216.250 152.500 C 216.541 147.123 219.311 141.498 223.112 137.862 C 226.795 134.339 231.732 132 237.250 132 Z " transform="matrix(1, 0, 0, 1, -186, -129.75)"/>
  <path id="ID0.6820384645834565" fill="none" stroke="#000000" stroke-width="3" stroke-linecap="round" d="M 275.678 168.524 C 275.678 168.524 280.847 172.481 281.600 176.750 C 282.453 181.832 277.286 186.319 276.650 191.450 C 276.201 194.558 278.597 197.462 278.450 200.700 C 278.339 203.134 276.317 204.550 275.750 207.500 C 275.365 209.372 277.112 211.949 275.750 213 C 272.806 215.246 268.331 217.086 265 215.850 C 262.485 214.909 263.285 210.741 262.150 208.300 C 261.159 206.154 259.774 204.852 258.800 202.950 C 258.344 201.824 257.900 199.300 257.900 199.300 " transform="matrix(0.7256200909614563, -0.5950896143913269, 0.5950896143913269, 0.7256200909614563, -233.05, 81.75)"/>
  <path id="ID0.9095097710378468" fill="none" stroke="#000000" stroke-width="3" stroke-linecap="round" d="M 227.650 170.250 C 227.650 170.250 222.050 175.450 221.150 179 C 220.400 181.800 223.900 184.800 223.500 187.800 C 222.950 191.250 219.200 193.800 218.500 197.300 C 218 199.400 220.450 201.150 220.500 203.300 C 220.500 205.700 218.350 207.750 218.500 210.050 C 218.700 212.300 221.500 216.050 221.500 216.050 L 221.500 226 L 255.750 226 L 255.500 217.050 C 255.425 214.395 258.300 213.300 258.500 211.050 C 258.650 208.750 256.500 206.700 256.500 204.300 C 256.550 202.150 259 200.400 258.500 198.300 C 257.800 194.800 254.050 192.250 253.500 188.800 C 253.100 185.800 256.600 182.800 255.850 180 C 254.950 176.450 249.350 171.250 249.350 171.250 " transform="matrix(1, 0, 0, 1, -187, -129)"/>
  <path id="ID0.5810869378037751" fill="none" stroke="#000000" stroke-width="3" stroke-linecap="round" d="M 242.375 142 C 246.755 142 250.724 143.779 253.597 146.653 C 256.471 149.526 258.250 153.495 258.250 157.875 C 258.250 162.255 256.471 166.224 253.597 169.097 C 250.724 171.971 246.755 173.750 242.375 173.750 C 237.995 173.750 234.026 171.971 231.153 169.097 C 228.279 166.224 226.500 162.255 226.500 157.875 C 226.500 153.495 228.279 149.526 231.153 146.653 C 234.026 143.779 237.995 142 242.375 142 Z " transform="matrix(1, 0, 0, 1, -191, -131.75)"/>
  <path id="ID0.8986574583686888" fill="none" stroke="#000000" stroke-width="3" stroke-linecap="round" d="M 236.500 177.500 L 236.500 223.500 " transform="matrix(1, 0, 0, 1, -186, -128.75)"/>
  <path id="ID0.6820384645834565" fill="none" stroke="#000000" stroke-width="3" stroke-linecap="round" d="M 271 167 C 271 167 275.819 168.563 277.700 170.150 C 279.498 171.948 281.339 173.535 281.600 176.750 C 281.804 181.857 277.268 186.315 276.650 191.450 C 276.183 194.558 278.597 197.462 278.450 200.700 C 278.339 203.134 276.317 204.550 275.750 207.500 C 275.365 209.372 277.112 211.949 275.750 213 C 272.806 215.246 268.331 217.086 265 215.850 C 262.485 214.909 263.277 210.772 262.150 208.300 C 260.788 205.283 258.214 202.605 257.900 199.300 C 257.508 195.183 260.250 187.350 260.250 187.350 " transform="matrix(-0.7256200909614563, -0.5950896143913269, -0.5950896143913269, 0.7256200909614563, 335.25, 80.8)"/>
</svg>