<svg version="1.1" width="176" height="66" viewBox="-1 -1 176 66" xmlns="http://www.w3.org/2000/svg" xmlns:xlink="http://www.w3.org/1999/xlink">
  <!-- Exported by Scratch - http://scratch.mit.edu/ -->
  <g id="ID0.2900418536737561">
    <path id="ID0.7727377023547888" fill="#FF5C5C" stroke="#000000" stroke-width="3" stroke-linecap="round" d="M 289.750 148.500 C 296.687 148.640 304.816 147.908 310.500 152 C 315.744 155.782 318.428 163.241 318.750 169.750 C 319.012 175.098 316.138 180.461 312.500 184 C 308.917 187.501 301.536 185.424 298.750 189.250 C 295.905 193.159 300.310 199.378 298 203.750 C 296.643 206.307 292.641 206.420 289.750 206.500 C 286.951 206.573 282.635 207.216 281.750 204.750 C 278.699 196.081 279.737 186.601 279.500 177.500 C 279.278 168.999 277.232 159.865 280 151.750 C 281.219 148.585 286.329 148.430 289.750 148.500 Z " transform="matrix(1, 0, 0, 1, -276.8, -143.6)"/>
    <path id="ID0.2972961845807731" fill="none" stroke="#000000" stroke-width="3" stroke-linecap="round" d="M 298.250 161 C 299.976 162.470 300.998 164.780 301.250 167 C 301.419 168.523 300.438 170.077 299.450 171.250 C 298.734 172.051 296.841 173.529 296.483 172.522 C 295.418 169.528 296.001 166.120 296.483 162.978 C 296.617 162.105 297.578 160.428 298.250 161 Z " transform="matrix(1, 0, 0, 1, -276.8, -143.6)"/>
  </g>
  <path id="ID0.1656773085705936" fill="#FFA143" stroke="#000000" stroke-width="3" stroke-linecap="round" d="M 332 81 C 334.806 80.379 338.363 81.106 340 83.250 C 342.268 86.281 341.849 90.666 342 94.250 C 342.364 102.983 339.080 112.110 341.750 120.500 C 342.712 123.520 349.326 120.082 351 122.750 C 353.186 126.294 354.592 132.943 351.250 135.750 C 346.211 139.670 338.325 139.316 332 138 C 328.438 137.255 325.997 133.138 324.931 129.647 C 322.831 122.768 323.098 115.112 323 107.750 C 322.788 100.957 321.782 93.851 324 87.250 C 325.078 84.046 328.703 81.738 332 81 Z " transform="matrix(1, 0, 0, 1, -274.05, -75.95)"/>
  <g id="ID0.9453791552223265" transform="matrix(1, 0, 0, 1, 3, 0)">
    <path id="ID0.02188736805692315" fill="#89FF54" stroke="#000000" stroke-width="3" stroke-linecap="round" d="M 144 17 C 148.163 14.542 153.172 11.896 158 12.500 C 163.124 13.467 169.461 16.265 171 21.250 C 175.672 36.387 176.226 52.735 175.250 68.500 C 175.006 72.442 171.011 72.350 168.500 72.500 C 165.987 72.634 163.488 70.906 162 69.250 C 160.226 67.246 161.017 63.269 158.500 62 C 156.111 60.768 152.425 61.362 150.500 63.250 C 148.157 65.534 150.924 71.369 148 72.750 C 143.776 74.496 136.425 74.199 134.500 70.250 C 130.726 62.460 133.094 52.892 133.750 44.250 C 134.146 37.790 135.409 31.191 137.638 25.206 C 138.885 21.832 141.024 18.757 144 17 Z " transform="matrix(1, 0, 0, 1, -48.9, -10.15)"/>
    <path id="ID0.7165342345833778" fill="none" stroke="#000000" stroke-width="3" stroke-linecap="round" d="M 154.750 27.850 C 155.240 27.963 155.552 30.279 155.774 31.674 C 156.081 33.654 156.212 35.971 156.250 38.125 C 156.301 40.986 156.511 43.987 156 46.850 C 155.872 47.563 155.193 48.134 154.600 48.100 C 153.824 48.024 153.010 47.325 152.900 46.600 C 152.479 43.811 152.908 40.958 153 38.125 C 153.070 35.971 153.134 33.648 153.476 31.674 C 153.722 30.265 154.244 27.963 154.750 27.850 Z " transform="matrix(1, 0, 0, 1, -48.9, -10.15)"/>
  </g>
  <path id="ID0.3474541986361146" fill="#77BBFF" stroke="#000000" stroke-width="3" stroke-linecap="round" d="M 132.500 283 C 135.847 284.103 136.407 288.914 138.250 292 C 139.989 294.994 141.128 302.773 143.250 301.250 C 147.117 298.469 146.338 288.468 150.500 283.750 C 152.406 281.640 156.152 281.907 158.750 282.750 C 161.206 283.779 163.977 286.096 164 288.750 C 164.057 295.709 160.959 302.652 158.750 309.500 C 158.028 311.780 155.765 313.596 155.250 316 C 153.763 322.936 156.627 330.896 153 336.750 C 150.442 340.811 142.917 344.394 139.500 341.250 C 134.289 336.448 136.999 327.288 134.750 320.500 C 133.798 317.626 131.303 315.355 130 312.750 C 127.755 308.251 124.742 303.815 123.750 299 C 122.963 295.163 122.460 290.568 124.370 287.250 C 125.899 284.601 129.600 282.044 132.500 283 Z " transform="matrix(1, 0, 0, 1, 9.65, -278.5)"/>
</svg>