<svg version="1.1" width="101" height="101" viewBox="-1 -1 101 101" xmlns="http://www.w3.org/2000/svg" xmlns:xlink="http://www.w3.org/1999/xlink">
  <!-- Exported by Scratch - http://scratch.mit.edu/ -->
  <g id="ID0.8967206920497119">
    <path id="ID0.272354687564075" fill="#C39A89" stroke="#000000" stroke-width="3" stroke-linecap="round" d="M 213.250 82.600 C 225.852 82.988 261.499 65.811 286.650 65.500 C 304.310 65.241 323.850 71.900 336.950 82.600 C 349.550 93.100 355.050 108.850 357.850 124 C 359.550 134 355.750 143.950 351.700 153.050 C 349.350 158.250 342.200 161.050 338.500 166 C 336.950 168 336.700 168.100 336.450 173.050 L 334.850 230.850 L 333 313 L 94.450 309.700 L 96.350 230.850 L 96.650 178.500 L 96.650 166 C 96.600 161.800 91.350 158.900 88.650 155.500 C 85.950 152.150 81.750 149.550 80.700 145.500 C 78.050 135.750 75.150 125.350 77.650 115.500 C 80.900 102.850 86.150 88.950 96.650 81.100 C 109.700 71.300 125.871 66.192 141.700 66.500 C 166.239 66.966 201.046 83.635 213.300 83.550 Z " transform="matrix(0.3507956564426422, 0, 0, 0.3507956564426422, -26.3, -11.75)"/>
    <path id="ID0.272354687564075" fill="#FFECC3" stroke="#000000" stroke-width="3" stroke-linecap="round" d="M 216.100 107.250 C 225.477 107.368 250.480 91.389 268.350 85.400 C 275.820 82.897 284.146 78.848 291.500 80.500 C 305.449 83.652 320.688 87.842 330.500 98.500 C 338.491 107.176 339.686 120.728 340.500 132.500 C 340.901 138.353 337.968 144.604 334.500 149.500 C 330.600 155.009 322.956 157.598 319.500 163.500 C 317.419 167 318.773 167.364 318.500 175.500 C 317.409 208.046 315.850 273.500 315.850 273.500 L 315.500 301.500 L 115.350 301.050 L 116.400 180.950 L 116.400 159.950 C 116.400 153 110.500 151.150 107.450 147 C 104.300 142.700 98.900 138.750 97.400 133 C 95.750 126.100 95.850 118.400 98.400 111 C 100.950 103.500 105.600 95.900 112.400 92 C 122.850 85.800 134.612 79.404 146.450 80.950 C 170.756 84.224 203.696 106.349 216.050 106.800 Z " transform="matrix(0.3507956564426422, 0, 0, 0.3507956564426422, -26.65, -11.4)"/>
    <path id="ID0.6611503507010639" fill="#CFBC9E" stroke="none" stroke-linecap="round" d="M 212.750 112.500 C 226.752 112.500 239.439 114.181 248.626 116.896 C 257.813 119.612 262.552 121.970 263.500 127.500 C 264.259 132.008 256.701 136.373 251.500 137.500 C 238.890 140.039 225.653 138.725 212.500 138 C 198.417 137.223 183.350 138.597 170.500 132.500 C 163.896 129.368 157.886 117.967 159.500 113.500 C 160.789 109.996 171.140 116.998 176.874 116.896 C 188.888 116.699 198.748 112.500 212.750 112.500 Z " transform="matrix(0.3333057165145874, 0, 0, 0.3333057165145874, -23.55, -7.5)"/>
    <path id="ID0.5095221912488341" fill="#CFBC9E" stroke="none" stroke-linecap="round" d="M 167 272 C 168.993 271.826 171.082 273.450 171.500 275.250 C 172.655 280.220 171.857 285.768 171.500 291 C 171.223 295.068 170.395 299.346 169.750 303.500 C 169.589 304.537 170.114 303.962 169.550 304 C 167.278 303.962 164.804 304.427 162.750 303.500 C 161.651 303.005 161.648 301.382 161.345 300.164 C 160.394 296.321 159 293.052 159 288.500 C 159 283.948 159.896 279.823 161.345 276.836 C 162.793 273.849 164.603 272.229 167 272 Z " transform="matrix(0.3333057165145874, 0, 0, 0.3333057165145874, -25.3, -7.65)"/>
    <path id="ID0.2763961092568934" fill="#FFEE7C" stroke="#000000" stroke-width="3" stroke-linecap="round" d="M 184.350 120.050 C 186.346 123.121 180.788 127.309 181 131 C 181.254 135.360 185.931 139.234 185 143.500 C 183.816 148.833 180.358 155.385 175 157.500 C 166.990 160.092 157.988 155.447 149.500 156 C 143.283 156.405 136.807 163.429 131.350 160.550 C 126.404 157.754 130.024 148.987 127.500 144 C 126.206 141.444 122.072 141.389 120.500 139 C 118.474 135.839 116.823 131.395 118 127.500 C 118.561 124.441 123.886 124.336 125 121 C 126.520 116.416 121.223 110.001 124.500 106.500 C 128.479 102.263 136.078 104.601 141.500 102.500 C 144.958 101.156 147.438 97.675 150.850 96.050 C 152.276 95.388 153.403 94.745 155.850 96.550 C 165.637 103.772 176.892 110.171 184.350 120.050 Z " transform="matrix(-0.3333057165145874, 0, 0, 0.3333057165145874, 120.55, -4.65)"/>
    <path id="ID0.6717009982094169" fill="#FF5151" stroke="#000000" stroke-width="3" stroke-linecap="round" d="M 99 242 L 339 242 L 339 277 L 99 277 L 99 242 Z " transform="matrix(0.3503139317035675, 0, 0, 0.4341745674610138, -26.9, -36.15)"/>
    <path id="ID0.5742413708940148" fill="#000000" stroke="#000000" stroke-width="3" d="M 162 198 C 164.759 198 167.259 199.121 169.069 200.931 C 170.879 202.741 172 205.241 172 208 C 172 210.759 170.879 213.259 169.069 215.069 C 167.259 216.879 164.759 218 162 218 C 159.241 218 156.741 216.879 154.931 215.069 C 153.121 213.259 152 210.759 152 208 C 152 205.241 153.121 202.741 154.931 200.931 C 156.741 199.121 159.241 198 162 198 Z " transform="matrix(0.34177446365356445, 0, 0, 0.34177446365356445, -22.65, -9.65)"/>
    <path id="ID0.5742413708940148" fill="#000000" stroke="#000000" stroke-width="3" d="M 162 198 C 164.759 198 167.259 199.121 169.069 200.931 C 170.879 202.741 172 205.241 172 208 C 172 210.759 170.879 213.259 169.069 215.069 C 167.259 216.879 164.759 218 162 218 C 159.241 218 156.741 216.879 154.931 215.069 C 153.121 213.259 152 210.759 152 208 C 152 205.241 153.121 202.741 154.931 200.931 C 156.741 199.121 159.241 198 162 198 Z " transform="matrix(0.34177446365356445, 0, 0, 0.34177446365356445, 7.8, -9.65)"/>
    <path id="ID0.6809213594533503" fill="none" stroke="#000000" stroke-width="3" stroke-linecap="round" d="M 203.500 209.250 C 203.500 209.250 206.343 211.112 208 211 C 209.198 210.913 211 209 211 209 " transform="matrix(0.34177446365356445, 0, 0, 0.34177446365356445, -23.9, -10.5)"/>
    <path id="ID0.999744875356555" fill="#FFAAAA" stroke="#000000" stroke-width="3" d="M 276.500 218.250 C 277.948 218.250 279.261 218.614 280.211 219.203 C 281.162 219.791 281.750 220.603 281.750 221.500 C 281.750 222.397 281.162 223.209 280.211 223.797 C 279.261 224.386 277.948 224.750 276.500 224.750 C 275.052 224.750 273.739 224.386 272.789 223.797 C 271.838 223.209 271.250 222.397 271.250 221.500 C 271.250 220.603 271.838 219.791 272.789 219.203 C 273.739 218.614 275.052 218.250 276.500 218.250 Z " transform="matrix(0.34177446365356445, 0, 0, 0.34177446365356445, -25.55, -10.7)"/>
    <path id="ID0.21418979112058878" fill="#EADA71" stroke="none" stroke-linecap="round" d="M 256 128.500 C 257.793 128.500 259.036 129.590 260.595 129.892 C 261.366 130.050 262.877 128.631 262.900 129.400 C 262.963 131.732 262.203 134.145 260.800 135.900 C 259.993 136.992 258.273 136.814 257 137 C 255.726 137.190 254.113 137.970 253.150 137.250 C 251.548 136.035 250.415 133.990 250 132.100 C 249.815 131.249 250.655 130.380 251.405 129.892 C 252.745 129.024 254.207 128.500 256 128.500 Z " transform="matrix(0.3333057165145874, 0, 0, 0.3333057165145874, -23.55, -7.5)"/>
    <path id="ID0.4096234980970621" fill="#FFDB71" stroke="#000000" stroke-width="3" d="M 170.450 111.600 L 170 147.500 L 135 147.500 L 135 112.500 L 170.450 111.600 Z " transform="matrix(-0.33248230814933777, -0.023414246737957, -0.023414246737957, 0.33248230814933777, 123.45, -1.2)"/>
    <path id="ID0.999744875356555" fill="#FFAAAA" stroke="#000000" stroke-width="3" d="M 276.500 218.250 C 277.948 218.250 279.261 218.614 280.211 219.203 C 281.162 219.791 281.750 220.603 281.750 221.500 C 281.750 222.397 281.162 223.209 280.211 223.797 C 279.261 224.386 277.948 224.750 276.500 224.750 C 275.052 224.750 273.739 224.386 272.789 223.797 C 271.838 223.209 271.250 222.397 271.250 221.500 C 271.250 220.603 271.838 219.791 272.789 219.203 C 273.739 218.614 275.052 218.250 276.500 218.250 Z " transform="matrix(0.34177446365356445, 0, 0, 0.34177446365356445, -68.05, -10)"/>
    <path id="ID0.32116088829934597" fill="#FF7A7A" stroke="#000000" stroke-width="3" stroke-linecap="round" d="M 216 44 C 223.112 41.713 235.992 42.222 248 45 C 254.840 46.582 261.516 51.296 265.587 56.628 C 272.943 66.391 279.490 77.525 282 89.500 C 284.123 99.634 287.357 114.138 279 120 C 264.646 130.036 244.485 128.402 227 128 C 208.719 127.579 187.856 128.743 173 118 C 165.289 112.298 167.971 98.474 170 89.500 C 172.703 77.568 178.223 65.717 186.413 56.628 C 192.574 49.790 201.956 45.708 211 44 Z " transform="matrix(0.3333057165145874, 0, 0, 0.3333057165145874, -26.5, -6.5)"/>
    <path id="ID0.45980403758585453" fill="#96756A" stroke="none" stroke-linecap="round" d="M 160.350 306.650 C 161.371 306.613 162.470 306.578 163.550 306.700 C 163.781 306.730 163.839 306.617 163.800 307.050 C 163.644 308.783 163.840 310.628 163.050 312.150 C 162.754 312.740 161.755 312.411 161.100 312.400 C 159.963 312.381 158.547 312.546 157.600 312.100 C 157.257 311.906 158.511 311.539 158.519 311.121 C 158.531 310.372 157.750 309.828 157.750 309 C 157.750 308.172 157.947 307.365 158.519 306.879 C 158.987 306.483 159.736 306.672 160.350 306.650 Z " transform="matrix(0.3333057165145874, 0, 0, 0.3333057165145874, -23.55, -7.5)"/>
    <path id="ID0.5834744079038501" fill="#FFE3E3" stroke="#000000" stroke-width="3" stroke-linecap="round" d="M 218.500 24 C 223.604 24 228.229 26.073 231.578 29.422 C 234.927 32.771 237 37.396 237 42.500 C 237 47.604 234.927 52.229 231.578 55.578 C 228.229 58.927 223.604 61 218.500 61 C 213.396 61 208.771 58.927 205.422 55.578 C 202.073 52.229 200 47.604 200 42.500 C 200 37.396 202.073 32.771 205.422 29.422 C 208.771 26.073 213.396 24 218.500 24 Z " transform="matrix(0.3333057165145874, 0, 0, 0.3333057165145874, -22.55, -7.5)"/>
    <path id="ID0.01349221682175994" fill="#FF5151" stroke="#000000" stroke-width="3" stroke-linecap="round" d="M 137 277 L 126.500 310 L 156.500 317 L 159.500 275.500 L 136.500 277 Z " transform="matrix(0.3333057165145874, 0, 0, 0.3333057165145874, -23.55, -7.5)"/>
    <path id="ID0.7002794197760522" fill="#FF5151" stroke="#000000" stroke-width="3" stroke-linecap="round" d="M 107 275 L 138.500 275.500 L 122.200 320.550 L 87.250 308.450 L 105.900 275 Z " transform="matrix(0.3333057165145874, 0, 0, 0.3333057165145874, -23.55, -7.5)"/>
  </g>
</svg>