<svg version="1.1" width="101" height="101" viewBox="-1 -1 101 101" xmlns="http://www.w3.org/2000/svg" xmlns:xlink="http://www.w3.org/1999/xlink">
  <!-- Exported by Scratch - http://scratch.mit.edu/ -->
  <path id="ID0.5496289003640413" fill="#2B1B17" stroke="none" d="M 220.500 133 C 227.121 133 233.121 135.465 237.466 139.448 C 241.811 143.430 244.500 148.930 244.500 155 C 244.500 161.070 241.811 166.570 237.466 170.552 C 233.121 174.535 227.121 177 220.500 177 C 213.879 177 207.879 174.535 203.534 170.552 C 199.189 166.570 196.500 161.070 196.500 155 C 196.500 148.930 199.189 143.430 203.534 139.448 C 207.879 135.465 213.879 133 220.500 133 Z " transform="matrix(1.0569690465927124, 0, 0, 1.071884274482727, -207.55, -141.8)"/>
  <path id="ID0.5496289003640413" fill="#2B1B17" stroke="none" d="M 220.500 133 C 227.121 133 233.121 135.465 237.466 139.448 C 241.811 143.430 244.500 148.930 244.500 155 C 244.500 161.070 241.811 166.570 237.466 170.552 C 233.121 174.535 227.121 177 220.500 177 C 213.879 177 207.879 174.535 203.534 170.552 C 199.189 166.570 196.500 161.070 196.500 155 C 196.500 148.930 199.189 143.430 203.534 139.448 C 207.879 135.465 213.879 133 220.500 133 Z " transform="matrix(1.0569690465927124, 0, 0, 1.071884274482727, -158.45, -141.15)"/>
  <path id="ID0.44242872949689627" fill="#2B1B17" stroke="none" d="M 198.500 160.500 L 274 160.500 L 274 218 L 198.500 218 L 198.500 160.500 Z " transform="matrix(1.0569690465927124, 0, 0, 1.288088083267212, -199.8, -180.8)"/>
  <path id="ID0.44242872949689627" fill="#4C3029" stroke="none" stroke-linecap="round" d="M 198.500 160.500 L 274 160.500 L 274 218 L 198.500 218 L 198.500 160.500 Z " transform="matrix(0.8762859106063843, 0, 0, 1.1865516901016235, -158.2, -163.3)"/>
  <path id="ID0.5496289003640413" fill="#4C3029" stroke="none" d="M 220.500 133 C 227.121 133 233.121 135.465 237.466 139.448 C 241.811 143.430 244.500 148.930 244.500 155 C 244.500 161.070 241.811 166.570 237.466 170.552 C 233.121 174.535 227.121 177 220.500 177 C 213.879 177 207.879 174.535 203.534 170.552 C 199.189 166.570 196.500 161.070 196.500 155 C 196.500 148.930 199.189 143.430 203.534 139.448 C 207.879 135.465 213.879 133 220.500 133 Z " transform="matrix(0.8387754559516907, 0, 0, 0.850611686706543, -111.5, -106.55)"/>
  <path id="ID0.5496289003640413" fill="#4C3029" stroke="none" d="M 220.500 133 C 227.121 133 233.121 135.465 237.466 139.448 C 241.811 143.430 244.500 148.930 244.500 155 C 244.500 161.070 241.811 166.570 237.466 170.552 C 233.121 174.535 227.121 177 220.500 177 C 213.879 177 207.879 174.535 203.534 170.552 C 199.189 166.570 196.500 161.070 196.500 155 C 196.500 148.930 199.189 143.430 203.534 139.448 C 207.879 135.465 213.879 133 220.500 133 Z " transform="matrix(0.8450272083282471, 0, 0, 0.8569516539573669, -160.6, -108.2)"/>
  <g id="ID0.025164038874208927">
    <path id="ID0.8229372552596033" fill="none" stroke="#2B1B17" stroke-width="2" stroke-linecap="round" d="M 237.750 167.700 L 237.750 179 " transform="matrix(1.0352873802185059, 0, 0, 1.0498968362808228, -179.45, -140.9)"/>
    <path id="ID0.8229372552596033" fill="none" stroke="#2B1B17" stroke-width="2" stroke-linecap="round" d="M 237.750 167.700 L 237.750 179 " transform="matrix(1.0352873802185059, 0, 0, 1.0498968362808228, -172.95, -140.9)"/>
    <path id="ID0.8229372552596033" fill="none" stroke="#2B1B17" stroke-width="2" stroke-linecap="round" d="M 237.750 167.700 L 237.750 179 " transform="matrix(-0.014208488166332245, 1.0497980117797852, -1.0351898670196533, -0.014408991672098637, 252.6, -202.45)"/>
    <path id="ID0.8229372552596033" fill="none" stroke="#2B1B17" stroke-width="2" stroke-linecap="round" d="M 237.750 167.700 L 237.750 179 " transform="matrix(-0.014208488166332245, 1.0497980117797852, -1.0351898670196533, -0.014408991672098637, 252.55, -209.15)"/>
  </g>
  <g id="ID0.025164038874208927">
    <path id="ID0.8229372552596033" fill="none" stroke="#2B1B17" stroke-width="2" stroke-linecap="round" d="M 237.750 167.700 L 237.750 179 " transform="matrix(1.2795687913894653, 0, 0, 1.2976253032684326, -285.1, -201.9)"/>
    <path id="ID0.8229372552596033" fill="none" stroke="#2B1B17" stroke-width="2" stroke-linecap="round" d="M 237.750 167.700 L 237.750 179 " transform="matrix(1.2795687913894653, 0, 0, 1.2976253032684326, -277.1, -201.9)"/>
    <path id="ID0.8229372552596033" fill="none" stroke="#2B1B17" stroke-width="2" stroke-linecap="round" d="M 237.750 167.700 L 237.750 179 " transform="matrix(-0.017561055719852448, 1.297503113746643, -1.2794482707977295, -0.017808865755796432, 248.9, -278)"/>
    <path id="ID0.8229372552596033" fill="none" stroke="#2B1B17" stroke-width="2" stroke-linecap="round" d="M 237.750 167.700 L 237.750 179 " transform="matrix(-0.017561055719852448, 1.297503113746643, -1.2794482707977295, -0.017808865755796432, 248.85, -286.3)"/>
  </g>
  <g id="ID0.025164038874208927">
    <path id="ID0.8229372552596033" fill="none" stroke="#2B1B17" stroke-width="2" stroke-linecap="round" d="M 237.750 167.700 L 237.750 179 " transform="matrix(0.6203970313072205, 0, 0, 0.6291516423225403, -114.6, -91)"/>
    <path id="ID0.8229372552596033" fill="none" stroke="#2B1B17" stroke-width="2" stroke-linecap="round" d="M 237.750 167.700 L 237.750 179 " transform="matrix(0.6203970313072205, 0, 0, 0.6291516423225403, -110.7, -91)"/>
    <path id="ID0.8229372552596033" fill="none" stroke="#2B1B17" stroke-width="2" stroke-linecap="round" d="M 237.750 167.700 L 237.750 179 " transform="matrix(-0.008514451794326305, 0.6290923953056335, -0.6203386187553406, -0.008634601719677448, 144.3, -127.85)"/>
    <path id="ID0.8229372552596033" fill="none" stroke="#2B1B17" stroke-width="2" stroke-linecap="round" d="M 237.750 167.700 L 237.750 179 " transform="matrix(-0.008514451794326305, 0.6290923953056335, -0.6203386187553406, -0.008634601719677448, 144.25, -131.9)"/>
  </g>
  <g id="ID0.025164038874208927">
    <path id="ID0.8229372552596033" fill="none" stroke="#2B1B17" stroke-width="2" stroke-linecap="round" d="M 237.750 167.700 L 237.750 179 " transform="matrix(1.0352873802185059, 0, 0, 1.0498968362808228, -223.3, -95.35)"/>
    <path id="ID0.8229372552596033" fill="none" stroke="#2B1B17" stroke-width="2" stroke-linecap="round" d="M 237.750 167.700 L 237.750 179 " transform="matrix(1.0352873802185059, 0, 0, 1.0498968362808228, -216.8, -95.35)"/>
    <path id="ID0.8229372552596033" fill="none" stroke="#2B1B17" stroke-width="2" stroke-linecap="round" d="M 237.750 167.700 L 237.750 179 " transform="matrix(-0.014208488166332245, 1.0497980117797852, -1.0351898670196533, -0.014408991672098637, 208.75, -156.9)"/>
    <path id="ID0.8229372552596033" fill="none" stroke="#2B1B17" stroke-width="2" stroke-linecap="round" d="M 237.750 167.700 L 237.750 179 " transform="matrix(-0.014208488166332245, 1.0497980117797852, -1.0351898670196533, -0.014408991672098637, 208.7, -163.6)"/>
  </g>
</svg>