<svg version="1.1" width="351" height="293" viewBox="-1 -1 351 293" xmlns="http://www.w3.org/2000/svg" xmlns:xlink="http://www.w3.org/1999/xlink">
  <!-- Exported by Scratch - http://scratch.mit.edu/ -->
  <g id="ID0.8967206920497119" transform="matrix(1, 0, 0, 1, 197, 166.05)">
    <path id="ID0.272354687564075" fill="#C39A89" stroke="#000000" stroke-width="3" stroke-linecap="round" d="M 213.250 82.600 C 225.852 82.988 261.499 65.811 286.650 65.500 C 304.310 65.241 323.850 71.900 336.950 82.600 C 349.550 93.100 355.050 108.850 357.850 124 C 359.550 134 355.750 143.950 351.700 153.050 C 349.350 158.250 342.200 161.050 338.500 166 C 336.950 168 336.700 168.100 336.450 173.050 L 334.850 230.850 L 333 313 L 94.450 309.700 L 96.350 230.850 L 96.650 178.500 L 96.650 166 C 96.600 161.800 91.350 158.900 88.650 155.500 C 85.950 152.150 81.750 149.550 80.700 145.500 C 78.050 135.750 75.150 125.350 77.650 115.500 C 80.900 102.850 86.150 88.950 96.650 81.100 C 109.700 71.300 125.871 66.192 141.700 66.500 C 166.239 66.966 201.046 83.635 213.300 83.550 Z " transform="matrix(0.3507956564426422, 0, 0, 0.3507956564426422, -26.3, -11.75)"/>
    <path id="ID0.272354687564075" fill="#FFECC3" stroke="#000000" stroke-width="3" stroke-linecap="round" d="M 216.100 107.250 C 225.477 107.368 250.480 91.389 268.350 85.400 C 275.820 82.897 284.146 78.848 291.500 80.500 C 305.449 83.652 320.688 87.842 330.500 98.500 C 338.491 107.176 339.686 120.728 340.500 132.500 C 340.901 138.353 337.968 144.604 334.500 149.500 C 330.600 155.009 322.956 157.598 319.500 163.500 C 317.419 167 318.773 167.364 318.500 175.500 C 317.409 208.046 315.850 273.500 315.850 273.500 L 315.500 301.500 L 115.350 301.050 L 116.400 180.950 L 116.400 159.950 C 116.400 153 110.500 151.150 107.450 147 C 104.300 142.700 98.900 138.750 97.400 133 C 95.750 126.100 95.850 118.400 98.400 111 C 100.950 103.500 105.600 95.900 112.400 92 C 122.850 85.800 134.612 79.404 146.450 80.950 C 170.756 84.224 203.696 106.349 216.050 106.800 Z " transform="matrix(0.3507956564426422, 0, 0, 0.3507956564426422, -26.65, -11.4)"/>
    <path id="ID0.6611503507010639" fill="#CFBC9E" stroke="none" stroke-linecap="round" d="M 212.750 112.500 C 226.752 112.500 239.439 114.181 248.626 116.896 C 257.813 119.612 262.552 121.970 263.500 127.500 C 264.259 132.008 256.701 136.373 251.500 137.500 C 238.890 140.039 225.653 138.725 212.500 138 C 198.417 137.223 183.350 138.597 170.500 132.500 C 163.896 129.368 157.886 117.967 159.500 113.500 C 160.789 109.996 171.140 116.998 176.874 116.896 C 188.888 116.699 198.748 112.500 212.750 112.500 Z " transform="matrix(0.3333057165145874, 0, 0, 0.3333057165145874, -23.55, -7.5)"/>
    <path id="ID0.5095221912488341" fill="#CFBC9E" stroke="none" stroke-linecap="round" d="M 167 272 C 168.993 271.826 171.082 273.450 171.500 275.250 C 172.655 280.220 171.857 285.768 171.500 291 C 171.223 295.068 170.395 299.346 169.750 303.500 C 169.589 304.537 170.114 303.962 169.550 304 C 167.278 303.962 164.804 304.427 162.750 303.500 C 161.651 303.005 161.648 301.382 161.345 300.164 C 160.394 296.321 159 293.052 159 288.500 C 159 283.948 159.896 279.823 161.345 276.836 C 162.793 273.849 164.603 272.229 167 272 Z " transform="matrix(0.3333057165145874, 0, 0, 0.3333057165145874, -25.3, -7.65)"/>
    <path id="ID0.2763961092568934" fill="#FFEE7C" stroke="#000000" stroke-width="3" stroke-linecap="round" d="M 184.350 120.050 C 186.346 123.121 180.788 127.309 181 131 C 181.254 135.360 185.931 139.234 185 143.500 C 183.816 148.833 180.358 155.385 175 157.500 C 166.990 160.092 157.988 155.447 149.500 156 C 143.283 156.405 136.807 163.429 131.350 160.550 C 126.404 157.754 130.024 148.987 127.500 144 C 126.206 141.444 122.072 141.389 120.500 139 C 118.474 135.839 116.823 131.395 118 127.500 C 118.561 124.441 123.886 124.336 125 121 C 126.520 116.416 121.223 110.001 124.500 106.500 C 128.479 102.263 136.078 104.601 141.500 102.500 C 144.958 101.156 147.438 97.675 150.850 96.050 C 152.276 95.388 153.403 94.745 155.850 96.550 C 165.637 103.772 176.892 110.171 184.350 120.050 Z " transform="matrix(-0.3333057165145874, 0, 0, 0.3333057165145874, 120.55, -4.65)"/>
    <path id="ID0.6717009982094169" fill="#FF5151" stroke="#000000" stroke-width="3" stroke-linecap="round" d="M 99 242 L 339 242 L 339 277 L 99 277 L 99 242 Z " transform="matrix(0.3503139317035675, 0, 0, 0.4341745674610138, -26.9, -36.15)"/>
    <path id="ID0.5742413708940148" fill="#000000" stroke="#000000" stroke-width="3" d="M 162 198 C 164.759 198 167.259 199.121 169.069 200.931 C 170.879 202.741 172 205.241 172 208 C 172 210.759 170.879 213.259 169.069 215.069 C 167.259 216.879 164.759 218 162 218 C 159.241 218 156.741 216.879 154.931 215.069 C 153.121 213.259 152 210.759 152 208 C 152 205.241 153.121 202.741 154.931 200.931 C 156.741 199.121 159.241 198 162 198 Z " transform="matrix(0.34177446365356445, 0, 0, 0.34177446365356445, -22.65, -9.65)"/>
    <path id="ID0.5742413708940148" fill="#000000" stroke="#000000" stroke-width="3" d="M 162 198 C 164.759 198 167.259 199.121 169.069 200.931 C 170.879 202.741 172 205.241 172 208 C 172 210.759 170.879 213.259 169.069 215.069 C 167.259 216.879 164.759 218 162 218 C 159.241 218 156.741 216.879 154.931 215.069 C 153.121 213.259 152 210.759 152 208 C 152 205.241 153.121 202.741 154.931 200.931 C 156.741 199.121 159.241 198 162 198 Z " transform="matrix(0.34177446365356445, 0, 0, 0.34177446365356445, 7.8, -9.65)"/>
    <path id="ID0.6809213594533503" fill="none" stroke="#000000" stroke-width="3" stroke-linecap="round" d="M 203.500 209.250 C 203.500 209.250 206.343 211.112 208 211 C 209.198 210.913 211 209 211 209 " transform="matrix(0.34177446365356445, 0, 0, 0.34177446365356445, -23.9, -10.5)"/>
    <path id="ID0.999744875356555" fill="#FFAAAA" stroke="#000000" stroke-width="3" d="M 276.500 218.250 C 277.948 218.250 279.261 218.614 280.211 219.203 C 281.162 219.791 281.750 220.603 281.750 221.500 C 281.750 222.397 281.162 223.209 280.211 223.797 C 279.261 224.386 277.948 224.750 276.500 224.750 C 275.052 224.750 273.739 224.386 272.789 223.797 C 271.838 223.209 271.250 222.397 271.250 221.500 C 271.250 220.603 271.838 219.791 272.789 219.203 C 273.739 218.614 275.052 218.250 276.500 218.250 Z " transform="matrix(0.34177446365356445, 0, 0, 0.34177446365356445, -25.55, -10.7)"/>
    <path id="ID0.21418979112058878" fill="#EADA71" stroke="none" stroke-linecap="round" d="M 256 128.500 C 257.793 128.500 259.036 129.590 260.595 129.892 C 261.366 130.050 262.877 128.631 262.900 129.400 C 262.963 131.732 262.203 134.145 260.800 135.900 C 259.993 136.992 258.273 136.814 257 137 C 255.726 137.190 254.113 137.970 253.150 137.250 C 251.548 136.035 250.415 133.990 250 132.100 C 249.815 131.249 250.655 130.380 251.405 129.892 C 252.745 129.024 254.207 128.500 256 128.500 Z " transform="matrix(0.3333057165145874, 0, 0, 0.3333057165145874, -23.55, -7.5)"/>
    <path id="ID0.4096234980970621" fill="#FFDB71" stroke="#000000" stroke-width="3" d="M 170.450 111.600 L 170 147.500 L 135 147.500 L 135 112.500 L 170.450 111.600 Z " transform="matrix(-0.33248230814933777, -0.023414246737957, -0.023414246737957, 0.33248230814933777, 123.45, -1.2)"/>
    <path id="ID0.999744875356555" fill="#FFAAAA" stroke="#000000" stroke-width="3" d="M 276.500 218.250 C 277.948 218.250 279.261 218.614 280.211 219.203 C 281.162 219.791 281.750 220.603 281.750 221.500 C 281.750 222.397 281.162 223.209 280.211 223.797 C 279.261 224.386 277.948 224.750 276.500 224.750 C 275.052 224.750 273.739 224.386 272.789 223.797 C 271.838 223.209 271.250 222.397 271.250 221.500 C 271.250 220.603 271.838 219.791 272.789 219.203 C 273.739 218.614 275.052 218.250 276.500 218.250 Z " transform="matrix(0.34177446365356445, 0, 0, 0.34177446365356445, -68.05, -10)"/>
    <path id="ID0.32116088829934597" fill="#FF7A7A" stroke="#000000" stroke-width="3" stroke-linecap="round" d="M 216 44 C 223.112 41.713 235.992 42.222 248 45 C 254.840 46.582 261.516 51.296 265.587 56.628 C 272.943 66.391 279.490 77.525 282 89.500 C 284.123 99.634 287.357 114.138 279 120 C 264.646 130.036 244.485 128.402 227 128 C 208.719 127.579 187.856 128.743 173 118 C 165.289 112.298 167.971 98.474 170 89.500 C 172.703 77.568 178.223 65.717 186.413 56.628 C 192.574 49.790 201.956 45.708 211 44 Z " transform="matrix(0.3333057165145874, 0, 0, 0.3333057165145874, -26.5, -6.5)"/>
    <path id="ID0.45980403758585453" fill="#96756A" stroke="none" stroke-linecap="round" d="M 160.350 306.650 C 161.371 306.613 162.470 306.578 163.550 306.700 C 163.781 306.730 163.839 306.617 163.800 307.050 C 163.644 308.783 163.840 310.628 163.050 312.150 C 162.754 312.740 161.755 312.411 161.100 312.400 C 159.963 312.381 158.547 312.546 157.600 312.100 C 157.257 311.906 158.511 311.539 158.519 311.121 C 158.531 310.372 157.750 309.828 157.750 309 C 157.750 308.172 157.947 307.365 158.519 306.879 C 158.987 306.483 159.736 306.672 160.350 306.650 Z " transform="matrix(0.3333057165145874, 0, 0, 0.3333057165145874, -23.55, -7.5)"/>
    <path id="ID0.5834744079038501" fill="#FFE3E3" stroke="#000000" stroke-width="3" stroke-linecap="round" d="M 218.500 24 C 223.604 24 228.229 26.073 231.578 29.422 C 234.927 32.771 237 37.396 237 42.500 C 237 47.604 234.927 52.229 231.578 55.578 C 228.229 58.927 223.604 61 218.500 61 C 213.396 61 208.771 58.927 205.422 55.578 C 202.073 52.229 200 47.604 200 42.500 C 200 37.396 202.073 32.771 205.422 29.422 C 208.771 26.073 213.396 24 218.500 24 Z " transform="matrix(0.3333057165145874, 0, 0, 0.3333057165145874, -22.55, -7.5)"/>
    <path id="ID0.01349221682175994" fill="#FF5151" stroke="#000000" stroke-width="3" stroke-linecap="round" d="M 137 277 L 126.500 310 L 156.500 317 L 159.500 275.500 L 136.500 277 Z " transform="matrix(0.3333057165145874, 0, 0, 0.3333057165145874, -23.55, -7.5)"/>
    <path id="ID0.7002794197760522" fill="#FF5151" stroke="#000000" stroke-width="3" stroke-linecap="round" d="M 107 275 L 138.500 275.500 L 122.200 320.550 L 87.250 308.450 L 105.900 275 Z " transform="matrix(0.3333057165145874, 0, 0, 0.3333057165145874, -23.55, -7.5)"/>
  </g>
  <g id="ID0.8967206920497119" transform="matrix(1, 0, 0, 1, 4, 173.05)">
    <path id="ID0.272354687564075" fill="#C39A89" stroke="#000000" stroke-width="3" stroke-linecap="round" d="M 213.250 82.600 C 225.852 82.988 261.499 65.811 286.650 65.500 C 304.310 65.241 323.850 71.900 336.950 82.600 C 349.550 93.100 355.050 108.850 357.850 124 C 359.550 134 355.750 143.950 351.700 153.050 C 349.350 158.250 342.200 161.050 338.500 166 C 336.950 168 336.700 168.100 336.450 173.050 L 334.850 230.850 L 333 313 L 94.450 309.700 L 96.350 230.850 L 96.650 178.500 L 96.650 166 C 96.600 161.800 91.350 158.900 88.650 155.500 C 85.950 152.150 81.750 149.550 80.700 145.500 C 78.050 135.750 75.150 125.350 77.650 115.500 C 80.900 102.850 86.150 88.950 96.650 81.100 C 109.700 71.300 125.871 66.192 141.700 66.500 C 166.239 66.966 201.046 83.635 213.300 83.550 Z " transform="matrix(0.3507956564426422, 0, 0, 0.3507956564426422, -26.3, -11.75)"/>
    <path id="ID0.272354687564075" fill="#FFECC3" stroke="#000000" stroke-width="3" stroke-linecap="round" d="M 216.100 107.250 C 225.477 107.368 250.480 91.389 268.350 85.400 C 275.820 82.897 284.146 78.848 291.500 80.500 C 305.449 83.652 320.688 87.842 330.500 98.500 C 338.491 107.176 339.686 120.728 340.500 132.500 C 340.901 138.353 337.968 144.604 334.500 149.500 C 330.600 155.009 322.956 157.598 319.500 163.500 C 317.419 167 318.773 167.364 318.500 175.500 C 317.409 208.046 315.850 273.500 315.850 273.500 L 315.500 301.500 L 115.350 301.050 L 116.400 180.950 L 116.400 159.950 C 116.400 153 110.500 151.150 107.450 147 C 104.300 142.700 98.900 138.750 97.400 133 C 95.750 126.100 95.850 118.400 98.400 111 C 100.950 103.500 105.600 95.900 112.400 92 C 122.850 85.800 134.612 79.404 146.450 80.950 C 170.756 84.224 203.696 106.349 216.050 106.800 Z " transform="matrix(0.3507956564426422, 0, 0, 0.3507956564426422, -26.65, -11.4)"/>
    <path id="ID0.6611503507010639" fill="#CFBC9E" stroke="none" stroke-linecap="round" d="M 212.750 112.500 C 226.752 112.500 239.439 114.181 248.626 116.896 C 257.813 119.612 262.552 121.970 263.500 127.500 C 264.259 132.008 256.701 136.373 251.500 137.500 C 238.890 140.039 225.653 138.725 212.500 138 C 198.417 137.223 183.350 138.597 170.500 132.500 C 163.896 129.368 157.886 117.967 159.500 113.500 C 160.789 109.996 171.140 116.998 176.874 116.896 C 188.888 116.699 198.748 112.500 212.750 112.500 Z " transform="matrix(0.3333057165145874, 0, 0, 0.3333057165145874, -23.55, -7.5)"/>
    <path id="ID0.5095221912488341" fill="#CFBC9E" stroke="none" stroke-linecap="round" d="M 167 272 C 168.993 271.826 171.082 273.450 171.500 275.250 C 172.655 280.220 171.857 285.768 171.500 291 C 171.223 295.068 170.395 299.346 169.750 303.500 C 169.589 304.537 170.114 303.962 169.550 304 C 167.278 303.962 164.804 304.427 162.750 303.500 C 161.651 303.005 161.648 301.382 161.345 300.164 C 160.394 296.321 159 293.052 159 288.500 C 159 283.948 159.896 279.823 161.345 276.836 C 162.793 273.849 164.603 272.229 167 272 Z " transform="matrix(0.3333057165145874, 0, 0, 0.3333057165145874, -25.3, -7.65)"/>
    <path id="ID0.2763961092568934" fill="#FFEE7C" stroke="#000000" stroke-width="3" stroke-linecap="round" d="M 184.350 120.050 C 186.346 123.121 180.788 127.309 181 131 C 181.254 135.360 185.931 139.234 185 143.500 C 183.816 148.833 180.358 155.385 175 157.500 C 166.990 160.092 157.988 155.447 149.500 156 C 143.283 156.405 136.807 163.429 131.350 160.550 C 126.404 157.754 130.024 148.987 127.500 144 C 126.206 141.444 122.072 141.389 120.500 139 C 118.474 135.839 116.823 131.395 118 127.500 C 118.561 124.441 123.886 124.336 125 121 C 126.520 116.416 121.223 110.001 124.500 106.500 C 128.479 102.263 136.078 104.601 141.500 102.500 C 144.958 101.156 147.438 97.675 150.850 96.050 C 152.276 95.388 153.403 94.745 155.850 96.550 C 165.637 103.772 176.892 110.171 184.350 120.050 Z " transform="matrix(-0.3333057165145874, 0, 0, 0.3333057165145874, 120.55, -4.65)"/>
    <path id="ID0.6717009982094169" fill="#FF5151" stroke="#000000" stroke-width="3" stroke-linecap="round" d="M 99 242 L 339 242 L 339 277 L 99 277 L 99 242 Z " transform="matrix(0.3503139317035675, 0, 0, 0.4341745674610138, -26.9, -36.15)"/>
    <path id="ID0.5742413708940148" fill="#000000" stroke="#000000" stroke-width="3" d="M 162 198 C 164.759 198 167.259 199.121 169.069 200.931 C 170.879 202.741 172 205.241 172 208 C 172 210.759 170.879 213.259 169.069 215.069 C 167.259 216.879 164.759 218 162 218 C 159.241 218 156.741 216.879 154.931 215.069 C 153.121 213.259 152 210.759 152 208 C 152 205.241 153.121 202.741 154.931 200.931 C 156.741 199.121 159.241 198 162 198 Z " transform="matrix(0.34177446365356445, 0, 0, 0.34177446365356445, -22.65, -9.65)"/>
    <path id="ID0.5742413708940148" fill="#000000" stroke="#000000" stroke-width="3" d="M 162 198 C 164.759 198 167.259 199.121 169.069 200.931 C 170.879 202.741 172 205.241 172 208 C 172 210.759 170.879 213.259 169.069 215.069 C 167.259 216.879 164.759 218 162 218 C 159.241 218 156.741 216.879 154.931 215.069 C 153.121 213.259 152 210.759 152 208 C 152 205.241 153.121 202.741 154.931 200.931 C 156.741 199.121 159.241 198 162 198 Z " transform="matrix(0.34177446365356445, 0, 0, 0.34177446365356445, 7.8, -9.65)"/>
    <path id="ID0.6809213594533503" fill="none" stroke="#000000" stroke-width="3" stroke-linecap="round" d="M 203.500 209.250 C 203.500 209.250 206.343 211.112 208 211 C 209.198 210.913 211 209 211 209 " transform="matrix(0.34177446365356445, 0, 0, 0.34177446365356445, -23.9, -10.5)"/>
    <path id="ID0.999744875356555" fill="#FFAAAA" stroke="#000000" stroke-width="3" d="M 276.500 218.250 C 277.948 218.250 279.261 218.614 280.211 219.203 C 281.162 219.791 281.750 220.603 281.750 221.500 C 281.750 222.397 281.162 223.209 280.211 223.797 C 279.261 224.386 277.948 224.750 276.500 224.750 C 275.052 224.750 273.739 224.386 272.789 223.797 C 271.838 223.209 271.250 222.397 271.250 221.500 C 271.250 220.603 271.838 219.791 272.789 219.203 C 273.739 218.614 275.052 218.250 276.500 218.250 Z " transform="matrix(0.34177446365356445, 0, 0, 0.34177446365356445, -25.55, -10.7)"/>
    <path id="ID0.21418979112058878" fill="#EADA71" stroke="none" stroke-linecap="round" d="M 256 128.500 C 257.793 128.500 259.036 129.590 260.595 129.892 C 261.366 130.050 262.877 128.631 262.900 129.400 C 262.963 131.732 262.203 134.145 260.800 135.900 C 259.993 136.992 258.273 136.814 257 137 C 255.726 137.190 254.113 137.970 253.150 137.250 C 251.548 136.035 250.415 133.990 250 132.100 C 249.815 131.249 250.655 130.380 251.405 129.892 C 252.745 129.024 254.207 128.500 256 128.500 Z " transform="matrix(0.3333057165145874, 0, 0, 0.3333057165145874, -23.55, -7.5)"/>
    <path id="ID0.4096234980970621" fill="#FFDB71" stroke="#000000" stroke-width="3" d="M 170.450 111.600 L 170 147.500 L 135 147.500 L 135 112.500 L 170.450 111.600 Z " transform="matrix(-0.33248230814933777, -0.023414246737957, -0.023414246737957, 0.33248230814933777, 123.45, -1.2)"/>
    <path id="ID0.999744875356555" fill="#FFAAAA" stroke="#000000" stroke-width="3" d="M 276.500 218.250 C 277.948 218.250 279.261 218.614 280.211 219.203 C 281.162 219.791 281.750 220.603 281.750 221.500 C 281.750 222.397 281.162 223.209 280.211 223.797 C 279.261 224.386 277.948 224.750 276.500 224.750 C 275.052 224.750 273.739 224.386 272.789 223.797 C 271.838 223.209 271.250 222.397 271.250 221.500 C 271.250 220.603 271.838 219.791 272.789 219.203 C 273.739 218.614 275.052 218.250 276.500 218.250 Z " transform="matrix(0.34177446365356445, 0, 0, 0.34177446365356445, -68.05, -10)"/>
    <path id="ID0.32116088829934597" fill="#FF7A7A" stroke="#000000" stroke-width="3" stroke-linecap="round" d="M 216 44 C 223.112 41.713 235.992 42.222 248 45 C 254.840 46.582 261.516 51.296 265.587 56.628 C 272.943 66.391 279.490 77.525 282 89.500 C 284.123 99.634 287.357 114.138 279 120 C 264.646 130.036 244.485 128.402 227 128 C 208.719 127.579 187.856 128.743 173 118 C 165.289 112.298 167.971 98.474 170 89.500 C 172.703 77.568 178.223 65.717 186.413 56.628 C 192.574 49.790 201.956 45.708 211 44 Z " transform="matrix(0.3333057165145874, 0, 0, 0.3333057165145874, -26.5, -6.5)"/>
    <path id="ID0.45980403758585453" fill="#96756A" stroke="none" stroke-linecap="round" d="M 160.350 306.650 C 161.371 306.613 162.470 306.578 163.550 306.700 C 163.781 306.730 163.839 306.617 163.800 307.050 C 163.644 308.783 163.840 310.628 163.050 312.150 C 162.754 312.740 161.755 312.411 161.100 312.400 C 159.963 312.381 158.547 312.546 157.600 312.100 C 157.257 311.906 158.511 311.539 158.519 311.121 C 158.531 310.372 157.750 309.828 157.750 309 C 157.750 308.172 157.947 307.365 158.519 306.879 C 158.987 306.483 159.736 306.672 160.350 306.650 Z " transform="matrix(0.3333057165145874, 0, 0, 0.3333057165145874, -23.55, -7.5)"/>
    <path id="ID0.5834744079038501" fill="#FFE3E3" stroke="#000000" stroke-width="3" stroke-linecap="round" d="M 218.500 24 C 223.604 24 228.229 26.073 231.578 29.422 C 234.927 32.771 237 37.396 237 42.500 C 237 47.604 234.927 52.229 231.578 55.578 C 228.229 58.927 223.604 61 218.500 61 C 213.396 61 208.771 58.927 205.422 55.578 C 202.073 52.229 200 47.604 200 42.500 C 200 37.396 202.073 32.771 205.422 29.422 C 208.771 26.073 213.396 24 218.500 24 Z " transform="matrix(0.3333057165145874, 0, 0, 0.3333057165145874, -22.55, -7.5)"/>
    <path id="ID0.01349221682175994" fill="#FF5151" stroke="#000000" stroke-width="3" stroke-linecap="round" d="M 137 277 L 126.500 310 L 156.500 317 L 159.500 275.500 L 136.500 277 Z " transform="matrix(0.3333057165145874, 0, 0, 0.3333057165145874, -23.55, -7.5)"/>
    <path id="ID0.7002794197760522" fill="#FF5151" stroke="#000000" stroke-width="3" stroke-linecap="round" d="M 107 275 L 138.500 275.500 L 122.200 320.550 L 87.250 308.450 L 105.900 275 Z " transform="matrix(0.3333057165145874, 0, 0, 0.3333057165145874, -23.55, -7.5)"/>
  </g>
  <g id="ID0.25848130183294415" transform="matrix(1, 0, 0, 1, -2, 0)">
    <path id="ID0.09484875993803144" fill="#FF9797" stroke="none" stroke-linecap="round" d="M 253.500 164.500 C 260.433 165.535 263.358 175.970 270.250 177.250 C 276.158 178.348 283.188 166.385 287.250 170.500 C 293.313 177.010 291.878 189.288 290.500 198.500 C 289.041 208.250 286.046 218.747 278.850 225.716 C 271.654 232.686 261.717 237 250.750 237 C 239.783 237 229.847 232.762 222.650 225.716 C 215.431 218.649 212.558 207.693 210.500 197.750 C 208.927 190.149 210.715 182.282 212 174.750 C 212.416 172.588 212.401 169.997 215.500 169.250 C 227.897 166.262 241.041 162.641 253.500 164.500 Z " transform="matrix(1, 0, 0, 1, -207.55, -137.25)"/>
    <path id="ID0.223574697971344" fill="none" stroke="#FF9797" stroke-width="6" stroke-linecap="round" d="M 275 176 C 275 176 288.871 175.092 290 180.150 C 291.753 188.001 285.768 196.017 280.750 202.150 C 277.450 206.405 271.575 207.849 266.500 209.500 C 264.284 210.221 259.500 209.500 259.500 209.500 " transform="matrix(1, 0, 0, 1, -191.55, -126.5)"/>
    <path id="ID0.6668335199356079" fill="#DB8181" stroke="none" d="M 236.750 156.500 C 246.751 156.500 253.970 157.035 262.376 158.552 C 266.523 159.301 274.208 160.789 274.250 163.300 C 274.208 165.737 266.581 167.628 262.376 168.448 C 253.992 170.083 246.751 170.500 236.750 170.500 C 226.749 170.500 219.525 169.993 211.124 168.448 C 206.399 167.579 197.659 165.786 197.750 163.300 C 197.659 160.839 206.431 159.373 211.124 158.552 C 219.538 157.080 226.749 156.500 236.750 156.500 Z " transform="matrix(0.983660101890564, 0, 0, 1.3035714626312256, -189.65, -177.65)"/>
    <path id="ID0.6668335199356079" fill="#5E1B05" stroke="none" d="M 236.750 156.500 C 246.751 156.500 253.912 157.267 262.376 158.552 C 266.101 159.118 273.180 159.756 273.200 162.150 C 273.180 164.704 266.442 167.501 262.376 168.448 C 254.038 170.389 246.751 170.500 236.750 170.500 C 226.749 170.500 219.490 170.262 211.124 168.448 C 206.296 167.401 197.752 164.655 197.750 162.150 C 197.752 159.708 206.565 159.200 211.124 158.552 C 219.599 157.348 226.749 156.500 236.750 156.500 Z " transform="matrix(0.983660101890564, 0, 0, 0.9428571462631226, -189.3, -116.5)"/>
    <path id="ID0.12875419156625867" fill="#FFF9EC" stroke="none" stroke-linecap="round" d="M 184.250 144.400 C 185.391 144.445 186.724 144.620 187.500 145.400 C 188.328 146.318 188.472 147.689 188.500 148.900 C 188.533 150.309 188.584 152.113 187.600 153.200 C 186.764 154.130 185.137 154.117 183.850 154.050 C 182.787 154.013 181.519 153.755 180.850 152.900 C 180.022 151.822 179.994 150.224 180 148.900 C 180.005 147.655 180.101 146.183 181 145.300 C 181.738 144.451 183.124 144.355 184.250 144.400 Z " transform="matrix(0.41921481490135193, -0.9078871011734009, 0.9078871011734009, 0.41921481490135193, -189, 142.05)"/>
    <path id="ID0.12875419156625867" fill="#FFF9EC" stroke="none" stroke-linecap="round" d="M 184.250 144.400 C 185.391 144.445 186.724 144.620 187.500 145.400 C 188.328 146.318 188.472 147.689 188.500 148.900 C 188.533 150.309 188.584 152.113 187.600 153.200 C 186.764 154.130 185.137 154.117 183.850 154.050 C 182.787 154.013 181.519 153.755 180.850 152.900 C 180.022 151.822 179.994 150.224 180 148.900 C 180.005 147.655 180.101 146.183 181 145.300 C 181.738 144.451 183.124 144.355 184.250 144.400 Z " transform="matrix(-0.41921481490135193, -0.9078871607780457, -0.9078871607780457, 0.41921481490135193, 276.7, 142.45)"/>
    <path id="ID0.12875419156625867" fill="#FFF9EC" stroke="none" stroke-linecap="round" d="M 184.250 144.400 C 185.391 144.445 186.724 144.620 187.500 145.400 C 188.328 146.318 188.472 147.689 188.500 148.900 C 188.533 150.309 188.584 152.113 187.600 153.200 C 186.764 154.130 185.137 154.117 183.850 154.050 C 182.787 154.013 181.519 153.755 180.850 152.900 C 180.022 151.822 179.994 150.224 180 148.900 C 180.005 147.655 180.101 146.183 181 145.300 C 181.738 144.451 183.124 144.355 184.250 144.400 Z " transform="matrix(0.9726291298866272, 0.23236307501792908, -0.23236307501792908, 0.9726291298866272, -101.3, -152.8)"/>
    <path id="ID0.06918877130374312" fill="#5E1B05" stroke="none" stroke-linecap="round" d="M 234.100 164 C 236.040 163.954 237.992 163.073 239.880 163.359 C 240.701 163.485 241.800 164.329 241.800 164.950 C 241.800 165.571 241.066 166.133 239.880 166.541 C 238.695 166.948 237.057 167.200 235.250 167.200 C 233.443 167.200 231.805 166.948 230.620 166.541 C 229.434 166.133 228.700 165.571 228.700 164.950 C 228.700 164.329 229.808 163.531 230.620 163.359 C 231.785 163.111 232.929 163.954 234.100 164 Z " transform="matrix(1, 0, 0, 1, -191.8, -126.25)"/>
    <path id="ID0.8145941393449903" fill="#5E1B05" stroke="none" d="M 251.450 164.850 C 251.491 164.850 251.529 164.850 251.556 164.850 C 251.583 164.850 251.600 164.850 251.600 164.850 C 251.600 164.850 251.583 164.850 251.556 164.850 C 251.529 164.850 251.491 164.850 251.450 164.850 C 251.409 164.850 251.371 164.850 251.344 164.850 C 251.317 164.850 251.300 164.850 251.300 164.850 C 251.300 164.850 251.317 164.850 251.344 164.850 C 251.371 164.850 251.409 164.850 251.450 164.850 Z " transform="matrix(1, 0, 0, 1, -191.8, -126.25)"/>
    <path id="ID0.12050032056868076" fill="#5E1B05" stroke="none" stroke-linecap="round" d="M 256.250 166 C 257.818 166.068 259.496 165.384 261.150 165.650 C 261.594 165.706 262.051 166.352 261.950 166.875 C 261.806 167.573 261.348 168.019 260.375 168.413 C 259.402 168.806 258.058 169.050 256.575 169.050 C 255.092 169.050 253.748 168.806 252.775 168.413 C 251.802 168.019 251.438 167.550 251.200 166.875 C 251.010 166.314 250.756 165.249 251.250 165.150 C 252.966 164.866 254.579 165.929 256.250 166 Z " transform="matrix(1, 0, 0, 1, -192.35, -126.25)"/>
    <path id="ID0.5904070101678371" fill="#5E1B05" stroke="none" stroke-linecap="round" d="M 216.300 165.500 C 217.670 165.704 219.282 165.091 220.650 165.650 C 221.165 165.910 221.093 166.930 220.900 167.500 C 220.743 167.966 220.401 168.052 219.596 168.242 C 218.790 168.432 217.678 168.550 216.450 168.550 C 215.222 168.550 214.110 168.432 213.304 168.242 C 212.499 168.052 212.372 167.832 212 167.500 C 210.780 166.417 207.820 164.330 208.650 164 C 209.831 163.521 213.733 165.118 216.300 165.500 Z " transform="matrix(1, 0, 0, 1, -191.8, -126.25)"/>
    <path id="ID0.6374173201620579" fill="#DBDBDB" stroke="none" stroke-linecap="round" d="M 250.850 131.900 C 251.307 131.555 250.729 133.472 251 134.150 C 251.495 135.096 252.698 135.569 253.047 136.558 C 253.674 138.330 254.364 140.279 254 142.125 C 253.647 143.912 251.589 145.038 250.850 146.800 C 250.467 147.757 251.403 149.752 250.750 150 C 250.111 150.242 248.410 148.775 248.453 147.692 C 248.545 145.398 251.287 143.630 251.350 141.300 C 251.287 139.461 248.561 138.405 248.453 136.558 C 248.353 134.840 249.896 132.677 250.850 131.900 Z " transform="matrix(1, 0, 0, 1, -191.8, -126.25)"/>
    <path id="ID0.7034727493301034" fill="#DBDBDB" stroke="none" stroke-linecap="round" d="M 235.750 130.250 C 236.429 130.050 238.017 131.227 238.100 132.250 C 238.237 133.985 236.152 135.447 236.100 137.250 C 236.133 138.740 238.127 139.837 238.047 141.345 C 237.957 143.057 236.101 145.845 235.700 145.750 C 235.249 145.719 236.229 142.542 235.700 141 C 235.124 139.325 232.446 138.472 232.500 136.750 C 232.553 135.136 234.940 134.528 235.700 133.100 C 236.084 132.240 235.137 130.432 235.750 130.250 Z " transform="matrix(1, 0, 0, 1, -191.8, -129.75)"/>
    <path id="ID0.6374173201620579" fill="#DBDBDB" stroke="none" stroke-linecap="round" d="M 250.850 131.900 C 251.307 131.555 250.729 133.472 251 134.150 C 251.495 135.096 252.698 135.569 253.047 136.558 C 253.674 138.330 254.364 140.279 254 142.125 C 253.647 143.912 251.589 145.038 250.850 146.800 C 250.467 147.757 251.403 149.752 250.750 150 C 250.111 150.242 248.410 148.775 248.453 147.692 C 248.545 145.398 251.287 143.630 251.350 141.300 C 251.287 139.461 248.561 138.405 248.453 136.558 C 248.353 134.840 249.896 132.677 250.850 131.900 Z " transform="matrix(1, 0, 0, 1, -221.2, -126.25)"/>
  </g>
  <g id="ID0.3661271487362683" transform="matrix(1, 0, 0, 1, 7, -4)">
    <path id="ID0.5496289003640413" fill="#2B1B17" stroke="none" d="M 220.500 133 C 227.121 133 233.121 135.465 237.466 139.448 C 241.811 143.430 244.500 148.930 244.500 155 C 244.500 161.070 241.811 166.570 237.466 170.552 C 233.121 174.535 227.121 177 220.500 177 C 213.879 177 207.879 174.535 203.534 170.552 C 199.189 166.570 196.500 161.070 196.500 155 C 196.500 148.930 199.189 143.430 203.534 139.448 C 207.879 135.465 213.879 133 220.500 133 Z " transform="matrix(1.0357979536056519, 0, 0, 1.071884274482727, -22.75, -131.35)"/>
    <path id="ID0.5496289003640413" fill="#2B1B17" stroke="none" d="M 220.500 133 C 227.121 133 233.121 135.465 237.466 139.448 C 241.811 143.430 244.500 148.930 244.500 155 C 244.500 161.070 241.811 166.570 237.466 170.552 C 233.121 174.535 227.121 177 220.500 177 C 213.879 177 207.879 174.535 203.534 170.552 C 199.189 166.570 196.500 161.070 196.500 155 C 196.500 148.930 199.189 143.430 203.534 139.448 C 207.879 135.465 213.879 133 220.500 133 Z " transform="matrix(1.0357979536056519, 0, 0, 1.071884274482727, 25.3, -130.7)"/>
    <path id="ID0.44242872949689627" fill="#2B1B17" stroke="none" d="M 198.500 160.500 L 274 160.500 L 274 218 L 198.500 218 L 198.500 160.500 Z " transform="matrix(1.0357979536056519, 0, 0, 1.288088083267212, -15.15, -170.35)"/>
    <path id="ID0.44242872949689627" fill="#4C3029" stroke="none" stroke-linecap="round" d="M 198.500 160.500 L 274 160.500 L 274 218 L 198.500 218 L 198.500 160.500 Z " transform="matrix(0.8587338924407959, 0, 0, 1.1865516901016235, 25.55, -152.85)"/>
    <path id="ID0.5496289003640413" fill="#4C3029" stroke="none" d="M 220.500 133 C 227.121 133 233.121 135.465 237.466 139.448 C 241.811 143.430 244.500 148.930 244.500 155 C 244.500 161.070 241.811 166.570 237.466 170.552 C 233.121 174.535 227.121 177 220.500 177 C 213.879 177 207.879 174.535 203.534 170.552 C 199.189 166.570 196.500 161.070 196.500 155 C 196.500 148.930 199.189 143.430 203.534 139.448 C 207.879 135.465 213.879 133 220.500 133 Z " transform="matrix(0.8219747543334961, 0, 0, 0.850611686706543, 71.25, -96.1)"/>
    <path id="ID0.5496289003640413" fill="#4C3029" stroke="none" d="M 220.500 133 C 227.121 133 233.121 135.465 237.466 139.448 C 241.811 143.430 244.500 148.930 244.500 155 C 244.500 161.070 241.811 166.570 237.466 170.552 C 233.121 174.535 227.121 177 220.500 177 C 213.879 177 207.879 174.535 203.534 170.552 C 199.189 166.570 196.500 161.070 196.500 155 C 196.500 148.930 199.189 143.430 203.534 139.448 C 207.879 135.465 213.879 133 220.500 133 Z " transform="matrix(0.8281012773513794, 0, 0, 0.8569516539573669, 23.15, -97.8)"/>
    <g id="ID0.025164038874208927">
      <path id="ID0.8229372552596033" fill="none" stroke="#2B1B17" stroke-width="2" stroke-linecap="round" d="M 237.750 167.700 L 237.750 179 " transform="matrix(1.0145505666732788, 0, 0, 1.0498968362808228, 4.7, -130.45)"/>
      <path id="ID0.8229372552596033" fill="none" stroke="#2B1B17" stroke-width="2" stroke-linecap="round" d="M 237.750 167.700 L 237.750 179 " transform="matrix(1.0145505666732788, 0, 0, 1.0498968362808228, 11.1, -130.45)"/>
      <path id="ID0.8229372552596033" fill="none" stroke="#2B1B17" stroke-width="2" stroke-linecap="round" d="M 237.750 167.700 L 237.750 179 " transform="matrix(-0.013923891820013523, 1.0497980117797852, -1.014454960823059, -0.014408991672098637, 428.1, -192)"/>
      <path id="ID0.8229372552596033" fill="none" stroke="#2B1B17" stroke-width="2" stroke-linecap="round" d="M 237.750 167.700 L 237.750 179 " transform="matrix(-0.013923891820013523, 1.0497980117797852, -1.014454960823059, -0.014408991672098637, 428.05, -198.7)"/>
    </g>
    <g id="ID0.025164038874208927">
      <path id="ID0.8229372552596033" fill="none" stroke="#2B1B17" stroke-width="2" stroke-linecap="round" d="M 237.750 167.700 L 237.750 179 " transform="matrix(1.2539390325546265, 0, 0, 1.2976253032684326, -98.75, -191.45)"/>
      <path id="ID0.8229372552596033" fill="none" stroke="#2B1B17" stroke-width="2" stroke-linecap="round" d="M 237.750 167.700 L 237.750 179 " transform="matrix(1.2539390325546265, 0, 0, 1.2976253032684326, -90.9, -191.45)"/>
      <path id="ID0.8229372552596033" fill="none" stroke="#2B1B17" stroke-width="2" stroke-linecap="round" d="M 237.750 167.700 L 237.750 179 " transform="matrix(-0.017209308221936226, 1.297503113746643, -1.2538208961486816, -0.017808865755796432, 424.5, -267.55)"/>
      <path id="ID0.8229372552596033" fill="none" stroke="#2B1B17" stroke-width="2" stroke-linecap="round" d="M 237.750 167.700 L 237.750 179 " transform="matrix(-0.017209308221936226, 1.297503113746643, -1.2538208961486816, -0.017808865755796432, 424.45, -275.85)"/>
    </g>
    <g id="ID0.025164038874208927">
      <path id="ID0.8229372552596033" fill="none" stroke="#2B1B17" stroke-width="2" stroke-linecap="round" d="M 237.750 167.700 L 237.750 179 " transform="matrix(0.6079704761505127, 0, 0, 0.6291516423225403, 68.25, -80.55)"/>
      <path id="ID0.8229372552596033" fill="none" stroke="#2B1B17" stroke-width="2" stroke-linecap="round" d="M 237.750 167.700 L 237.750 179 " transform="matrix(0.6079704761505127, 0, 0, 0.6291516423225403, 72.05, -80.55)"/>
      <path id="ID0.8229372552596033" fill="none" stroke="#2B1B17" stroke-width="2" stroke-linecap="round" d="M 237.750 167.700 L 237.750 179 " transform="matrix(-0.008343907073140144, 0.6290923953056335, -0.6079131960868835, -0.008634601719677448, 322, -117.4)"/>
      <path id="ID0.8229372552596033" fill="none" stroke="#2B1B17" stroke-width="2" stroke-linecap="round" d="M 237.750 167.700 L 237.750 179 " transform="matrix(-0.008343907073140144, 0.6290923953056335, -0.6079131960868835, -0.008634601719677448, 321.95, -121.45)"/>
    </g>
    <g id="ID0.025164038874208927">
      <path id="ID0.8229372552596033" fill="none" stroke="#2B1B17" stroke-width="2" stroke-linecap="round" d="M 237.750 167.700 L 237.750 179 " transform="matrix(1.0145505666732788, 0, 0, 1.0498968362808228, -38.2, -84.85)"/>
      <path id="ID0.8229372552596033" fill="none" stroke="#2B1B17" stroke-width="2" stroke-linecap="round" d="M 237.750 167.700 L 237.750 179 " transform="matrix(1.0145505666732788, 0, 0, 1.0498968362808228, -31.85, -84.85)"/>
      <path id="ID0.8229372552596033" fill="none" stroke="#2B1B17" stroke-width="2" stroke-linecap="round" d="M 237.750 167.700 L 237.750 179 " transform="matrix(-0.013923891820013523, 1.0497980117797852, -1.014454960823059, -0.014408991672098637, 385.15, -146.45)"/>
      <path id="ID0.8229372552596033" fill="none" stroke="#2B1B17" stroke-width="2" stroke-linecap="round" d="M 237.750 167.700 L 237.750 179 " transform="matrix(-0.013923891820013523, 1.0497980117797852, -1.014454960823059, -0.014408991672098637, 385.1, -153.15)"/>
    </g>
  </g>
  <g id="ID0.617521099280566" transform="matrix(1, 0, 0, 1, -2, 0)">
    <path id="ID0.5711539704352617" fill="#FFFFFF" stroke="none" stroke-linecap="round" d="M 227 98 C 232.034 97.536 238.339 101.943 239.500 107 C 243.104 122.311 240.763 139.012 241 155 C 241.083 161.291 242.929 167.571 241.500 173.500 C 238.488 183.286 234.937 193.868 228 201 C 224.973 204.106 216.520 204.056 215 200 C 210.730 185.688 213.648 169.933 213.500 155 C 213.344 139.509 211.580 123.423 215 108.500 C 216.187 103.317 221.716 98.489 227 98 Z " transform="matrix(0.4771425724029541, -0.1267290711402893, 0.1267290711402893, 0.4771425724029541, -61.55, 30.3)"/>
    <path id="ID0.5711539704352617" fill="#FFFFFF" stroke="none" stroke-linecap="round" d="M 227 98 C 232.034 97.536 238.339 101.943 239.500 107 C 243.104 122.311 240.763 139.012 241 155 C 241.083 161.291 242.929 167.571 241.500 173.500 C 238.488 183.286 234.937 193.868 228 201 C 224.973 204.106 216.520 204.056 215 200 C 210.730 185.688 213.648 169.933 213.500 155 C 213.344 139.509 211.580 123.423 215 108.500 C 216.187 103.317 221.716 98.489 227 98 Z " transform="matrix(0.5233961343765259, -0.13901402056217194, 0.1267290711402893, 0.4771425724029541, -54.4, 52.65)"/>
    <path id="ID0.5711539704352617" fill="#FFFFFF" stroke="none" stroke-linecap="round" d="M 227 98 C 232.034 97.536 238.339 101.943 239.500 107 C 243.104 122.311 240.763 139.012 241 155 C 241.083 161.291 242.929 167.571 241.500 173.500 C 238.488 183.286 234.937 193.868 228 201 C 224.973 204.106 216.520 204.056 215 200 C 210.730 185.688 213.648 169.933 213.500 155 C 213.344 139.509 211.580 123.423 215 108.500 C 216.187 103.317 221.716 98.489 227 98 Z " transform="matrix(0.4771425724029541, -0.1267290711402893, 0.1267290711402893, 0.4771425724029541, -32.35, 49.3)"/>
    <path id="ID0.5711539704352617" fill="#FFFFFF" stroke="none" stroke-linecap="round" d="M 227 98 C 232.034 97.536 238.339 101.943 239.500 107 C 243.104 122.311 240.763 139.012 241 155 C 241.083 161.291 242.929 167.571 241.500 173.500 C 238.488 183.286 233.669 192.521 228 201 C 224.392 206.393 220.387 212.823 214.300 215.450 C 203.655 220.043 191.871 223.270 180.400 222.300 C 168.381 221.274 156.005 218.239 146.550 211.050 C 126.659 195.925 111.085 175.804 94.900 156.850 C 90.847 152.105 87.905 146.579 87.150 140.650 C 86.415 134.852 86.775 127.869 90.750 123.850 C 95.039 119.200 102.338 117.968 108.550 118.200 C 113.746 118.408 117.710 122.059 121.600 125.050 C 131.837 132.924 138.662 146.152 150.750 150 C 170.756 156.611 195.977 166.489 213.500 155 C 226.455 146.505 211.580 123.423 215 108.500 C 216.187 103.317 221.716 98.489 227 98 Z " transform="matrix(0.40167614817619324, -0.10668518394231796, 0.10168427228927612, 0.3828474283218384, -2.65, 58.5)"/>
    <path id="ID0.914057401008904" fill="#FFFFFF" stroke="none" d="M 233.500 181.500 C 237.638 181.500 241.388 183.405 244.104 186.482 C 246.819 189.560 248.500 193.810 248.500 198.500 C 248.500 203.190 246.819 207.440 244.104 210.518 C 241.388 213.595 237.638 215.500 233.500 215.500 C 229.362 215.500 225.612 213.595 222.896 210.518 C 220.181 207.440 218.500 203.190 218.500 198.500 C 218.500 193.810 220.181 189.560 222.896 186.482 C 225.612 183.405 229.362 181.500 233.500 181.500 Z " transform="matrix(0.4771425724029541, -0.1267290711402893, 0.1267290711402893, 0.4771425724029541, -61.55, 30.3)"/>
  </g>
  <g id="ID0.6895864545367658" transform="matrix(1, 0, 0, 1, -2, 0)">
    <path id="ID0.7811849061399698" fill="#88AE63" stroke="none" d="M 241 63 L 248.500 63 L 248.500 91.500 L 241 91.500 L 241 63 Z " transform="matrix(0.6453072428703308, -0.7639231085777283, 0.7639231085777283, 0.6453072428703308, -113.5, 185)"/>
    <path id="ID0.7811849061399698" fill="#88AE63" stroke="none" d="M 241 63 L 248.500 63 L 248.500 91.500 L 241 91.500 L 241 63 Z " transform="matrix(-0.780184268951416, -0.6255497932434082, -1.422002911567688, 1.773518681526184, 431.25, 49.75)"/>
  </g>
  <g id="ID0.617521099280566" transform="matrix(1, 0, 0, 1, 7, -4)">
    <path id="ID0.5711539704352617" fill="#FFFFFF" stroke="none" stroke-linecap="round" d="M 227 98 C 232.034 97.536 238.339 101.943 239.500 107 C 243.104 122.311 240.763 139.012 241 155 C 241.083 161.291 242.929 167.571 241.500 173.500 C 238.488 183.286 234.937 193.868 228 201 C 224.973 204.106 216.520 204.056 215 200 C 210.730 185.688 213.648 169.933 213.500 155 C 213.344 139.509 211.580 123.423 215 108.500 C 216.187 103.317 221.716 98.489 227 98 Z " transform="matrix(0.4771425724029541, -0.1267290711402893, 0.1267290711402893, 0.4771425724029541, 110.95, 28.1)"/>
    <path id="ID0.5711539704352617" fill="#FFFFFF" stroke="none" stroke-linecap="round" d="M 227 98 C 232.034 97.536 238.339 101.943 239.500 107 C 243.104 122.311 240.763 139.012 241 155 C 241.083 161.291 242.929 167.571 241.500 173.500 C 238.488 183.286 234.937 193.868 228 201 C 224.973 204.106 216.520 204.056 215 200 C 210.730 185.688 213.648 169.933 213.500 155 C 213.344 139.509 211.580 123.423 215 108.500 C 216.187 103.317 221.716 98.489 227 98 Z " transform="matrix(0.5233961343765259, -0.13901402056217194, 0.1267290711402893, 0.4771425724029541, 118.1, 50.45)"/>
    <path id="ID0.5711539704352617" fill="#FFFFFF" stroke="none" stroke-linecap="round" d="M 227 98 C 232.034 97.536 238.339 101.943 239.500 107 C 243.104 122.311 240.763 139.012 241 155 C 241.083 161.291 242.929 167.571 241.500 173.500 C 238.488 183.286 234.937 193.868 228 201 C 224.973 204.106 216.520 204.056 215 200 C 210.730 185.688 213.648 169.933 213.500 155 C 213.344 139.509 211.580 123.423 215 108.500 C 216.187 103.317 221.716 98.489 227 98 Z " transform="matrix(0.4771425724029541, -0.1267290711402893, 0.1267290711402893, 0.4771425724029541, 140.15, 47.1)"/>
    <path id="ID0.5711539704352617" fill="#FFFFFF" stroke="none" stroke-linecap="round" d="M 227 98 C 232.034 97.536 238.339 101.943 239.500 107 C 243.104 122.311 240.763 139.012 241 155 C 241.083 161.291 242.929 167.571 241.500 173.500 C 238.488 183.286 233.669 192.521 228 201 C 224.392 206.393 220.387 212.823 214.300 215.450 C 203.655 220.043 191.871 223.270 180.400 222.300 C 168.381 221.274 156.005 218.239 146.550 211.050 C 126.659 195.925 111.085 175.804 94.900 156.850 C 90.847 152.105 87.905 146.579 87.150 140.650 C 86.415 134.852 86.775 127.869 90.750 123.850 C 95.039 119.200 102.338 117.968 108.550 118.200 C 113.746 118.408 117.710 122.059 121.600 125.050 C 131.837 132.924 138.662 146.152 150.750 150 C 170.756 156.611 195.977 166.489 213.500 155 C 226.455 146.505 211.580 123.423 215 108.500 C 216.187 103.317 221.716 98.489 227 98 Z " transform="matrix(0.40167614817619324, -0.10668518394231796, 0.10168427228927612, 0.3828474283218384, 169.85, 56.3)"/>
    <path id="ID0.914057401008904" fill="#FFFFFF" stroke="none" d="M 233.500 181.500 C 237.638 181.500 241.388 183.405 244.104 186.482 C 246.819 189.560 248.500 193.810 248.500 198.500 C 248.500 203.190 246.819 207.440 244.104 210.518 C 241.388 213.595 237.638 215.500 233.500 215.500 C 229.362 215.500 225.612 213.595 222.896 210.518 C 220.181 207.440 218.500 203.190 218.500 198.500 C 218.500 193.810 220.181 189.560 222.896 186.482 C 225.612 183.405 229.362 181.500 233.500 181.500 Z " transform="matrix(0.4771425724029541, -0.1267290711402893, 0.1267290711402893, 0.4771425724029541, 110.95, 28.1)"/>
  </g>
  <path id="ID0.6457497105002403" fill="#000000" stroke="none" d="M 189 277 L 304 277 L 304 285 L 189 285 L 189 277 Z " transform="matrix(1, 0, 0, 1, 2, -16.9)"/>
  <g id="ID0.354785128030926" transform="matrix(1, 0, 0, 1, 5, -4)">
    <path id="ID0.7811849061399698" fill="#FF5B43" stroke="none" d="M 241 63 L 248.500 63 L 248.500 91.500 L 241 91.500 L 241 63 Z " transform="matrix(-0.780184268951416, -0.6255497932434082, -1.422002911567688, 1.773518681526184, 618.4, 61.85)"/>
    <path id="ID0.7811849061399698" fill="#FF5B43" stroke="none" d="M 241 63 L 248.500 63 L 248.500 91.500 L 241 91.500 L 241 63 Z " transform="matrix(0.780184268951416, -0.6255497932434082, 1.422002911567688, 1.7735188007354736, 18, 62.35)"/>
  </g>
  <g id="ID0.354785128030926" transform="matrix(1, 0, 0, 1, 0, 6)">
    <path id="ID0.7811849061399698" fill="#FF5B43" stroke="none" d="M 241 63 L 248.500 63 L 248.500 91.500 L 241 91.500 L 241 63 Z " transform="matrix(-0.780184268951416, -0.6255497932434082, -1.422002911567688, 1.773518681526184, 626.05, 234.95)"/>
    <path id="ID0.7811849061399698" fill="#FF5B43" stroke="none" d="M 241 63 L 248.500 63 L 248.500 91.500 L 241 91.500 L 241 63 Z " transform="matrix(0.780184268951416, -0.6255497932434082, 1.422002911567688, 1.7735188007354736, 25.7, 235.45)"/>
  </g>
  <g id="ID0.617521099280566" transform="matrix(1, 0, 0, 1, -2, 0)">
    <path id="ID0.5711539704352617" fill="#FFFFFF" stroke="none" stroke-linecap="round" d="M 227 98 C 232.034 97.536 238.339 101.943 239.500 107 C 243.104 122.311 240.763 139.012 241 155 C 241.083 161.291 242.929 167.571 241.500 173.500 C 238.488 183.286 234.937 193.868 228 201 C 224.973 204.106 216.520 204.056 215 200 C 210.730 185.688 213.648 169.933 213.500 155 C 213.344 139.509 211.580 123.423 215 108.500 C 216.187 103.317 221.716 98.489 227 98 Z " transform="matrix(0.4771425724029541, -0.1267290711402893, 0.1267290711402893, 0.4771425724029541, -36.55, 195.45)"/>
    <path id="ID0.5711539704352617" fill="#FFFFFF" stroke="none" stroke-linecap="round" d="M 227 98 C 232.034 97.536 238.339 101.943 239.500 107 C 243.104 122.311 240.763 139.012 241 155 C 241.083 161.291 242.929 167.571 241.500 173.500 C 238.488 183.286 234.937 193.868 228 201 C 224.973 204.106 216.520 204.056 215 200 C 210.730 185.688 213.648 169.933 213.500 155 C 213.344 139.509 211.580 123.423 215 108.500 C 216.187 103.317 221.716 98.489 227 98 Z " transform="matrix(0.5233961343765259, -0.13901402056217194, 0.1267290711402893, 0.4771425724029541, -29.4, 217.8)"/>
    <path id="ID0.5711539704352617" fill="#FFFFFF" stroke="none" stroke-linecap="round" d="M 227 98 C 232.034 97.536 238.339 101.943 239.500 107 C 243.104 122.311 240.763 139.012 241 155 C 241.083 161.291 242.929 167.571 241.500 173.500 C 238.488 183.286 234.937 193.868 228 201 C 224.973 204.106 216.520 204.056 215 200 C 210.730 185.688 213.648 169.933 213.500 155 C 213.344 139.509 211.580 123.423 215 108.500 C 216.187 103.317 221.716 98.489 227 98 Z " transform="matrix(0.4771425724029541, -0.1267290711402893, 0.1267290711402893, 0.4771425724029541, -7.35, 214.45)"/>
    <path id="ID0.5711539704352617" fill="#FFFFFF" stroke="none" stroke-linecap="round" d="M 227 98 C 232.034 97.536 238.339 101.943 239.500 107 C 243.104 122.311 240.763 139.012 241 155 C 241.083 161.291 242.929 167.571 241.500 173.500 C 238.488 183.286 233.669 192.521 228 201 C 224.392 206.393 220.387 212.823 214.300 215.450 C 203.655 220.043 191.871 223.270 180.400 222.300 C 168.381 221.274 156.005 218.239 146.550 211.050 C 126.659 195.925 111.085 175.804 94.900 156.850 C 90.847 152.105 87.905 146.579 87.150 140.650 C 86.415 134.852 86.775 127.869 90.750 123.850 C 95.039 119.200 102.338 117.968 108.550 118.200 C 113.746 118.408 117.710 122.059 121.600 125.050 C 131.837 132.924 138.662 146.152 150.750 150 C 170.756 156.611 195.977 166.489 213.500 155 C 226.455 146.505 211.580 123.423 215 108.500 C 216.187 103.317 221.716 98.489 227 98 Z " transform="matrix(0.40167614817619324, -0.10668518394231796, 0.10168427228927612, 0.3828474283218384, 22.35, 223.65)"/>
    <path id="ID0.914057401008904" fill="#FFFFFF" stroke="none" d="M 233.500 181.500 C 237.638 181.500 241.388 183.405 244.104 186.482 C 246.819 189.560 248.500 193.810 248.500 198.500 C 248.500 203.190 246.819 207.440 244.104 210.518 C 241.388 213.595 237.638 215.500 233.500 215.500 C 229.362 215.500 225.612 213.595 222.896 210.518 C 220.181 207.440 218.500 203.190 218.500 198.500 C 218.500 193.810 220.181 189.560 222.896 186.482 C 225.612 183.405 229.362 181.500 233.500 181.500 Z " transform="matrix(0.4771425724029541, -0.1267290711402893, 0.1267290711402893, 0.4771425724029541, -36.55, 195.45)"/>
  </g>
  <g id="ID0.6895864545367658" transform="matrix(1, 0, 0, 1, -2, 0)">
    <path id="ID0.7811849061399698" fill="#88AE63" stroke="none" d="M 241 63 L 248.500 63 L 248.500 91.500 L 241 91.500 L 241 63 Z " transform="matrix(0.6453072428703308, -0.7639231085777283, 0.7639231085777283, 0.6453072428703308, -89.5, 353.15)"/>
    <path id="ID0.7811849061399698" fill="#88AE63" stroke="none" d="M 241 63 L 248.500 63 L 248.500 91.500 L 241 91.500 L 241 63 Z " transform="matrix(-0.780184268951416, -0.6255497932434082, -1.422002911567688, 1.773518681526184, 455.25, 217.9)"/>
  </g>
</svg>