<svg version="1.1" width="101" height="101" viewBox="-1 -1 101 101" xmlns="http://www.w3.org/2000/svg" xmlns:xlink="http://www.w3.org/1999/xlink">
  <!-- Exported by Scratch - http://scratch.mit.edu/ -->
  <path id="ID0.09484875993803144" fill="#FFB0FA" stroke="none" stroke-linecap="round" d="M 253.500 164.500 C 260.433 165.535 263.358 175.970 270.250 177.250 C 276.158 178.348 283.188 166.385 287.250 170.500 C 293.313 177.010 291.878 189.288 290.500 198.500 C 289.041 208.250 286.046 218.747 278.850 225.716 C 271.654 232.686 261.717 237 250.750 237 C 239.783 237 229.847 232.762 222.650 225.716 C 215.431 218.649 212.558 207.693 210.500 197.750 C 208.927 190.149 210.715 182.282 212 174.750 C 212.416 172.588 212.401 169.997 215.500 169.250 C 227.897 166.262 241.041 162.641 253.500 164.500 Z " transform="matrix(1, 0, 0, 1, -209.75, -137)"/>
  <path id="ID0.223574697971344" fill="none" stroke="#FFB0FA" stroke-width="6" stroke-linecap="round" d="M 275 176 C 275 176 288.871 175.092 290 180.150 C 291.753 188.001 285.768 196.017 280.750 202.150 C 277.450 206.405 271.575 207.849 266.500 209.500 C 264.284 210.221 259.500 209.500 259.500 209.500 " transform="matrix(1, 0, 0, 1, -193.75, -126.25)"/>
  <path id="ID0.6668335199356079" fill="#E79FE2" stroke="none" d="M 236.750 156.500 C 246.751 156.500 253.970 157.035 262.376 158.552 C 266.523 159.301 274.208 160.789 274.250 163.300 C 274.208 165.737 266.581 167.628 262.376 168.448 C 253.992 170.083 246.751 170.500 236.750 170.500 C 226.749 170.500 219.525 169.993 211.124 168.448 C 206.399 167.579 197.659 165.786 197.750 163.300 C 197.659 160.839 206.431 159.373 211.124 158.552 C 219.538 157.080 226.749 156.500 236.750 156.500 Z " transform="matrix(0.983660101890564, 0, 0, 1.3035714626312256, -191.85, -177.4)"/>
  <path id="ID0.6668335199356079" fill="#5E1B05" stroke="none" d="M 236.750 156.500 C 246.751 156.500 253.912 157.267 262.376 158.552 C 266.101 159.118 273.180 159.756 273.200 162.150 C 273.180 164.704 266.442 167.501 262.376 168.448 C 254.038 170.389 246.751 170.500 236.750 170.500 C 226.749 170.500 219.490 170.262 211.124 168.448 C 206.296 167.401 197.752 164.655 197.750 162.150 C 197.752 159.708 206.565 159.200 211.124 158.552 C 219.599 157.348 226.749 156.500 236.750 156.500 Z " transform="matrix(0.983660101890564, 0, 0, 0.9428571462631226, -191.5, -116.25)"/>
  <path id="ID0.12875419156625867" fill="#FFF9EC" stroke="none" stroke-linecap="round" d="M 184.250 144.400 C 185.391 144.445 186.724 144.620 187.500 145.400 C 188.328 146.318 188.472 147.689 188.500 148.900 C 188.533 150.309 188.584 152.113 187.600 153.200 C 186.764 154.130 185.137 154.117 183.850 154.050 C 182.787 154.013 181.519 153.755 180.850 152.900 C 180.022 151.822 179.994 150.224 180 148.900 C 180.005 147.655 180.101 146.183 181 145.300 C 181.738 144.451 183.124 144.355 184.250 144.400 Z " transform="matrix(0.41921481490135193, -0.9078871011734009, 0.9078871011734009, 0.41921481490135193, -191.2, 142.3)"/>
  <path id="ID0.12875419156625867" fill="#FFF9EC" stroke="none" stroke-linecap="round" d="M 184.250 144.400 C 185.391 144.445 186.724 144.620 187.500 145.400 C 188.328 146.318 188.472 147.689 188.500 148.900 C 188.533 150.309 188.584 152.113 187.600 153.200 C 186.764 154.130 185.137 154.117 183.850 154.050 C 182.787 154.013 181.519 153.755 180.850 152.900 C 180.022 151.822 179.994 150.224 180 148.900 C 180.005 147.655 180.101 146.183 181 145.300 C 181.738 144.451 183.124 144.355 184.250 144.400 Z " transform="matrix(-0.41921481490135193, -0.9078871607780457, -0.9078871607780457, 0.41921481490135193, 274.5, 142.7)"/>
  <path id="ID0.12875419156625867" fill="#FFF9EC" stroke="none" stroke-linecap="round" d="M 184.250 144.400 C 185.391 144.445 186.724 144.620 187.500 145.400 C 188.328 146.318 188.472 147.689 188.500 148.900 C 188.533 150.309 188.584 152.113 187.600 153.200 C 186.764 154.130 185.137 154.117 183.850 154.050 C 182.787 154.013 181.519 153.755 180.850 152.900 C 180.022 151.822 179.994 150.224 180 148.900 C 180.005 147.655 180.101 146.183 181 145.300 C 181.738 144.451 183.124 144.355 184.250 144.400 Z " transform="matrix(0.9726291298866272, 0.23236307501792908, -0.23236307501792908, 0.9726291298866272, -103.5, -152.55)"/>
  <path id="ID0.06918877130374312" fill="#5E1B05" stroke="none" stroke-linecap="round" d="M 234.100 164 C 236.040 163.954 237.992 163.073 239.880 163.359 C 240.701 163.485 241.800 164.329 241.800 164.950 C 241.800 165.571 241.066 166.133 239.880 166.541 C 238.695 166.948 237.057 167.200 235.250 167.200 C 233.443 167.200 231.805 166.948 230.620 166.541 C 229.434 166.133 228.700 165.571 228.700 164.950 C 228.700 164.329 229.808 163.531 230.620 163.359 C 231.785 163.111 232.929 163.954 234.100 164 Z " transform="matrix(1, 0, 0, 1, -194, -126)"/>
  <path id="ID0.8145941393449903" fill="#5E1B05" stroke="none" d="M 251.450 164.850 C 251.491 164.850 251.529 164.850 251.556 164.850 C 251.583 164.850 251.600 164.850 251.600 164.850 C 251.600 164.850 251.583 164.850 251.556 164.850 C 251.529 164.850 251.491 164.850 251.450 164.850 C 251.409 164.850 251.371 164.850 251.344 164.850 C 251.317 164.850 251.300 164.850 251.300 164.850 C 251.300 164.850 251.317 164.850 251.344 164.850 C 251.371 164.850 251.409 164.850 251.450 164.850 Z " transform="matrix(1, 0, 0, 1, -194, -126)"/>
  <path id="ID0.12050032056868076" fill="#5E1B05" stroke="none" stroke-linecap="round" d="M 256.250 166 C 257.818 166.068 259.496 165.384 261.150 165.650 C 261.594 165.706 262.051 166.352 261.950 166.875 C 261.806 167.573 261.348 168.019 260.375 168.413 C 259.402 168.806 258.058 169.050 256.575 169.050 C 255.092 169.050 253.748 168.806 252.775 168.413 C 251.802 168.019 251.438 167.550 251.200 166.875 C 251.010 166.314 250.756 165.249 251.250 165.150 C 252.966 164.866 254.579 165.929 256.250 166 Z " transform="matrix(1, 0, 0, 1, -194.55, -126)"/>
  <path id="ID0.5904070101678371" fill="#5E1B05" stroke="none" stroke-linecap="round" d="M 216.300 165.500 C 217.670 165.704 219.282 165.091 220.650 165.650 C 221.165 165.910 221.093 166.930 220.900 167.500 C 220.743 167.966 220.401 168.052 219.596 168.242 C 218.790 168.432 217.678 168.550 216.450 168.550 C 215.222 168.550 214.110 168.432 213.304 168.242 C 212.499 168.052 212.372 167.832 212 167.500 C 210.780 166.417 207.820 164.330 208.650 164 C 209.831 163.521 213.733 165.118 216.300 165.500 Z " transform="matrix(1, 0, 0, 1, -194, -126)"/>
  <path id="ID0.6374173201620579" fill="#DBDBDB" stroke="none" stroke-linecap="round" d="M 250.850 131.900 C 251.307 131.555 250.729 133.472 251 134.150 C 251.495 135.096 252.698 135.569 253.047 136.558 C 253.674 138.330 254.364 140.279 254 142.125 C 253.647 143.912 251.589 145.038 250.850 146.800 C 250.467 147.757 251.403 149.752 250.750 150 C 250.111 150.242 248.410 148.775 248.453 147.692 C 248.545 145.398 251.287 143.630 251.350 141.300 C 251.287 139.461 248.561 138.405 248.453 136.558 C 248.353 134.840 249.896 132.677 250.850 131.900 Z " transform="matrix(1, 0, 0, 1, -194, -126)"/>
  <path id="ID0.7034727493301034" fill="#DBDBDB" stroke="none" stroke-linecap="round" d="M 235.750 130.250 C 236.429 130.050 238.017 131.227 238.100 132.250 C 238.237 133.985 236.152 135.447 236.100 137.250 C 236.133 138.740 238.127 139.837 238.047 141.345 C 237.957 143.057 236.101 145.845 235.700 145.750 C 235.249 145.719 236.229 142.542 235.700 141 C 235.124 139.325 232.446 138.472 232.500 136.750 C 232.553 135.136 234.940 134.528 235.700 133.100 C 236.084 132.240 235.137 130.432 235.750 130.250 Z " transform="matrix(1, 0, 0, 1, -194, -129.5)"/>
  <path id="ID0.6374173201620579" fill="#DBDBDB" stroke="none" stroke-linecap="round" d="M 250.850 131.900 C 251.307 131.555 250.729 133.472 251 134.150 C 251.495 135.096 252.698 135.569 253.047 136.558 C 253.674 138.330 254.364 140.279 254 142.125 C 253.647 143.912 251.589 145.038 250.850 146.800 C 250.467 147.757 251.403 149.752 250.750 150 C 250.111 150.242 248.410 148.775 248.453 147.692 C 248.545 145.398 251.287 143.630 251.350 141.300 C 251.287 139.461 248.561 138.405 248.453 136.558 C 248.353 134.840 249.896 132.677 250.850 131.900 Z " transform="matrix(1, 0, 0, 1, -223.4, -126)"/>
</svg>