<svg version="1.1" width="301" height="302" viewBox="-1 -1 301 302" xmlns="http://www.w3.org/2000/svg" xmlns:xlink="http://www.w3.org/1999/xlink">
  <!-- Exported by Scratch - http://scratch.mit.edu/ -->
  <path id="ID0.2763961092568934" fill="none" stroke="#000000" stroke-width="3" stroke-linecap="round" d="M 184.600 122.550 C 184.600 122.550 180.960 127.838 181 131 C 181.052 135.412 185.931 139.234 185 143.500 C 183.816 148.833 180.358 155.385 175 157.500 C 166.990 160.092 157.988 155.447 149.500 156 C 143.283 156.405 136.807 163.429 131.350 160.550 C 126.404 157.754 130.024 148.987 127.500 144 C 126.206 141.444 122.072 141.389 120.500 139 C 118.474 135.839 116.823 131.395 118 127.500 C 118.561 124.441 123.886 124.336 125 121 C 126.520 116.416 121.223 110.001 124.500 106.500 C 128.479 102.263 136.113 104.689 141.500 102.500 C 145.383 100.919 148.161 97.530 151.850 95.800 C 152.897 95.153 155.350 95.550 155.350 95.550 " transform="matrix(-1, 0, 0, 1, 362.35, -13.55)"/>
  <path id="ID0.6717009982094169" fill="none" stroke="#000000" stroke-width="3" stroke-linecap="round" d="M 99 242 L 339 242 L 339 277 L 99 277 L 99 242 Z " transform="matrix(1.051028847694397, 0, 0, 1.3026316165924072, -80.25, -108.1)"/>
  <path id="ID0.272354687564075" fill="none" stroke="#000000" stroke-width="3" stroke-linecap="round" d="M 333.500 274.500 L 333 313 L 127.700 313 " transform="matrix(1.0524741411209106, 0, 0, 1.0524741411209106, -78.4, -34.95)"/>
  <path id="ID0.272354687564075" fill="none" stroke="#000000" stroke-width="3" stroke-linecap="round" d="M 257.750 74.050 C 257.750 74.050 276.744 64.350 286 65.500 C 303.286 67.672 322.600 71.900 335.450 82.600 C 347.900 93.050 353.250 108.850 356 124 C 357.700 133.950 353.963 143.971 350 153 C 347.687 158.255 340.657 161.094 337 166 C 335.497 168.022 335.252 168.113 335 173 L 333.400 230.850 " transform="matrix(1.0707427263259888, 0, 0, 1.0524741411209106, -83, -34.95)"/>
  <path id="ID0.272354687564075" fill="none" stroke="#000000" stroke-width="3" stroke-linecap="round" d="M 100.150 230.400 L 99.500 178.500 L 99.500 166 C 99.499 161.839 94.173 158.938 91.500 155.500 C 88.844 152.109 84.574 149.584 83.500 145.500 C 80.937 135.796 77.971 125.338 80.500 115.500 C 83.768 102.850 89.003 88.973 99.500 81.100 C 112.569 71.309 128.952 68.737 144.500 66.500 C 153.312 65.259 173.300 71.200 173.300 71.200 " transform="matrix(1.0524741411209106, 0, 0, 1.0524741411209106, -81.4, -34.95)"/>
  <path id="ID0.272354687564075" fill="none" stroke="#000000" stroke-width="3" stroke-linecap="round" d="M 267.400 85.350 C 267.400 85.350 284.007 78.695 291.500 80.500 C 305.355 83.946 320.688 87.842 330.500 98.500 C 338.491 107.176 339.686 120.728 340.500 132.500 C 340.901 138.353 337.968 144.604 334.500 149.500 C 330.600 155.009 322.956 157.598 319.500 163.500 C 317.419 167 318.689 170.917 318.500 175.500 C 317.745 193.830 316.300 230.300 316.300 230.300 " transform="matrix(1.0524741411209106, 0, 0, 1.0524741411209106, -80.4, -33.85)"/>
  <path id="ID0.272354687564075" fill="none" stroke="#000000" stroke-width="3" stroke-linecap="round" d="M 116.750 229.800 L 116.500 180.500 L 116.500 159.500 C 116.500 152.506 110.627 150.738 107.500 146.500 C 104.380 142.274 98.981 138.311 97.500 132.500 C 95.812 125.637 95.943 117.943 98.500 110.500 C 101.066 103.069 105.717 95.482 112.500 91.500 C 122.960 85.300 134.708 82.074 146.500 80.500 C 153.026 79.632 165.700 83.450 165.700 83.450 " transform="matrix(1.0524741411209106, 0, 0, 1.0524741411209106, -80.4, -33.85)"/>
  <path id="ID0.272354687564075" fill="none" stroke="#000000" stroke-width="3" stroke-linecap="round" d="M 316.500 273.500 L 315.500 301.500 L 159.500 301.550 " transform="matrix(1.0524741411209106, 0, 0, 1.0524741411209106, -80.4, -33.85)"/>
  <path id="ID0.5742413708940148" fill="none" stroke="#000000" stroke-width="3" d="M 162 198 C 164.759 198 167.259 199.121 169.069 200.931 C 170.879 202.741 172 205.241 172 208 C 172 210.759 170.879 213.259 169.069 215.069 C 167.259 216.879 164.759 218 162 218 C 159.241 218 156.741 216.879 154.931 215.069 C 153.121 213.259 152 210.759 152 208 C 152 205.241 153.121 202.741 154.931 200.931 C 156.741 199.121 159.241 198 162 198 Z " transform="matrix(1.025408387184143, 0, 0, 1.025408387184143, -67.5, -28.6)"/>
  <path id="ID0.5742413708940148" fill="none" stroke="#000000" stroke-width="3" d="M 162 198 C 164.759 198 167.259 199.121 169.069 200.931 C 170.879 202.741 172 205.241 172 208 C 172 210.759 170.879 213.259 169.069 215.069 C 167.259 216.879 164.759 218 162 218 C 159.241 218 156.741 216.879 154.931 215.069 C 153.121 213.259 152 210.759 152 208 C 152 205.241 153.121 202.741 154.931 200.931 C 156.741 199.121 159.241 198 162 198 Z " transform="matrix(1.025408387184143, 0, 0, 1.025408387184143, 24.25, -28.6)"/>
  <path id="ID0.6809213594533503" fill="none" stroke="#000000" stroke-width="3" stroke-linecap="round" d="M 203.500 209.250 C 203.500 209.250 206.343 211.112 208 211 C 209.198 210.913 211 209 211 209 " transform="matrix(1.025408387184143, 0, 0, 1.025408387184143, -71.25, -31.25)"/>
  <path id="ID0.999744875356555" fill="none" stroke="#000000" stroke-width="3" d="M 276.500 218.250 C 277.948 218.250 279.261 218.614 280.211 219.203 C 281.162 219.791 281.750 220.603 281.750 221.500 C 281.750 222.397 281.162 223.209 280.211 223.797 C 279.261 224.386 277.948 224.750 276.500 224.750 C 275.052 224.750 273.739 224.386 272.789 223.797 C 271.838 223.209 271.250 222.397 271.250 221.500 C 271.250 220.603 271.838 219.791 272.789 219.203 C 273.739 218.614 275.052 218.250 276.500 218.250 Z " transform="matrix(1.025408387184143, 0, 0, 1.025408387184143, -76.15, -31.75)"/>
  <path id="ID0.4096234980970621" fill="none" stroke="#000000" stroke-width="3" d="M 170.950 121.950 L 170 147.500 L 135 147.500 L 135 112.500 L 160.150 111.650 " transform="matrix(-0.9975295662879944, -0.0702485591173172, -0.0702485591173172, 0.9975295662879944, 371.1, -3.1)"/>
  <path id="ID0.3610018566250801" fill="none" stroke="#000000" stroke-width="3" stroke-linecap="round" d="M 136.750 278.350 L 135.400 319.950 L 105.150 314.650 " transform="matrix(0.9992434978485107, 0.03889106586575508, -0.03889106586575508, 0.9992434978485107, -36.35, -29.95)"/>
  <path id="ID0.999744875356555" fill="none" stroke="#000000" stroke-width="3" d="M 276.500 218.250 C 277.948 218.250 279.261 218.614 280.211 219.203 C 281.162 219.791 281.750 220.603 281.750 221.500 C 281.750 222.397 281.162 223.209 280.211 223.797 C 279.261 224.386 277.948 224.750 276.500 224.750 C 275.052 224.750 273.739 224.386 272.789 223.797 C 271.838 223.209 271.250 222.397 271.250 221.500 C 271.250 220.603 271.838 219.791 272.789 219.203 C 273.739 218.614 275.052 218.250 276.500 218.250 Z " transform="matrix(1.025408387184143, 0, 0, 1.025408387184143, -203.6, -29.85)"/>
  <path id="ID0.3610018566250801" fill="none" stroke="#000000" stroke-width="3" stroke-linecap="round" d="M 136.900 268.500 L 136 317 L 99 317 L 105.700 279.300 " transform="matrix(0.9448748230934143, 0.327431857585907, -0.327431857585907, 0.9448748230934143, 27.5, -45.5)"/>
  <path id="ID0.32116088829934597" fill="none" stroke="#000000" stroke-width="3" stroke-linecap="round" d="M 249 45 C 249 45 261.034 50.917 265.587 56.628 C 273.078 66.294 279.490 77.525 282 89.500 C 284.123 99.634 287.357 114.138 279 120 C 264.646 130.036 244.485 128.402 227 128 C 208.719 127.579 187.856 128.743 173 118 C 165.289 112.298 167.971 98.474 170 89.500 C 172.703 77.568 178.028 65.542 186.413 56.628 C 193.195 49.453 211 44 211 44 " transform="matrix(1, 0, 0, 1, -79, -19)"/>
  <path id="ID0.5834744079038501" fill="none" stroke="#000000" stroke-width="3" stroke-linecap="round" d="M 218.500 24 C 223.604 24 228.229 26.073 231.578 29.422 C 234.927 32.771 237 37.396 237 42.500 C 237 47.604 234.927 52.229 231.578 55.578 C 228.229 58.927 223.604 61 218.500 61 C 213.396 61 208.771 58.927 205.422 55.578 C 202.073 52.229 200 47.604 200 42.500 C 200 37.396 202.073 32.771 205.422 29.422 C 208.771 26.073 213.396 24 218.500 24 Z " transform="matrix(1, 0, 0, 1, -67, -22)"/>
  <path id="ID0.582892912440002" fill="none" stroke="#000000" stroke-width="3" stroke-linecap="round" d="M 95.500 275 L 95.500 292.500 " transform="matrix(1, 0, 0, 1, -72, -22)"/>
</svg>