<svg version="1.1" width="103" height="103" viewBox="-1 -1 103 103" xmlns="http://www.w3.org/2000/svg" xmlns:xlink="http://www.w3.org/1999/xlink">
  <!-- Exported by Scratch - http://scratch.mit.edu/ -->
  <path id="ID0.09484875993803144" fill="none" stroke="#000000" stroke-width="3" stroke-linecap="round" d="M 288.500 172 C 288.500 172 290.500 182.500 290.500 182.500 " transform="matrix(1, 0, 0, 1, -207.75, -136)"/>
  <path id="ID0.09484875993803144" fill="none" stroke="#000000" stroke-width="3" stroke-linecap="round" d="M 290.250 182.250 C 290.250 182.250 307.429 184.119 308.600 190.750 C 310.337 200.584 302.860 210.498 296.600 218.250 C 293.078 222.480 286.144 221.756 281.250 224.250 L 274.500 229.500 C 272.252 231.248 258.994 237.646 250.750 237 C 240.698 236.212 229.865 232.757 222.650 225.716 C 215.390 218.631 212.558 207.693 210.500 197.750 C 208.927 190.149 210.701 182.291 212 174.750 C 212.402 172.596 215.500 169.250 215.500 169.250 " transform="matrix(1, 0, 0, 1, -207.75, -136)"/>
  <path id="ID0.6668335199356079" fill="none" stroke="#000000" stroke-width="2" d="M 236.750 156.500 C 246.751 156.500 253.970 157.035 262.376 158.552 C 266.523 159.301 274.208 160.789 274.250 163.300 C 274.208 165.737 266.581 167.628 262.376 168.448 C 253.992 170.083 246.751 170.500 236.750 170.500 C 226.749 170.500 219.525 169.993 211.124 168.448 C 206.399 167.579 197.659 165.786 197.750 163.300 C 197.659 160.839 206.431 159.373 211.124 158.552 C 219.538 157.080 226.749 156.500 236.750 156.500 Z " transform="matrix(0.983660101890564, 0, 0, 1.3035714626312256, -189.85, -176.4)"/>
  <path id="ID0.6668335199356079" fill="none" stroke="#000000" stroke-width="2" d="M 238.922 156.514 C 238.922 156.514 254.083 157.265 262.376 158.552 C 266.112 159.133 273.182 159.760 273.200 162.150 C 273.182 164.708 266.442 167.501 262.376 168.448 C 254.038 170.389 246.751 170.500 236.750 170.500 C 226.749 170.500 219.490 170.262 211.124 168.448 C 206.296 167.401 197.752 164.655 197.750 162.150 C 197.752 159.708 206.571 159.289 211.124 158.552 C 218.560 157.348 233.550 156.300 233.550 156.300 " transform="matrix(0.983660101890564, 0, 0, 0.9428571462631226, -189.5, -115.25)"/>
  <path id="ID0.12875419156625867" fill="none" stroke="#000000" stroke-width="2" stroke-linecap="round" d="M 182 144.750 C 182 144.750 183.452 144.316 184.250 144.400 C 185.374 144.530 186.724 144.609 187.500 145.400 C 188.329 146.309 188.476 147.689 188.500 148.900 C 188.528 150.327 188.410 151.982 187.600 153.200 C 187.119 153.923 185.050 154.100 185.050 154.100 " transform="matrix(0.41921481490135193, -0.9078871011734009, 0.9078871011734009, 0.41921481490135193, -189.2, 143.3)"/>
  <path id="ID0.12875419156625867" fill="none" stroke="#000000" stroke-width="2" stroke-linecap="round" d="M 181 145.300 C 181 145.300 183.126 144.371 184.250 144.400 C 185.386 144.429 186.724 144.609 187.500 145.400 C 188.329 146.309 188.474 147.689 188.500 148.900 C 188.531 150.316 188.352 151.946 187.600 153.200 C 187.236 153.801 185.750 153.800 185.750 153.800 " transform="matrix(-0.41921481490135193, -0.9078871607780457, -0.9078871607780457, 0.41921481490135193, 276.5, 143.7)"/>
  <path id="ID0.12875419156625867" fill="none" stroke="#000000" stroke-width="2" stroke-linecap="round" d="M 180.650 152.050 C 180.650 152.050 179.947 150.095 180 148.900 C 180.058 147.657 180.112 146.188 181 145.300 C 181.746 144.459 183.126 144.371 184.250 144.400 C 185.386 144.429 186.723 144.590 187.500 145.400 C 188.331 146.293 188.500 148.900 188.500 148.900 " transform="matrix(0.9726291298866272, 0.23236307501792908, -0.23236307501792908, 0.9726291298866272, -101.5, -151.55)"/>
  <path id="ID0.8145941393449903" fill="#5E1B05" stroke="none" d="M 251.450 164.850 C 251.491 164.850 251.529 164.850 251.556 164.850 C 251.583 164.850 251.600 164.850 251.600 164.850 C 251.600 164.850 251.583 164.850 251.556 164.850 C 251.529 164.850 251.491 164.850 251.450 164.850 C 251.409 164.850 251.371 164.850 251.344 164.850 C 251.317 164.850 251.300 164.850 251.300 164.850 C 251.300 164.850 251.317 164.850 251.344 164.850 C 251.371 164.850 251.409 164.850 251.450 164.850 Z " transform="matrix(1, 0, 0, 1, -192, -125)"/>
  <path id="ID0.6374173201620579" fill="none" stroke="#000000" stroke-width="2" stroke-linecap="round" d="M 250.850 131.900 C 251.307 131.555 250.729 133.472 251 134.150 C 251.495 135.096 252.698 135.569 253.047 136.558 C 253.674 138.330 254.364 140.279 254 142.125 C 253.647 143.912 251.589 145.038 250.850 146.800 C 250.467 147.757 251.403 149.752 250.750 150 C 250.111 150.242 248.410 148.775 248.453 147.692 C 248.545 145.398 251.287 143.630 251.350 141.300 C 251.287 139.461 248.561 138.405 248.453 136.558 C 248.353 134.840 249.896 132.677 250.850 131.900 Z " transform="matrix(1, 0, 0, 1, -192, -125)"/>
  <path id="ID0.7034727493301034" fill="none" stroke="#000000" stroke-width="2" stroke-linecap="round" d="M 235.750 130.250 C 236.429 130.050 238.017 131.227 238.100 132.250 C 238.237 133.985 236.152 135.447 236.100 137.250 C 236.133 138.740 238.127 139.837 238.047 141.345 C 237.957 143.057 236.101 145.845 235.700 145.750 C 235.249 145.719 236.229 142.542 235.700 141 C 235.124 139.325 232.446 138.472 232.500 136.750 C 232.553 135.136 234.940 134.528 235.700 133.100 C 236.084 132.240 235.137 130.432 235.750 130.250 Z " transform="matrix(1, 0, 0, 1, -192, -128.5)"/>
  <path id="ID0.6374173201620579" fill="none" stroke="#000000" stroke-width="2" stroke-linecap="round" d="M 250.850 131.900 C 251.307 131.555 250.729 133.472 251 134.150 C 251.495 135.096 252.698 135.569 253.047 136.558 C 253.674 138.330 254.364 140.279 254 142.125 C 253.647 143.912 251.589 145.038 250.850 146.800 C 250.467 147.757 251.403 149.752 250.750 150 C 250.111 150.242 248.410 148.775 248.453 147.692 C 248.545 145.398 251.287 143.630 251.350 141.300 C 251.287 139.461 248.561 138.405 248.453 136.558 C 248.353 134.840 249.896 132.677 250.850 131.900 Z " transform="matrix(1, 0, 0, 1, -221.4, -125)"/>
  <path id="ID0.16693149087950587" fill="none" stroke="#000000" stroke-width="3" stroke-linecap="round" d="M 269.250 204.500 L 272.350 193.050 L 274.250 180.750 C 274.924 176.970 285.550 179.450 286 183.500 C 286.650 190.450 281.384 196.804 277.250 202.250 C 275.430 204.456 270.086 206.755 269.250 205 Z " transform="matrix(1, 0, 0, 1, -192.75, -125.75)"/>
  <path id="ID0.0007608737796545029" fill="none" stroke="#000000" stroke-width="2" stroke-linecap="round" d="M 228 164.200 C 228 164.200 230.879 163.343 232.400 163.350 C 233.438 163.355 234.363 164.157 235.400 164.200 C 236.418 164.242 237.415 163.861 238.400 163.600 C 239.118 163.410 240.500 162.850 240.500 162.850 " transform="matrix(1, 0, 0, 1, -192, -125)"/>
  <path id="ID0.12177833868190646" fill="none" stroke="#000000" stroke-width="2" stroke-linecap="round" d="M 207.750 164.350 C 207.750 164.350 209.566 163.667 210.500 163.750 C 211.169 163.809 211.633 164.487 212.250 164.750 C 212.890 165.023 213.567 165.222 214.250 165.350 C 214.906 165.473 215.582 165.500 216.250 165.500 C 216.968 165.500 217.697 165.496 218.400 165.350 C 219.839 165.049 222.800 164.050 222.800 164.050 " transform="matrix(1, 0, 0, 1, -192, -125)"/>
  <path id="ID0.36727103497833014" fill="none" stroke="#000000" stroke-width="2" stroke-linecap="round" d="M 249.150 166.300 C 249.150 166.300 250.595 164.770 251.750 164.700 C 253.755 164.581 255.644 165.863 257.650 165.950 C 259.300 166.019 262.850 165.100 262.850 165.100 " transform="matrix(1, 0, 0, 1, -192, -125)"/>
</svg>