<svg version="1.1" width="71" height="93" viewBox="-1 -1 71 93" xmlns="http://www.w3.org/2000/svg" xmlns:xlink="http://www.w3.org/1999/xlink">
  <!-- Exported by Scratch - http://scratch.mit.edu/ -->
  <g id="ID0.5102212387137115" transform="matrix(1, 0, 0, 1, -195, -120)">
    <path id="ID0.9228711356408894" fill="none" stroke="#000000" stroke-width="2" stroke-linecap="round" d="M 228 166.250 C 227.350 166.809 229.829 162.801 231.150 160.750 C 231.844 159.559 233.170 158.714 234.500 158.500 C 235.911 158.296 237.524 158.741 238.650 159.600 C 239.437 160.233 239.962 161.323 239.750 162.250 C 239.471 163.403 238.329 164.508 237.150 165.100 C 234.555 166.395 230.475 168.900 228.750 167.750 Z " transform="matrix(0.00995966512709856, 0.9999504089355469, 0.9999504089355469, -0.00995966512709856, 51.55, -52.15)"/>
    <path id="ID0.9228711356408894" fill="none" stroke="#000000" stroke-width="2" stroke-linecap="round" d="M 228 166.250 C 227.350 166.809 229.829 162.801 231.150 160.750 C 231.844 159.559 233.170 158.714 234.500 158.500 C 235.911 158.296 237.524 158.741 238.650 159.600 C 239.437 160.233 239.962 161.323 239.750 162.250 C 239.471 163.403 238.329 164.508 237.150 165.100 C 234.555 166.395 230.475 168.900 228.750 167.750 Z "/>
    <path id="ID0.3231751015409827" fill="none" stroke="#000000" stroke-width="2" stroke-linecap="round" d="M 234.250 189.500 L 248.900 192 L 248.400 201.100 L 233.500 198.250 L 234.250 189.500 Z " transform="matrix(-0.7445704936981201, 0.6350645422935486, 0.6471225619316101, 0.683025062084198, 302.35, -90.6)"/>
    <path id="ID0.3231751015409827" fill="none" stroke="#000000" stroke-width="2" stroke-linecap="round" d="M 234.950 188.950 L 249.800 192.050 L 248 200.850 L 233.300 197.300 L 234.950 188.950 Z " transform="matrix(-0.883275032043457, 0.443084716796875, 0.4392927289009094, 0.8206741213798523, 343.05, -105.45)"/>
    <path id="ID0.3231751015409827" fill="none" stroke="#000000" stroke-width="2" stroke-linecap="round" d="M 235.350 191.600 L 235.100 187.100 L 250.850 188.450 L 250.850 190.650 L 250.450 195 L 248.450 199.700 L 234.350 195.500 L 235.350 191.600 Z " transform="matrix(-0.9630959033966064, 0.23230251669883728, 0.2135394811630249, 0.9032528400421143, 398.35, -82.35)"/>
    <path id="ID0.3231751015409827" fill="none" stroke="#000000" stroke-width="2" stroke-linecap="round" d="M 235.500 190.600 L 235.850 188.650 L 235 186.200 L 251.050 188.200 L 251.750 190.900 L 251.350 193.300 L 250 196.450 L 248.400 199.400 L 234.550 191.850 L 235.500 190.600 Z " transform="matrix(-0.4920937716960907, -0.7922678589820862, -0.8549834489822388, 0.4920792281627655, 492.2, 231.05)"/>
    <path id="ID0.3231751015409827" fill="none" stroke="#000000" stroke-width="2" stroke-linecap="round" d="M 233.500 191.050 L 232.700 188.450 L 232.150 185.250 L 248.800 187.650 L 249.550 190.800 L 250.100 194.050 L 250.550 196.900 L 250.550 199.300 L 234.450 192.950 L 233.500 191.050 Z " transform="matrix(0.26273390650749207, -0.9067838191986084, -0.9508541822433472, -0.2181127518415451, 344.5, 392.55)"/>
    <path id="ID0.4151444989256561" fill="none" stroke="#000000" stroke-width="2" stroke-linecap="round" d="M 232.600 205.950 C 232.743 205.704 232.552 206.033 233.550 206.200 C 237.537 206.868 241.601 207.186 245.550 208.100 C 246.524 208.325 245.790 208.734 245.650 209 C 245.170 209.894 244.648 210.884 243.778 211.406 C 242.544 212.145 241.246 212.600 239.625 212.600 C 238.004 212.600 236.701 212.142 235.472 211.406 C 234.576 210.868 234.032 209.870 233.450 209 C 233.143 208.537 232.999 207.983 232.850 207.450 C 232.714 206.962 232.385 206.328 232.600 205.950 Z " transform="matrix(-0.7730860114097595, 0.659386157989502, 0.6471225619316101, 0.683025062084198, 307.7, -95.85)"/>
    <path id="ID0.3579449988901615" fill="none" stroke="#000000" stroke-width="2" stroke-linecap="round" d="M 235.550 192.950 L 245.350 181.950 L 244.250 181 C 243.951 180.710 256.183 190.751 260.750 196.750 C 262.342 198.842 262.250 204.500 262.250 204.500 "/>
    <path id="ID0.3579449988901615" fill="none" stroke="#000000" stroke-width="2" stroke-linecap="round" d="M 212.400 169.650 C 212.400 169.650 205.730 161.689 202.250 157.250 C 200.421 154.907 198.695 152.323 197.500 149.750 C 196.966 148.595 196.799 147.159 196.750 146 C 196.666 143.758 196.401 141.476 196.750 139.250 C 197.158 136.679 197.713 134.153 199 131.750 C 200.264 129.416 201.985 127.294 204.250 125.750 C 207.289 123.709 210.880 122.281 214.500 121.750 C 218.548 121.158 223.141 121.083 227 122.750 C 231.380 124.519 236.601 127.150 238 131.750 C 239.189 135.188 236.567 140.331 233 141.500 C 228.430 143.118 223.735 138.517 218.750 138.250 C 216.742 138.143 213.745 138.705 213.250 140.750 C 212.557 143.854 215.039 147.027 216.750 149.750 L 224.350 158.350 "/>
    <path id="ID0.3579449988901615" fill="none" stroke="#000000" stroke-width="2" stroke-linecap="round" d="M 253.250 209 C 253.250 209 256.414 209.610 255.750 209.250 C 254.575 208.384 251.286 207.907 249.500 206.500 C 244.094 202.241 234.500 192.600 234.500 192.600 "/>
    <path id="ID0.19260816276073456" fill="none" stroke="#000000" stroke-width="2" stroke-linecap="round" d="M 221.500 167.700 C 222.834 164.410 222.421 160.144 224.850 157.650 C 227.710 154.713 232.060 153.340 236.100 152.650 C 238.468 152.247 240.930 153.135 242.850 154.350 C 244.358 155.295 245.120 157.168 245.700 158.700 C 246.192 160.004 246.406 161.523 246.200 162.850 C 245.989 164.206 245.371 165.533 244.600 166.650 C 243.358 168.447 242.168 170.438 240.350 171.650 C 238.532 172.862 233.726 173.388 234.100 173.650 C 234.474 173.912 239.944 173.175 242.850 173.400 C 244.604 173.535 246.712 173.450 247.850 174.700 C 248.811 175.759 249.078 178.241 247.850 178.900 C 244.627 180.628 240.654 180.222 237 180.600 C 236.115 180.667 235.819 179.730 235.600 180.100 C 235.296 180.631 236.119 181.613 236.100 182.350 C 236.029 185.200 236.888 188.418 235.600 190.900 C 234.671 192.685 231.537 195.241 230.350 193.900 C 228.321 191.604 229.847 186.920 229.200 183.500 C 229.038 182.639 229.143 181.313 228.100 182 C 223.928 184.747 221.642 190.573 216.850 191.850 C 213.654 192.668 209.653 190.148 207.850 187.350 C 206.124 184.156 206.469 179.745 207.700 176.350 C 208.899 173.112 211.967 170.701 214.850 168.900 C 216.449 167.901 218.650 168.864 220.500 168.500 C 220.984 168.403 221.198 168.490 221.500 167.700 Z "/>
  </g>
</svg>