<svg version="1.1" width="389" height="293" viewBox="-1 -1 389 293" xmlns="http://www.w3.org/2000/svg" xmlns:xlink="http://www.w3.org/1999/xlink">
  <!-- Exported by Scratch - http://scratch.mit.edu/ -->
  <g id="ID0.8960632686503232">
    <path id="ID0.8820513412356377" fill="#FFEAD0" stroke="none" stroke-linecap="round" d="M 243 127 C 267.278 127 289.278 136.861 305.209 152.791 C 321.139 168.722 329.251 192.633 331 215 C 332.797 237.946 332.973 266.523 317 283 C 298.663 300.834 268.075 303.221 243 303 C 218.568 302.790 190.377 298.252 173 281 C 157.010 264.885 153.732 237.563 155 215 C 156.258 192.578 164.861 168.722 180.791 152.791 C 196.722 136.861 218.722 127 243 127 Z " transform="matrix(0.3920726776123047, 0, 0, 0.3780043423175812, -46.6, 139.55)"/>
    <path id="ID0.2806902341544628" fill="#000000" stroke="none" d="M 181.500 268 C 184.121 268 186.496 269.065 188.216 270.784 C 189.935 272.504 191 274.879 191 277.500 C 191 280.121 189.935 282.496 188.216 284.216 C 186.496 285.935 184.121 287 181.500 287 C 178.879 287 176.504 285.935 174.784 284.216 C 173.065 282.496 172 280.121 172 277.500 C 172 274.879 173.065 272.504 174.784 270.784 C 176.504 269.065 178.879 268 181.500 268 Z " transform="matrix(0.37483954429626465, 0, 0, 0.37483954429626465, -35.6, 124.35)"/>
    <path id="ID0.2806902341544628" fill="#000000" stroke="none" d="M 181.500 268 C 184.121 268 186.496 269.065 188.216 270.784 C 189.935 272.504 191 274.879 191 277.500 C 191 280.121 189.935 282.496 188.216 284.216 C 186.496 285.935 184.121 287 181.500 287 C 178.879 287 176.504 285.935 174.784 284.216 C 173.065 282.496 172 280.121 172 277.500 C 172 274.879 173.065 272.504 174.784 270.784 C 176.504 269.065 178.879 268 181.500 268 Z " transform="matrix(0.37483954429626465, 0, 0, 0.37483954429626465, -2.05, 124.5)"/>
    <path id="ID0.694512349087745" fill="#965749" stroke="none" stroke-linecap="round" d="M 235.500 268 C 243.639 268 251.014 270.521 256.354 274.594 C 261.694 278.667 261.733 285.445 265 290.500 C 269.368 297.251 278.710 303.014 278 311 C 277.359 317.450 269.309 322.043 263 323 C 254.499 324.324 245.905 317.014 237 317 C 227.812 317.018 219.339 324.360 210 323 C 203.609 322.094 195.708 317.110 195 311 C 194.234 303.341 202.633 297.467 206 290.500 C 208.619 285.080 209.306 278.667 214.646 274.594 C 219.986 270.521 227.361 268 235.500 268 Z " transform="matrix(0.40531429648399353, 0, 0, 0.451572984457016, -46.35, 103.15)"/>
    <path id="ID0.406083129812032" fill="#190F07" stroke="none" stroke-linecap="round" d="M 234 277 C 237.311 277 239.966 277.586 242.483 278.758 C 244.197 279.564 246.685 280.844 246.150 282.500 C 245.191 285.424 241.877 287.147 239.150 288.600 C 237.634 289.421 235.722 289.095 234 289.100 C 232.288 289.027 230.431 289.168 228.900 288.400 C 226.293 287.095 222.964 285.729 222 283 C 221.389 281.270 223.345 279.845 225.517 278.758 C 227.689 277.672 230.689 277 234 277 Z " transform="matrix(0.37483954429626465, 0, 0, 0.37483954429626465, -38.6, 125.45)"/>
    <path id="ID0.8044573538936675" fill="#FF6F6F" stroke="none" stroke-linecap="round" d="M 234 296.250 C 237.517 296.233 239.686 300.567 241.750 303.500 C 242.510 304.671 242.242 306.338 242 307.875 C 241.669 309.948 241.174 312.279 239.839 313.795 C 238.503 315.312 236.660 316.250 234.625 316.250 C 232.590 316.250 230.747 315.312 229.411 313.795 C 228.076 312.279 227.671 309.932 227.250 307.875 C 226.963 306.454 226.562 304.938 227.250 303.750 C 228.939 300.844 230.700 296.269 234 296.250 Z " transform="matrix(0.37483954429626465, 0, 0, 0.37483954429626465, -38.6, 125.45)"/>
    <path id="ID0.685686843469739" fill="none" stroke="#190F07" stroke-width="2" stroke-linecap="round" d="M 233.500 286 C 233.500 286 234.523 294.545 232.250 297.750 C 229.859 301.449 221 304.500 221 304.500 " transform="matrix(0.37483954429626465, 0, 0, 0.37483954429626465, -38.6, 125.45)"/>
    <path id="ID0.685686843469739" fill="none" stroke="#190F07" stroke-width="2" stroke-linecap="round" d="M 233.500 286 C 233.500 286 234.523 294.545 232.250 297.750 C 229.859 301.449 221 304.500 221 304.500 " transform="matrix(-0.37483954429626465, 0, 0, 0.37483954429626465, 136.75, 125.45)"/>
    <path id="ID0.13846430648118258" fill="#965749" stroke="none" stroke-linecap="round" d="M 324 177 C 336.651 180.515 347.814 188.708 358 197 C 361.549 199.887 364.438 204.714 363 209.250 C 358.415 227.744 347.106 243.911 341 262 C 339.081 267.688 339.435 274.150 340 280 C 340.415 284.616 345.361 288.682 344 293 C 342.876 296.556 337.829 299.063 334 298.750 C 328.814 298.264 323.142 294.798 319 291 C 310.036 282.781 300.612 274.294 297 263 C 292.302 248.308 294.743 232.351 295.500 217.150 C 295.582 211.455 300.974 206.043 299.500 200.750 C 297.843 194.787 289.507 192.503 287 187 C 285.600 183.918 286.030 178.195 289 177 C 300.412 174.308 313.174 173.989 324 177 Z " transform="matrix(0.3775588274002075, 0, 0, 0.32515275478363037, -37.35, 139.75)"/>
    <path id="ID0.7530061188153923" fill="#000000" stroke="none" d="M 255.125 288.500 C 255.573 288.500 255.980 288.682 256.274 288.976 C 256.568 289.270 256.750 289.677 256.750 290.125 C 256.750 290.573 256.568 290.980 256.274 291.274 C 255.980 291.568 255.573 291.750 255.125 291.750 C 254.677 291.750 254.270 291.568 253.976 291.274 C 253.682 290.980 253.500 290.573 253.500 290.125 C 253.500 289.677 253.682 289.270 253.976 288.976 C 254.270 288.682 254.677 288.500 255.125 288.500 Z " transform="matrix(0.37483954429626465, 0, 0, 0.37483954429626465, -38.6, 125.45)"/>
    <path id="ID0.7530061188153923" fill="#000000" stroke="none" d="M 255.125 288.500 C 255.573 288.500 255.980 288.682 256.274 288.976 C 256.568 289.270 256.750 289.677 256.750 290.125 C 256.750 290.573 256.568 290.980 256.274 291.274 C 255.980 291.568 255.573 291.750 255.125 291.750 C 254.677 291.750 254.270 291.568 253.976 291.274 C 253.682 290.980 253.500 290.573 253.500 290.125 C 253.500 289.677 253.682 289.270 253.976 288.976 C 254.270 288.682 254.677 288.500 255.125 288.500 Z " transform="matrix(0.37483954429626465, 0, 0, 0.37483954429626465, -41.35, 125.5)"/>
    <path id="ID0.7530061188153923" fill="#000000" stroke="none" d="M 255.125 288.500 C 255.573 288.500 255.980 288.682 256.274 288.976 C 256.568 289.270 256.750 289.677 256.750 290.125 C 256.750 290.573 256.568 290.980 256.274 291.274 C 255.980 291.568 255.573 291.750 255.125 291.750 C 254.677 291.750 254.270 291.568 253.976 291.274 C 253.682 290.980 253.500 290.573 253.500 290.125 C 253.500 289.677 253.682 289.270 253.976 288.976 C 254.270 288.682 254.677 288.500 255.125 288.500 Z " transform="matrix(0.37483954429626465, 0, 0, 0.37483954429626465, -39.85, 127.45)"/>
    <path id="ID0.7530061188153923" fill="#000000" stroke="none" d="M 255.125 288.500 C 255.573 288.500 255.980 288.682 256.274 288.976 C 256.568 289.270 256.750 289.677 256.750 290.125 C 256.750 290.573 256.568 290.980 256.274 291.274 C 255.980 291.568 255.573 291.750 255.125 291.750 C 254.677 291.750 254.270 291.568 253.976 291.274 C 253.682 290.980 253.500 290.573 253.500 290.125 C 253.500 289.677 253.682 289.270 253.976 288.976 C 254.270 288.682 254.677 288.500 255.125 288.500 Z " transform="matrix(0.37483954429626465, 0, 0, 0.37483954429626465, -52.7, 127.25)"/>
    <path id="ID0.7530061188153923" fill="#000000" stroke="none" d="M 255.125 288.500 C 255.573 288.500 255.980 288.682 256.274 288.976 C 256.568 289.270 256.750 289.677 256.750 290.125 C 256.750 290.573 256.568 290.980 256.274 291.274 C 255.980 291.568 255.573 291.750 255.125 291.750 C 254.677 291.750 254.270 291.568 253.976 291.274 C 253.682 290.980 253.500 290.573 253.500 290.125 C 253.500 289.677 253.682 289.270 253.976 288.976 C 254.270 288.682 254.677 288.500 255.125 288.500 Z " transform="matrix(0.37483954429626465, 0, 0, 0.37483954429626465, -51.5, 125.25)"/>
    <path id="ID0.7530061188153923" fill="#000000" stroke="none" d="M 255.125 288.500 C 255.573 288.500 255.980 288.682 256.274 288.976 C 256.568 289.270 256.750 289.677 256.750 290.125 C 256.750 290.573 256.568 290.980 256.274 291.274 C 255.980 291.568 255.573 291.750 255.125 291.750 C 254.677 291.750 254.270 291.568 253.976 291.274 C 253.682 290.980 253.500 290.573 253.500 290.125 C 253.500 289.677 253.682 289.270 253.976 288.976 C 254.270 288.682 254.677 288.500 255.125 288.500 Z " transform="matrix(0.37483954429626465, 0, 0, 0.37483954429626465, -54.2, 125.3)"/>
    <path id="ID0.7067176010459661" fill="#FF8282" stroke="none" stroke-linecap="round" d="M 240.750 101.750 C 251.042 104.474 261.406 109.050 269.250 116.250 C 274.923 121.468 276.719 130.043 279.750 137.250 C 281.199 140.678 280.600 143.318 281.600 146.350 C 282.949 149.861 289.381 156.965 286.750 156.750 C 281.845 156.066 271.984 148.352 265.700 142.500 C 264.174 141.286 265.676 139.636 265.750 137.750 C 265.836 136.759 266.395 131.348 267 135 C 269.468 149.465 281.580 167.100 273 179 C 264.914 190.213 245.932 186.693 232 186 C 217.073 185.260 201.549 181.632 187.700 175.500 C 184.184 173.911 185.315 168.756 186.350 165.450 C 189.976 153.902 194.477 142.734 201.100 132.550 C 207.346 122.193 214.555 112.433 224.600 104.400 C 228.885 101.012 235.414 100.340 240.750 101.750 Z " transform="matrix(0.5352343320846558, 0, 0, 0.5352343320846558, -75.25, 100.25)"/>
    <path id="ID0.13846430648118258" fill="#965749" stroke="none" stroke-linecap="round" d="M 324 177 C 336.651 180.515 347.814 188.708 358 197 C 361.549 199.887 364.438 204.714 363 209.250 C 358.415 227.744 347.106 243.911 341 262 C 339.081 267.688 339.435 274.150 340 280 C 340.415 284.616 345.361 288.682 344 293 C 342.876 296.556 337.829 299.063 334 298.750 C 328.814 298.264 323.142 294.798 319 291 C 310.036 282.781 300.612 274.294 297 263 C 292.302 248.308 294.743 232.351 295.500 217.150 C 295.582 211.455 300.974 206.043 299.500 200.750 C 297.843 194.787 289.507 192.503 287 187 C 285.600 183.918 286.030 178.195 289 177 C 300.412 174.308 313.174 173.989 324 177 Z " transform="matrix(-0.3775588274002075, 0, 0, 0.32515278458595276, 137.45, 139.95)"/>
    <path id="ID0.694634594488889" fill="#FFFFFF" stroke="none" d="M 187.500 164 C 192.604 164 197.229 166.073 200.578 169.422 C 203.927 172.771 206 177.396 206 182.500 C 206 187.604 203.927 192.229 200.578 195.578 C 197.229 198.927 192.604 201 187.500 201 C 182.396 201 177.771 198.927 174.422 195.578 C 171.073 192.229 169 187.604 169 182.500 C 169 177.396 171.073 172.771 174.422 169.422 C 177.771 166.073 182.396 164 187.500 164 Z " transform="matrix(0.3591182827949524, 0, 0, 0.3591182827949524, -35.85, 131.6)"/>
    <path id="ID0.694634594488889" fill="#FFFFFF" stroke="none" d="M 187.500 164 C 192.604 164 197.229 166.073 200.578 169.422 C 203.927 172.771 206 177.396 206 182.500 C 206 187.604 203.927 192.229 200.578 195.578 C 197.229 198.927 192.604 201 187.500 201 C 182.396 201 177.771 198.927 174.422 195.578 C 171.073 192.229 169 187.604 169 182.500 C 169 177.396 171.073 172.771 174.422 169.422 C 177.771 166.073 182.396 164 187.500 164 Z " transform="matrix(0.3591182827949524, 0, 0, 0.3591182827949524, -26.75, 132.1)"/>
    <path id="ID0.694634594488889" fill="#FFFFFF" stroke="none" d="M 187.500 164 C 192.604 164 197.229 166.073 200.578 169.422 C 203.927 172.771 206 177.396 206 182.500 C 206 187.604 203.927 192.229 200.578 195.578 C 197.229 198.927 192.604 201 187.500 201 C 182.396 201 177.771 198.927 174.422 195.578 C 171.073 192.229 169 187.604 169 182.500 C 169 177.396 171.073 172.771 174.422 169.422 C 177.771 166.073 182.396 164 187.500 164 Z " transform="matrix(0.3591182827949524, 0, 0, 0.3591182827949524, -16.25, 131.8)"/>
    <path id="ID0.694634594488889" fill="#FFFFFF" stroke="none" d="M 187.500 164 C 192.604 164 197.229 166.073 200.578 169.422 C 203.927 172.771 206 177.396 206 182.500 C 206 187.604 203.927 192.229 200.578 195.578 C 197.229 198.927 192.604 201 187.500 201 C 182.396 201 177.771 198.927 174.422 195.578 C 171.073 192.229 169 187.604 169 182.500 C 169 177.396 171.073 172.771 174.422 169.422 C 177.771 166.073 182.396 164 187.500 164 Z " transform="matrix(0.3591182827949524, 0, 0, 0.3591182827949524, -6.25, 131.45)"/>
    <path id="ID0.694634594488889" fill="#FFFFFF" stroke="none" d="M 187.500 164 C 192.604 164 197.229 166.073 200.578 169.422 C 203.927 172.771 206 177.396 206 182.500 C 206 187.604 203.927 192.229 200.578 195.578 C 197.229 198.927 192.604 201 187.500 201 C 182.396 201 177.771 198.927 174.422 195.578 C 171.073 192.229 169 187.604 169 182.500 C 169 177.396 171.073 172.771 174.422 169.422 C 177.771 166.073 182.396 164 187.500 164 Z " transform="matrix(0.2672656774520874, 0, 0, 0.2672656774520874, 29.05, 135.85)"/>
    <path id="ID0.694634594488889" fill="#FFFFFF" stroke="none" d="M 187.500 164 C 192.604 164 197.229 166.073 200.578 169.422 C 203.927 172.771 206 177.396 206 182.500 C 206 187.604 203.927 192.229 200.578 195.578 C 197.229 198.927 192.604 201 187.500 201 C 182.396 201 177.771 198.927 174.422 195.578 C 171.073 192.229 169 187.604 169 182.500 C 169 177.396 171.073 172.771 174.422 169.422 C 177.771 166.073 182.396 164 187.500 164 Z " transform="matrix(0.3591182827949524, 0, 0, 0.3591182827949524, -44.3, 130.35)"/>
    <path id="ID0.694634594488889" fill="#FFFFFF" stroke="none" d="M 187.500 164 C 192.604 164 197.229 166.073 200.578 169.422 C 203.927 172.771 206 177.396 206 182.500 C 206 187.604 203.927 192.229 200.578 195.578 C 197.229 198.927 192.604 201 187.500 201 C 182.396 201 177.771 198.927 174.422 195.578 C 171.073 192.229 169 187.604 169 182.500 C 169 177.396 171.073 172.771 174.422 169.422 C 177.771 166.073 182.396 164 187.500 164 Z " transform="matrix(0.3591182827949524, 0, 0, 0.3591182827949524, 4.4, 130)"/>
    <path id="ID0.32408631965518" fill="#FF8282" stroke="none" d="M 300 281 C 302.207 281 304.207 281.448 305.655 282.172 C 307.104 282.896 308 283.896 308 285 C 308 286.104 307.104 287.104 305.655 287.828 C 304.207 288.552 302.207 289 300 289 C 297.793 289 295.793 288.552 294.345 287.828 C 292.896 287.104 292 286.104 292 285 C 292 283.896 292.896 282.896 294.345 282.172 C 295.793 281.448 297.793 281 300 281 Z " transform="matrix(0.37483954429626465, 0, 0, 0.37483954429626465, -38.6, 125.45)"/>
    <path id="ID0.32408631965518" fill="#FF8282" stroke="none" d="M 300 281 C 302.207 281 304.207 281.448 305.655 282.172 C 307.104 282.896 308 283.896 308 285 C 308 286.104 307.104 287.104 305.655 287.828 C 304.207 288.552 302.207 289 300 289 C 297.793 289 295.793 288.552 294.345 287.828 C 292.896 287.104 292 286.104 292 285 C 292 283.896 292.896 282.896 294.345 282.172 C 295.793 281.448 297.793 281 300 281 Z " transform="matrix(0.37483954429626465, 0, 0, 0.37483954429626465, -88.15, 125.85)"/>
    <path id="ID0.5008056331425905" fill="#965749" stroke="none" d="M 182.500 224 C 184.845 224 186.970 224.560 188.509 225.465 C 190.048 226.371 191 227.621 191 229 C 191 230.379 190.048 231.629 188.509 232.535 C 186.970 233.440 184.845 234 182.500 234 C 180.155 234 178.030 233.440 176.491 232.535 C 174.952 231.629 174 230.379 174 229 C 174 227.621 174.952 226.371 176.491 225.465 C 178.030 224.560 180.155 224 182.500 224 Z " transform="matrix(0.326728880405426, 0.06126166507601738, -0.06126166507601738, 0.326728880405426, -11.5, 131.5)"/>
    <path id="ID0.5008056331425905" fill="#965749" stroke="none" d="M 182.500 224 C 184.845 224 186.970 224.560 188.509 225.465 C 190.048 226.371 191 227.621 191 229 C 191 230.379 190.048 231.629 188.509 232.535 C 186.970 233.440 184.845 234 182.500 234 C 180.155 234 178.030 233.440 176.491 232.535 C 174.952 231.629 174 230.379 174 229 C 174 227.621 174.952 226.371 176.491 225.465 C 178.030 224.560 180.155 224 182.500 224 Z " transform="matrix(-0.326728880405426, 0.06126166507601738, 0.06126166507601738, 0.326728880405426, 109.65, 131.55)"/>
  </g>
  <g id="ID0.4135989835485816" transform="matrix(1, 0, 0, 1, 8, 6)">
    <path id="ID0.5478785261511803" fill="#FF9A9A" stroke="none" d="M 193 154.500 L 268 154.500 L 268 205.500 L 193 205.500 L 193 154.500 Z " transform="matrix(0.80120849609375, 0, 0, 0.8275929093360901, -150.95, -100.85)"/>
    <path id="ID0.9895848804153502" fill="#F09090" stroke="none" d="M 181 141.500 L 279.500 141.500 L 279.500 159 L 181 159 L 181 141.500 Z " transform="matrix(0.6852791905403137, 0, 0, 0.8275929093360901, -123.65, -100.85)"/>
    <path id="ID0.6242861747741699" fill="#FF5E5E" stroke="none" d="M 219.250 141.750 L 241 141.750 L 241 205 L 219.250 205 L 219.250 141.750 Z " transform="matrix(0.6797583103179932, 0, 0, 0.8341351747512817, -122.9, -101.45)"/>
    <g id="ID0.9871918270364404">
      <path id="ID0.026395104825496674" fill="#E45656" stroke="none" stroke-linecap="round" d="M 233.200 147.500 C 234.231 148.960 229.934 146.276 230.650 146.500 C 233.097 147.265 237.665 148.126 239.527 149.478 C 241.118 150.648 241.869 152.459 242.150 154.250 C 242.428 156.018 242.667 158.510 241.250 159.650 C 240.054 160.609 238.005 159.518 236.750 158.650 C 234.823 157.340 233.505 155.235 232.500 153.150 C 230.888 149.803 229.026 146.146 228.850 142.400 C 228.791 141.163 231.280 139.319 232 140.150 C 233.453 141.867 232.188 145.580 233.200 147.500 Z " transform="matrix(0.7174550890922546, 0, 0, 0.7174550890922546, -131.1, -87.6)"/>
      <path id="ID0.026395104825496674" fill="#E45656" stroke="none" stroke-linecap="round" d="M 233.200 147.500 C 234.231 148.960 229.934 146.276 230.650 146.500 C 233.097 147.265 237.665 148.126 239.527 149.478 C 241.118 150.648 241.869 152.459 242.150 154.250 C 242.428 156.018 242.667 158.510 241.250 159.650 C 240.054 160.609 238.005 159.518 236.750 158.650 C 234.823 157.340 233.505 155.235 232.500 153.150 C 230.888 149.803 229.026 146.146 228.850 142.400 C 228.791 141.163 231.280 139.319 232 140.150 C 233.453 141.867 232.188 145.580 233.200 147.500 Z " transform="matrix(-0.7174550890922546, 0, 0, 0.7174550890922546, 199.05, -88.2)"/>
      <g id="ID0.3393480833619833">
        <path id="ID0.0338333323597908" fill="none" stroke="#FF5E5E" stroke-width="6" stroke-linecap="round" d="M 229 127.100 C 226.972 125.702 224.911 123.973 222.500 123.900 C 217.816 123.759 211.694 122.993 208.500 126.500 C 206.274 128.954 208.452 134.692 211.500 136 C 217.003 138.361 223.650 137 229.500 135.750 C 231.434 135.250 232.042 132.580 233.300 131.100 C 234.379 129.831 235.211 128.304 236.500 127.250 C 237.925 126.109 239.461 124.786 241.300 124.600 C 245.948 124.048 251.622 122.210 255.400 125.100 C 258.148 127.206 258.241 133.674 255.300 135.500 C 250.721 138.443 244.182 137.152 239 135.500 C 234.857 134.179 232.567 129.584 229 127.100 Z " transform="matrix(0.7174550890922546, 0, 0, 0.7174550890922546, -133.7, -84.35)"/>
        <path id="ID0.455369268078357" fill="none" stroke="#FF5E5E" stroke-width="6" stroke-linecap="round" d="M 221.700 140.100 L 232.200 121.100 L 243 141.250 " transform="matrix(0.7174550890922546, 0, 0, 0.7174550890922546, -132.6, -76.5)"/>
      </g>
    </g>
  </g>
  <g id="ID0.617521099280566" transform="matrix(1, 0, 0, 1, 8, 6)">
    <path id="ID0.5711539704352617" fill="#FFE6CE" stroke="none" stroke-linecap="round" d="M 227 98 C 232.034 97.536 238.339 101.943 239.500 107 C 243.104 122.311 240.763 139.012 241 155 C 241.083 161.291 242.929 167.571 241.500 173.500 C 238.488 183.286 234.937 193.868 228 201 C 224.973 204.106 216.520 204.056 215 200 C 210.730 185.688 213.648 169.933 213.500 155 C 213.344 139.509 211.580 123.423 215 108.500 C 216.187 103.317 221.716 98.489 227 98 Z " transform="matrix(0.4771425724029541, -0.1267290711402893, 0.1267290711402893, 0.4771425724029541, -68.55, 22.3)"/>
    <path id="ID0.5711539704352617" fill="#FFE6CE" stroke="none" stroke-linecap="round" d="M 227 98 C 232.034 97.536 238.339 101.943 239.500 107 C 243.104 122.311 240.763 139.012 241 155 C 241.083 161.291 242.929 167.571 241.500 173.500 C 238.488 183.286 234.937 193.868 228 201 C 224.973 204.106 216.520 204.056 215 200 C 210.730 185.688 213.648 169.933 213.500 155 C 213.344 139.509 211.580 123.423 215 108.500 C 216.187 103.317 221.716 98.489 227 98 Z " transform="matrix(0.5233961343765259, -0.13901402056217194, 0.1267290711402893, 0.4771425724029541, -61.4, 44.65)"/>
    <path id="ID0.5711539704352617" fill="#FFE6CE" stroke="none" stroke-linecap="round" d="M 227 98 C 232.034 97.536 238.339 101.943 239.500 107 C 243.104 122.311 240.763 139.012 241 155 C 241.083 161.291 242.929 167.571 241.500 173.500 C 238.488 183.286 234.937 193.868 228 201 C 224.973 204.106 216.520 204.056 215 200 C 210.730 185.688 213.648 169.933 213.500 155 C 213.344 139.509 211.580 123.423 215 108.500 C 216.187 103.317 221.716 98.489 227 98 Z " transform="matrix(0.4771425724029541, -0.1267290711402893, 0.1267290711402893, 0.4771425724029541, -39.35, 41.3)"/>
    <path id="ID0.5711539704352617" fill="#FFE6CE" stroke="none" stroke-linecap="round" d="M 227 98 C 232.034 97.536 238.339 101.943 239.500 107 C 243.104 122.311 240.763 139.012 241 155 C 241.083 161.291 242.929 167.571 241.500 173.500 C 238.488 183.286 233.669 192.521 228 201 C 224.392 206.393 220.387 212.823 214.300 215.450 C 203.655 220.043 191.871 223.270 180.400 222.300 C 168.381 221.274 156.005 218.239 146.550 211.050 C 126.659 195.925 111.085 175.804 94.900 156.850 C 90.847 152.105 87.905 146.579 87.150 140.650 C 86.415 134.852 86.775 127.869 90.750 123.850 C 95.039 119.200 102.338 117.968 108.550 118.200 C 113.746 118.408 117.710 122.059 121.600 125.050 C 131.837 132.924 138.662 146.152 150.750 150 C 170.756 156.611 195.977 166.489 213.500 155 C 226.455 146.505 211.580 123.423 215 108.500 C 216.187 103.317 221.716 98.489 227 98 Z " transform="matrix(0.40167614817619324, -0.10668518394231796, 0.10168427228927612, 0.3828474283218384, -9.65, 50.5)"/>
    <path id="ID0.914057401008904" fill="#FFE6CE" stroke="none" d="M 233.500 181.500 C 237.638 181.500 241.388 183.405 244.104 186.482 C 246.819 189.560 248.500 193.810 248.500 198.500 C 248.500 203.190 246.819 207.440 244.104 210.518 C 241.388 213.595 237.638 215.500 233.500 215.500 C 229.362 215.500 225.612 213.595 222.896 210.518 C 220.181 207.440 218.500 203.190 218.500 198.500 C 218.500 193.810 220.181 189.560 222.896 186.482 C 225.612 183.405 229.362 181.500 233.500 181.500 Z " transform="matrix(0.4771425724029541, -0.1267290711402893, 0.1267290711402893, 0.4771425724029541, -68.55, 22.3)"/>
  </g>
  <g id="ID0.6895864545367658" transform="matrix(1, 0, 0, 1, 8, 6)">
    <path id="ID0.7811849061399698" fill="#BEEA92" stroke="none" d="M 241 63 L 248.500 63 L 248.500 91.500 L 241 91.500 L 241 63 Z " transform="matrix(0.6453072428703308, -0.7639231085777283, 0.7639231085777283, 0.6453072428703308, -121.5, 180)"/>
    <path id="ID0.7811849061399698" fill="#BEEA92" stroke="none" d="M 241 63 L 248.500 63 L 248.500 91.500 L 241 91.500 L 241 63 Z " transform="matrix(-0.780184268951416, -0.6255497932434082, -1.422002911567688, 1.773518681526184, 423.25, 44.75)"/>
  </g>
  <g id="ID0.17742757126688957" transform="matrix(1, 0, 0, 1, 12, 0)">
    <path id="ID0.482579855248332" fill="#FFFFFF" stroke="none" stroke-linecap="round" d="M 263.750 101 C 267.119 101.285 270.343 102.611 273.150 104.400 C 276.315 106.418 279.002 109.135 281.250 112.100 C 283.198 114.669 286.421 117.609 285.750 120.800 C 285.230 123.272 281.074 122.837 278.650 123.600 C 276.246 124.356 272.440 124.283 271.050 125.250 C 270.438 125.790 273.468 126.291 274.600 126.650 C 276.991 127.410 283.431 127.566 281.850 128.700 C 278.006 131.491 269.959 133.594 263.750 134.500 C 261.113 134.883 257.481 134.677 256 132.500 C 254.383 130.474 256.449 127.492 256.750 125 C 257.057 122.457 257.814 119.936 257.650 117.400 C 257.561 114.783 256.546 112.306 256 109.750 C 255.523 107.515 253.135 104.770 254.750 103 C 256.705 100.743 260.692 100.740 263.750 101 Z " transform="matrix(0.6985738277435303, -0.6843875050544739, 0.6843875050544739, 0.6985738277435303, 25.4, 125.8)"/>
    <path id="ID0.9493582341820002" fill="none" stroke="#FFFFFF" stroke-width="5" stroke-linecap="round" d="M 202.250 112.750 L 267.750 112.750 " transform="matrix(0.6679957509040833, -0.6544303297996521, 0.6341902613639832, 0.6473360061645508, 42.4, 128.35)"/>
    <path id="ID0.687238757032901" fill="none" stroke="#FFFFFF" stroke-width="5" stroke-linecap="round" d="M 247.250 105.750 C 247.250 105.750 249.859 113.951 250.250 118.750 C 250.575 122.872 248.500 131 248.500 131 " transform="matrix(0.6473360061645508, -0.6341902613639832, 0.6341902613639832, 0.6473360061645508, 44.2, 119.25)"/>
    <path id="ID0.687238757032901" fill="none" stroke="#FFFFFF" stroke-width="5" stroke-linecap="round" d="M 246.750 101.900 C 246.750 101.900 250.099 113.023 250.250 118.750 C 250.403 124.519 247.750 136.400 247.750 136.400 " transform="matrix(0.6473360061645508, -0.6341902613639832, 0.6341902613639832, 0.6473360061645508, 36.75, 125.4)"/>
    <path id="ID0.687238757032901" fill="none" stroke="#FFFFFF" stroke-width="5" stroke-linecap="round" d="M 246.250 99.350 C 246.250 99.350 250.068 112.180 250.250 118.750 C 250.432 125.332 247.250 138.850 247.250 138.850 " transform="matrix(0.6473360061645508, -0.6341902613639832, 0.6341902613639832, 0.6473360061645508, 29.35, 131.95)"/>
    <path id="ID0.687238757032901" fill="none" stroke="#FFFFFF" stroke-width="5" stroke-linecap="round" d="M 246.750 101.900 C 246.750 101.900 250.099 113.023 250.250 118.750 C 250.403 124.519 247.750 136.400 247.750 136.400 " transform="matrix(0.6473360061645508, -0.6341902613639832, 0.6341902613639832, 0.6473360061645508, 22.9, 138.75)"/>
    <path id="ID0.687238757032901" fill="none" stroke="#FFFFFF" stroke-width="5" stroke-linecap="round" d="M 247.250 105.750 C 247.250 105.750 249.859 113.951 250.250 118.750 C 250.575 122.872 248.500 131 248.500 131 " transform="matrix(0.6473360061645508, -0.6341902613639832, 0.6341902613639832, 0.6473360061645508, 16.55, 144.7)"/>
    <g id="ID0.2360148634761572">
      <path id="ID0.16649462515488267" fill="#FFFFFF" stroke="none" stroke-linecap="round" d="M 328.700 83.300 C 332.565 83.505 335.522 87.325 337.733 90.616 C 339.902 93.843 341.250 97.405 341.250 101.750 C 341.250 106.095 339.905 110.033 337.733 112.884 C 335.561 115.735 332.561 117.500 329.250 117.500 C 325.939 117.500 322.939 115.735 320.767 112.884 C 318.595 110.033 317.335 105.640 317.250 101.750 C 317.158 97.604 318.265 93.360 320.500 89.950 C 322.279 86.891 325.178 83.111 328.700 83.300 Z " transform="matrix(0.0005461734835989773, 0.7163565754890442, 0.9999983906745911, -0.001438777195289731, 133.3, -165.45)"/>
      <path id="ID0.16649462515488267" fill="#FFFFFF" stroke="none" stroke-linecap="round" d="M 328.700 83.300 C 332.565 83.505 335.522 87.325 337.733 90.616 C 339.902 93.843 341.250 97.405 341.250 101.750 C 341.250 106.095 339.905 110.033 337.733 112.884 C 335.561 115.735 332.561 117.500 329.250 117.500 C 325.939 117.500 322.939 115.735 320.767 112.884 C 318.595 110.033 317.335 105.640 317.250 101.750 C 317.158 97.604 318.265 93.360 320.500 89.950 C 322.279 86.891 325.178 83.111 328.700 83.300 Z " transform="matrix(-0.6989160776138306, -0.15710927546024323, 0.21997682750225067, -0.9755045771598816, 451.85, 232.45)"/>
    </g>
    <path id="ID0.9176634638570249" fill="#585858" stroke="none" d="M 268.875 62.500 C 269.875 62.500 270.781 62.906 271.438 63.562 C 272.094 64.219 272.500 65.125 272.500 66.125 C 272.500 67.125 272.094 68.031 271.438 68.688 C 270.781 69.344 269.875 69.750 268.875 69.750 C 267.875 69.750 266.969 69.344 266.312 68.688 C 265.656 68.031 265.250 67.125 265.250 66.125 C 265.250 65.125 265.656 64.219 266.312 63.562 C 266.969 62.906 267.875 62.500 268.875 62.500 Z " transform="matrix(1, 0, 0, 1, 24.6, -44)"/>
  </g>
  <g id="ID0.617521099280566" transform="matrix(1, 0, 0, 1, 12, 0)">
    <path id="ID0.5711539704352617" fill="#FFE6CE" stroke="none" stroke-linecap="round" d="M 227 98 C 232.034 97.536 238.339 101.943 239.500 107 C 243.104 122.311 240.763 139.012 241 155 C 241.083 161.291 242.929 167.571 241.500 173.500 C 238.488 183.286 234.937 193.868 228 201 C 224.973 204.106 216.520 204.056 215 200 C 210.730 185.688 213.648 169.933 213.500 155 C 213.344 139.509 211.580 123.423 215 108.500 C 216.187 103.317 221.716 98.489 227 98 Z " transform="matrix(0.4771425724029541, -0.1267290711402893, 0.1267290711402893, 0.4771425724029541, 148.95, 29.1)"/>
    <path id="ID0.5711539704352617" fill="#FFE6CE" stroke="none" stroke-linecap="round" d="M 227 98 C 232.034 97.536 238.339 101.943 239.500 107 C 243.104 122.311 240.763 139.012 241 155 C 241.083 161.291 242.929 167.571 241.500 173.500 C 238.488 183.286 234.937 193.868 228 201 C 224.973 204.106 216.520 204.056 215 200 C 210.730 185.688 213.648 169.933 213.500 155 C 213.344 139.509 211.580 123.423 215 108.500 C 216.187 103.317 221.716 98.489 227 98 Z " transform="matrix(0.5233961343765259, -0.13901402056217194, 0.1267290711402893, 0.4771425724029541, 156.1, 51.45)"/>
    <path id="ID0.5711539704352617" fill="#FFE6CE" stroke="none" stroke-linecap="round" d="M 227 98 C 232.034 97.536 238.339 101.943 239.500 107 C 243.104 122.311 240.763 139.012 241 155 C 241.083 161.291 242.929 167.571 241.500 173.500 C 238.488 183.286 234.937 193.868 228 201 C 224.973 204.106 216.520 204.056 215 200 C 210.730 185.688 213.648 169.933 213.500 155 C 213.344 139.509 211.580 123.423 215 108.500 C 216.187 103.317 221.716 98.489 227 98 Z " transform="matrix(0.4771425724029541, -0.1267290711402893, 0.1267290711402893, 0.4771425724029541, 178.15, 48.1)"/>
    <path id="ID0.5711539704352617" fill="#FFE6CE" stroke="none" stroke-linecap="round" d="M 227 98 C 232.034 97.536 238.339 101.943 239.500 107 C 243.104 122.311 240.763 139.012 241 155 C 241.083 161.291 242.929 167.571 241.500 173.500 C 238.488 183.286 233.669 192.521 228 201 C 224.392 206.393 220.387 212.823 214.300 215.450 C 203.655 220.043 191.871 223.270 180.400 222.300 C 168.381 221.274 156.005 218.239 146.550 211.050 C 126.659 195.925 111.085 175.804 94.900 156.850 C 90.847 152.105 87.905 146.579 87.150 140.650 C 86.415 134.852 86.775 127.869 90.750 123.850 C 95.039 119.200 102.338 117.968 108.550 118.200 C 113.746 118.408 117.710 122.059 121.600 125.050 C 131.837 132.924 138.662 146.152 150.750 150 C 170.756 156.611 195.977 166.489 213.500 155 C 226.455 146.505 211.580 123.423 215 108.500 C 216.187 103.317 221.716 98.489 227 98 Z " transform="matrix(0.40167614817619324, -0.10668518394231796, 0.10168427228927612, 0.3828474283218384, 207.85, 57.3)"/>
    <path id="ID0.914057401008904" fill="#FFE6CE" stroke="none" d="M 233.500 181.500 C 237.638 181.500 241.388 183.405 244.104 186.482 C 246.819 189.560 248.500 193.810 248.500 198.500 C 248.500 203.190 246.819 207.440 244.104 210.518 C 241.388 213.595 237.638 215.500 233.500 215.500 C 229.362 215.500 225.612 213.595 222.896 210.518 C 220.181 207.440 218.500 203.190 218.500 198.500 C 218.500 193.810 220.181 189.560 222.896 186.482 C 225.612 183.405 229.362 181.500 233.500 181.500 Z " transform="matrix(0.4771425724029541, -0.1267290711402893, 0.1267290711402893, 0.4771425724029541, 148.95, 29.1)"/>
  </g>
  <g id="ID0.8960632686503232" transform="matrix(1, 0, 0, 1, 12, 0)">
    <path id="ID0.8820513412356377" fill="#FFEAD0" stroke="none" stroke-linecap="round" d="M 243 127 C 267.278 127 289.278 136.861 305.209 152.791 C 321.139 168.722 329.251 192.633 331 215 C 332.797 237.946 332.973 266.523 317 283 C 298.663 300.834 268.075 303.221 243 303 C 218.568 302.790 190.377 298.252 173 281 C 157.010 264.885 153.732 237.563 155 215 C 156.258 192.578 164.861 168.722 180.791 152.791 C 196.722 136.861 218.722 127 243 127 Z " transform="matrix(0.3920726776123047, 0, 0, 0.3780043423175812, 188.4, 148.35)"/>
    <path id="ID0.2806902341544628" fill="#000000" stroke="none" d="M 181.500 268 C 184.121 268 186.496 269.065 188.216 270.784 C 189.935 272.504 191 274.879 191 277.500 C 191 280.121 189.935 282.496 188.216 284.216 C 186.496 285.935 184.121 287 181.500 287 C 178.879 287 176.504 285.935 174.784 284.216 C 173.065 282.496 172 280.121 172 277.500 C 172 274.879 173.065 272.504 174.784 270.784 C 176.504 269.065 178.879 268 181.500 268 Z " transform="matrix(0.37483954429626465, 0, 0, 0.37483954429626465, 199.4, 133.15)"/>
    <path id="ID0.2806902341544628" fill="#000000" stroke="none" d="M 181.500 268 C 184.121 268 186.496 269.065 188.216 270.784 C 189.935 272.504 191 274.879 191 277.500 C 191 280.121 189.935 282.496 188.216 284.216 C 186.496 285.935 184.121 287 181.500 287 C 178.879 287 176.504 285.935 174.784 284.216 C 173.065 282.496 172 280.121 172 277.500 C 172 274.879 173.065 272.504 174.784 270.784 C 176.504 269.065 178.879 268 181.500 268 Z " transform="matrix(0.37483954429626465, 0, 0, 0.37483954429626465, 232.95, 133.3)"/>
    <path id="ID0.694512349087745" fill="#965749" stroke="none" stroke-linecap="round" d="M 235.500 268 C 243.639 268 251.014 270.521 256.354 274.594 C 261.694 278.667 261.733 285.445 265 290.500 C 269.368 297.251 278.710 303.014 278 311 C 277.359 317.450 269.309 322.043 263 323 C 254.499 324.324 245.905 317.014 237 317 C 227.812 317.018 219.339 324.360 210 323 C 203.609 322.094 195.708 317.110 195 311 C 194.234 303.341 202.633 297.467 206 290.500 C 208.619 285.080 209.306 278.667 214.646 274.594 C 219.986 270.521 227.361 268 235.500 268 Z " transform="matrix(0.40531429648399353, 0, 0, 0.451572984457016, 188.65, 111.95)"/>
    <path id="ID0.406083129812032" fill="#190F07" stroke="none" stroke-linecap="round" d="M 234 277 C 237.311 277 239.966 277.586 242.483 278.758 C 244.197 279.564 246.685 280.844 246.150 282.500 C 245.191 285.424 241.877 287.147 239.150 288.600 C 237.634 289.421 235.722 289.095 234 289.100 C 232.288 289.027 230.431 289.168 228.900 288.400 C 226.293 287.095 222.964 285.729 222 283 C 221.389 281.270 223.345 279.845 225.517 278.758 C 227.689 277.672 230.689 277 234 277 Z " transform="matrix(0.37483954429626465, 0, 0, 0.37483954429626465, 196.4, 134.25)"/>
    <path id="ID0.8044573538936675" fill="#FF6F6F" stroke="none" stroke-linecap="round" d="M 234 296.250 C 237.517 296.233 239.686 300.567 241.750 303.500 C 242.510 304.671 242.242 306.338 242 307.875 C 241.669 309.948 241.174 312.279 239.839 313.795 C 238.503 315.312 236.660 316.250 234.625 316.250 C 232.590 316.250 230.747 315.312 229.411 313.795 C 228.076 312.279 227.671 309.932 227.250 307.875 C 226.963 306.454 226.562 304.938 227.250 303.750 C 228.939 300.844 230.700 296.269 234 296.250 Z " transform="matrix(0.37483954429626465, 0, 0, 0.37483954429626465, 196.4, 134.25)"/>
    <path id="ID0.685686843469739" fill="none" stroke="#190F07" stroke-width="2" stroke-linecap="round" d="M 233.500 286 C 233.500 286 234.523 294.545 232.250 297.750 C 229.859 301.449 221 304.500 221 304.500 " transform="matrix(0.37483954429626465, 0, 0, 0.37483954429626465, 196.4, 134.25)"/>
    <path id="ID0.685686843469739" fill="none" stroke="#190F07" stroke-width="2" stroke-linecap="round" d="M 233.500 286 C 233.500 286 234.523 294.545 232.250 297.750 C 229.859 301.449 221 304.500 221 304.500 " transform="matrix(-0.37483954429626465, 0, 0, 0.37483954429626465, 371.8, 134.25)"/>
    <path id="ID0.13846430648118258" fill="#965749" stroke="none" stroke-linecap="round" d="M 324 177 C 336.651 180.515 347.814 188.708 358 197 C 361.549 199.887 364.438 204.714 363 209.250 C 358.415 227.744 347.106 243.911 341 262 C 339.081 267.688 339.435 274.150 340 280 C 340.415 284.616 345.361 288.682 344 293 C 342.876 296.556 337.829 299.063 334 298.750 C 328.814 298.264 323.142 294.798 319 291 C 310.036 282.781 300.612 274.294 297 263 C 292.302 248.308 294.743 232.351 295.500 217.150 C 295.582 211.455 300.974 206.043 299.500 200.750 C 297.843 194.787 289.507 192.503 287 187 C 285.600 183.918 286.030 178.195 289 177 C 300.412 174.308 313.174 173.989 324 177 Z " transform="matrix(0.3775588274002075, 0, 0, 0.32515275478363037, 197.65, 148.55)"/>
    <path id="ID0.7530061188153923" fill="#000000" stroke="none" d="M 255.125 288.500 C 255.573 288.500 255.980 288.682 256.274 288.976 C 256.568 289.270 256.750 289.677 256.750 290.125 C 256.750 290.573 256.568 290.980 256.274 291.274 C 255.980 291.568 255.573 291.750 255.125 291.750 C 254.677 291.750 254.270 291.568 253.976 291.274 C 253.682 290.980 253.500 290.573 253.500 290.125 C 253.500 289.677 253.682 289.270 253.976 288.976 C 254.270 288.682 254.677 288.500 255.125 288.500 Z " transform="matrix(0.37483954429626465, 0, 0, 0.37483954429626465, 196.4, 134.25)"/>
    <path id="ID0.7530061188153923" fill="#000000" stroke="none" d="M 255.125 288.500 C 255.573 288.500 255.980 288.682 256.274 288.976 C 256.568 289.270 256.750 289.677 256.750 290.125 C 256.750 290.573 256.568 290.980 256.274 291.274 C 255.980 291.568 255.573 291.750 255.125 291.750 C 254.677 291.750 254.270 291.568 253.976 291.274 C 253.682 290.980 253.500 290.573 253.500 290.125 C 253.500 289.677 253.682 289.270 253.976 288.976 C 254.270 288.682 254.677 288.500 255.125 288.500 Z " transform="matrix(0.37483954429626465, 0, 0, 0.37483954429626465, 193.65, 134.3)"/>
    <path id="ID0.7530061188153923" fill="#000000" stroke="none" d="M 255.125 288.500 C 255.573 288.500 255.980 288.682 256.274 288.976 C 256.568 289.270 256.750 289.677 256.750 290.125 C 256.750 290.573 256.568 290.980 256.274 291.274 C 255.980 291.568 255.573 291.750 255.125 291.750 C 254.677 291.750 254.270 291.568 253.976 291.274 C 253.682 290.980 253.500 290.573 253.500 290.125 C 253.500 289.677 253.682 289.270 253.976 288.976 C 254.270 288.682 254.677 288.500 255.125 288.500 Z " transform="matrix(0.37483954429626465, 0, 0, 0.37483954429626465, 195.15, 136.25)"/>
    <path id="ID0.7530061188153923" fill="#000000" stroke="none" d="M 255.125 288.500 C 255.573 288.500 255.980 288.682 256.274 288.976 C 256.568 289.270 256.750 289.677 256.750 290.125 C 256.750 290.573 256.568 290.980 256.274 291.274 C 255.980 291.568 255.573 291.750 255.125 291.750 C 254.677 291.750 254.270 291.568 253.976 291.274 C 253.682 290.980 253.500 290.573 253.500 290.125 C 253.500 289.677 253.682 289.270 253.976 288.976 C 254.270 288.682 254.677 288.500 255.125 288.500 Z " transform="matrix(0.37483954429626465, 0, 0, 0.37483954429626465, 182.35, 136.05)"/>
    <path id="ID0.7530061188153923" fill="#000000" stroke="none" d="M 255.125 288.500 C 255.573 288.500 255.980 288.682 256.274 288.976 C 256.568 289.270 256.750 289.677 256.750 290.125 C 256.750 290.573 256.568 290.980 256.274 291.274 C 255.980 291.568 255.573 291.750 255.125 291.750 C 254.677 291.750 254.270 291.568 253.976 291.274 C 253.682 290.980 253.500 290.573 253.500 290.125 C 253.500 289.677 253.682 289.270 253.976 288.976 C 254.270 288.682 254.677 288.500 255.125 288.500 Z " transform="matrix(0.37483954429626465, 0, 0, 0.37483954429626465, 183.55, 134.05)"/>
    <path id="ID0.7530061188153923" fill="#000000" stroke="none" d="M 255.125 288.500 C 255.573 288.500 255.980 288.682 256.274 288.976 C 256.568 289.270 256.750 289.677 256.750 290.125 C 256.750 290.573 256.568 290.980 256.274 291.274 C 255.980 291.568 255.573 291.750 255.125 291.750 C 254.677 291.750 254.270 291.568 253.976 291.274 C 253.682 290.980 253.500 290.573 253.500 290.125 C 253.500 289.677 253.682 289.270 253.976 288.976 C 254.270 288.682 254.677 288.500 255.125 288.500 Z " transform="matrix(0.37483954429626465, 0, 0, 0.37483954429626465, 180.85, 134.1)"/>
    <path id="ID0.7067176010459661" fill="#FF8282" stroke="none" stroke-linecap="round" d="M 240.750 101.750 C 251.042 104.474 261.406 109.050 269.250 116.250 C 274.923 121.468 276.719 130.043 279.750 137.250 C 281.199 140.678 280.600 143.318 281.600 146.350 C 282.949 149.861 289.381 156.965 286.750 156.750 C 281.845 156.066 271.984 148.352 265.700 142.500 C 264.174 141.286 265.676 139.636 265.750 137.750 C 265.836 136.759 266.395 131.348 267 135 C 269.468 149.465 281.580 167.100 273 179 C 264.914 190.213 245.932 186.693 232 186 C 217.073 185.260 201.549 181.632 187.700 175.500 C 184.184 173.911 185.315 168.756 186.350 165.450 C 189.976 153.902 194.477 142.734 201.100 132.550 C 207.346 122.193 214.555 112.433 224.600 104.400 C 228.885 101.012 235.414 100.340 240.750 101.750 Z " transform="matrix(0.5352343320846558, 0, 0, 0.5352343320846558, 159.8, 109.05)"/>
    <path id="ID0.13846430648118258" fill="#965749" stroke="none" stroke-linecap="round" d="M 324 177 C 336.651 180.515 347.814 188.708 358 197 C 361.549 199.887 364.438 204.714 363 209.250 C 358.415 227.744 347.106 243.911 341 262 C 339.081 267.688 339.435 274.150 340 280 C 340.415 284.616 345.361 288.682 344 293 C 342.876 296.556 337.829 299.063 334 298.750 C 328.814 298.264 323.142 294.798 319 291 C 310.036 282.781 300.612 274.294 297 263 C 292.302 248.308 294.743 232.351 295.500 217.150 C 295.582 211.455 300.974 206.043 299.500 200.750 C 297.843 194.787 289.507 192.503 287 187 C 285.600 183.918 286.030 178.195 289 177 C 300.412 174.308 313.174 173.989 324 177 Z " transform="matrix(-0.3775588274002075, 0, 0, 0.32515278458595276, 372.5, 148.75)"/>
    <path id="ID0.694634594488889" fill="#FFFFFF" stroke="none" d="M 187.500 164 C 192.604 164 197.229 166.073 200.578 169.422 C 203.927 172.771 206 177.396 206 182.500 C 206 187.604 203.927 192.229 200.578 195.578 C 197.229 198.927 192.604 201 187.500 201 C 182.396 201 177.771 198.927 174.422 195.578 C 171.073 192.229 169 187.604 169 182.500 C 169 177.396 171.073 172.771 174.422 169.422 C 177.771 166.073 182.396 164 187.500 164 Z " transform="matrix(0.3591182827949524, 0, 0, 0.3591182827949524, 199.15, 140.45)"/>
    <path id="ID0.694634594488889" fill="#FFFFFF" stroke="none" d="M 187.500 164 C 192.604 164 197.229 166.073 200.578 169.422 C 203.927 172.771 206 177.396 206 182.500 C 206 187.604 203.927 192.229 200.578 195.578 C 197.229 198.927 192.604 201 187.500 201 C 182.396 201 177.771 198.927 174.422 195.578 C 171.073 192.229 169 187.604 169 182.500 C 169 177.396 171.073 172.771 174.422 169.422 C 177.771 166.073 182.396 164 187.500 164 Z " transform="matrix(0.3591182827949524, 0, 0, 0.3591182827949524, 208.3, 140.95)"/>
    <path id="ID0.694634594488889" fill="#FFFFFF" stroke="none" d="M 187.500 164 C 192.604 164 197.229 166.073 200.578 169.422 C 203.927 172.771 206 177.396 206 182.500 C 206 187.604 203.927 192.229 200.578 195.578 C 197.229 198.927 192.604 201 187.500 201 C 182.396 201 177.771 198.927 174.422 195.578 C 171.073 192.229 169 187.604 169 182.500 C 169 177.396 171.073 172.771 174.422 169.422 C 177.771 166.073 182.396 164 187.500 164 Z " transform="matrix(0.3591182827949524, 0, 0, 0.3591182827949524, 218.8, 140.6)"/>
    <path id="ID0.694634594488889" fill="#FFFFFF" stroke="none" d="M 187.500 164 C 192.604 164 197.229 166.073 200.578 169.422 C 203.927 172.771 206 177.396 206 182.500 C 206 187.604 203.927 192.229 200.578 195.578 C 197.229 198.927 192.604 201 187.500 201 C 182.396 201 177.771 198.927 174.422 195.578 C 171.073 192.229 169 187.604 169 182.500 C 169 177.396 171.073 172.771 174.422 169.422 C 177.771 166.073 182.396 164 187.500 164 Z " transform="matrix(0.3591182827949524, 0, 0, 0.3591182827949524, 228.8, 140.25)"/>
    <path id="ID0.694634594488889" fill="#FFFFFF" stroke="none" d="M 187.500 164 C 192.604 164 197.229 166.073 200.578 169.422 C 203.927 172.771 206 177.396 206 182.500 C 206 187.604 203.927 192.229 200.578 195.578 C 197.229 198.927 192.604 201 187.500 201 C 182.396 201 177.771 198.927 174.422 195.578 C 171.073 192.229 169 187.604 169 182.500 C 169 177.396 171.073 172.771 174.422 169.422 C 177.771 166.073 182.396 164 187.500 164 Z " transform="matrix(0.2672656774520874, 0, 0, 0.2672656774520874, 264.1, 144.7)"/>
    <path id="ID0.694634594488889" fill="#FFFFFF" stroke="none" d="M 187.500 164 C 192.604 164 197.229 166.073 200.578 169.422 C 203.927 172.771 206 177.396 206 182.500 C 206 187.604 203.927 192.229 200.578 195.578 C 197.229 198.927 192.604 201 187.500 201 C 182.396 201 177.771 198.927 174.422 195.578 C 171.073 192.229 169 187.604 169 182.500 C 169 177.396 171.073 172.771 174.422 169.422 C 177.771 166.073 182.396 164 187.500 164 Z " transform="matrix(0.3591182827949524, 0, 0, 0.3591182827949524, 190.75, 139.2)"/>
    <path id="ID0.694634594488889" fill="#FFFFFF" stroke="none" d="M 187.500 164 C 192.604 164 197.229 166.073 200.578 169.422 C 203.927 172.771 206 177.396 206 182.500 C 206 187.604 203.927 192.229 200.578 195.578 C 197.229 198.927 192.604 201 187.500 201 C 182.396 201 177.771 198.927 174.422 195.578 C 171.073 192.229 169 187.604 169 182.500 C 169 177.396 171.073 172.771 174.422 169.422 C 177.771 166.073 182.396 164 187.500 164 Z " transform="matrix(0.3591182827949524, 0, 0, 0.3591182827949524, 239.45, 138.8)"/>
    <path id="ID0.32408631965518" fill="#FF8282" stroke="none" d="M 300 281 C 302.207 281 304.207 281.448 305.655 282.172 C 307.104 282.896 308 283.896 308 285 C 308 286.104 307.104 287.104 305.655 287.828 C 304.207 288.552 302.207 289 300 289 C 297.793 289 295.793 288.552 294.345 287.828 C 292.896 287.104 292 286.104 292 285 C 292 283.896 292.896 282.896 294.345 282.172 C 295.793 281.448 297.793 281 300 281 Z " transform="matrix(0.37483954429626465, 0, 0, 0.37483954429626465, 196.4, 134.25)"/>
    <path id="ID0.32408631965518" fill="#FF8282" stroke="none" d="M 300 281 C 302.207 281 304.207 281.448 305.655 282.172 C 307.104 282.896 308 283.896 308 285 C 308 286.104 307.104 287.104 305.655 287.828 C 304.207 288.552 302.207 289 300 289 C 297.793 289 295.793 288.552 294.345 287.828 C 292.896 287.104 292 286.104 292 285 C 292 283.896 292.896 282.896 294.345 282.172 C 295.793 281.448 297.793 281 300 281 Z " transform="matrix(0.37483954429626465, 0, 0, 0.37483954429626465, 146.85, 134.65)"/>
    <path id="ID0.5008056331425905" fill="#965749" stroke="none" d="M 182.500 224 C 184.845 224 186.970 224.560 188.509 225.465 C 190.048 226.371 191 227.621 191 229 C 191 230.379 190.048 231.629 188.509 232.535 C 186.970 233.440 184.845 234 182.500 234 C 180.155 234 178.030 233.440 176.491 232.535 C 174.952 231.629 174 230.379 174 229 C 174 227.621 174.952 226.371 176.491 225.465 C 178.030 224.560 180.155 224 182.500 224 Z " transform="matrix(0.326728880405426, 0.06126166507601738, -0.06126166507601738, 0.326728880405426, 223.5, 140.3)"/>
    <path id="ID0.5008056331425905" fill="#965749" stroke="none" d="M 182.500 224 C 184.845 224 186.970 224.560 188.509 225.465 C 190.048 226.371 191 227.621 191 229 C 191 230.379 190.048 231.629 188.509 232.535 C 186.970 233.440 184.845 234 182.500 234 C 180.155 234 178.030 233.440 176.491 232.535 C 174.952 231.629 174 230.379 174 229 C 174 227.621 174.952 226.371 176.491 225.465 C 178.030 224.560 180.155 224 182.500 224 Z " transform="matrix(-0.326728880405426, 0.06126166507601738, 0.06126166507601738, 0.326728880405426, 344.7, 140.35)"/>
  </g>
  <path id="ID0.6457497105002403" fill="#000000" stroke="none" d="M 189 277 L 304 277 L 304 285 L 189 285 L 189 277 Z " transform="matrix(1, 0, 0, 1, 49, -21.95)"/>
  <g id="ID0.354785128030926" transform="matrix(1, 0, 0, 1, 12, 0)">
    <path id="ID0.7811849061399698" fill="#FF9A9A" stroke="none" d="M 241 63 L 248.500 63 L 248.500 91.500 L 241 91.500 L 241 63 Z " transform="matrix(-0.780184268951416, -0.6255497932434082, -1.422002911567688, 1.773518681526184, 656.4, 62.85)"/>
    <path id="ID0.7811849061399698" fill="#FF9A9A" stroke="none" d="M 241 63 L 248.500 63 L 248.500 91.500 L 241 91.500 L 241 63 Z " transform="matrix(0.780184268951416, -0.6255497932434082, 1.422002911567688, 1.7735188007354736, 56, 63.35)"/>
  </g>
  <g id="ID0.354785128030926" transform="matrix(1, 0, 0, 1, 12, 0)">
    <path id="ID0.7811849061399698" fill="#FF9A9A" stroke="none" d="M 241 63 L 248.500 63 L 248.500 91.500 L 241 91.500 L 241 63 Z " transform="matrix(-0.780184268951416, -0.6255497932434082, -1.422002911567688, 1.773518681526184, 664.05, 235.95)"/>
    <path id="ID0.7811849061399698" fill="#FF9A9A" stroke="none" d="M 241 63 L 248.500 63 L 248.500 91.500 L 241 91.500 L 241 63 Z " transform="matrix(0.780184268951416, -0.6255497932434082, 1.422002911567688, 1.7735188007354736, 63.7, 236.45)"/>
  </g>
  <g id="ID0.617521099280566">
    <path id="ID0.5711539704352617" fill="#FFE6CE" stroke="none" stroke-linecap="round" d="M 227 98 C 232.034 97.536 238.339 101.943 239.500 107 C 243.104 122.311 240.763 139.012 241 155 C 241.083 161.291 242.929 167.571 241.500 173.500 C 238.488 183.286 234.937 193.868 228 201 C 224.973 204.106 216.520 204.056 215 200 C 210.730 185.688 213.648 169.933 213.500 155 C 213.344 139.509 211.580 123.423 215 108.500 C 216.187 103.317 221.716 98.489 227 98 Z " transform="matrix(0.4771425724029541, -0.1267290711402893, 0.1267290711402893, 0.4771425724029541, -36.55, 196.45)"/>
    <path id="ID0.5711539704352617" fill="#FFE6CE" stroke="none" stroke-linecap="round" d="M 227 98 C 232.034 97.536 238.339 101.943 239.500 107 C 243.104 122.311 240.763 139.012 241 155 C 241.083 161.291 242.929 167.571 241.500 173.500 C 238.488 183.286 234.937 193.868 228 201 C 224.973 204.106 216.520 204.056 215 200 C 210.730 185.688 213.648 169.933 213.500 155 C 213.344 139.509 211.580 123.423 215 108.500 C 216.187 103.317 221.716 98.489 227 98 Z " transform="matrix(0.5233961343765259, -0.13901402056217194, 0.1267290711402893, 0.4771425724029541, -29.4, 218.8)"/>
    <path id="ID0.5711539704352617" fill="#FFE6CE" stroke="none" stroke-linecap="round" d="M 227 98 C 232.034 97.536 238.339 101.943 239.500 107 C 243.104 122.311 240.763 139.012 241 155 C 241.083 161.291 242.929 167.571 241.500 173.500 C 238.488 183.286 234.937 193.868 228 201 C 224.973 204.106 216.520 204.056 215 200 C 210.730 185.688 213.648 169.933 213.500 155 C 213.344 139.509 211.580 123.423 215 108.500 C 216.187 103.317 221.716 98.489 227 98 Z " transform="matrix(0.4771425724029541, -0.1267290711402893, 0.1267290711402893, 0.4771425724029541, -7.35, 215.45)"/>
    <path id="ID0.5711539704352617" fill="#FFE6CE" stroke="none" stroke-linecap="round" d="M 227 98 C 232.034 97.536 238.339 101.943 239.500 107 C 243.104 122.311 240.763 139.012 241 155 C 241.083 161.291 242.929 167.571 241.500 173.500 C 238.488 183.286 233.669 192.521 228 201 C 224.392 206.393 220.387 212.823 214.300 215.450 C 203.655 220.043 191.871 223.270 180.400 222.300 C 168.381 221.274 156.005 218.239 146.550 211.050 C 126.659 195.925 111.085 175.804 94.900 156.850 C 90.847 152.105 87.905 146.579 87.150 140.650 C 86.415 134.852 86.775 127.869 90.750 123.850 C 95.039 119.200 102.338 117.968 108.550 118.200 C 113.746 118.408 117.710 122.059 121.600 125.050 C 131.837 132.924 138.662 146.152 150.750 150 C 170.756 156.611 195.977 166.489 213.500 155 C 226.455 146.505 211.580 123.423 215 108.500 C 216.187 103.317 221.716 98.489 227 98 Z " transform="matrix(0.40167614817619324, -0.10668518394231796, 0.10168427228927612, 0.3828474283218384, 22.35, 224.65)"/>
    <path id="ID0.914057401008904" fill="#FFE6CE" stroke="none" d="M 233.500 181.500 C 237.638 181.500 241.388 183.405 244.104 186.482 C 246.819 189.560 248.500 193.810 248.500 198.500 C 248.500 203.190 246.819 207.440 244.104 210.518 C 241.388 213.595 237.638 215.500 233.500 215.500 C 229.362 215.500 225.612 213.595 222.896 210.518 C 220.181 207.440 218.500 203.190 218.500 198.500 C 218.500 193.810 220.181 189.560 222.896 186.482 C 225.612 183.405 229.362 181.500 233.500 181.500 Z " transform="matrix(0.4771425724029541, -0.1267290711402893, 0.1267290711402893, 0.4771425724029541, -36.55, 196.45)"/>
  </g>
  <g id="ID0.6895864545367658">
    <path id="ID0.7811849061399698" fill="#BEEA92" stroke="none" d="M 241 63 L 248.500 63 L 248.500 91.500 L 241 91.500 L 241 63 Z " transform="matrix(0.6453072428703308, -0.7639231085777283, 0.7639231085777283, 0.6453072428703308, -89.5, 354.15)"/>
    <path id="ID0.7811849061399698" fill="#BEEA92" stroke="none" d="M 241 63 L 248.500 63 L 248.500 91.500 L 241 91.500 L 241 63 Z " transform="matrix(-0.780184268951416, -0.6255497932434082, -1.422002911567688, 1.773518681526184, 455.25, 218.9)"/>
  </g>
</svg>