<svg version="1.1" width="101" height="101" viewBox="-1 -1 101 101" xmlns="http://www.w3.org/2000/svg" xmlns:xlink="http://www.w3.org/1999/xlink">
  <!-- Exported by Scratch - http://scratch.mit.edu/ -->
  <path id="ID0.5478785261511803" fill="#FFB0F0" stroke="none" d="M 193 154.500 L 268 154.500 L 268 205.500 L 193 205.500 L 193 154.500 Z " transform="matrix(1.1786667108535767, 0, 0, 1.2174811363220215, -221.8, -151.5)"/>
  <path id="ID0.9895848804153502" fill="#F0A5E1" stroke="none" d="M 181 141.500 L 279.500 141.500 L 279.500 159 L 181 159 L 181 141.500 Z " transform="matrix(1.0081218481063843, 0, 0, 1.2174811363220215, -181.65, -151.5)"/>
  <path id="ID0.6242861747741699" fill="#612F5B" stroke="none" d="M 219.250 141.750 L 241 141.750 L 241 205 L 219.250 205 L 219.250 141.750 Z " transform="matrix(1, 0, 0, 1.2271054983139038, -180.5, -152.3)"/>
  <g id="ID0.9871918270364404">
    <path id="ID0.026395104825496674" fill="#43203F" stroke="none" stroke-linecap="round" d="M 233.200 147.500 C 234.231 148.960 229.934 146.276 230.650 146.500 C 233.097 147.265 237.665 148.126 239.527 149.478 C 241.118 150.648 241.869 152.459 242.150 154.250 C 242.428 156.018 242.667 158.510 241.250 159.650 C 240.054 160.609 238.005 159.518 236.750 158.650 C 234.823 157.340 233.505 155.235 232.500 153.150 C 230.888 149.803 229.026 146.146 228.850 142.400 C 228.791 141.163 231.280 139.319 232 140.150 C 233.453 141.867 232.188 145.580 233.200 147.500 Z " transform="matrix(1.0554561614990234, 0, 0, 1.0554561614990234, -192.6, -132)"/>
    <path id="ID0.026395104825496674" fill="#43203F" stroke="none" stroke-linecap="round" d="M 233.200 147.500 C 234.231 148.960 229.934 146.276 230.650 146.500 C 233.097 147.265 237.665 148.126 239.527 149.478 C 241.118 150.648 241.869 152.459 242.150 154.250 C 242.428 156.018 242.667 158.510 241.250 159.650 C 240.054 160.609 238.005 159.518 236.750 158.650 C 234.823 157.340 233.505 155.235 232.500 153.150 C 230.888 149.803 229.026 146.146 228.850 142.400 C 228.791 141.163 231.280 139.319 232 140.150 C 233.453 141.867 232.188 145.580 233.200 147.500 Z " transform="matrix(-1.0554561614990234, 0, 0, 1.0554561614990234, 293.15, -132.8)"/>
    <g id="ID0.3393480833619833">
      <path id="ID0.0338333323597908" fill="none" stroke="#612F5B" stroke-width="6" stroke-linecap="round" d="M 229 127.100 C 226.972 125.702 224.911 123.973 222.500 123.900 C 217.816 123.759 211.694 122.993 208.500 126.500 C 206.274 128.954 208.452 134.692 211.500 136 C 217.003 138.361 223.650 137 229.500 135.750 C 231.434 135.250 232.042 132.580 233.300 131.100 C 234.379 129.831 235.211 128.304 236.500 127.250 C 237.925 126.109 239.461 124.786 241.300 124.600 C 245.948 124.048 251.622 122.210 255.400 125.100 C 258.148 127.206 258.241 133.674 255.300 135.500 C 250.721 138.443 244.182 137.152 239 135.500 C 234.857 134.179 232.567 129.584 229 127.100 Z " transform="matrix(1.0554561614990234, 0, 0, 1.0554561614990234, -196.4, -127.15)"/>
      <path id="ID0.455369268078357" fill="none" stroke="#612F5B" stroke-width="6" stroke-linecap="round" d="M 221.700 140.100 L 232.200 121.100 L 243 141.250 " transform="matrix(1.0554561614990234, 0, 0, 1.0554561614990234, -194.8, -115.6)"/>
    </g>
  </g>
</svg>