<svg version="1.1" width="101" height="101" viewBox="-1 -1 101 101" xmlns="http://www.w3.org/2000/svg" xmlns:xlink="http://www.w3.org/1999/xlink">
  <!-- Exported by Scratch - http://scratch.mit.edu/ -->
  <path id="ID0.8820513412356377" fill="#FFEAD0" stroke="#000000" stroke-width="3" stroke-linecap="round" d="M 243 127 C 267.278 127 289.296 136.879 305.209 152.791 C 321.121 168.704 329.114 192.650 331 215 C 332.941 237.985 333.067 266.555 317 283 C 298.735 300.888 268.075 303.221 243 303 C 218.568 302.790 190.377 298.252 173 281 C 157.010 264.885 153.732 237.563 155 215 C 156.258 192.578 164.861 168.722 180.791 152.791 C 196.722 136.861 218.722 127 243 127 Z " transform="matrix(0.393606573343277, 0, 0, 0.3794832229614258, -47.5, -15.5)"/>
  <path id="ID0.7067176010459661" fill="#FF8282" stroke="#000000" stroke-width="2" stroke-linecap="round" d="M 240.750 101.750 C 251.042 104.474 261.406 109.050 269.250 116.250 C 274.923 121.468 276.699 130.051 279.750 137.250 C 281.156 140.560 281.276 144.002 282.600 147.400 C 283.615 150.518 288.250 157.286 286.750 156.750 C 284.962 156.106 278.531 148.316 274.250 144.300 C 272.087 142.264 269.465 140.955 267.700 138.700 C 266.930 137.702 266.496 131.338 267 135 C 269.018 149.641 281.580 167.100 273 179 C 264.914 190.213 245.932 186.693 232 186 C 217.073 185.260 201.549 181.632 187.700 175.500 C 184.184 173.911 185.315 168.756 186.350 165.450 C 189.976 153.902 194.477 142.734 201.100 132.550 C 207.346 122.193 214.555 112.433 224.600 104.400 C 228.885 101.012 235.414 100.340 240.750 101.750 Z " transform="matrix(0.53732830286026, 0, 0, 0.53732830286026, -76.1, -53.65)"/>
  <path id="ID0.2806902341544628" fill="#000000" stroke="#000000" stroke-width="3" d="M 181.500 268 C 184.121 268 186.496 269.065 188.216 270.784 C 189.935 272.504 191 274.879 191 277.500 C 191 280.121 189.935 282.496 188.216 284.216 C 186.496 285.935 184.121 287 181.500 287 C 178.879 287 176.504 285.935 174.784 284.216 C 173.065 282.496 172 280.121 172 277.500 C 172 274.879 173.065 272.504 174.784 270.784 C 176.504 269.065 178.879 268 181.500 268 Z " transform="matrix(0.37630602717399597, 0, 0, 0.37630602717399597, -36, -30.4)"/>
  <path id="ID0.2806902341544628" fill="#000000" stroke="#000000" stroke-width="3" d="M 181.500 268 C 184.121 268 186.496 269.065 188.216 270.784 C 189.935 272.504 191 274.879 191 277.500 C 191 280.121 189.935 282.496 188.216 284.216 C 186.496 285.935 184.121 287 181.500 287 C 178.879 287 176.504 285.935 174.784 284.216 C 173.065 282.496 172 280.121 172 277.500 C 172 274.879 173.065 272.504 174.784 270.784 C 176.504 269.065 178.879 268 181.500 268 Z " transform="matrix(0.37630602717399597, 0, 0, 0.37630602717399597, -2.3, -30.25)"/>
  <path id="ID0.694512349087745" fill="#965749" stroke="#000000" stroke-width="3" stroke-linecap="round" d="M 235.500 268 C 243.639 268 251.014 270.521 256.354 274.594 C 261.694 278.667 261.733 285.445 265 290.500 C 269.368 297.251 278.710 303.014 278 311 C 277.359 317.450 269.309 322.043 263 323 C 254.499 324.324 245.905 317.014 237 317 C 227.812 317.018 219.339 324.360 210 323 C 203.609 322.094 195.708 317.110 195 311 C 194.234 303.341 202.633 297.467 206 290.500 C 208.619 285.080 209.306 278.667 214.646 274.594 C 219.986 270.521 227.361 268 235.500 268 Z " transform="matrix(0.406900018453598, 0, 0, 0.45333966612815857, -46.8, -51.75)"/>
  <path id="ID0.406083129812032" fill="#000000" stroke="#000000" stroke-width="3" stroke-linecap="round" d="M 234 277 C 237.311 277 239.966 277.586 242.483 278.758 C 244.197 279.564 246.685 280.844 246.150 282.500 C 245.191 285.424 241.877 287.147 239.150 288.600 C 237.634 289.421 235.722 289.095 234 289.100 C 232.288 289.027 230.431 289.168 228.900 288.400 C 226.293 287.095 222.964 285.729 222 283 C 221.389 281.270 223.345 279.845 225.517 278.758 C 227.689 277.672 230.689 277 234 277 Z " transform="matrix(0.37630602717399597, 0, 0, 0.37630602717399597, -39, -29.3)"/>
  <path id="ID0.8044573538936675" fill="#FF8282" stroke="#000000" stroke-width="3" stroke-linecap="round" d="M 234.450 296.950 C 235.645 296.970 235.830 298.831 236.700 299.600 C 238.274 301.024 240.646 301.744 241.750 303.500 C 242.525 304.736 242.242 306.338 242 307.875 C 241.669 309.948 241.174 312.279 239.839 313.795 C 238.503 315.312 236.660 316.250 234.625 316.250 C 232.590 316.250 230.747 315.312 229.411 313.795 C 228.076 312.279 227.671 309.932 227.250 307.875 C 226.963 306.454 226.603 304.960 227.250 303.750 C 228.231 301.916 230.409 300.995 232.050 299.600 C 232.813 298.733 233.273 296.935 234.450 296.950 Z " transform="matrix(0.37630602717399597, 0, 0, 0.37630602717399597, -39, -29.3)"/>
  <path id="ID0.685686843469739" fill="none" stroke="#000000" stroke-width="2" stroke-linecap="round" d="M 234.450 288.500 C 234.450 288.500 234.358 294.949 232.250 297.750 C 229.644 301.260 221 304.500 221 304.500 " transform="matrix(0.37630602717399597, 0, 0, 0.37630602717399597, -39, -29.3)"/>
  <path id="ID0.685686843469739" fill="none" stroke="#000000" stroke-width="2" stroke-linecap="round" d="M 233.350 290.300 C 233.350 290.300 234.101 295.423 232.250 297.750 C 229.528 301.166 221 304.500 221 304.500 " transform="matrix(-0.37630602717399597, 0, 0, 0.37630602717399597, 137.1, -29.3)"/>
  <path id="ID0.7530061188153923" fill="#000000" stroke="none" d="M 255.125 288.500 C 255.573 288.500 255.980 288.682 256.274 288.976 C 256.568 289.270 256.750 289.677 256.750 290.125 C 256.750 290.573 256.568 290.980 256.274 291.274 C 255.980 291.568 255.573 291.750 255.125 291.750 C 254.677 291.750 254.270 291.568 253.976 291.274 C 253.682 290.980 253.500 290.573 253.500 290.125 C 253.500 289.677 253.682 289.270 253.976 288.976 C 254.270 288.682 254.677 288.500 255.125 288.500 Z " transform="matrix(0.37630602717399597, 0, 0, 0.37630602717399597, -39, -29.3)"/>
  <path id="ID0.7530061188153923" fill="#000000" stroke="none" d="M 255.125 288.500 C 255.573 288.500 255.980 288.682 256.274 288.976 C 256.568 289.270 256.750 289.677 256.750 290.125 C 256.750 290.573 256.568 290.980 256.274 291.274 C 255.980 291.568 255.573 291.750 255.125 291.750 C 254.677 291.750 254.270 291.568 253.976 291.274 C 253.682 290.980 253.500 290.573 253.500 290.125 C 253.500 289.677 253.682 289.270 253.976 288.976 C 254.270 288.682 254.677 288.500 255.125 288.500 Z " transform="matrix(0.37630602717399597, 0, 0, 0.37630602717399597, -41.65, -29.25)"/>
  <path id="ID0.7530061188153923" fill="#000000" stroke="none" d="M 255.125 288.500 C 255.573 288.500 255.980 288.682 256.274 288.976 C 256.568 289.270 256.750 289.677 256.750 290.125 C 256.750 290.573 256.568 290.980 256.274 291.274 C 255.980 291.568 255.573 291.750 255.125 291.750 C 254.677 291.750 254.270 291.568 253.976 291.274 C 253.682 290.980 253.500 290.573 253.500 290.125 C 253.500 289.677 253.682 289.270 253.976 288.976 C 254.270 288.682 254.677 288.500 255.125 288.500 Z " transform="matrix(0.37630602717399597, 0, 0, 0.37630602717399597, -40.15, -27.25)"/>
  <path id="ID0.7530061188153923" fill="#000000" stroke="none" d="M 255.125 288.500 C 255.573 288.500 255.980 288.682 256.274 288.976 C 256.568 289.270 256.750 289.677 256.750 290.125 C 256.750 290.573 256.568 290.980 256.274 291.274 C 255.980 291.568 255.573 291.750 255.125 291.750 C 254.677 291.750 254.270 291.568 253.976 291.274 C 253.682 290.980 253.500 290.573 253.500 290.125 C 253.500 289.677 253.682 289.270 253.976 288.976 C 254.270 288.682 254.677 288.500 255.125 288.500 Z " transform="matrix(0.37630602717399597, 0, 0, 0.37630602717399597, -53.1, -27.5)"/>
  <path id="ID0.9194279313087463" fill="#DECBB5" stroke="none" stroke-linecap="round" d="M 230.500 180 C 243.138 180.260 255.454 184.626 267.750 182.850 C 278.623 182.071 287.768 170.839 298.500 172.500 C 304.476 173.430 306.996 185.315 303.500 190 C 299.619 195.104 290.785 190.725 284.750 191.850 C 279.167 192.848 274.392 196.002 268.750 196.350 C 263.530 196.678 258.573 193.718 253.250 193.850 C 247.960 193.979 243.044 197.318 237.750 197.350 C 232.589 197.382 227.854 194.079 222.750 194.350 C 216.953 194.249 211.522 197.702 205.750 197.850 C 200.495 197.983 195.759 195.060 190.250 194.850 C 185.083 194.644 179.602 197.640 174.750 195.850 C 168.842 193.643 157.259 185.925 159.500 183 C 162.269 179.479 176.510 183.232 184.904 182.784 C 199.982 181.992 215.296 179.694 230.500 180 Z " transform="matrix(0.3337230980396271, 0, 0, 0.3337230980396271, -27.8, -14)"/>
  <path id="ID0.41923899203538895" fill="#DECBB5" stroke="none" stroke-linecap="round" d="M 325.750 267 C 327.750 267 329.563 268.036 330.875 269.711 C 332.188 271.385 333.227 273.973 333 276.250 C 332.829 277.910 331.044 278.672 330.250 280 C 329.205 281.737 329.583 286.726 327.750 285.250 C 320.156 279.629 314.524 271.635 309 264 C 307.517 261.952 305.087 255.932 306.750 256.750 C 311.027 258.857 315.013 266.739 320.625 269.711 C 322.330 270.611 323.750 267 325.750 267 Z " transform="matrix(0.3337230980396271, 0, 0, 0.3337230980396271, -27.8, -14)"/>
  <path id="ID0.7530061188153923" fill="#000000" stroke="none" d="M 255.125 288.500 C 255.573 288.500 255.980 288.682 256.274 288.976 C 256.568 289.270 256.750 289.677 256.750 290.125 C 256.750 290.573 256.568 290.980 256.274 291.274 C 255.980 291.568 255.573 291.750 255.125 291.750 C 254.677 291.750 254.270 291.568 253.976 291.274 C 253.682 290.980 253.500 290.573 253.500 290.125 C 253.500 289.677 253.682 289.270 253.976 288.976 C 254.270 288.682 254.677 288.500 255.125 288.500 Z " transform="matrix(0.37630602717399597, 0, 0, 0.37630602717399597, -51.9, -29.5)"/>
  <path id="ID0.41923899203538895" fill="#DECBB5" stroke="none" stroke-linecap="round" d="M 325.750 267 C 327.750 267 329.563 268.036 330.875 269.711 C 332.188 271.385 333.112 273.963 333 276.250 C 332.935 277.567 331.123 278.160 330.450 279.300 C 329.488 280.933 329.277 283.048 328.200 284.700 C 327.891 285.043 328.247 286.357 326.700 284.700 C 320.511 278.071 314.318 271.386 309 264 C 307.523 261.949 305.087 255.932 306.750 256.750 C 311.027 258.857 315.013 266.739 320.625 269.711 C 322.330 270.611 323.750 267 325.750 267 Z " transform="matrix(-0.3337230980396271, 0, 0, 0.3337230980396271, 125.75, -11.75)"/>
  <path id="ID0.13846430648118258" fill="#965749" stroke="#000000" stroke-width="3" stroke-linecap="round" d="M 324 177 C 336.651 180.515 347.814 188.708 358 197 C 361.549 199.887 364.438 204.714 363 209.250 C 358.415 227.744 347.106 243.911 341 262 C 339.081 267.688 339.435 274.150 340 280 C 340.415 284.616 345.361 288.682 344 293 C 342.876 296.556 337.829 299.063 334 298.750 C 328.814 298.264 323.142 294.798 319 291 C 310.036 282.781 300.612 274.294 297 263 C 292.302 248.308 294.743 232.351 295.500 217.150 C 295.582 211.455 300.974 206.043 299.500 200.750 C 297.843 194.787 289.507 192.503 287 187 C 285.600 183.918 286.030 178.195 289 177 C 300.412 174.308 313.174 173.989 324 177 Z " transform="matrix(-0.37903597950935364, 0, 0, 0.32642489671707153, 138.45, -14.8)"/>
  <path id="ID0.13846430648118258" fill="#965749" stroke="#000000" stroke-width="3" stroke-linecap="round" d="M 324 177 C 336.651 180.515 347.814 188.708 358 197 C 361.549 199.887 364.438 204.714 363 209.250 C 358.415 227.744 347.106 243.911 341 262 C 339.081 267.688 339.435 274.150 340 280 C 340.415 284.616 345.361 288.682 344 293 C 342.876 296.556 337.829 299.063 334 298.750 C 328.814 298.264 323.142 294.798 319 291 C 310.036 282.781 300.612 274.294 297 263 C 292.302 248.308 294.743 232.351 295.500 217.150 C 295.582 211.455 300.974 206.043 299.500 200.750 C 297.843 194.787 289.507 192.503 287 187 C 285.600 183.918 286.030 178.195 289 177 C 300.412 174.308 313.174 173.989 324 177 Z " transform="matrix(0.37903597950935364, 0, 0, 0.32642486691474915, -38.15, -15.2)"/>
  <path id="ID0.2748478795401752" fill="#DB7171" stroke="none" d="M 167.500 145.500 C 171.066 145.556 174.436 143.826 178 144 C 182.640 144.225 186.911 146.426 191.500 146.500 C 196.309 146.585 200.681 144.803 205.500 145 C 211.672 145.253 215.743 148.014 221 148 C 226.220 147.983 231.245 145.002 236.500 145 C 241.138 144.994 245.356 148.503 250 148.500 C 256.395 148.495 262.845 144.696 269.500 145 C 276.822 145.510 276.363 149.096 280 148.500 C 284.348 147.789 287.142 143.110 291.250 141.500 C 292.933 140.840 296.107 140.289 296.500 142 C 297.690 147.184 300.479 156.372 295.250 157.900 C 274.075 164.028 251.182 161.304 229.250 161.500 C 212.692 161.648 192.306 160.520 179.589 158.936 C 166.872 157.352 164.777 156.954 159 152.750 C 156.601 150.999 156.755 145.259 159 143.500 C 161.275 141.737 164.582 145.465 167.500 145.500 Z " transform="matrix(0.3337230980396271, 0, 0, 0.3337230980396271, -27.8, -14)"/>
  <path id="ID0.7530061188153923" fill="#000000" stroke="none" d="M 255.125 288.500 C 255.573 288.500 255.980 288.682 256.274 288.976 C 256.568 289.270 256.750 289.677 256.750 290.125 C 256.750 290.573 256.568 290.980 256.274 291.274 C 255.980 291.568 255.573 291.750 255.125 291.750 C 254.677 291.750 254.270 291.568 253.976 291.274 C 253.682 290.980 253.500 290.573 253.500 290.125 C 253.500 289.677 253.682 289.270 253.976 288.976 C 254.270 288.682 254.677 288.500 255.125 288.500 Z " transform="matrix(0.37630602717399597, 0, 0, 0.37630602717399597, -54.6, -29.45)"/>
  <path id="ID0.694634594488889" fill="#FFFFFF" stroke="#000000" stroke-width="3" d="M 174.850 170.100 C 177.359 170.006 182.714 164.178 187.500 164 C 192.593 163.825 201.700 169.650 201.700 169.650 C 201.050 170 201.650 167.900 204.400 165.350 C 207.950 162.300 212.600 159.950 217.500 159.950 C 222.350 159.950 227.200 162 230.550 165.350 C 233.900 168.700 236 173.350 236 178.450 C 236 183.500 233.900 188.150 230.550 191.500 C 227.200 194.850 222.216 197.001 217.500 196.950 C 212.532 196.898 203.100 191.400 203.100 191.400 C 206 187.350 203.900 192.200 200.550 195.550 C 197.200 198.900 192.280 201.208 187.500 201.050 C 182.756 200.894 175.300 194.200 175.300 194.200 C 175.850 191.850 175.650 193.400 172.500 196.450 C 169.100 199.700 164.400 201.950 159.450 201.950 C 154.450 201.950 146.350 196.450 146.350 196.450 C 147.100 196 136.550 202.750 130.450 202.950 C 125.700 203.050 117.350 197.500 117.350 197.500 C 117 196.950 109.350 202.100 105.100 201.500 C 99.900 200.750 91.150 194.150 91.150 194.150 C 91.500 194.100 85.900 198 81.550 197.950 C 76.800 197.800 71.900 195.850 68.450 192.500 C 65.250 189.150 63.150 184.550 63.150 179.450 C 63.150 174.350 65.250 169.700 68.450 166.350 C 71.900 163 76.700 160.950 81.550 160.950 C 86.450 160.950 94.600 166.350 94.600 166.350 C 93.350 166.350 101.350 164.100 105.150 164.400 C 109.800 164.800 118.200 169.800 118.200 169.800 C 115.700 169.150 125.700 166.050 130.500 165.950 C 135.700 165.750 146.250 169.150 146.250 169.150 C 146.350 170.300 154.853 164.739 159.500 164.850 C 164.938 164.968 172.574 170.134 175.350 170.050 Z " transform="matrix(0.3605232834815979, 0, 0, 0.3605232834815979, -6.4, -23.25)"/>
  <path id="ID0.694634594488889" fill="#FFFFFF" stroke="#000000" stroke-width="4" d="M 187.500 164 C 192.604 164 197.229 166.073 200.578 169.422 C 203.927 172.771 206 177.396 206 182.500 C 206 187.604 203.927 192.229 200.578 195.578 C 197.229 198.927 192.604 201 187.500 201 C 182.396 201 177.771 198.927 174.422 195.578 C 171.073 192.229 169 187.604 169 182.500 C 169 177.396 171.073 172.771 174.422 169.422 C 177.771 166.073 182.396 164 187.500 164 Z " transform="matrix(0.2683113217353821, 0, 0, 0.2683113217353821, 29.65, -18.75)"/>
  <path id="ID0.32408631965518" fill="#FF8282" stroke="#000000" stroke-width="3" d="M 300 281 C 302.207 281 304.207 281.448 305.655 282.172 C 307.104 282.896 308 283.896 308 285 C 308 286.104 307.104 287.104 305.655 287.828 C 304.207 288.552 302.207 289 300 289 C 297.793 289 295.793 288.552 294.345 287.828 C 292.896 287.104 292 286.104 292 285 C 292 283.896 292.896 282.896 294.345 282.172 C 295.793 281.448 297.793 281 300 281 Z " transform="matrix(0.37630602717399597, 0, 0, 0.37630602717399597, -39, -29.3)"/>
  <path id="ID0.32408631965518" fill="#FF8282" stroke="#000000" stroke-width="3" d="M 300 281 C 302.207 281 304.207 281.448 305.655 282.172 C 307.104 282.896 308 283.896 308 285 C 308 286.104 307.104 287.104 305.655 287.828 C 304.207 288.552 302.207 289 300 289 C 297.793 289 295.793 288.552 294.345 287.828 C 292.896 287.104 292 286.104 292 285 C 292 283.896 292.896 282.896 294.345 282.172 C 295.793 281.448 297.793 281 300 281 Z " transform="matrix(0.37630602717399597, 0, 0, 0.37630602717399597, -88.7, -28.9)"/>
  <path id="ID0.7835017209872603" fill="#DECBB5" stroke="none" d="M 275 233 C 277.759 233 279.715 233.931 282.069 234.026 C 282.888 234.074 284.188 232.298 284.200 232.850 C 284.188 234.772 283.730 237.650 282.069 238.974 C 280.200 240.460 277.450 240.447 275.100 240.500 C 272.616 240.447 270.006 240.176 267.931 238.974 C 266.410 238.093 265.078 236.164 265.050 234.500 C 265.078 233.693 266.969 234.192 267.931 234.026 C 270.270 233.624 272.241 233 275 233 Z " transform="matrix(-0.327587753534317, -0.06369761377573013, -0.06369761377573013, 0.327587753534317, 138.55, 4.55)"/>
  <path id="ID0.7835017209872603" fill="#DECBB5" stroke="none" d="M 275 233 C 277.759 233 279.715 233.931 282.069 234.026 C 282.888 234.074 284.188 232.298 284.200 232.850 C 284.188 234.772 283.730 237.650 282.069 238.974 C 280.200 240.460 277.450 240.447 275.100 240.500 C 272.616 240.447 270.006 240.176 267.931 238.974 C 266.410 238.093 265.078 236.164 265.050 234.500 C 265.078 233.693 266.969 234.192 267.931 234.026 C 270.270 233.624 272.241 233 275 233 Z " transform="matrix(0.32758772373199463, -0.06369761377573013, 0.06369761377573013, 0.32758772373199463, -40.4, 4.75)"/>
  <path id="ID0.5008056331425905" fill="#965749" stroke="#000000" stroke-width="3" d="M 182.500 224 C 184.845 224 186.970 224.560 188.509 225.465 C 190.048 226.371 191 227.621 191 229 C 191 230.379 190.048 231.629 188.509 232.535 C 186.970 233.440 184.845 234 182.500 234 C 180.155 234 178.030 233.440 176.491 232.535 C 174.952 231.629 174 230.379 174 229 C 174 227.621 174.952 226.371 176.491 225.465 C 178.030 224.560 180.155 224 182.500 224 Z " transform="matrix(0.32800716161727905, 0.061501339077949524, -0.061501339077949524, 0.32800716161727905, -11.75, -23.2)"/>
  <path id="ID0.5008056331425905" fill="#965749" stroke="#000000" stroke-width="3" d="M 182.500 224 C 184.845 224 186.970 224.560 188.509 225.465 C 190.048 226.371 191 227.621 191 229 C 191 230.379 190.048 231.629 188.509 232.535 C 186.970 233.440 184.845 234 182.500 234 C 180.155 234 178.030 233.440 176.491 232.535 C 174.952 231.629 174 230.379 174 229 C 174 227.621 174.952 226.371 176.491 225.465 C 178.030 224.560 180.155 224 182.500 224 Z " transform="matrix(-0.32800716161727905, 0.061501339077949524, 0.061501339077949524, 0.32800716161727905, 109.85, -23.15)"/>
  <path id="ID0.5700313658453524" fill="#FFFFFF" stroke="none" d="M 235 269.500 C 236.517 269.500 237.892 269.668 238.888 269.940 C 239.884 270.211 240.500 270.586 240.500 271 C 240.500 271.414 239.884 271.789 238.888 272.060 C 237.892 272.332 236.517 272.500 235 272.500 C 233.483 272.500 232.108 272.332 231.112 272.060 C 230.116 271.789 229.500 271.414 229.500 271 C 229.500 270.586 230.116 270.211 231.112 269.940 C 232.108 269.668 233.483 269.500 235 269.500 Z " transform="matrix(0.3337230980396271, 0, 0, 0.3337230980396271, -29.3, -14.65)"/>
</svg>