<svg version="1.1" width="96" height="90" viewBox="-1 9 96 90" xmlns="http://www.w3.org/2000/svg" xmlns:xlink="http://www.w3.org/1999/xlink">
  <!-- Exported by Scratch - http://scratch.mit.edu/ -->
  <path id="ID0.482579855248332" fill="#FFFFFF" stroke="none" stroke-linecap="round" d="M 263.750 101 C 267.119 101.285 270.343 102.611 273.150 104.400 C 276.315 106.418 279.002 109.135 281.250 112.100 C 283.198 114.669 286.421 117.609 285.750 120.800 C 285.230 123.272 281.074 122.837 278.650 123.600 C 276.246 124.356 272.440 124.283 271.050 125.250 C 270.438 125.790 273.468 126.291 274.600 126.650 C 276.991 127.410 283.431 127.566 281.850 128.700 C 278.006 131.491 269.959 133.594 263.750 134.500 C 261.113 134.883 257.481 134.677 256 132.500 C 254.383 130.474 256.449 127.492 256.750 125 C 257.057 122.457 257.814 119.936 257.650 117.400 C 257.561 114.783 256.546 112.306 256 109.750 C 255.523 107.515 253.135 104.770 254.750 103 C 256.705 100.743 260.692 100.740 263.750 101 Z " transform="matrix(0.6985738277435303, -0.6843875050544739, 0.6843875050544739, 0.6985738277435303, -190.45, 125.3)"/>
  <path id="ID0.9493582341820002" fill="none" stroke="#FFFFFF" stroke-width="5" stroke-linecap="round" d="M 202.250 112.750 L 267.750 112.750 " transform="matrix(0.6679957509040833, -0.6544303297996521, 0.6341902613639832, 0.6473360061645508, -173.45, 127.85)"/>
  <path id="ID0.687238757032901" fill="none" stroke="#FFFFFF" stroke-width="5" stroke-linecap="round" d="M 247.250 105.750 C 247.250 105.750 249.859 113.951 250.250 118.750 C 250.575 122.872 248.500 131 248.500 131 " transform="matrix(0.6473360061645508, -0.6341902613639832, 0.6341902613639832, 0.6473360061645508, -171.6, 118.75)"/>
  <path id="ID0.687238757032901" fill="none" stroke="#FFFFFF" stroke-width="5" stroke-linecap="round" d="M 246.750 101.900 C 246.750 101.900 250.099 113.023 250.250 118.750 C 250.403 124.519 247.750 136.400 247.750 136.400 " transform="matrix(0.6473360061645508, -0.6341902613639832, 0.6341902613639832, 0.6473360061645508, -179.1, 124.9)"/>
  <path id="ID0.687238757032901" fill="none" stroke="#FFFFFF" stroke-width="5" stroke-linecap="round" d="M 246.250 99.350 C 246.250 99.350 250.068 112.180 250.250 118.750 C 250.432 125.332 247.250 138.850 247.250 138.850 " transform="matrix(0.6473360061645508, -0.6341902613639832, 0.6341902613639832, 0.6473360061645508, -186.5, 131.45)"/>
  <path id="ID0.687238757032901" fill="none" stroke="#FFFFFF" stroke-width="5" stroke-linecap="round" d="M 246.750 101.900 C 246.750 101.900 250.099 113.023 250.250 118.750 C 250.403 124.519 247.750 136.400 247.750 136.400 " transform="matrix(0.6473360061645508, -0.6341902613639832, 0.6341902613639832, 0.6473360061645508, -192.95, 138.25)"/>
  <path id="ID0.687238757032901" fill="none" stroke="#FFFFFF" stroke-width="5" stroke-linecap="round" d="M 247.250 105.750 C 247.250 105.750 249.859 113.951 250.250 118.750 C 250.575 122.872 248.500 131 248.500 131 " transform="matrix(0.6473360061645508, -0.6341902613639832, 0.6341902613639832, 0.6473360061645508, -199.3, 144.2)"/>
  <g id="ID0.2360148634761572" transform="matrix(1, 0, 0, 1, 0, 1)">
    <path id="ID0.16649462515488267" fill="#FFFFFF" stroke="none" stroke-linecap="round" d="M 328.700 83.300 C 332.565 83.505 335.522 87.325 337.733 90.616 C 339.902 93.843 341.250 97.405 341.250 101.750 C 341.250 106.095 339.905 110.033 337.733 112.884 C 335.561 115.735 332.561 117.500 329.250 117.500 C 325.939 117.500 322.939 115.735 320.767 112.884 C 318.595 110.033 317.335 105.640 317.250 101.750 C 317.158 97.604 318.265 93.360 320.500 89.950 C 322.279 86.891 325.178 83.111 328.700 83.300 Z " transform="matrix(0.0005461734835989773, 0.7163565754890442, 0.9999983906745911, -0.001438777195289731, -82.55, -166.95)"/>
    <path id="ID0.16649462515488267" fill="#FFFFFF" stroke="none" stroke-linecap="round" d="M 328.700 83.300 C 332.565 83.505 335.522 87.325 337.733 90.616 C 339.902 93.843 341.250 97.405 341.250 101.750 C 341.250 106.095 339.905 110.033 337.733 112.884 C 335.561 115.735 332.561 117.500 329.250 117.500 C 325.939 117.500 322.939 115.735 320.767 112.884 C 318.595 110.033 317.335 105.640 317.250 101.750 C 317.158 97.604 318.265 93.360 320.500 89.950 C 322.279 86.891 325.178 83.111 328.700 83.300 Z " transform="matrix(-0.6989160776138306, -0.15710927546024323, 0.21997682750225067, -0.9755045771598816, 236, 230.95)"/>
  </g>
  <path id="ID0.9176634638570249" fill="#585858" stroke="none" d="M 268.875 62.500 C 269.875 62.500 270.781 62.906 271.438 63.562 C 272.094 64.219 272.500 65.125 272.500 66.125 C 272.500 67.125 272.094 68.031 271.438 68.688 C 270.781 69.344 269.875 69.750 268.875 69.750 C 267.875 69.750 266.969 69.344 266.312 68.688 C 265.656 68.031 265.250 67.125 265.250 66.125 C 265.250 65.125 265.656 64.219 266.312 63.562 C 266.969 62.906 267.875 62.500 268.875 62.500 Z " transform="matrix(1, 0, 0, 1, -191.25, -44.5)"/>
</svg>