<svg version="1.1" width="301" height="301" viewBox="-1 -1 301 301" xmlns="http://www.w3.org/2000/svg" xmlns:xlink="http://www.w3.org/1999/xlink">
  <!-- Exported by Scratch - http://scratch.mit.edu/ -->
  <path id="ID0.8820513412356377" fill="#FFEAD0" stroke="none" stroke-linecap="round" d="M 243 127 C 267.278 127 289.278 136.861 305.209 152.791 C 321.139 168.722 329.251 192.633 331 215 C 332.797 237.946 332.973 266.523 317 283 C 298.663 300.834 268.075 303.221 243 303 C 218.568 302.790 190.377 298.252 173 281 C 157.010 264.885 153.732 237.563 155 215 C 156.258 192.578 164.861 168.722 180.791 152.791 C 196.722 136.861 218.722 127 243 127 Z " transform="matrix(1.1794406175613403, 0, 0, 1.137120008468628, -140.3, -44.5)"/>
  <path id="ID0.2806902341544628" fill="#000000" stroke="none" d="M 181.500 268 C 184.121 268 186.496 269.065 188.216 270.784 C 189.935 272.504 191 274.879 191 277.500 C 191 280.121 189.935 282.496 188.216 284.216 C 186.496 285.935 184.121 287 181.500 287 C 178.879 287 176.504 285.935 174.784 284.216 C 173.065 282.496 172 280.121 172 277.500 C 172 274.879 173.065 272.504 174.784 270.784 C 176.504 269.065 178.879 268 181.500 268 Z " transform="matrix(1.1275995969772339, 0, 0, 1.1275995969772339, -107.4, -90.15)"/>
  <path id="ID0.2806902341544628" fill="#000000" stroke="none" d="M 181.500 268 C 184.121 268 186.496 269.065 188.216 270.784 C 189.935 272.504 191 274.879 191 277.500 C 191 280.121 189.935 282.496 188.216 284.216 C 186.496 285.935 184.121 287 181.500 287 C 178.879 287 176.504 285.935 174.784 284.216 C 173.065 282.496 172 280.121 172 277.500 C 172 274.879 173.065 272.504 174.784 270.784 C 176.504 269.065 178.879 268 181.500 268 Z " transform="matrix(1.1275995969772339, 0, 0, 1.1275995969772339, -6.45, -89.65)"/>
  <path id="ID0.694512349087745" fill="#965749" stroke="none" stroke-linecap="round" d="M 235.500 268 C 243.639 268 251.014 270.521 256.354 274.594 C 261.694 278.667 261.733 285.445 265 290.500 C 269.368 297.251 278.710 303.014 278 311 C 277.359 317.450 269.309 322.043 263 323 C 254.499 324.324 245.905 317.014 237 317 C 227.812 317.018 219.339 324.360 210 323 C 203.609 322.094 195.708 317.110 195 311 C 194.234 303.341 202.633 297.467 206 290.500 C 208.619 285.080 209.306 278.667 214.646 274.594 C 219.986 270.521 227.361 268 235.500 268 Z " transform="matrix(1.2192744016647339, 0, 0, 1.3584306240081787, -139.8, -154.15)"/>
  <path id="ID0.406083129812032" fill="#190F07" stroke="none" stroke-linecap="round" d="M 234 277 C 237.311 277 239.966 277.586 242.483 278.758 C 244.197 279.564 246.685 280.844 246.150 282.500 C 245.191 285.424 241.877 287.147 239.150 288.600 C 237.634 289.421 235.722 289.095 234 289.100 C 232.288 289.027 230.431 289.168 228.900 288.400 C 226.293 287.095 222.964 285.729 222 283 C 221.389 281.270 223.345 279.845 225.517 278.758 C 227.689 277.672 230.689 277 234 277 Z " transform="matrix(1.1275995969772339, 0, 0, 1.1275995969772339, -116.4, -86.8)"/>
  <path id="ID0.8044573538936675" fill="#FF6F6F" stroke="none" stroke-linecap="round" d="M 234 296.250 C 237.517 296.233 239.686 300.567 241.750 303.500 C 242.510 304.671 242.242 306.338 242 307.875 C 241.669 309.948 241.174 312.279 239.839 313.795 C 238.503 315.312 236.660 316.250 234.625 316.250 C 232.590 316.250 230.747 315.312 229.411 313.795 C 228.076 312.279 227.671 309.932 227.250 307.875 C 226.963 306.454 226.562 304.938 227.250 303.750 C 228.939 300.844 230.700 296.269 234 296.250 Z " transform="matrix(1.1275995969772339, 0, 0, 1.1275995969772339, -116.4, -86.8)"/>
  <path id="ID0.685686843469739" fill="none" stroke="#190F07" stroke-width="2" stroke-linecap="round" d="M 233.500 286 C 233.500 286 234.523 294.545 232.250 297.750 C 229.859 301.449 221 304.500 221 304.500 " transform="matrix(1.1275995969772339, 0, 0, 1.1275995969772339, -116.4, -86.8)"/>
  <path id="ID0.685686843469739" fill="none" stroke="#190F07" stroke-width="2" stroke-linecap="round" d="M 233.500 286 C 233.500 286 234.523 294.545 232.250 297.750 C 229.859 301.449 221 304.500 221 304.500 " transform="matrix(-1.1275995969772339, 0, 0, 1.1275995969772339, 411.6, -86.8)"/>
  <path id="ID0.13846430648118258" fill="#965749" stroke="none" stroke-linecap="round" d="M 324 177 C 336.651 180.515 347.814 188.708 358 197 C 361.549 199.887 364.438 204.714 363 209.250 C 358.415 227.744 347.106 243.911 341 262 C 339.081 267.688 339.435 274.150 340 280 C 340.415 284.616 345.361 288.682 344 293 C 342.876 296.556 337.829 299.063 334 298.750 C 328.814 298.264 323.142 294.798 319 291 C 310.036 282.781 300.612 274.294 297 263 C 292.302 248.308 294.743 232.351 295.500 217.150 C 295.582 211.455 300.974 206.043 299.500 200.750 C 297.843 194.787 289.507 192.503 287 187 C 285.600 183.918 286.030 178.195 289 177 C 300.412 174.308 313.174 173.989 324 177 Z " transform="matrix(1.135779857635498, 0, 0, 0.9781308770179749, -112.7, -43.85)"/>
  <path id="ID0.7530061188153923" fill="#000000" stroke="none" d="M 255.125 288.500 C 255.573 288.500 255.980 288.682 256.274 288.976 C 256.568 289.270 256.750 289.677 256.750 290.125 C 256.750 290.573 256.568 290.980 256.274 291.274 C 255.980 291.568 255.573 291.750 255.125 291.750 C 254.677 291.750 254.270 291.568 253.976 291.274 C 253.682 290.980 253.500 290.573 253.500 290.125 C 253.500 289.677 253.682 289.270 253.976 288.976 C 254.270 288.682 254.677 288.500 255.125 288.500 Z " transform="matrix(1.1275995969772339, 0, 0, 1.1275995969772339, -116.4, -86.8)"/>
  <path id="ID0.7530061188153923" fill="#000000" stroke="none" d="M 255.125 288.500 C 255.573 288.500 255.980 288.682 256.274 288.976 C 256.568 289.270 256.750 289.677 256.750 290.125 C 256.750 290.573 256.568 290.980 256.274 291.274 C 255.980 291.568 255.573 291.750 255.125 291.750 C 254.677 291.750 254.270 291.568 253.976 291.274 C 253.682 290.980 253.500 290.573 253.500 290.125 C 253.500 289.677 253.682 289.270 253.976 288.976 C 254.270 288.682 254.677 288.500 255.125 288.500 Z " transform="matrix(1.1275995969772339, 0, 0, 1.1275995969772339, -124.4, -86.65)"/>
  <path id="ID0.7530061188153923" fill="#000000" stroke="none" d="M 255.125 288.500 C 255.573 288.500 255.980 288.682 256.274 288.976 C 256.568 289.270 256.750 289.677 256.750 290.125 C 256.750 290.573 256.568 290.980 256.274 291.274 C 255.980 291.568 255.573 291.750 255.125 291.750 C 254.677 291.750 254.270 291.568 253.976 291.274 C 253.682 290.980 253.500 290.573 253.500 290.125 C 253.500 289.677 253.682 289.270 253.976 288.976 C 254.270 288.682 254.677 288.500 255.125 288.500 Z " transform="matrix(1.1275995969772339, 0, 0, 1.1275995969772339, -119.9, -80.8)"/>
  <path id="ID0.7530061188153923" fill="#000000" stroke="none" d="M 255.125 288.500 C 255.573 288.500 255.980 288.682 256.274 288.976 C 256.568 289.270 256.750 289.677 256.750 290.125 C 256.750 290.573 256.568 290.980 256.274 291.274 C 255.980 291.568 255.573 291.750 255.125 291.750 C 254.677 291.750 254.270 291.568 253.976 291.274 C 253.682 290.980 253.500 290.573 253.500 290.125 C 253.500 289.677 253.682 289.270 253.976 288.976 C 254.270 288.682 254.677 288.500 255.125 288.500 Z " transform="matrix(1.1275995969772339, 0, 0, 1.1275995969772339, -158.65, -81.45)"/>
  <path id="ID0.7530061188153923" fill="#000000" stroke="none" d="M 255.125 288.500 C 255.573 288.500 255.980 288.682 256.274 288.976 C 256.568 289.270 256.750 289.677 256.750 290.125 C 256.750 290.573 256.568 290.980 256.274 291.274 C 255.980 291.568 255.573 291.750 255.125 291.750 C 254.677 291.750 254.270 291.568 253.976 291.274 C 253.682 290.980 253.500 290.573 253.500 290.125 C 253.500 289.677 253.682 289.270 253.976 288.976 C 254.270 288.682 254.677 288.500 255.125 288.500 Z " transform="matrix(1.1275995969772339, 0, 0, 1.1275995969772339, -155, -87.45)"/>
  <path id="ID0.7530061188153923" fill="#000000" stroke="none" d="M 255.125 288.500 C 255.573 288.500 255.980 288.682 256.274 288.976 C 256.568 289.270 256.750 289.677 256.750 290.125 C 256.750 290.573 256.568 290.980 256.274 291.274 C 255.980 291.568 255.573 291.750 255.125 291.750 C 254.677 291.750 254.270 291.568 253.976 291.274 C 253.682 290.980 253.500 290.573 253.500 290.125 C 253.500 289.677 253.682 289.270 253.976 288.976 C 254.270 288.682 254.677 288.500 255.125 288.500 Z " transform="matrix(1.1275995969772339, 0, 0, 1.1275995969772339, -163.1, -87.3)"/>
  <path id="ID0.7067176010459661" fill="#FF8282" stroke="none" stroke-linecap="round" d="M 240.750 101.750 C 251.042 104.474 261.406 109.050 269.250 116.250 C 274.923 121.468 276.719 130.043 279.750 137.250 C 281.199 140.678 280.600 143.318 281.600 146.350 C 282.949 149.861 289.381 156.965 286.750 156.750 C 281.845 156.066 271.984 148.352 265.700 142.500 C 264.174 141.286 265.676 139.636 265.750 137.750 C 265.836 136.759 266.395 131.348 267 135 C 269.468 149.465 281.580 167.100 273 179 C 264.914 190.213 245.932 186.693 232 186 C 217.073 185.260 201.549 181.632 187.700 175.500 C 184.184 173.911 185.315 168.756 186.350 165.450 C 189.976 153.902 194.477 142.734 201.100 132.550 C 207.346 122.193 214.555 112.433 224.600 104.400 C 228.885 101.012 235.414 100.340 240.750 101.750 Z " transform="matrix(1.6101022958755493, 0, 0, 1.6101022958755493, -226.5, -162.6)"/>
  <path id="ID0.13846430648118258" fill="#965749" stroke="none" stroke-linecap="round" d="M 324 177 C 336.651 180.515 347.814 188.708 358 197 C 361.549 199.887 364.438 204.714 363 209.250 C 358.415 227.744 347.106 243.911 341 262 C 339.081 267.688 339.435 274.150 340 280 C 340.415 284.616 345.361 288.682 344 293 C 342.876 296.556 337.829 299.063 334 298.750 C 328.814 298.264 323.142 294.798 319 291 C 310.036 282.781 300.612 274.294 297 263 C 292.302 248.308 294.743 232.351 295.500 217.150 C 295.582 211.455 300.974 206.043 299.500 200.750 C 297.843 194.787 289.507 192.503 287 187 C 285.600 183.918 286.030 178.195 289 177 C 300.412 174.308 313.174 173.989 324 177 Z " transform="matrix(-1.135779857635498, 0, 0, 0.9781309366226196, 413.55, -43.25)"/>
  <path id="ID0.694634594488889" fill="#FFFFFF" stroke="none" d="M 187.500 164 C 192.604 164 197.229 166.073 200.578 169.422 C 203.927 172.771 206 177.396 206 182.500 C 206 187.604 203.927 192.229 200.578 195.578 C 197.229 198.927 192.604 201 187.500 201 C 182.396 201 177.771 198.927 174.422 195.578 C 171.073 192.229 169 187.604 169 182.500 C 169 177.396 171.073 172.771 174.422 169.422 C 177.771 166.073 182.396 164 187.500 164 Z " transform="matrix(1.0803066492080688, 0, 0, 1.0803066492080688, -107.95, -68.25)"/>
  <path id="ID0.694634594488889" fill="#FFFFFF" stroke="none" d="M 187.500 164 C 192.604 164 197.229 166.073 200.578 169.422 C 203.927 172.771 206 177.396 206 182.500 C 206 187.604 203.927 192.229 200.578 195.578 C 197.229 198.927 192.604 201 187.500 201 C 182.396 201 177.771 198.927 174.422 195.578 C 171.073 192.229 169 187.604 169 182.500 C 169 177.396 171.073 172.771 174.422 169.422 C 177.771 166.073 182.396 164 187.500 164 Z " transform="matrix(1.0803066492080688, 0, 0, 1.0803066492080688, -80.5, -66.65)"/>
  <path id="ID0.694634594488889" fill="#FFFFFF" stroke="none" d="M 187.500 164 C 192.604 164 197.229 166.073 200.578 169.422 C 203.927 172.771 206 177.396 206 182.500 C 206 187.604 203.927 192.229 200.578 195.578 C 197.229 198.927 192.604 201 187.500 201 C 182.396 201 177.771 198.927 174.422 195.578 C 171.073 192.229 169 187.604 169 182.500 C 169 177.396 171.073 172.771 174.422 169.422 C 177.771 166.073 182.396 164 187.500 164 Z " transform="matrix(1.0803066492080688, 0, 0, 1.0803066492080688, -49.15, -67.75)"/>
  <path id="ID0.694634594488889" fill="#FFFFFF" stroke="none" d="M 187.500 164 C 192.604 164 197.229 166.073 200.578 169.422 C 203.927 172.771 206 177.396 206 182.500 C 206 187.604 203.927 192.229 200.578 195.578 C 197.229 198.927 192.604 201 187.500 201 C 182.396 201 177.771 198.927 174.422 195.578 C 171.073 192.229 169 187.604 169 182.500 C 169 177.396 171.073 172.771 174.422 169.422 C 177.771 166.073 182.396 164 187.500 164 Z " transform="matrix(1.0803066492080688, 0, 0, 1.0803066492080688, -18.9, -68.75)"/>
  <path id="ID0.694634594488889" fill="#FFFFFF" stroke="none" d="M 187.500 164 C 192.604 164 197.229 166.073 200.578 169.422 C 203.927 172.771 206 177.396 206 182.500 C 206 187.604 203.927 192.229 200.578 195.578 C 197.229 198.927 192.604 201 187.500 201 C 182.396 201 177.771 198.927 174.422 195.578 C 171.073 192.229 169 187.604 169 182.500 C 169 177.396 171.073 172.771 174.422 169.422 C 177.771 166.073 182.396 164 187.500 164 Z " transform="matrix(0.803993821144104, 0, 0, 0.803993821144104, 87.4, -55.45)"/>
  <path id="ID0.694634594488889" fill="#FFFFFF" stroke="none" d="M 187.500 164 C 192.604 164 197.229 166.073 200.578 169.422 C 203.927 172.771 206 177.396 206 182.500 C 206 187.604 203.927 192.229 200.578 195.578 C 197.229 198.927 192.604 201 187.500 201 C 182.396 201 177.771 198.927 174.422 195.578 C 171.073 192.229 169 187.604 169 182.500 C 169 177.396 171.073 172.771 174.422 169.422 C 177.771 166.073 182.396 164 187.500 164 Z " transform="matrix(1.0803066492080688, 0, 0, 1.0803066492080688, -133.3, -72)"/>
  <path id="ID0.694634594488889" fill="#FFFFFF" stroke="none" d="M 187.500 164 C 192.604 164 197.229 166.073 200.578 169.422 C 203.927 172.771 206 177.396 206 182.500 C 206 187.604 203.927 192.229 200.578 195.578 C 197.229 198.927 192.604 201 187.500 201 C 182.396 201 177.771 198.927 174.422 195.578 C 171.073 192.229 169 187.604 169 182.500 C 169 177.396 171.073 172.771 174.422 169.422 C 177.771 166.073 182.396 164 187.500 164 Z " transform="matrix(1.0803066492080688, 0, 0, 1.0803066492080688, 13.5, -73.15)"/>
  <path id="ID0.32408631965518" fill="#FF8282" stroke="none" d="M 300 281 C 302.207 281 304.207 281.448 305.655 282.172 C 307.104 282.896 308 283.896 308 285 C 308 286.104 307.104 287.104 305.655 287.828 C 304.207 288.552 302.207 289 300 289 C 297.793 289 295.793 288.552 294.345 287.828 C 292.896 287.104 292 286.104 292 285 C 292 283.896 292.896 282.896 294.345 282.172 C 295.793 281.448 297.793 281 300 281 Z " transform="matrix(1.1275995969772339, 0, 0, 1.1275995969772339, -116.4, -86.8)"/>
  <path id="ID0.32408631965518" fill="#FF8282" stroke="none" d="M 300 281 C 302.207 281 304.207 281.448 305.655 282.172 C 307.104 282.896 308 283.896 308 285 C 308 286.104 307.104 287.104 305.655 287.828 C 304.207 288.552 302.207 289 300 289 C 297.793 289 295.793 288.552 294.345 287.828 C 292.896 287.104 292 286.104 292 285 C 292 283.896 292.896 282.896 294.345 282.172 C 295.793 281.448 297.793 281 300 281 Z " transform="matrix(1.1275995969772339, 0, 0, 1.1275995969772339, -265.25, -85.7)"/>
  <path id="ID0.5008056331425905" fill="#965749" stroke="none" d="M 182.500 224 C 184.845 224 186.970 224.560 188.509 225.465 C 190.048 226.371 191 227.621 191 229 C 191 230.379 190.048 231.629 188.509 232.535 C 186.970 233.440 184.845 234 182.500 234 C 180.155 234 178.030 233.440 176.491 232.535 C 174.952 231.629 174 230.379 174 229 C 174 227.621 174.952 226.371 176.491 225.465 C 178.030 224.560 180.155 224 182.500 224 Z " transform="matrix(0.9828721880912781, 0.18428853154182434, -0.18428853154182434, 0.9828721880912781, -34.8, -68.65)"/>
  <path id="ID0.5008056331425905" fill="#965749" stroke="none" d="M 182.500 224 C 184.845 224 186.970 224.560 188.509 225.465 C 190.048 226.371 191 227.621 191 229 C 191 230.379 190.048 231.629 188.509 232.535 C 186.970 233.440 184.845 234 182.500 234 C 180.155 234 178.030 233.440 176.491 232.535 C 174.952 231.629 174 230.379 174 229 C 174 227.621 174.952 226.371 176.491 225.465 C 178.030 224.560 180.155 224 182.500 224 Z " transform="matrix(-0.9828721880912781, 0.18428853154182434, 0.18428853154182434, 0.9828721880912781, 329.9, -68.45)"/>
</svg>