<svg version="1.1" width="68" height="91" viewBox="9 7 68 91" xmlns="http://www.w3.org/2000/svg" xmlns:xlink="http://www.w3.org/1999/xlink">
  <!-- Exported by Scratch - http://scratch.mit.edu/ -->
  <g id="ID0.9131420524790883">
    <path id="ID0.5460699633695185" fill="none" stroke="#FFFFFF" stroke-width="15" stroke-linecap="round" d="M 250.150 135.450 C 250.150 135.450 248.618 126.773 245.450 124.050 C 242.369 121.287 237.682 118.675 233.750 120.050 C 228.372 121.929 222.260 125.680 221.500 132 C 218.464 157.228 222.650 208.300 222.650 208.300 " transform="matrix(0.756168007850647, -0.6225907206535339, 0.6335321068763733, 0.6944142580032349, -232.05, 82.75)"/>
    <path id="ID0.3231751015409827" fill="#71A6FF" stroke="none" stroke-linecap="round" d="M 234.250 189.500 L 248.900 192 L 248.400 201.100 L 233.500 198.250 L 234.250 189.500 Z " transform="matrix(-0.7445704936981201, 0.6350645422935486, 0.6471225619316101, 0.683025062084198, 115.35, -203.6)"/>
    <path id="ID0.3231751015409827" fill="#71A6FF" stroke="none" stroke-linecap="round" d="M 234.250 189.500 L 248.900 192 L 248.400 201.100 L 233.500 198.250 L 234.250 189.500 Z " transform="matrix(-0.7743707299232483, 0.6020179390907288, 0.6111488938331604, 0.7123234272003174, 118, -212.85)"/>
    <path id="ID0.3231751015409827" fill="#71A6FF" stroke="none" stroke-linecap="round" d="M 234.950 188.950 L 249.800 192.050 L 248 200.850 L 233.300 197.300 L 234.950 188.950 Z " transform="matrix(-0.883275032043457, 0.443084716796875, 0.4392927289009094, 0.8206741213798523, 156.05, -218.45)"/>
    <path id="ID0.3231751015409827" fill="#71A6FF" stroke="none" stroke-linecap="round" d="M 235.350 191.600 L 235.100 187.100 L 250.850 188.450 L 250.850 190.650 L 250.450 195 L 248.450 199.700 L 234.350 195.500 L 235.350 191.600 Z " transform="matrix(-0.9630959033966064, 0.23230251669883728, 0.2135394811630249, 0.9032528400421143, 211.35, -195.35)"/>
    <path id="ID0.3231751015409827" fill="#71A6FF" stroke="none" stroke-linecap="round" d="M 235.500 190.600 L 235.850 188.650 L 235 186.200 L 251.050 188.200 L 251.750 190.900 L 251.350 193.300 L 250 196.450 L 248.400 199.400 L 234.550 191.850 L 235.500 190.600 Z " transform="matrix(-0.4920937716960907, -0.7922678589820862, -0.8549834489822388, 0.4920792281627655, 305.2, 118.05)"/>
    <path id="ID0.3231751015409827" fill="#71A6FF" stroke="none" stroke-linecap="round" d="M 233.500 191.050 L 232.700 188.450 L 232.150 185.250 L 248.800 187.650 L 249.550 190.800 L 250.100 194.050 L 250.550 196.900 L 250.550 199.300 L 234.450 192.950 L 233.500 191.050 Z " transform="matrix(0.26273390650749207, -0.9067838191986084, -0.9508541822433472, -0.2181127518415451, 157.5, 279.55)"/>
    <path id="ID0.4151444989256561" fill="#71A6FF" stroke="none" stroke-linecap="round" d="M 232.600 205.950 C 232.743 205.704 232.552 206.033 233.550 206.200 C 237.537 206.868 241.601 207.186 245.550 208.100 C 246.524 208.325 245.790 208.734 245.650 209 C 245.170 209.894 244.648 210.884 243.778 211.406 C 242.544 212.145 241.246 212.600 239.625 212.600 C 238.004 212.600 236.701 212.142 235.472 211.406 C 234.576 210.868 234.032 209.870 233.450 209 C 233.143 208.537 232.999 207.983 232.850 207.450 C 232.714 206.962 232.385 206.328 232.600 205.950 Z " transform="matrix(-0.7730860114097595, 0.659386157989502, 0.6471225619316101, 0.683025062084198, 120.7, -208.85)"/>
    <g id="ID0.7335052266716957">
      <path id="ID0.8873068988323212" fill="none" stroke="#FFB20A" stroke-width="6" stroke-linecap="round" d="M 239.100 154.800 C 236.985 152.919 234.411 151.207 231.600 150.800 C 229.044 150.389 226.012 150.820 224 152.500 C 222.420 153.821 222.242 156.458 222.500 158.500 C 222.739 160.363 223.835 162.592 225.600 163.300 C 228.265 164.369 231.664 164.280 234.350 163.150 C 238.293 161.369 240.679 157.046 244.500 155 C 247.450 153.449 250.640 152.214 253.850 152.500 C 256.145 152.707 257.971 154.458 259.350 156.150 C 260.499 157.640 261.458 159.257 261.350 161 C 261.240 162.735 260.347 165.215 258.600 165.650 C 254.853 166.579 250.467 166.380 247.100 164.500 C 243.444 162.472 242.227 157.582 239.100 154.800 Z " transform="matrix(-0.8277674317359924, 0.7060255408287048, 0.7194307446479797, 0.7593449950218201, 124.45, -232.25)"/>
      <path id="ID0.217247330583632" fill="none" stroke="#FFB20A" stroke-width="6" stroke-linecap="round" d="M 230.700 174.900 C 230.700 174.900 234 172.600 235.500 171.300 C 237 170 238.800 168.700 239.700 166.900 C 240.800 164.600 241.300 159.500 241.300 159.500 C 241.350 159.300 241.720 163.671 242.200 165.800 C 242.640 167.752 243.007 169.824 244.100 171.500 C 245.534 173.699 249.600 177.150 249.600 177.150 " transform="matrix(-0.8277674317359924, 0.7060255408287048, 0.7194307446479797, 0.7593449950218201, 124.2, -232.25)"/>
    </g>
  </g>
</svg>