<svg version="1.1" width="394" height="291" viewBox="5 3 394 291" xmlns="http://www.w3.org/2000/svg" xmlns:xlink="http://www.w3.org/1999/xlink">
  <!-- Exported by Scratch - http://scratch.mit.edu/ -->
  <g id="ID0.784055725671351" transform="matrix(1.0745526552200317, 0, 0, 1.0745526552200317, 242.55, 153.1)">
    <g id="ID0.6482343506067991">
      <g id="ID0.9502169326879084">
        <path id="ID0.6267441683448851" fill="#FFE8B8" stroke="#000000" stroke-width="3" stroke-linecap="round" d="M 107.350 121.750 C 117.565 122.328 122.935 136.447 127.940 146.042 C 132.938 155.623 135.181 166.717 136 177.500 C 136.456 183.519 135.139 189.705 131.600 194.250 C 129.232 197.258 124.487 196.260 121.100 197.550 C 116.456 198.859 112.021 200.384 107.500 202.050 C 101.350 204.323 93.713 213.420 89.060 208.958 C 81.266 201.470 81.005 188.661 81 177.500 C 80.994 165.590 83.879 153.632 88.800 142.750 C 92.914 134.500 98.109 121.167 107.350 121.750 Z " transform="matrix(0.24678105115890503, -0.22604313492774963, 0.22604313492774963, 0.24678105115890503, -45.55, 33.7)"/>
        <path id="ID0.6267441683448851" fill="#8D6B5B" stroke="#000000" stroke-width="3" stroke-linecap="round" d="M 111.650 199.450 C 109.837 198.085 112.751 196.249 112.650 191.900 C 112.244 174.505 111.850 156.950 110.300 139.700 C 109.750 133.800 104.465 127.135 105.650 122.600 C 106.251 120.264 112.230 122.684 114.350 124.650 C 120.066 130.926 124.626 138.263 127.940 146.042 C 132.168 155.992 135.181 166.717 136 177.500 C 136.454 183.485 135.139 189.705 131.600 194.250 C 129.232 197.258 124.649 196.642 121.100 197.550 C 118.005 198.343 114.062 200.910 111.650 199.450 Z " transform="matrix(0.24678105115890503, -0.22604313492774963, 0.22604313492774963, 0.24678105115890503, -45.35, 33.75)"/>
      </g>
      <path id="ID0.9733388223685324" fill="#D8C19B" stroke="none" stroke-linecap="round" d="M 339 143.050 C 339.329 142.153 339.722 141.231 340.050 140.300 C 340.190 139.661 340.314 139.004 340.400 138.350 C 340.531 137.357 340.443 135.461 340.650 135.350 C 340.918 135.214 341.595 135.639 341.650 137.700 C 341.871 145.943 341.485 154.316 341.350 162.700 C 341.302 170.466 341.621 178.312 341.100 186.200 C 340.546 194.581 340.512 203.455 338.150 211.250 C 337.555 213.193 335.949 207.626 335.600 205.700 C 335.008 202.407 335.251 198.989 335.250 195.650 C 335.243 183.795 335.575 172.015 335.800 160.050 C 335.856 157.059 335.803 155.676 335.950 153.500 C 336.027 152.374 336.002 151.087 336.350 149.950 C 337.091 147.528 338.154 145.361 339 143.050 Z " transform="matrix(-0.2407899796962738, 0.23241467773914337, 0.23241467773914337, 0.2407899796962738, 58.65, -71.1)"/>
    </g>
    <path id="ID0.2908902820199728" fill="#8D6B5B" stroke="#000000" stroke-width="3" stroke-linecap="round" d="M 209.500 172.750 C 229.210 172.781 249.700 182.070 263.700 196.300 C 277.934 210.771 287 230.567 287 252.500 C 287 274.433 277.180 293.577 263.700 308.700 C 249.444 324.700 229.670 342.283 208 342.750 C 186.063 342.283 165.907 324.849 151.300 308.700 C 137.708 293.678 128 274.433 128 252.500 C 128 230.567 136.857 210.563 151.300 196.300 C 166.011 181.775 188.215 172.781 209.500 172.750 Z " transform="matrix(0.3346586227416992, 0, 0, 0.3346586227416992, -19, -13.8)"/>
    <path id="ID0.2908902820199728" fill="#FFE8B8" stroke="#000000" stroke-width="3" stroke-linecap="round" d="M 206 277 C 207.062 275.745 207.728 285.916 211 289 C 215.951 293.624 223.100 295.250 229 298.500 C 234.500 301.900 240.350 304.600 245 309 C 248 311.850 251.500 319 251.500 319 C 251 320 244.154 328.499 238 332 C 228.728 337.168 218.617 341.438 208 342.750 C 200.042 343.690 191.724 340.978 184.500 337.500 C 175.838 333.329 161 320 161 320 C 161 319 163.700 312.200 166.550 309.650 C 171.300 305.350 177.050 302.550 182.550 299.150 C 188.450 295.900 195.865 294.673 200.550 289.650 C 204.113 285.765 204.232 274.732 205.550 274.650 Z " transform="matrix(0.3346586227416992, 0, 0, 0.3346586227416992, -18.5, -14)"/>
    <path id="ID0.5028436067514122" fill="#FF8D7C" stroke="#000000" stroke-width="3" d="M 214 287 C 219.242 287 223.992 288.625 227.431 291.250 C 230.871 293.875 233 297.500 233 301.500 C 233 305.500 230.871 309.125 227.431 311.750 C 223.992 314.375 219.242 316 214 316 C 208.758 316 204.008 314.375 200.569 311.750 C 197.129 309.125 195 305.500 195 301.500 C 195 297.500 197.129 293.875 200.569 291.250 C 204.008 288.625 208.758 287 214 287 Z " transform="matrix(0.3346586227416992, 0, 0, 0.2509939670562744, -21.25, 13.45)"/>
    <path id="ID0.37864481331780553" fill="#000000" stroke="#000000" stroke-width="3" d="M 257.500 245 C 259.983 245 262.233 246.008 263.862 247.638 C 265.492 249.267 266.500 251.517 266.500 254 C 266.500 256.483 265.492 258.733 263.862 260.362 C 262.233 261.992 259.983 263 257.500 263 C 255.017 263 252.767 261.992 251.138 260.362 C 249.508 258.733 248.500 256.483 248.500 254 C 248.500 251.517 249.508 249.267 251.138 247.638 C 252.767 246.008 255.017 245 257.500 245 Z " transform="matrix(0.3346586227416992, 0, 0, 0.3346586227416992, -23.25, -5.7)"/>
    <path id="ID0.37864481331780553" fill="#000000" stroke="#000000" stroke-width="3" d="M 257.500 245 C 259.983 245 262.233 246.008 263.862 247.638 C 265.492 249.267 266.500 251.517 266.500 254 C 266.500 256.483 265.492 258.733 263.862 260.362 C 262.233 261.992 259.983 263 257.500 263 C 255.017 263 252.767 261.992 251.138 260.362 C 249.508 258.733 248.500 256.483 248.500 254 C 248.500 251.517 249.508 249.267 251.138 247.638 C 252.767 246.008 255.017 245 257.500 245 Z " transform="matrix(0.3346586227416992, 0, 0, 0.3346586227416992, -48.15, -5.7)"/>
    <path id="ID0.7236767555586994" fill="none" stroke="#000000" stroke-width="3" stroke-linecap="round" d="M 215.500 303 L 215.500 313 " transform="matrix(0.3346586227416992, 0, 0, 0.3346586227416992, -21.85, -8.3)"/>
    <path id="ID0.483003459405154" fill="#FFF1D3" stroke="#000000" stroke-width="3" stroke-linecap="round" d="M 296 44.550 C 299.501 45.718 301.070 49.946 301.700 53.250 C 303.804 62.062 302.686 71.174 304 80 C 304.339 82.212 302.694 80.339 304.850 78.800 C 313.906 71.552 321.532 61.238 332.200 57.900 C 336.189 56.654 343.018 63.430 340.950 66.900 C 331.905 80.221 311.766 84.713 305 99 C 298.077 113.626 295.471 139.022 302.050 147.500 C 306.405 153.085 317.145 130.570 327.300 126.500 C 330.715 125.159 336.631 131.523 334.650 135.050 C 327.461 148.644 313.722 157.958 304 170 C 301.569 173.011 304.111 172.827 303.100 173.150 C 300.574 174.643 297.524 174.161 294.750 174.750 C 292.411 175.249 289.249 177.909 287.550 176.200 C 285.857 174.535 288.195 171.017 288 168 C 287.283 156.827 293.134 142.307 285.150 134.500 C 269.634 119.405 244.832 119.804 227.250 108.450 C 222.648 105.230 225.165 98.427 228.600 97.350 C 236.005 94.867 245.280 103.934 252 99.150 C 260.547 93.015 257.738 78.170 264.150 69.950 C 265.910 67.723 271.784 70.305 272.150 72.900 C 273.075 83.790 264.245 94.681 267.500 104.950 C 269.577 111.474 280.175 111.205 286.400 114.950 C 287.668 115.835 286.658 122.353 287 117 C 288.369 95.589 287.148 72.202 290.100 50.050 C 290.854 44.575 293.490 43.736 296 44.550 Z " transform="matrix(0.3198777735233307, -0.09835948795080185, 0.09835948795080185, 0.3198777735233307, -74.8, 20.8)"/>
    <path id="ID0.483003459405154" fill="#FFF1D3" stroke="#000000" stroke-width="3" stroke-linecap="round" d="M 296 44.550 C 299.501 45.718 301.070 49.946 301.700 53.250 C 303.804 62.062 302.686 71.174 304 80 C 304.339 82.212 302.694 80.339 304.850 78.800 C 313.906 71.552 321.532 61.238 332.200 57.900 C 336.189 56.654 343.018 63.430 340.950 66.900 C 331.905 80.221 311.766 84.713 305 99 C 298.077 113.626 295.471 139.022 302.050 147.500 C 306.405 153.085 317.145 130.570 327.300 126.500 C 330.715 125.159 336.631 131.523 334.650 135.050 C 327.461 148.644 313.616 157.869 304 170 C 301.596 173.033 305.412 172.417 304.500 173 C 302.772 173.925 300.499 172.897 298.400 173.200 C 294.875 173.708 291.169 176.654 287.850 175.200 C 286.031 174.085 288.335 170.915 288 168 C 286.663 156.350 292.564 141.016 284 133 C 268.438 118.445 244.386 119.728 226.500 109.300 C 222.023 106.691 225.514 101.009 228.500 99.450 C 235.789 96.920 245.981 104.279 252 99.150 C 260.008 92.316 257.738 78.170 264.150 69.950 C 265.910 67.723 271.784 70.305 272.150 72.900 C 273.075 83.790 264.245 94.681 267.500 104.950 C 269.577 111.474 280.175 111.205 286.400 114.950 C 287.668 115.835 286.658 122.353 287 117 C 288.369 95.589 287.148 72.202 290.100 50.050 C 290.854 44.575 293.490 43.736 296 44.550 Z " transform="matrix(-0.3198777735233307, -0.09835948795080185, -0.09835948795080185, 0.3198777735233307, 175.75, 20.8)"/>
    <path id="ID0.6637416258454323" fill="#FF8D7C" stroke="#000000" stroke-width="3" d="M 159 267 C 161.483 267 163.733 267.644 165.362 268.685 C 166.992 269.726 168 271.164 168 272.750 C 168 274.336 166.992 275.774 165.362 276.815 C 163.733 277.856 161.483 278.500 159 278.500 C 156.517 278.500 154.267 277.856 152.638 276.815 C 151.008 275.774 150 274.336 150 272.750 C 150 271.164 151.008 269.726 152.638 268.685 C 154.267 267.644 156.517 267 159 267 Z " transform="matrix(0.3346586227416992, 0, 0, 0.3346586227416992, -21.85, -8.3)"/>
    <path id="ID0.6637416258454323" fill="#FF8D7C" stroke="#000000" stroke-width="3" d="M 159 267 C 161.483 267 163.733 267.644 165.362 268.685 C 166.992 269.726 168 271.164 168 272.750 C 168 274.336 166.992 275.774 165.362 276.815 C 163.733 277.856 161.483 278.500 159 278.500 C 156.517 278.500 154.267 277.856 152.638 276.815 C 151.008 275.774 150 274.336 150 272.750 C 150 271.164 151.008 269.726 152.638 268.685 C 154.267 267.644 156.517 267 159 267 Z " transform="matrix(0.3346586227416992, 0, 0, 0.3346586227416992, 17, -7.8)"/>
    <path id="ID0.20625113183632493" fill="#DB796A" stroke="none" d="M 227.875 288.750 C 229.013 288.750 230.044 289.142 230.791 289.776 C 231.538 290.409 232 291.284 232 292.250 C 232 293.216 231.538 294.091 230.791 294.724 C 230.044 295.358 229.013 295.750 227.875 295.750 C 226.737 295.750 225.706 295.358 224.959 294.724 C 224.212 294.091 223.750 293.216 223.750 292.250 C 223.750 291.284 224.212 290.409 224.959 289.776 C 225.706 289.142 226.737 288.750 227.875 288.750 Z " transform="matrix(0.3346586227416992, 0, 0, 0.3346586227416992, -23.35, -6.8)"/>
    <path id="ID0.20625113183632493" fill="#DB796A" stroke="none" d="M 227.875 288.750 C 229.013 288.750 230.044 289.142 230.791 289.776 C 231.538 290.409 232 291.284 232 292.250 C 232 293.216 231.538 294.091 230.791 294.724 C 230.044 295.358 229.013 295.750 227.875 295.750 C 226.737 295.750 225.706 295.358 224.959 294.724 C 224.212 294.091 223.750 293.216 223.750 292.250 C 223.750 291.284 224.212 290.409 224.959 289.776 C 225.706 289.142 226.737 288.750 227.875 288.750 Z " transform="matrix(0.3346586227416992, 0, 0, 0.3346586227416992, -28.6, -6.8)"/>
    <path id="ID0.5622214875184" fill="#FFFFFF" stroke="none" d="M 212.125 280 C 213.884 280 215.478 280.252 216.632 280.659 C 217.786 281.067 218.500 281.629 218.500 282.250 C 218.500 282.871 217.786 283.433 216.632 283.841 C 215.478 284.248 213.884 284.500 212.125 284.500 C 210.366 284.500 208.772 284.248 207.618 283.841 C 206.464 283.433 205.750 282.871 205.750 282.250 C 205.750 281.629 206.464 281.067 207.618 280.659 C 208.772 280.252 210.366 280 212.125 280 Z " transform="matrix(0.3346474766731262, 0.002734285080805421, -0.002734285080805421, 0.3346474766731262, -20, -7.75)"/>
    <g id="ID0.6482343506067991">
      <g id="ID0.9502169326879084">
        <path id="ID0.6267441683448851" fill="#FFE8B8" stroke="#000000" stroke-width="3" stroke-linecap="round" d="M 107.350 121.750 C 117.565 122.328 122.935 136.447 127.940 146.042 C 132.938 155.623 135.181 166.717 136 177.500 C 136.456 183.519 135.139 189.705 131.600 194.250 C 129.232 197.258 124.487 196.260 121.100 197.550 C 116.456 198.859 112.021 200.384 107.500 202.050 C 101.350 204.323 93.713 213.420 89.060 208.958 C 81.266 201.470 81.005 188.661 81 177.500 C 80.994 165.590 83.879 153.632 88.800 142.750 C 92.914 134.500 98.109 121.167 107.350 121.750 Z " transform="matrix(-0.24678105115890503, -0.22604313492774963, -0.22604313492774963, 0.24678105115890503, 147.45, 34.6)"/>
        <path id="ID0.6267441683448851" fill="#8D6B5B" stroke="#000000" stroke-width="3" stroke-linecap="round" d="M 111.650 199.450 C 109.837 198.085 112.751 196.249 112.650 191.900 C 112.244 174.505 111.850 156.950 110.300 139.700 C 109.750 133.800 104.465 127.135 105.650 122.600 C 106.251 120.264 112.230 122.684 114.350 124.650 C 120.066 130.926 124.626 138.263 127.940 146.042 C 132.168 155.992 135.181 166.717 136 177.500 C 136.454 183.485 135.139 189.705 131.600 194.250 C 129.232 197.258 124.649 196.642 121.100 197.550 C 118.005 198.343 114.062 200.910 111.650 199.450 Z " transform="matrix(-0.24678105115890503, -0.22604313492774963, -0.22604313492774963, 0.24678105115890503, 147.2, 34.65)"/>
      </g>
      <path id="ID0.9733388223685324" fill="#D8C19B" stroke="none" stroke-linecap="round" d="M 339 143.050 C 339.329 142.153 339.722 141.231 340.050 140.300 C 340.190 139.661 340.314 139.004 340.400 138.350 C 340.531 137.357 340.443 135.461 340.650 135.350 C 340.918 135.214 341.595 135.639 341.650 137.700 C 341.871 145.943 341.485 154.316 341.350 162.700 C 341.302 170.466 341.621 178.312 341.100 186.200 C 340.546 194.581 340.512 203.455 338.150 211.250 C 337.555 213.193 335.949 207.626 335.600 205.700 C 335.008 202.407 335.251 198.989 335.250 195.650 C 335.243 183.795 335.575 172.015 335.800 160.050 C 335.856 157.059 335.803 155.676 335.950 153.500 C 336.027 152.374 336.002 151.087 336.350 149.950 C 337.091 147.528 338.154 145.361 339 143.050 Z " transform="matrix(0.2407899796962738, 0.23241467773914337, -0.23241467773914337, 0.2407899796962738, 43.15, -70.1)"/>
    </g>
  </g>
  <g id="ID0.784055725671351" transform="matrix(1.0745526552200317, 0, 0, 1.0745526552200317, 5, 148.1)">
    <g id="ID0.6482343506067991">
      <g id="ID0.9502169326879084">
        <path id="ID0.6267441683448851" fill="#FFE8B8" stroke="#000000" stroke-width="3" stroke-linecap="round" d="M 107.350 121.750 C 117.565 122.328 122.935 136.447 127.940 146.042 C 132.938 155.623 135.181 166.717 136 177.500 C 136.456 183.519 135.139 189.705 131.600 194.250 C 129.232 197.258 124.487 196.260 121.100 197.550 C 116.456 198.859 112.021 200.384 107.500 202.050 C 101.350 204.323 93.713 213.420 89.060 208.958 C 81.266 201.470 81.005 188.661 81 177.500 C 80.994 165.590 83.879 153.632 88.800 142.750 C 92.914 134.500 98.109 121.167 107.350 121.750 Z " transform="matrix(0.24678105115890503, -0.22604313492774963, 0.22604313492774963, 0.24678105115890503, -45.55, 33.7)"/>
        <path id="ID0.6267441683448851" fill="#8D6B5B" stroke="#000000" stroke-width="3" stroke-linecap="round" d="M 111.650 199.450 C 109.837 198.085 112.751 196.249 112.650 191.900 C 112.244 174.505 111.850 156.950 110.300 139.700 C 109.750 133.800 104.465 127.135 105.650 122.600 C 106.251 120.264 112.230 122.684 114.350 124.650 C 120.066 130.926 124.626 138.263 127.940 146.042 C 132.168 155.992 135.181 166.717 136 177.500 C 136.454 183.485 135.139 189.705 131.600 194.250 C 129.232 197.258 124.649 196.642 121.100 197.550 C 118.005 198.343 114.062 200.910 111.650 199.450 Z " transform="matrix(0.24678105115890503, -0.22604313492774963, 0.22604313492774963, 0.24678105115890503, -45.35, 33.75)"/>
      </g>
      <path id="ID0.9733388223685324" fill="#D8C19B" stroke="none" stroke-linecap="round" d="M 339 143.050 C 339.329 142.153 339.722 141.231 340.050 140.300 C 340.190 139.661 340.314 139.004 340.400 138.350 C 340.531 137.357 340.443 135.461 340.650 135.350 C 340.918 135.214 341.595 135.639 341.650 137.700 C 341.871 145.943 341.485 154.316 341.350 162.700 C 341.302 170.466 341.621 178.312 341.100 186.200 C 340.546 194.581 340.512 203.455 338.150 211.250 C 337.555 213.193 335.949 207.626 335.600 205.700 C 335.008 202.407 335.251 198.989 335.250 195.650 C 335.243 183.795 335.575 172.015 335.800 160.050 C 335.856 157.059 335.803 155.676 335.950 153.500 C 336.027 152.374 336.002 151.087 336.350 149.950 C 337.091 147.528 338.154 145.361 339 143.050 Z " transform="matrix(-0.2407899796962738, 0.23241467773914337, 0.23241467773914337, 0.2407899796962738, 58.65, -71.1)"/>
    </g>
    <path id="ID0.2908902820199728" fill="#8D6B5B" stroke="#000000" stroke-width="3" stroke-linecap="round" d="M 209.500 172.750 C 229.210 172.781 249.700 182.070 263.700 196.300 C 277.934 210.771 287 230.567 287 252.500 C 287 274.433 277.180 293.577 263.700 308.700 C 249.444 324.700 229.670 342.283 208 342.750 C 186.063 342.283 165.907 324.849 151.300 308.700 C 137.708 293.678 128 274.433 128 252.500 C 128 230.567 136.857 210.563 151.300 196.300 C 166.011 181.775 188.215 172.781 209.500 172.750 Z " transform="matrix(0.3346586227416992, 0, 0, 0.3346586227416992, -19, -13.8)"/>
    <path id="ID0.2908902820199728" fill="#FFE8B8" stroke="#000000" stroke-width="3" stroke-linecap="round" d="M 206 277 C 207.062 275.745 207.728 285.916 211 289 C 215.951 293.624 223.100 295.250 229 298.500 C 234.500 301.900 240.350 304.600 245 309 C 248 311.850 251.500 319 251.500 319 C 251 320 244.154 328.499 238 332 C 228.728 337.168 218.617 341.438 208 342.750 C 200.042 343.690 191.724 340.978 184.500 337.500 C 175.838 333.329 161 320 161 320 C 161 319 163.700 312.200 166.550 309.650 C 171.300 305.350 177.050 302.550 182.550 299.150 C 188.450 295.900 195.865 294.673 200.550 289.650 C 204.113 285.765 204.232 274.732 205.550 274.650 Z " transform="matrix(0.3346586227416992, 0, 0, 0.3346586227416992, -18.5, -14)"/>
    <path id="ID0.5028436067514122" fill="#FF8D7C" stroke="#000000" stroke-width="3" d="M 214 287 C 219.242 287 223.992 288.625 227.431 291.250 C 230.871 293.875 233 297.500 233 301.500 C 233 305.500 230.871 309.125 227.431 311.750 C 223.992 314.375 219.242 316 214 316 C 208.758 316 204.008 314.375 200.569 311.750 C 197.129 309.125 195 305.500 195 301.500 C 195 297.500 197.129 293.875 200.569 291.250 C 204.008 288.625 208.758 287 214 287 Z " transform="matrix(0.3346586227416992, 0, 0, 0.2509939670562744, -21.25, 13.45)"/>
    <path id="ID0.37864481331780553" fill="#000000" stroke="#000000" stroke-width="3" d="M 257.500 245 C 259.983 245 262.233 246.008 263.862 247.638 C 265.492 249.267 266.500 251.517 266.500 254 C 266.500 256.483 265.492 258.733 263.862 260.362 C 262.233 261.992 259.983 263 257.500 263 C 255.017 263 252.767 261.992 251.138 260.362 C 249.508 258.733 248.500 256.483 248.500 254 C 248.500 251.517 249.508 249.267 251.138 247.638 C 252.767 246.008 255.017 245 257.500 245 Z " transform="matrix(0.3346586227416992, 0, 0, 0.3346586227416992, -23.25, -5.7)"/>
    <path id="ID0.37864481331780553" fill="#000000" stroke="#000000" stroke-width="3" d="M 257.500 245 C 259.983 245 262.233 246.008 263.862 247.638 C 265.492 249.267 266.500 251.517 266.500 254 C 266.500 256.483 265.492 258.733 263.862 260.362 C 262.233 261.992 259.983 263 257.500 263 C 255.017 263 252.767 261.992 251.138 260.362 C 249.508 258.733 248.500 256.483 248.500 254 C 248.500 251.517 249.508 249.267 251.138 247.638 C 252.767 246.008 255.017 245 257.500 245 Z " transform="matrix(0.3346586227416992, 0, 0, 0.3346586227416992, -48.15, -5.7)"/>
    <path id="ID0.7236767555586994" fill="none" stroke="#000000" stroke-width="3" stroke-linecap="round" d="M 215.500 303 L 215.500 313 " transform="matrix(0.3346586227416992, 0, 0, 0.3346586227416992, -21.85, -8.3)"/>
    <path id="ID0.483003459405154" fill="#FFF1D3" stroke="#000000" stroke-width="3" stroke-linecap="round" d="M 296 44.550 C 299.501 45.718 301.070 49.946 301.700 53.250 C 303.804 62.062 302.686 71.174 304 80 C 304.339 82.212 302.694 80.339 304.850 78.800 C 313.906 71.552 321.532 61.238 332.200 57.900 C 336.189 56.654 343.018 63.430 340.950 66.900 C 331.905 80.221 311.766 84.713 305 99 C 298.077 113.626 295.471 139.022 302.050 147.500 C 306.405 153.085 317.145 130.570 327.300 126.500 C 330.715 125.159 336.631 131.523 334.650 135.050 C 327.461 148.644 313.722 157.958 304 170 C 301.569 173.011 304.111 172.827 303.100 173.150 C 300.574 174.643 297.524 174.161 294.750 174.750 C 292.411 175.249 289.249 177.909 287.550 176.200 C 285.857 174.535 288.195 171.017 288 168 C 287.283 156.827 293.134 142.307 285.150 134.500 C 269.634 119.405 244.832 119.804 227.250 108.450 C 222.648 105.230 225.165 98.427 228.600 97.350 C 236.005 94.867 245.280 103.934 252 99.150 C 260.547 93.015 257.738 78.170 264.150 69.950 C 265.910 67.723 271.784 70.305 272.150 72.900 C 273.075 83.790 264.245 94.681 267.500 104.950 C 269.577 111.474 280.175 111.205 286.400 114.950 C 287.668 115.835 286.658 122.353 287 117 C 288.369 95.589 287.148 72.202 290.100 50.050 C 290.854 44.575 293.490 43.736 296 44.550 Z " transform="matrix(0.3198777735233307, -0.09835948795080185, 0.09835948795080185, 0.3198777735233307, -74.8, 20.8)"/>
    <path id="ID0.483003459405154" fill="#FFF1D3" stroke="#000000" stroke-width="3" stroke-linecap="round" d="M 296 44.550 C 299.501 45.718 301.070 49.946 301.700 53.250 C 303.804 62.062 302.686 71.174 304 80 C 304.339 82.212 302.694 80.339 304.850 78.800 C 313.906 71.552 321.532 61.238 332.200 57.900 C 336.189 56.654 343.018 63.430 340.950 66.900 C 331.905 80.221 311.766 84.713 305 99 C 298.077 113.626 295.471 139.022 302.050 147.500 C 306.405 153.085 317.145 130.570 327.300 126.500 C 330.715 125.159 336.631 131.523 334.650 135.050 C 327.461 148.644 313.616 157.869 304 170 C 301.596 173.033 305.412 172.417 304.500 173 C 302.772 173.925 300.499 172.897 298.400 173.200 C 294.875 173.708 291.169 176.654 287.850 175.200 C 286.031 174.085 288.335 170.915 288 168 C 286.663 156.350 292.564 141.016 284 133 C 268.438 118.445 244.386 119.728 226.500 109.300 C 222.023 106.691 225.514 101.009 228.500 99.450 C 235.789 96.920 245.981 104.279 252 99.150 C 260.008 92.316 257.738 78.170 264.150 69.950 C 265.910 67.723 271.784 70.305 272.150 72.900 C 273.075 83.790 264.245 94.681 267.500 104.950 C 269.577 111.474 280.175 111.205 286.400 114.950 C 287.668 115.835 286.658 122.353 287 117 C 288.369 95.589 287.148 72.202 290.100 50.050 C 290.854 44.575 293.490 43.736 296 44.550 Z " transform="matrix(-0.3198777735233307, -0.09835948795080185, -0.09835948795080185, 0.3198777735233307, 175.75, 20.8)"/>
    <path id="ID0.6637416258454323" fill="#FF8D7C" stroke="#000000" stroke-width="3" d="M 159 267 C 161.483 267 163.733 267.644 165.362 268.685 C 166.992 269.726 168 271.164 168 272.750 C 168 274.336 166.992 275.774 165.362 276.815 C 163.733 277.856 161.483 278.500 159 278.500 C 156.517 278.500 154.267 277.856 152.638 276.815 C 151.008 275.774 150 274.336 150 272.750 C 150 271.164 151.008 269.726 152.638 268.685 C 154.267 267.644 156.517 267 159 267 Z " transform="matrix(0.3346586227416992, 0, 0, 0.3346586227416992, -21.85, -8.3)"/>
    <path id="ID0.6637416258454323" fill="#FF8D7C" stroke="#000000" stroke-width="3" d="M 159 267 C 161.483 267 163.733 267.644 165.362 268.685 C 166.992 269.726 168 271.164 168 272.750 C 168 274.336 166.992 275.774 165.362 276.815 C 163.733 277.856 161.483 278.500 159 278.500 C 156.517 278.500 154.267 277.856 152.638 276.815 C 151.008 275.774 150 274.336 150 272.750 C 150 271.164 151.008 269.726 152.638 268.685 C 154.267 267.644 156.517 267 159 267 Z " transform="matrix(0.3346586227416992, 0, 0, 0.3346586227416992, 17, -7.8)"/>
    <path id="ID0.20625113183632493" fill="#DB796A" stroke="none" d="M 227.875 288.750 C 229.013 288.750 230.044 289.142 230.791 289.776 C 231.538 290.409 232 291.284 232 292.250 C 232 293.216 231.538 294.091 230.791 294.724 C 230.044 295.358 229.013 295.750 227.875 295.750 C 226.737 295.750 225.706 295.358 224.959 294.724 C 224.212 294.091 223.750 293.216 223.750 292.250 C 223.750 291.284 224.212 290.409 224.959 289.776 C 225.706 289.142 226.737 288.750 227.875 288.750 Z " transform="matrix(0.3346586227416992, 0, 0, 0.3346586227416992, -23.35, -6.8)"/>
    <path id="ID0.20625113183632493" fill="#DB796A" stroke="none" d="M 227.875 288.750 C 229.013 288.750 230.044 289.142 230.791 289.776 C 231.538 290.409 232 291.284 232 292.250 C 232 293.216 231.538 294.091 230.791 294.724 C 230.044 295.358 229.013 295.750 227.875 295.750 C 226.737 295.750 225.706 295.358 224.959 294.724 C 224.212 294.091 223.750 293.216 223.750 292.250 C 223.750 291.284 224.212 290.409 224.959 289.776 C 225.706 289.142 226.737 288.750 227.875 288.750 Z " transform="matrix(0.3346586227416992, 0, 0, 0.3346586227416992, -28.6, -6.8)"/>
    <path id="ID0.5622214875184" fill="#FFFFFF" stroke="none" d="M 212.125 280 C 213.884 280 215.478 280.252 216.632 280.659 C 217.786 281.067 218.500 281.629 218.500 282.250 C 218.500 282.871 217.786 283.433 216.632 283.841 C 215.478 284.248 213.884 284.500 212.125 284.500 C 210.366 284.500 208.772 284.248 207.618 283.841 C 206.464 283.433 205.750 282.871 205.750 282.250 C 205.750 281.629 206.464 281.067 207.618 280.659 C 208.772 280.252 210.366 280 212.125 280 Z " transform="matrix(0.3346474766731262, 0.002734285080805421, -0.002734285080805421, 0.3346474766731262, -20, -7.75)"/>
    <g id="ID0.6482343506067991">
      <g id="ID0.9502169326879084">
        <path id="ID0.6267441683448851" fill="#FFE8B8" stroke="#000000" stroke-width="3" stroke-linecap="round" d="M 107.350 121.750 C 117.565 122.328 122.935 136.447 127.940 146.042 C 132.938 155.623 135.181 166.717 136 177.500 C 136.456 183.519 135.139 189.705 131.600 194.250 C 129.232 197.258 124.487 196.260 121.100 197.550 C 116.456 198.859 112.021 200.384 107.500 202.050 C 101.350 204.323 93.713 213.420 89.060 208.958 C 81.266 201.470 81.005 188.661 81 177.500 C 80.994 165.590 83.879 153.632 88.800 142.750 C 92.914 134.500 98.109 121.167 107.350 121.750 Z " transform="matrix(-0.24678105115890503, -0.22604313492774963, -0.22604313492774963, 0.24678105115890503, 147.45, 34.6)"/>
        <path id="ID0.6267441683448851" fill="#8D6B5B" stroke="#000000" stroke-width="3" stroke-linecap="round" d="M 111.650 199.450 C 109.837 198.085 112.751 196.249 112.650 191.900 C 112.244 174.505 111.850 156.950 110.300 139.700 C 109.750 133.800 104.465 127.135 105.650 122.600 C 106.251 120.264 112.230 122.684 114.350 124.650 C 120.066 130.926 124.626 138.263 127.940 146.042 C 132.168 155.992 135.181 166.717 136 177.500 C 136.454 183.485 135.139 189.705 131.600 194.250 C 129.232 197.258 124.649 196.642 121.100 197.550 C 118.005 198.343 114.062 200.910 111.650 199.450 Z " transform="matrix(-0.24678105115890503, -0.22604313492774963, -0.22604313492774963, 0.24678105115890503, 147.2, 34.65)"/>
      </g>
      <path id="ID0.9733388223685324" fill="#D8C19B" stroke="none" stroke-linecap="round" d="M 339 143.050 C 339.329 142.153 339.722 141.231 340.050 140.300 C 340.190 139.661 340.314 139.004 340.400 138.350 C 340.531 137.357 340.443 135.461 340.650 135.350 C 340.918 135.214 341.595 135.639 341.650 137.700 C 341.871 145.943 341.485 154.316 341.350 162.700 C 341.302 170.466 341.621 178.312 341.100 186.200 C 340.546 194.581 340.512 203.455 338.150 211.250 C 337.555 213.193 335.949 207.626 335.600 205.700 C 335.008 202.407 335.251 198.989 335.250 195.650 C 335.243 183.795 335.575 172.015 335.800 160.050 C 335.856 157.059 335.803 155.676 335.950 153.500 C 336.027 152.374 336.002 151.087 336.350 149.950 C 337.091 147.528 338.154 145.361 339 143.050 Z " transform="matrix(0.2407899796962738, 0.23241467773914337, -0.23241467773914337, 0.2407899796962738, 43.15, -70.1)"/>
    </g>
  </g>
  <g id="ID0.6109018535353243" transform="matrix(1, 0, 0, 1, 0, 7)">
    <path id="ID0.9082861039787531" fill="#7C5447" stroke="none" stroke-linecap="round" d="M 271.750 193.750 C 275.465 193.626 279.632 194.893 282.500 197.400 C 285.697 200.200 288.461 204.312 288.750 208.625 C 289.008 212.491 287.054 217.088 283.768 219.140 C 278.088 222.685 270.845 224.099 264.100 224 C 248.922 223.775 220.494 221.055 219.150 218.600 C 217.435 216.025 243.653 214.074 254.750 208.625 C 258.221 206.914 256.655 200.802 259.732 198.110 C 262.810 195.417 267.495 193.892 271.750 193.750 Z " transform="matrix(0.9660832285881042, 0, 0, 1.039720892906189, 54.95, -129.7)"/>
    <path id="ID0.46941615594550967" fill="#906152" stroke="none" stroke-linecap="round" d="M 268.750 179.650 C 273.965 179.218 275.976 183.107 277.350 186.500 C 279.009 190.598 280.064 196.581 277.050 199.850 C 270.782 206.644 261.678 210.906 252.750 213.350 C 237.612 217.492 222.064 219.503 206.550 219.450 C 200.911 219.431 194.380 217.631 190.500 213.450 C 187.685 210.414 188.250 205.028 189.600 201.150 C 190.801 197.700 194.081 194.690 197.450 193 C 200.374 191.535 202.272 193.037 207.450 192 C 227.885 188.241 247.891 181.379 268.750 179.650 Z " transform="matrix(0.9550021290779114, -0.15702426433563232, 0.1459030956029892, 1.0277951955795288, 28.15, -92.1)"/>
    <path id="ID0.7880381182767451" fill="#7C5447" stroke="none" stroke-linecap="round" d="M 235.250 168.250 C 244.173 167.042 253.298 164.654 262.200 166 C 265.963 166.571 269.644 169.629 270.900 173.050 C 272.002 176.430 271.096 181.625 268.150 183.150 C 258.095 188.476 246.528 190.832 235.250 192.250 C 225.163 193.519 213.902 195.314 204.400 191.400 C 200.722 189.884 202.849 183.130 204 179.250 C 204.808 176.540 207.233 174.412 209.850 173.650 C 217.962 170.636 226.710 169.407 235.250 168.250 Z " transform="matrix(0.9434031844139099, -0.22396591305732727, 0.20810365676879883, 1.0153121948242188, 19.4, -75.55)"/>
    <path id="ID0.2926858449354768" fill="#906152" stroke="none" stroke-linecap="round" d="M 229.500 131.750 C 234.882 131.766 240.609 135.374 245.250 138.750 C 248.763 141.304 251.964 144.918 253.750 149 C 255.038 152.474 256.701 157.654 254 160.250 C 247.133 166.849 237.796 170.693 228.750 173.500 C 223.763 174.911 216.325 176.226 213.250 172.500 C 210.452 169.095 214.835 163.231 216.750 159 C 217.696 156.910 219.714 155.687 221.500 154.400 C 222.569 153.629 223.993 153.462 225.100 152.750 C 225.383 152.576 225.094 152.249 224.950 152 C 224.807 151.322 224.153 150.742 224.250 150 C 224.527 147.913 225.387 145.874 226.250 144 C 227.100 142.156 229.292 140.989 229.750 139 C 230.296 136.649 227.310 131.746 229.500 131.750 Z " transform="matrix(0.9660832285881042, 0, 0, 1.039720892906189, 53.95, -132.55)"/>
    <g id="ID0.651508143171668">
      <path id="ID0.782846862450242" fill="#FFFFFF" stroke="none" d="M 277.625 155.900 C 278.142 155.900 278.611 156.502 278.950 157.475 C 279.290 158.448 279.500 159.792 279.500 161.275 C 279.500 162.758 279.290 164.102 278.950 165.075 C 278.611 166.048 278.142 166.650 277.625 166.650 C 277.108 166.650 276.639 166.048 276.300 165.075 C 275.960 164.102 275.750 162.758 275.750 161.275 C 275.750 159.792 275.960 158.448 276.300 157.475 C 276.639 156.502 277.108 155.900 277.625 155.900 Z " transform="matrix(-0.4315216541290283, 0.32068657875061035, 0.32068657875061035, 0.4315216541290283, 342.5, -126.6)"/>
      <path id="ID0.782846862450242" fill="#FFFFFF" stroke="none" d="M 277.625 155.900 C 278.142 155.900 278.611 156.502 278.950 157.475 C 279.290 158.448 279.500 159.792 279.500 161.275 C 279.500 162.758 279.290 164.102 278.950 165.075 C 278.611 166.048 278.142 166.650 277.625 166.650 C 277.108 166.650 276.639 166.048 276.300 165.075 C 275.960 164.102 275.750 162.758 275.750 161.275 C 275.750 159.792 275.960 158.448 276.300 157.475 C 276.639 156.502 277.108 155.900 277.625 155.900 Z " transform="matrix(0.5101127028465271, 0.16981114447116852, -0.16981114447116852, 0.5101127028465271, 163.3, -97.7)"/>
      <path id="ID0.19843208603560925" fill="#25150D" stroke="none" d="M 247.750 184.400 C 248.302 184.400 248.802 184.624 249.164 184.986 C 249.526 185.348 249.750 185.848 249.750 186.400 C 249.750 186.952 249.526 187.452 249.164 187.814 C 248.802 188.176 248.302 188.400 247.750 188.400 C 247.198 188.400 246.698 188.176 246.336 187.814 C 245.974 187.452 245.750 186.952 245.750 186.400 C 245.750 185.848 245.974 185.348 246.336 184.986 C 246.698 184.624 247.198 184.400 247.750 184.400 Z " transform="matrix(0.5376344323158264, 0, 0, 0.5376344323158264, 143.05, -65.65)"/>
    </g>
    <g id="ID0.651508143171668">
      <path id="ID0.782846862450242" fill="#FFFFFF" stroke="none" d="M 277.625 155.900 C 278.142 155.900 278.611 156.502 278.950 157.475 C 279.290 158.448 279.500 159.792 279.500 161.275 C 279.500 162.758 279.290 164.102 278.950 165.075 C 278.611 166.048 278.142 166.650 277.625 166.650 C 277.108 166.650 276.639 166.048 276.300 165.075 C 275.960 164.102 275.750 162.758 275.750 161.275 C 275.750 159.792 275.960 158.448 276.300 157.475 C 276.639 156.502 277.108 155.900 277.625 155.900 Z " transform="matrix(-0.49822115898132324, 0.2020556777715683, 0.2020556777715683, 0.49822115898132324, 414.35, -79.75)"/>
      <path id="ID0.782846862450242" fill="#FFFFFF" stroke="none" d="M 277.625 155.900 C 278.142 155.900 278.611 156.502 278.950 157.475 C 279.290 158.448 279.500 159.792 279.500 161.275 C 279.500 162.758 279.290 164.102 278.950 165.075 C 278.611 166.048 278.142 166.650 277.625 166.650 C 277.108 166.650 276.639 166.048 276.300 165.075 C 275.960 164.102 275.750 162.758 275.750 161.275 C 275.750 159.792 275.960 158.448 276.300 157.475 C 276.639 156.502 277.108 155.900 277.625 155.900 Z " transform="matrix(0.45112887024879456, 0.2924611568450928, -0.2924611568450928, 0.45112887024879456, 233.7, -96.8)"/>
      <path id="ID0.19843208603560925" fill="#25150D" stroke="none" d="M 247.750 184.400 C 248.302 184.400 248.802 184.624 249.164 184.986 C 249.526 185.348 249.750 185.848 249.750 186.400 C 249.750 186.952 249.526 187.452 249.164 187.814 C 248.802 188.176 248.302 188.400 247.750 188.400 C 247.198 188.400 246.698 188.176 246.336 187.814 C 245.974 187.452 245.750 186.952 245.750 186.400 C 245.750 185.848 245.974 185.348 246.336 184.986 C 246.698 184.624 247.198 184.400 247.750 184.400 Z " transform="matrix(0.5204088687896729, 0.13500146567821503, -0.13500146567821503, 0.5204088687896729, 206, -70.85)"/>
    </g>
    <g id="ID0.651508143171668">
      <path id="ID0.782846862450242" fill="#FFFFFF" stroke="none" d="M 277.625 155.900 C 278.142 155.900 278.611 156.502 278.950 157.475 C 279.290 158.448 279.500 159.792 279.500 161.275 C 279.500 162.758 279.290 164.102 278.950 165.075 C 278.611 166.048 278.142 166.650 277.625 166.650 C 277.108 166.650 276.639 166.048 276.300 165.075 C 275.960 164.102 275.750 162.758 275.750 161.275 C 275.750 159.792 275.960 158.448 276.300 157.475 C 276.639 156.502 277.108 155.900 277.625 155.900 Z " transform="matrix(-0.3339579105377197, 0.42133474349975586, 0.42133474349975586, 0.3339579105377197, 290.45, -92.6)"/>
      <path id="ID0.782846862450242" fill="#FFFFFF" stroke="none" d="M 277.625 155.900 C 278.142 155.900 278.611 156.502 278.950 157.475 C 279.290 158.448 279.500 159.792 279.500 161.275 C 279.500 162.758 279.290 164.102 278.950 165.075 C 278.611 166.048 278.142 166.650 277.625 166.650 C 277.108 166.650 276.639 166.048 276.300 165.075 C 275.960 164.102 275.750 162.758 275.750 161.275 C 275.750 159.792 275.960 158.448 276.300 157.475 C 276.639 156.502 277.108 155.900 277.625 155.900 Z " transform="matrix(0.5366707444190979, 0.032176125794649124, -0.032176125794649124, 0.5366707444190979, 124.85, -18.35)"/>
      <path id="ID0.19843208603560925" fill="#25150D" stroke="none" d="M 247.750 184.400 C 248.302 184.400 248.802 184.624 249.164 184.986 C 249.526 185.348 249.750 185.848 249.750 186.400 C 249.750 186.952 249.526 187.452 249.164 187.814 C 248.802 188.176 248.302 188.400 247.750 188.400 C 247.198 188.400 246.698 188.176 246.336 187.814 C 245.974 187.452 245.750 186.952 245.750 186.400 C 245.750 185.848 245.974 185.348 246.336 184.986 C 246.698 184.624 247.198 184.400 247.750 184.400 Z " transform="matrix(0.519361138343811, -0.1389777511358261, 0.1389777511358261, 0.519361138343811, 113.55, 17.75)"/>
    </g>
  </g>
  <g id="ID0.6420690827071667" transform="matrix(1, 0, 0, 1, -1, 0)">
    <path id="ID0.5460699633695185" fill="none" stroke="#FFFFFF" stroke-width="15" stroke-linecap="round" d="M 250.150 135.450 C 250.150 135.450 248.618 126.773 245.450 124.050 C 242.369 121.287 237.682 118.675 233.750 120.050 C 228.372 121.929 222.260 125.680 221.500 132 C 218.464 157.228 222.650 208.300 222.650 208.300 " transform="matrix(0.756168007850647, -0.6225907206535339, 0.6335321068763733, 0.6944142580032349, -230.8, 83.4)"/>
    <path id="ID0.3231751015409827" fill="#FF6161" stroke="none" stroke-linecap="round" d="M 234.250 189.500 L 248.900 192 L 248.400 201.100 L 233.500 198.250 L 234.250 189.500 Z " transform="matrix(-0.7445704936981201, 0.6350645422935486, 0.6471225619316101, 0.683025062084198, 116.6, -202.95)"/>
    <path id="ID0.3231751015409827" fill="#FF6161" stroke="none" stroke-linecap="round" d="M 234.250 189.500 L 248.900 192 L 248.400 201.100 L 233.500 198.250 L 234.250 189.500 Z " transform="matrix(-0.7743707299232483, 0.6020179390907288, 0.6111488938331604, 0.7123234272003174, 119.25, -212.2)"/>
    <path id="ID0.3231751015409827" fill="#FF6161" stroke="none" stroke-linecap="round" d="M 234.950 188.950 L 249.800 192.050 L 248 200.850 L 233.300 197.300 L 234.950 188.950 Z " transform="matrix(-0.883275032043457, 0.443084716796875, 0.4392927289009094, 0.8206741213798523, 157.3, -217.8)"/>
    <path id="ID0.3231751015409827" fill="#FF6161" stroke="none" stroke-linecap="round" d="M 235.350 191.600 L 235.100 187.100 L 250.850 188.450 L 250.850 190.650 L 250.450 195 L 248.450 199.700 L 234.350 195.500 L 235.350 191.600 Z " transform="matrix(-0.9630959033966064, 0.23230251669883728, 0.2135394811630249, 0.9032528400421143, 212.6, -194.7)"/>
    <path id="ID0.3231751015409827" fill="#FF6161" stroke="none" stroke-linecap="round" d="M 235.500 190.600 L 235.850 188.650 L 235 186.200 L 251.050 188.200 L 251.750 190.900 L 251.350 193.300 L 250 196.450 L 248.400 199.400 L 234.550 191.850 L 235.500 190.600 Z " transform="matrix(-0.4920937716960907, -0.7922678589820862, -0.8549834489822388, 0.4920792281627655, 306.45, 118.7)"/>
    <path id="ID0.3231751015409827" fill="#FF6161" stroke="none" stroke-linecap="round" d="M 233.500 191.050 L 232.700 188.450 L 232.150 185.250 L 248.800 187.650 L 249.550 190.800 L 250.100 194.050 L 250.550 196.900 L 250.550 199.300 L 234.450 192.950 L 233.500 191.050 Z " transform="matrix(0.26273390650749207, -0.9067838191986084, -0.9508541822433472, -0.2181127518415451, 158.75, 280.2)"/>
    <path id="ID0.4151444989256561" fill="#FF6161" stroke="none" stroke-linecap="round" d="M 232.600 205.950 C 232.743 205.704 232.552 206.033 233.550 206.200 C 237.537 206.868 241.601 207.186 245.550 208.100 C 246.524 208.325 245.790 208.734 245.650 209 C 245.170 209.894 244.648 210.884 243.778 211.406 C 242.544 212.145 241.246 212.600 239.625 212.600 C 238.004 212.600 236.701 212.142 235.472 211.406 C 234.576 210.868 234.032 209.870 233.450 209 C 233.143 208.537 232.999 207.983 232.850 207.450 C 232.714 206.962 232.385 206.328 232.600 205.950 Z " transform="matrix(-0.7730860114097595, 0.659386157989502, 0.6471225619316101, 0.683025062084198, 121.95, -208.2)"/>
    <g id="ID0.7335052266716957">
      <path id="ID0.8873068988323212" fill="none" stroke="#345834" stroke-width="6" stroke-linecap="round" d="M 239.100 154.800 C 236.985 152.919 234.411 151.207 231.600 150.800 C 229.044 150.389 226.012 150.820 224 152.500 C 222.420 153.821 222.242 156.458 222.500 158.500 C 222.739 160.363 223.835 162.592 225.600 163.300 C 228.265 164.369 231.664 164.280 234.350 163.150 C 238.293 161.369 240.679 157.046 244.500 155 C 247.450 153.449 250.640 152.214 253.850 152.500 C 256.145 152.707 257.971 154.458 259.350 156.150 C 260.499 157.640 261.458 159.257 261.350 161 C 261.240 162.735 260.347 165.215 258.600 165.650 C 254.853 166.579 250.467 166.380 247.100 164.500 C 243.444 162.472 242.227 157.582 239.100 154.800 Z " transform="matrix(-0.8277674317359924, 0.7060255408287048, 0.7194307446479797, 0.7593449950218201, 125.7, -231.6)"/>
      <path id="ID0.217247330583632" fill="none" stroke="#345834" stroke-width="6" stroke-linecap="round" d="M 230.700 174.900 C 230.700 174.900 234 172.600 235.500 171.300 C 237 170 238.800 168.700 239.700 166.900 C 240.800 164.600 241.300 159.500 241.300 159.500 C 241.350 159.300 241.720 163.671 242.200 165.800 C 242.640 167.752 243.007 169.824 244.100 171.500 C 245.534 173.699 249.600 177.150 249.600 177.150 " transform="matrix(-0.8277674317359924, 0.7060255408287048, 0.7194307446479797, 0.7593449950218201, 125.45, -231.6)"/>
    </g>
  </g>
  <g id="ID0.617521099280566">
    <path id="ID0.5711539704352617" fill="#FFE6CE" stroke="none" stroke-linecap="round" d="M 227 98 C 232.034 97.536 238.339 101.943 239.500 107 C 243.104 122.311 240.763 139.012 241 155 C 241.083 161.291 242.929 167.571 241.500 173.500 C 238.488 183.286 234.937 193.868 228 201 C 224.973 204.106 216.520 204.056 215 200 C 210.730 185.688 213.648 169.933 213.500 155 C 213.344 139.509 211.580 123.423 215 108.500 C 216.187 103.317 221.716 98.489 227 98 Z " transform="matrix(0.4771425724029541, -0.1267290711402893, 0.1267290711402893, 0.4771425724029541, -60.55, 30.3)"/>
    <path id="ID0.5711539704352617" fill="#FFE6CE" stroke="none" stroke-linecap="round" d="M 227 98 C 232.034 97.536 238.339 101.943 239.500 107 C 243.104 122.311 240.763 139.012 241 155 C 241.083 161.291 242.929 167.571 241.500 173.500 C 238.488 183.286 234.937 193.868 228 201 C 224.973 204.106 216.520 204.056 215 200 C 210.730 185.688 213.648 169.933 213.500 155 C 213.344 139.509 211.580 123.423 215 108.500 C 216.187 103.317 221.716 98.489 227 98 Z " transform="matrix(0.5233961343765259, -0.13901402056217194, 0.1267290711402893, 0.4771425724029541, -53.4, 52.65)"/>
    <path id="ID0.5711539704352617" fill="#FFE6CE" stroke="none" stroke-linecap="round" d="M 227 98 C 232.034 97.536 238.339 101.943 239.500 107 C 243.104 122.311 240.763 139.012 241 155 C 241.083 161.291 242.929 167.571 241.500 173.500 C 238.488 183.286 234.937 193.868 228 201 C 224.973 204.106 216.520 204.056 215 200 C 210.730 185.688 213.648 169.933 213.500 155 C 213.344 139.509 211.580 123.423 215 108.500 C 216.187 103.317 221.716 98.489 227 98 Z " transform="matrix(0.4771425724029541, -0.1267290711402893, 0.1267290711402893, 0.4771425724029541, -31.35, 49.3)"/>
    <path id="ID0.5711539704352617" fill="#FFE6CE" stroke="none" stroke-linecap="round" d="M 227 98 C 232.034 97.536 238.339 101.943 239.500 107 C 243.104 122.311 240.763 139.012 241 155 C 241.083 161.291 242.929 167.571 241.500 173.500 C 238.488 183.286 233.669 192.521 228 201 C 224.392 206.393 220.387 212.823 214.300 215.450 C 203.655 220.043 191.871 223.270 180.400 222.300 C 168.381 221.274 156.005 218.239 146.550 211.050 C 126.659 195.925 111.085 175.804 94.900 156.850 C 90.847 152.105 87.905 146.579 87.150 140.650 C 86.415 134.852 86.775 127.869 90.750 123.850 C 95.039 119.200 102.338 117.968 108.550 118.200 C 113.746 118.408 117.710 122.059 121.600 125.050 C 131.837 132.924 138.662 146.152 150.750 150 C 170.756 156.611 195.977 166.489 213.500 155 C 226.455 146.505 211.580 123.423 215 108.500 C 216.187 103.317 221.716 98.489 227 98 Z " transform="matrix(0.40167614817619324, -0.10668518394231796, 0.10168427228927612, 0.3828474283218384, -1.65, 58.5)"/>
    <path id="ID0.914057401008904" fill="#FFE6CE" stroke="none" d="M 233.500 181.500 C 237.638 181.500 241.388 183.405 244.104 186.482 C 246.819 189.560 248.500 193.810 248.500 198.500 C 248.500 203.190 246.819 207.440 244.104 210.518 C 241.388 213.595 237.638 215.500 233.500 215.500 C 229.362 215.500 225.612 213.595 222.896 210.518 C 220.181 207.440 218.500 203.190 218.500 198.500 C 218.500 193.810 220.181 189.560 222.896 186.482 C 225.612 183.405 229.362 181.500 233.500 181.500 Z " transform="matrix(0.4771425724029541, -0.1267290711402893, 0.1267290711402893, 0.4771425724029541, -60.55, 30.3)"/>
  </g>
  <g id="ID0.6895864545367658">
    <path id="ID0.7811849061399698" fill="#BEEA92" stroke="none" d="M 241 63 L 248.500 63 L 248.500 91.500 L 241 91.500 L 241 63 Z " transform="matrix(0.6453072428703308, -0.7639231085777283, 0.7639231085777283, 0.6453072428703308, -113.5, 188)"/>
    <path id="ID0.7811849061399698" fill="#BEEA92" stroke="none" d="M 241 63 L 248.500 63 L 248.500 91.500 L 241 91.500 L 241 63 Z " transform="matrix(-0.780184268951416, -0.6255497932434082, -1.422002911567688, 1.773518681526184, 431.25, 52.75)"/>
  </g>
  <g id="ID0.617521099280566">
    <path id="ID0.5711539704352617" fill="#FFE6CE" stroke="none" stroke-linecap="round" d="M 227 98 C 232.034 97.536 238.339 101.943 239.500 107 C 243.104 122.311 240.763 139.012 241 155 C 241.083 161.291 242.929 167.571 241.500 173.500 C 238.488 183.286 234.937 193.868 228 201 C 224.973 204.106 216.520 204.056 215 200 C 210.730 185.688 213.648 169.933 213.500 155 C 213.344 139.509 211.580 123.423 215 108.500 C 216.187 103.317 221.716 98.489 227 98 Z " transform="matrix(0.4771425724029541, -0.1267290711402893, 0.1267290711402893, 0.4771425724029541, 160.95, 31.1)"/>
    <path id="ID0.5711539704352617" fill="#FFE6CE" stroke="none" stroke-linecap="round" d="M 227 98 C 232.034 97.536 238.339 101.943 239.500 107 C 243.104 122.311 240.763 139.012 241 155 C 241.083 161.291 242.929 167.571 241.500 173.500 C 238.488 183.286 234.937 193.868 228 201 C 224.973 204.106 216.520 204.056 215 200 C 210.730 185.688 213.648 169.933 213.500 155 C 213.344 139.509 211.580 123.423 215 108.500 C 216.187 103.317 221.716 98.489 227 98 Z " transform="matrix(0.5233961343765259, -0.13901402056217194, 0.1267290711402893, 0.4771425724029541, 168.1, 53.45)"/>
    <path id="ID0.5711539704352617" fill="#FFE6CE" stroke="none" stroke-linecap="round" d="M 227 98 C 232.034 97.536 238.339 101.943 239.500 107 C 243.104 122.311 240.763 139.012 241 155 C 241.083 161.291 242.929 167.571 241.500 173.500 C 238.488 183.286 234.937 193.868 228 201 C 224.973 204.106 216.520 204.056 215 200 C 210.730 185.688 213.648 169.933 213.500 155 C 213.344 139.509 211.580 123.423 215 108.500 C 216.187 103.317 221.716 98.489 227 98 Z " transform="matrix(0.4771425724029541, -0.1267290711402893, 0.1267290711402893, 0.4771425724029541, 190.15, 50.1)"/>
    <path id="ID0.5711539704352617" fill="#FFE6CE" stroke="none" stroke-linecap="round" d="M 227 98 C 232.034 97.536 238.339 101.943 239.500 107 C 243.104 122.311 240.763 139.012 241 155 C 241.083 161.291 242.929 167.571 241.500 173.500 C 238.488 183.286 233.669 192.521 228 201 C 224.392 206.393 220.387 212.823 214.300 215.450 C 203.655 220.043 191.871 223.270 180.400 222.300 C 168.381 221.274 156.005 218.239 146.550 211.050 C 126.659 195.925 111.085 175.804 94.900 156.850 C 90.847 152.105 87.905 146.579 87.150 140.650 C 86.415 134.852 86.775 127.869 90.750 123.850 C 95.039 119.200 102.338 117.968 108.550 118.200 C 113.746 118.408 117.710 122.059 121.600 125.050 C 131.837 132.924 138.662 146.152 150.750 150 C 170.756 156.611 195.977 166.489 213.500 155 C 226.455 146.505 211.580 123.423 215 108.500 C 216.187 103.317 221.716 98.489 227 98 Z " transform="matrix(0.40167614817619324, -0.10668518394231796, 0.10168427228927612, 0.3828474283218384, 219.85, 59.3)"/>
    <path id="ID0.914057401008904" fill="#FFE6CE" stroke="none" d="M 233.500 181.500 C 237.638 181.500 241.388 183.405 244.104 186.482 C 246.819 189.560 248.500 193.810 248.500 198.500 C 248.500 203.190 246.819 207.440 244.104 210.518 C 241.388 213.595 237.638 215.500 233.500 215.500 C 229.362 215.500 225.612 213.595 222.896 210.518 C 220.181 207.440 218.500 203.190 218.500 198.500 C 218.500 193.810 220.181 189.560 222.896 186.482 C 225.612 183.405 229.362 181.500 233.500 181.500 Z " transform="matrix(0.4771425724029541, -0.1267290711402893, 0.1267290711402893, 0.4771425724029541, 160.95, 31.1)"/>
  </g>
  <path id="ID0.6457497105002403" fill="#000000" stroke="none" d="M 189 277 L 304 277 L 304 285 L 189 285 L 189 277 Z " transform="matrix(1, 0, 0, 1, 49, -19.95)"/>
  <g id="ID0.354785128030926">
    <path id="ID0.7811849061399698" fill="#FF9A9A" stroke="none" d="M 241 63 L 248.500 63 L 248.500 91.500 L 241 91.500 L 241 63 Z " transform="matrix(-0.780184268951416, -0.6255497932434082, -1.422002911567688, 1.773518681526184, 668.4, 64.85)"/>
    <path id="ID0.7811849061399698" fill="#FF9A9A" stroke="none" d="M 241 63 L 248.500 63 L 248.500 91.500 L 241 91.500 L 241 63 Z " transform="matrix(0.780184268951416, -0.6255497932434082, 1.422002911567688, 1.7735188007354736, 68, 65.35)"/>
  </g>
  <g id="ID0.354785128030926">
    <path id="ID0.7811849061399698" fill="#FF9A9A" stroke="none" d="M 241 63 L 248.500 63 L 248.500 91.500 L 241 91.500 L 241 63 Z " transform="matrix(-0.780184268951416, -0.6255497932434082, -1.422002911567688, 1.773518681526184, 676.05, 237.95)"/>
    <path id="ID0.7811849061399698" fill="#FF9A9A" stroke="none" d="M 241 63 L 248.500 63 L 248.500 91.500 L 241 91.500 L 241 63 Z " transform="matrix(0.780184268951416, -0.6255497932434082, 1.422002911567688, 1.7735188007354736, 75.7, 238.45)"/>
  </g>
  <g id="ID0.617521099280566">
    <path id="ID0.5711539704352617" fill="#FFE6CE" stroke="none" stroke-linecap="round" d="M 227 98 C 232.034 97.536 238.339 101.943 239.500 107 C 243.104 122.311 240.763 139.012 241 155 C 241.083 161.291 242.929 167.571 241.500 173.500 C 238.488 183.286 234.937 193.868 228 201 C 224.973 204.106 216.520 204.056 215 200 C 210.730 185.688 213.648 169.933 213.500 155 C 213.344 139.509 211.580 123.423 215 108.500 C 216.187 103.317 221.716 98.489 227 98 Z " transform="matrix(0.4771425724029541, -0.1267290711402893, 0.1267290711402893, 0.4771425724029541, -36.55, 198.45)"/>
    <path id="ID0.5711539704352617" fill="#FFE6CE" stroke="none" stroke-linecap="round" d="M 227 98 C 232.034 97.536 238.339 101.943 239.500 107 C 243.104 122.311 240.763 139.012 241 155 C 241.083 161.291 242.929 167.571 241.500 173.500 C 238.488 183.286 234.937 193.868 228 201 C 224.973 204.106 216.520 204.056 215 200 C 210.730 185.688 213.648 169.933 213.500 155 C 213.344 139.509 211.580 123.423 215 108.500 C 216.187 103.317 221.716 98.489 227 98 Z " transform="matrix(0.5233961343765259, -0.13901402056217194, 0.1267290711402893, 0.4771425724029541, -29.4, 220.8)"/>
    <path id="ID0.5711539704352617" fill="#FFE6CE" stroke="none" stroke-linecap="round" d="M 227 98 C 232.034 97.536 238.339 101.943 239.500 107 C 243.104 122.311 240.763 139.012 241 155 C 241.083 161.291 242.929 167.571 241.500 173.500 C 238.488 183.286 234.937 193.868 228 201 C 224.973 204.106 216.520 204.056 215 200 C 210.730 185.688 213.648 169.933 213.500 155 C 213.344 139.509 211.580 123.423 215 108.500 C 216.187 103.317 221.716 98.489 227 98 Z " transform="matrix(0.4771425724029541, -0.1267290711402893, 0.1267290711402893, 0.4771425724029541, -7.35, 217.45)"/>
    <path id="ID0.5711539704352617" fill="#FFE6CE" stroke="none" stroke-linecap="round" d="M 227 98 C 232.034 97.536 238.339 101.943 239.500 107 C 243.104 122.311 240.763 139.012 241 155 C 241.083 161.291 242.929 167.571 241.500 173.500 C 238.488 183.286 233.669 192.521 228 201 C 224.392 206.393 220.387 212.823 214.300 215.450 C 203.655 220.043 191.871 223.270 180.400 222.300 C 168.381 221.274 156.005 218.239 146.550 211.050 C 126.659 195.925 111.085 175.804 94.900 156.850 C 90.847 152.105 87.905 146.579 87.150 140.650 C 86.415 134.852 86.775 127.869 90.750 123.850 C 95.039 119.200 102.338 117.968 108.550 118.200 C 113.746 118.408 117.710 122.059 121.600 125.050 C 131.837 132.924 138.662 146.152 150.750 150 C 170.756 156.611 195.977 166.489 213.500 155 C 226.455 146.505 211.580 123.423 215 108.500 C 216.187 103.317 221.716 98.489 227 98 Z " transform="matrix(0.40167614817619324, -0.10668518394231796, 0.10168427228927612, 0.3828474283218384, 22.35, 226.65)"/>
    <path id="ID0.914057401008904" fill="#FFE6CE" stroke="none" d="M 233.500 181.500 C 237.638 181.500 241.388 183.405 244.104 186.482 C 246.819 189.560 248.500 193.810 248.500 198.500 C 248.500 203.190 246.819 207.440 244.104 210.518 C 241.388 213.595 237.638 215.500 233.500 215.500 C 229.362 215.500 225.612 213.595 222.896 210.518 C 220.181 207.440 218.500 203.190 218.500 198.500 C 218.500 193.810 220.181 189.560 222.896 186.482 C 225.612 183.405 229.362 181.500 233.500 181.500 Z " transform="matrix(0.4771425724029541, -0.1267290711402893, 0.1267290711402893, 0.4771425724029541, -36.55, 198.45)"/>
  </g>
  <g id="ID0.6895864545367658">
    <path id="ID0.7811849061399698" fill="#BEEA92" stroke="none" d="M 241 63 L 248.500 63 L 248.500 91.500 L 241 91.500 L 241 63 Z " transform="matrix(0.6453072428703308, -0.7639231085777283, 0.7639231085777283, 0.6453072428703308, -89.5, 356.15)"/>
    <path id="ID0.7811849061399698" fill="#BEEA92" stroke="none" d="M 241 63 L 248.500 63 L 248.500 91.500 L 241 91.500 L 241 63 Z " transform="matrix(-0.780184268951416, -0.6255497932434082, -1.422002911567688, 1.773518681526184, 455.25, 220.9)"/>
  </g>
</svg>