<svg version="1.1" width="98" height="101" viewBox="2 -1 98 101" xmlns="http://www.w3.org/2000/svg" xmlns:xlink="http://www.w3.org/1999/xlink">
  <!-- Exported by Scratch - http://scratch.mit.edu/ -->
  <path id="ID0.9082861039787531" fill="#7C5447" stroke="none" stroke-linecap="round" d="M 271.750 193.750 C 275.465 193.626 279.632 194.893 282.500 197.400 C 285.697 200.200 288.461 204.312 288.750 208.625 C 289.008 212.491 287.054 217.088 283.768 219.140 C 278.088 222.685 270.845 224.099 264.100 224 C 248.922 223.775 220.494 221.055 219.150 218.600 C 217.435 216.025 243.653 214.074 254.750 208.625 C 258.221 206.914 256.655 200.802 259.732 198.110 C 262.810 195.417 267.495 193.892 271.750 193.750 Z " transform="matrix(0.9660832285881042, 0, 0, 1.039720892906189, -178.85, -133.3)"/>
  <path id="ID0.46941615594550967" fill="#906152" stroke="none" stroke-linecap="round" d="M 268.750 179.650 C 273.965 179.218 275.976 183.107 277.350 186.500 C 279.009 190.598 280.064 196.581 277.050 199.850 C 270.782 206.644 261.678 210.906 252.750 213.350 C 237.612 217.492 222.064 219.503 206.550 219.450 C 200.911 219.431 194.380 217.631 190.500 213.450 C 187.685 210.414 188.250 205.028 189.600 201.150 C 190.801 197.700 194.081 194.690 197.450 193 C 200.374 191.535 202.272 193.037 207.450 192 C 227.885 188.241 247.891 181.379 268.750 179.650 Z " transform="matrix(0.9550021290779114, -0.15702426433563232, 0.1459030956029892, 1.0277951955795288, -205.65, -95.7)"/>
  <path id="ID0.7880381182767451" fill="#7C5447" stroke="none" stroke-linecap="round" d="M 235.250 168.250 C 244.173 167.042 253.298 164.654 262.200 166 C 265.963 166.571 269.644 169.629 270.900 173.050 C 272.002 176.430 271.096 181.625 268.150 183.150 C 258.095 188.476 246.528 190.832 235.250 192.250 C 225.163 193.519 213.902 195.314 204.400 191.400 C 200.722 189.884 202.849 183.130 204 179.250 C 204.808 176.540 207.233 174.412 209.850 173.650 C 217.962 170.636 226.710 169.407 235.250 168.250 Z " transform="matrix(0.9434031844139099, -0.22396591305732727, 0.20810365676879883, 1.0153121948242188, -214.4, -79.15)"/>
  <path id="ID0.2926858449354768" fill="#906152" stroke="none" stroke-linecap="round" d="M 229.500 131.750 C 234.882 131.766 240.609 135.374 245.250 138.750 C 248.763 141.304 251.964 144.918 253.750 149 C 255.038 152.474 256.701 157.654 254 160.250 C 247.133 166.849 237.796 170.693 228.750 173.500 C 223.763 174.911 216.325 176.226 213.250 172.500 C 210.452 169.095 214.835 163.231 216.750 159 C 217.696 156.910 219.714 155.687 221.500 154.400 C 222.569 153.629 223.993 153.462 225.100 152.750 C 225.383 152.576 225.094 152.249 224.950 152 C 224.807 151.322 224.153 150.742 224.250 150 C 224.527 147.913 225.387 145.874 226.250 144 C 227.100 142.156 229.292 140.989 229.750 139 C 230.296 136.649 227.310 131.746 229.500 131.750 Z " transform="matrix(0.9660832285881042, 0, 0, 1.039720892906189, -179.85, -136.15)"/>
  <g id="ID0.651508143171668">
    <path id="ID0.782846862450242" fill="#FFFFFF" stroke="none" d="M 277.625 155.900 C 278.142 155.900 278.611 156.502 278.950 157.475 C 279.290 158.448 279.500 159.792 279.500 161.275 C 279.500 162.758 279.290 164.102 278.950 165.075 C 278.611 166.048 278.142 166.650 277.625 166.650 C 277.108 166.650 276.639 166.048 276.300 165.075 C 275.960 164.102 275.750 162.758 275.750 161.275 C 275.750 159.792 275.960 158.448 276.300 157.475 C 276.639 156.502 277.108 155.900 277.625 155.900 Z " transform="matrix(-0.4315216541290283, 0.32068657875061035, 0.32068657875061035, 0.4315216541290283, 108.7, -130.2)"/>
    <path id="ID0.782846862450242" fill="#FFFFFF" stroke="none" d="M 277.625 155.900 C 278.142 155.900 278.611 156.502 278.950 157.475 C 279.290 158.448 279.500 159.792 279.500 161.275 C 279.500 162.758 279.290 164.102 278.950 165.075 C 278.611 166.048 278.142 166.650 277.625 166.650 C 277.108 166.650 276.639 166.048 276.300 165.075 C 275.960 164.102 275.750 162.758 275.750 161.275 C 275.750 159.792 275.960 158.448 276.300 157.475 C 276.639 156.502 277.108 155.900 277.625 155.900 Z " transform="matrix(0.5101127028465271, 0.16981114447116852, -0.16981114447116852, 0.5101127028465271, -70.5, -101.3)"/>
    <path id="ID0.19843208603560925" fill="#25150D" stroke="none" d="M 247.750 184.400 C 248.302 184.400 248.802 184.624 249.164 184.986 C 249.526 185.348 249.750 185.848 249.750 186.400 C 249.750 186.952 249.526 187.452 249.164 187.814 C 248.802 188.176 248.302 188.400 247.750 188.400 C 247.198 188.400 246.698 188.176 246.336 187.814 C 245.974 187.452 245.750 186.952 245.750 186.400 C 245.750 185.848 245.974 185.348 246.336 184.986 C 246.698 184.624 247.198 184.400 247.750 184.400 Z " transform="matrix(0.5376344323158264, 0, 0, 0.5376344323158264, -90.75, -69.25)"/>
  </g>
  <g id="ID0.651508143171668">
    <path id="ID0.782846862450242" fill="#FFFFFF" stroke="none" d="M 277.625 155.900 C 278.142 155.900 278.611 156.502 278.950 157.475 C 279.290 158.448 279.500 159.792 279.500 161.275 C 279.500 162.758 279.290 164.102 278.950 165.075 C 278.611 166.048 278.142 166.650 277.625 166.650 C 277.108 166.650 276.639 166.048 276.300 165.075 C 275.960 164.102 275.750 162.758 275.750 161.275 C 275.750 159.792 275.960 158.448 276.300 157.475 C 276.639 156.502 277.108 155.900 277.625 155.900 Z " transform="matrix(-0.49822115898132324, 0.2020556777715683, 0.2020556777715683, 0.49822115898132324, 180.55, -83.35)"/>
    <path id="ID0.782846862450242" fill="#FFFFFF" stroke="none" d="M 277.625 155.900 C 278.142 155.900 278.611 156.502 278.950 157.475 C 279.290 158.448 279.500 159.792 279.500 161.275 C 279.500 162.758 279.290 164.102 278.950 165.075 C 278.611 166.048 278.142 166.650 277.625 166.650 C 277.108 166.650 276.639 166.048 276.300 165.075 C 275.960 164.102 275.750 162.758 275.750 161.275 C 275.750 159.792 275.960 158.448 276.300 157.475 C 276.639 156.502 277.108 155.900 277.625 155.900 Z " transform="matrix(0.45112887024879456, 0.2924611568450928, -0.2924611568450928, 0.45112887024879456, -0.1, -100.4)"/>
    <path id="ID0.19843208603560925" fill="#25150D" stroke="none" d="M 247.750 184.400 C 248.302 184.400 248.802 184.624 249.164 184.986 C 249.526 185.348 249.750 185.848 249.750 186.400 C 249.750 186.952 249.526 187.452 249.164 187.814 C 248.802 188.176 248.302 188.400 247.750 188.400 C 247.198 188.400 246.698 188.176 246.336 187.814 C 245.974 187.452 245.750 186.952 245.750 186.400 C 245.750 185.848 245.974 185.348 246.336 184.986 C 246.698 184.624 247.198 184.400 247.750 184.400 Z " transform="matrix(0.5204088687896729, 0.13500146567821503, -0.13500146567821503, 0.5204088687896729, -27.8, -74.45)"/>
  </g>
  <g id="ID0.651508143171668">
    <path id="ID0.782846862450242" fill="#FFFFFF" stroke="none" d="M 277.625 155.900 C 278.142 155.900 278.611 156.502 278.950 157.475 C 279.290 158.448 279.500 159.792 279.500 161.275 C 279.500 162.758 279.290 164.102 278.950 165.075 C 278.611 166.048 278.142 166.650 277.625 166.650 C 277.108 166.650 276.639 166.048 276.300 165.075 C 275.960 164.102 275.750 162.758 275.750 161.275 C 275.750 159.792 275.960 158.448 276.300 157.475 C 276.639 156.502 277.108 155.900 277.625 155.900 Z " transform="matrix(-0.3339579105377197, 0.42133474349975586, 0.42133474349975586, 0.3339579105377197, 56.65, -96.2)"/>
    <path id="ID0.782846862450242" fill="#FFFFFF" stroke="none" d="M 277.625 155.900 C 278.142 155.900 278.611 156.502 278.950 157.475 C 279.290 158.448 279.500 159.792 279.500 161.275 C 279.500 162.758 279.290 164.102 278.950 165.075 C 278.611 166.048 278.142 166.650 277.625 166.650 C 277.108 166.650 276.639 166.048 276.300 165.075 C 275.960 164.102 275.750 162.758 275.750 161.275 C 275.750 159.792 275.960 158.448 276.300 157.475 C 276.639 156.502 277.108 155.900 277.625 155.900 Z " transform="matrix(0.5366707444190979, 0.032176125794649124, -0.032176125794649124, 0.5366707444190979, -108.95, -21.95)"/>
    <path id="ID0.19843208603560925" fill="#25150D" stroke="none" d="M 247.750 184.400 C 248.302 184.400 248.802 184.624 249.164 184.986 C 249.526 185.348 249.750 185.848 249.750 186.400 C 249.750 186.952 249.526 187.452 249.164 187.814 C 248.802 188.176 248.302 188.400 247.750 188.400 C 247.198 188.400 246.698 188.176 246.336 187.814 C 245.974 187.452 245.750 186.952 245.750 186.400 C 245.750 185.848 245.974 185.348 246.336 184.986 C 246.698 184.624 247.198 184.400 247.750 184.400 Z " transform="matrix(0.519361138343811, -0.1389777511358261, 0.1389777511358261, 0.519361138343811, -120.25, 14.2)"/>
  </g>
</svg>