<svg version="1.1" width="268" height="288" viewBox="16 13 268 288" xmlns="http://www.w3.org/2000/svg" xmlns:xlink="http://www.w3.org/1999/xlink">
  <!-- Exported by Scratch - http://scratch.mit.edu/ -->
  <g id="ID0.9502169326879084">
    <path id="ID0.6267441683448851" fill="#FFE8B8" stroke="#000000" stroke-width="3" stroke-linecap="round" d="M 107.350 121.750 C 117.565 122.328 122.935 136.447 127.940 146.042 C 132.938 155.623 135.181 166.717 136 177.500 C 136.456 183.519 135.139 189.705 131.600 194.250 C 129.232 197.258 124.487 196.260 121.100 197.550 C 116.456 198.859 112.021 200.384 107.500 202.050 C 101.350 204.323 93.713 213.420 89.060 208.958 C 81.266 201.470 81.005 188.661 81 177.500 C 80.994 165.590 83.879 153.632 88.800 142.750 C 92.914 134.500 98.109 121.167 107.350 121.750 Z " transform="matrix(0.7374113202095032, -0.6754439473152161, 0.6754439473152161, 0.7374113202095032, -137.1, 99.4)"/>
    <path id="ID0.6267441683448851" fill="#8D6B5B" stroke="#000000" stroke-width="3" stroke-linecap="round" d="M 111.650 199.450 C 109.837 198.085 112.751 196.249 112.650 191.900 C 112.244 174.505 111.850 156.950 110.300 139.700 C 109.750 133.800 104.465 127.135 105.650 122.600 C 106.251 120.264 112.230 122.684 114.350 124.650 C 120.066 130.926 124.626 138.263 127.940 146.042 C 132.168 155.992 135.181 166.717 136 177.500 C 136.454 183.485 135.139 189.705 131.600 194.250 C 129.232 197.258 124.649 196.642 121.100 197.550 C 118.005 198.343 114.062 200.910 111.650 199.450 Z " transform="matrix(0.7374113202095032, -0.6754439473152161, 0.6754439473152161, 0.7374113202095032, -136.4, 99.55)"/>
  </g>
  <path id="ID0.2908902820199728" fill="#8D6B5B" stroke="#000000" stroke-width="3" stroke-linecap="round" d="M 209.500 172.750 C 229.210 172.781 249.700 182.070 263.700 196.300 C 277.934 210.771 287 230.567 287 252.500 C 287 274.433 277.180 293.577 263.700 308.700 C 249.444 324.700 229.670 342.283 208 342.750 C 186.063 342.283 165.907 324.849 151.300 308.700 C 137.708 293.678 128 274.433 128 252.500 C 128 230.567 136.857 210.563 151.300 196.300 C 166.011 181.775 188.215 172.781 209.500 172.750 Z " transform="matrix(1, 0, 0, 1, -58.5, -43.75)"/>
  <path id="ID0.2908902820199728" fill="#FFE8B8" stroke="#000000" stroke-width="3" stroke-linecap="round" d="M 206 277 C 207.062 275.745 207.728 285.916 211 289 C 215.951 293.624 223.100 295.250 229 298.500 C 234.500 301.900 240.350 304.600 245 309 C 248 311.850 251.500 319 251.500 319 C 251 320 244.154 328.499 238 332 C 228.728 337.168 218.617 341.438 208 342.750 C 200.042 343.690 191.724 340.978 184.500 337.500 C 175.838 333.329 161 320 161 320 C 161 319 163.700 312.200 166.550 309.650 C 171.300 305.350 177.050 302.550 182.550 299.150 C 188.450 295.900 195.865 294.673 200.550 289.650 C 204.113 285.765 204.232 274.732 205.550 274.650 Z " transform="matrix(1, 0, 0, 1, -57, -44)"/>
  <path id="ID0.5028436067514122" fill="#FF8D7C" stroke="#000000" stroke-width="3" d="M 214 287 C 219.242 287 223.992 288.625 227.431 291.250 C 230.871 293.875 233 297.500 233 301.500 C 233 305.500 230.871 309.125 227.431 311.750 C 223.992 314.375 219.242 316 214 316 C 208.758 316 204.008 314.375 200.569 311.750 C 197.129 309.125 195 305.500 195 301.500 C 195 297.500 197.129 293.875 200.569 291.250 C 204.008 288.625 208.758 287 214 287 Z " transform="matrix(1, 0, 0, 0.75, -65, 38.55)"/>
  <path id="ID0.37864481331780553" fill="#000000" stroke="#000000" stroke-width="3" d="M 257.500 245 C 259.983 245 262.233 246.008 263.862 247.638 C 265.492 249.267 266.500 251.517 266.500 254 C 266.500 256.483 265.492 258.733 263.862 260.362 C 262.233 261.992 259.983 263 257.500 263 C 255.017 263 252.767 261.992 251.138 260.362 C 249.508 258.733 248.500 256.483 248.500 254 C 248.500 251.517 249.508 249.267 251.138 247.638 C 252.767 246.008 255.017 245 257.500 245 Z " transform="matrix(1, 0, 0, 1, -71, -19.5)"/>
  <path id="ID0.37864481331780553" fill="#000000" stroke="#000000" stroke-width="3" d="M 257.500 245 C 259.983 245 262.233 246.008 263.862 247.638 C 265.492 249.267 266.500 251.517 266.500 254 C 266.500 256.483 265.492 258.733 263.862 260.362 C 262.233 261.992 259.983 263 257.500 263 C 255.017 263 252.767 261.992 251.138 260.362 C 249.508 258.733 248.500 256.483 248.500 254 C 248.500 251.517 249.508 249.267 251.138 247.638 C 252.767 246.008 255.017 245 257.500 245 Z " transform="matrix(1, 0, 0, 1, -145.5, -19.5)"/>
  <path id="ID0.7236767555586994" fill="none" stroke="#000000" stroke-width="3" stroke-linecap="round" d="M 215.500 303 L 215.500 313 " transform="matrix(1, 0, 0, 1, -67, -27)"/>
  <path id="ID0.483003459405154" fill="#FFF1D3" stroke="#000000" stroke-width="3" stroke-linecap="round" d="M 296 44.550 C 299.501 45.718 301.070 49.946 301.700 53.250 C 303.804 62.062 302.686 71.174 304 80 C 304.339 82.212 302.694 80.339 304.850 78.800 C 313.906 71.552 321.532 61.238 332.200 57.900 C 336.189 56.654 343.018 63.430 340.950 66.900 C 331.905 80.221 311.766 84.713 305 99 C 298.077 113.626 295.471 139.022 302.050 147.500 C 306.405 153.085 317.145 130.570 327.300 126.500 C 330.715 125.159 336.631 131.523 334.650 135.050 C 327.461 148.644 313.722 157.958 304 170 C 301.569 173.011 304.111 172.827 303.100 173.150 C 300.574 174.643 297.524 174.161 294.750 174.750 C 292.411 175.249 289.249 177.909 287.550 176.200 C 285.857 174.535 288.195 171.017 288 168 C 287.283 156.827 293.134 142.307 285.150 134.500 C 269.634 119.405 244.832 119.804 227.250 108.450 C 222.648 105.230 225.165 98.427 228.600 97.350 C 236.005 94.867 245.280 103.934 252 99.150 C 260.547 93.015 257.738 78.170 264.150 69.950 C 265.910 67.723 271.784 70.305 272.150 72.900 C 273.075 83.790 264.245 94.681 267.500 104.950 C 269.577 111.474 280.175 111.205 286.400 114.950 C 287.668 115.835 286.658 122.353 287 117 C 288.369 95.589 287.148 72.202 290.100 50.050 C 290.854 44.575 293.490 43.736 296 44.550 Z " transform="matrix(0.9558331370353699, -0.2939099371433258, 0.2939099371433258, 0.9558331370353699, -226.1, 60.1)"/>
  <path id="ID0.483003459405154" fill="#FFF1D3" stroke="#000000" stroke-width="3" stroke-linecap="round" d="M 296 44.550 C 299.501 45.718 301.070 49.946 301.700 53.250 C 303.804 62.062 302.686 71.174 304 80 C 304.339 82.212 302.694 80.339 304.850 78.800 C 313.906 71.552 321.532 61.238 332.200 57.900 C 336.189 56.654 343.018 63.430 340.950 66.900 C 331.905 80.221 311.766 84.713 305 99 C 298.077 113.626 295.471 139.022 302.050 147.500 C 306.405 153.085 317.145 130.570 327.300 126.500 C 330.715 125.159 336.631 131.523 334.650 135.050 C 327.461 148.644 313.321 157.642 304 170 C 301.675 173.096 306.688 172.595 305.850 172.900 C 303.888 174.198 300.863 172.894 298.400 173.200 C 295.177 173.602 291.169 176.654 287.850 175.200 C 286.031 174.085 288.335 170.915 288 168 C 286.663 156.350 292.564 141.016 284 133 C 268.438 118.445 244.386 119.728 226.500 109.300 C 222.023 106.691 225.514 101.009 228.500 99.450 C 235.789 96.920 245.981 104.279 252 99.150 C 260.008 92.316 257.738 78.170 264.150 69.950 C 265.910 67.723 271.784 70.305 272.150 72.900 C 273.075 83.790 264.245 94.681 267.500 104.950 C 269.577 111.474 280.175 111.205 286.400 114.950 C 287.668 115.835 286.658 122.353 287 117 C 288.369 95.589 287.148 72.202 290.100 50.050 C 290.854 44.575 293.490 43.736 296 44.550 Z " transform="matrix(-0.9558331370353699, -0.2939099371433258, -0.2939099371433258, 0.9558331370353699, 523.65, 60.15)"/>
  <path id="ID0.6637416258454323" fill="#FF8D7C" stroke="#000000" stroke-width="3" d="M 159 267 C 161.483 267 163.733 267.644 165.362 268.685 C 166.992 269.726 168 271.164 168 272.750 C 168 274.336 166.992 275.774 165.362 276.815 C 163.733 277.856 161.483 278.500 159 278.500 C 156.517 278.500 154.267 277.856 152.638 276.815 C 151.008 275.774 150 274.336 150 272.750 C 150 271.164 151.008 269.726 152.638 268.685 C 154.267 267.644 156.517 267 159 267 Z " transform="matrix(1, 0, 0, 1, -67, -27)"/>
  <path id="ID0.6637416258454323" fill="#FF8D7C" stroke="#000000" stroke-width="3" d="M 159 267 C 161.483 267 163.733 267.644 165.362 268.685 C 166.992 269.726 168 271.164 168 272.750 C 168 274.336 166.992 275.774 165.362 276.815 C 163.733 277.856 161.483 278.500 159 278.500 C 156.517 278.500 154.267 277.856 152.638 276.815 C 151.008 275.774 150 274.336 150 272.750 C 150 271.164 151.008 269.726 152.638 268.685 C 154.267 267.644 156.517 267 159 267 Z " transform="matrix(1, 0, 0, 1, 49.5, -25.75)"/>
  <g id="ID0.9502169326879084">
    <path id="ID0.6267441683448851" fill="#FFE8B8" stroke="#000000" stroke-width="3" stroke-linecap="round" d="M 107.350 121.750 C 117.565 122.328 122.935 136.447 127.940 146.042 C 132.938 155.623 135.181 166.717 136 177.500 C 136.456 183.519 135.139 189.705 131.600 194.250 C 129.232 197.258 124.487 196.260 121.100 197.550 C 116.456 198.859 112.021 200.384 107.500 202.050 C 101.350 204.323 93.713 213.420 89.060 208.958 C 81.266 201.470 81.005 188.661 81 177.500 C 80.994 165.590 83.879 153.632 88.800 142.750 C 92.914 134.500 98.109 121.167 107.350 121.750 Z " transform="matrix(-0.7374113202095032, -0.6754439473152161, -0.6754439473152161, 0.7374113202095032, 438.75, 100.65)"/>
    <path id="ID0.6267441683448851" fill="#8D6B5B" stroke="#000000" stroke-width="3" stroke-linecap="round" d="M 111.650 199.450 C 109.837 198.085 112.751 196.249 112.650 191.900 C 112.244 174.505 111.850 156.950 110.300 139.700 C 109.750 133.800 104.465 127.135 105.650 122.600 C 106.251 120.264 112.230 122.684 114.350 124.650 C 120.066 130.926 124.626 138.263 127.940 146.042 C 132.168 155.992 135.181 166.717 136 177.500 C 136.454 183.485 135.139 189.705 131.600 194.250 C 129.232 197.258 124.649 196.642 121.100 197.550 C 118.005 198.343 114.062 200.910 111.650 199.450 Z " transform="matrix(-0.7374113202095032, -0.6754439473152161, -0.6754439473152161, 0.7374113202095032, 438.05, 100.8)"/>
  </g>
</svg>